M48
; DRILL file {KiCad 7.0.8} date Tue Oct 31 13:57:46 2023
; FORMAT={-:-/ absolute / metric / decimal}
; #@! TF.CreationDate,2023-10-31T13:57:46-04:00
; #@! TF.GenerationSoftware,Kicad,Pcbnew,7.0.8
; #@! TF.FileFunction,Plated,1,2,PTH
FMAT,2
METRIC
; #@! TA.AperFunction,Plated,PTH,ViaDrill
T1C0.400
; #@! TA.AperFunction,Plated,PTH,ComponentDrill
T2C0.750
; #@! TA.AperFunction,Plated,PTH,ComponentDrill
T3C0.900
; #@! TA.AperFunction,Plated,PTH,ComponentDrill
T4C0.990
; #@! TA.AperFunction,Plated,PTH,ComponentDrill
T5C1.092
; #@! TA.AperFunction,Plated,PTH,ComponentDrill
T6C1.470
; #@! TA.AperFunction,Plated,PTH,ComponentDrill
T7C1.500
; #@! TA.AperFunction,Plated,PTH,ComponentDrill
T8C2.200
%
G90
G05
T1
X19.803Y-54.232
X25.119Y-44.28
X25.119Y-78.28
X25.119Y-61.27
X42.813Y-54.442
X43.119Y-49.239
X43.119Y-66.269
X43.119Y-32.27
X47.783Y-52.162
X49.14Y-52.16
X52.073Y-48.172
X59.505Y-53.39
X61.119Y-42.39
X61.121Y-59.406
X61.123Y-25.272
X78.152Y-59.373
X79.118Y-30.768
X79.119Y-44.366
X79.119Y-47.72
X79.119Y-64.74
X84.21Y-50.67
X87.33Y-86.75
X92.453Y-41.342
X96.569Y-87.494
X97.088Y-67.279
X97.098Y-50.258
X97.118Y-33.269
X102.133Y-57.672
X102.18Y-53.38
X103.583Y-59.662
X103.653Y-54.532
X104.753Y-59.552
X105.794Y-94.044
X107.253Y-23.482
X108.07Y-60.48
X108.093Y-24.362
X108.543Y-54.532
X108.883Y-25.202
X109.583Y-54.052
X109.693Y-26.042
X110.483Y-26.882
X111.78Y-58.33
X111.98Y-56.83
X113.25Y-58.22
X113.94Y-29.97
X114.09Y-60.51
X114.87Y-40.05
X115.89Y-58.22
X116.01Y-42.66
X116.303Y-71.642
X116.932Y-37.592
X117.79Y-29.97
X118.113Y-25.972
X120.84Y-68.16
X121.68Y-69.09
T2
X114.733Y-73.312
X114.733Y-75.312
X114.733Y-77.312
T3
X120.59Y-73.57
X120.59Y-75.57
X120.59Y-77.57
T4
X72.952Y-15.868
X77.952Y-15.868
T5
X105.757Y-29.972
X105.757Y-32.512
X105.757Y-35.052
X105.757Y-37.592
X105.757Y-40.132
X105.757Y-42.672
X105.757Y-45.212
X105.757Y-47.752
X105.757Y-50.292
X105.757Y-52.832
X105.757Y-55.372
X105.757Y-57.912
X108.073Y-65.902
X108.297Y-52.832
X110.613Y-65.902
X110.837Y-52.832
X113.153Y-65.902
X113.377Y-52.832
X115.693Y-65.902
X118.233Y-65.902
X120.997Y-29.972
X120.997Y-32.512
X120.997Y-35.052
X120.997Y-37.592
X120.997Y-40.132
X120.997Y-42.672
X120.997Y-45.212
X120.997Y-47.752
X120.997Y-50.292
X120.997Y-52.832
X120.997Y-55.372
X120.997Y-57.912
T6
X17.627Y-37.505
X17.627Y-54.505
X17.627Y-71.505
X22.627Y-35.405
X22.627Y-52.405
X22.627Y-69.405
X27.627Y-37.505
X27.627Y-54.505
X27.627Y-71.505
X35.627Y-59.497
X35.627Y-25.505
X35.627Y-42.479
X40.627Y-57.397
X40.627Y-23.405
X40.627Y-40.379
X45.627Y-59.497
X45.627Y-25.505
X45.627Y-42.479
X53.627Y-52.639
X53.627Y-18.505
X53.627Y-35.621
X58.627Y-50.539
X58.627Y-16.405
X58.627Y-33.521
X63.627Y-52.639
X63.627Y-18.505
X63.627Y-35.621
X71.627Y-24.005
X71.627Y-57.973
X71.627Y-40.955
X76.627Y-21.905
X76.627Y-55.873
X76.627Y-38.855
X81.627Y-24.005
X81.627Y-57.973
X81.627Y-40.955
X82.49Y-77.29
X87.864Y-76.556
X89.601Y-60.513
X89.607Y-43.495
X89.627Y-26.505
X92.15Y-79.879
X94.601Y-58.413
X94.607Y-41.395
X94.627Y-24.405
X99.601Y-60.513
X99.607Y-43.495
X99.627Y-26.505
X102.466Y-84.214
X107.847Y-84.895
X111.127Y-89.214
T7
X120.59Y-71.47
X120.59Y-79.67
T8
X49.077Y-38.205
X68.127Y-19.155
X68.127Y-57.255
X87.177Y-38.205
T0
M30
