%TF.GenerationSoftware,KiCad,Pcbnew,7.0.8*%
%TF.CreationDate,2023-10-31T13:57:00-04:00*%
%TF.ProjectId,half-swept,68616c66-2d73-4776-9570-742e6b696361,rev?*%
%TF.SameCoordinates,Original*%
%TF.FileFunction,Legend,Bot*%
%TF.FilePolarity,Positive*%
%FSLAX46Y46*%
G04 Gerber Fmt 4.6, Leading zero omitted, Abs format (unit mm)*
G04 Created by KiCad (PCBNEW 7.0.8) date 2023-10-31 13:57:00*
%MOMM*%
%LPD*%
G01*
G04 APERTURE LIST*
G04 Aperture macros list*
%AMRoundRect*
0 Rectangle with rounded corners*
0 $1 Rounding radius*
0 $2 $3 $4 $5 $6 $7 $8 $9 X,Y pos of 4 corners*
0 Add a 4 corners polygon primitive as box body*
4,1,4,$2,$3,$4,$5,$6,$7,$8,$9,$2,$3,0*
0 Add four circle primitives for the rounded corners*
1,1,$1+$1,$2,$3*
1,1,$1+$1,$4,$5*
1,1,$1+$1,$6,$7*
1,1,$1+$1,$8,$9*
0 Add four rect primitives between the rounded corners*
20,1,$1+$1,$2,$3,$4,$5,0*
20,1,$1+$1,$4,$5,$6,$7,0*
20,1,$1+$1,$6,$7,$8,$9,0*
20,1,$1+$1,$8,$9,$2,$3,0*%
%AMRotRect*
0 Rectangle, with rotation*
0 The origin of the aperture is its center*
0 $1 length*
0 $2 width*
0 $3 Rotation angle, in degrees counterclockwise*
0 Add horizontal line*
21,1,$1,$2,0,0,$3*%
%AMFreePoly0*
4,1,6,1.000000,0.000000,0.500000,-0.750000,-0.500000,-0.750000,-0.500000,0.750000,0.500000,0.750000,1.000000,0.000000,1.000000,0.000000,$1*%
%AMFreePoly1*
4,1,6,0.500000,-0.750000,-0.650000,-0.750000,-0.150000,0.000000,-0.650000,0.750000,0.500000,0.750000,0.500000,-0.750000,0.500000,-0.750000,$1*%
G04 Aperture macros list end*
%ADD10C,0.150000*%
%ADD11C,0.100000*%
%ADD12C,0.200000*%
%ADD13C,0.010000*%
%ADD14C,0.381000*%
%ADD15C,0.120000*%
%ADD16C,0.040000*%
%ADD17C,1.752600*%
%ADD18C,1.701800*%
%ADD19C,3.000000*%
%ADD20C,3.429000*%
%ADD21RotRect,2.600000X2.600000X165.000000*%
%ADD22C,2.232000*%
%ADD23C,1.200000*%
%ADD24C,1.750000*%
%ADD25R,2.600000X2.600000*%
%ADD26RotRect,2.600000X2.600000X150.000000*%
%ADD27C,4.400000*%
%ADD28RoundRect,0.250000X-0.625000X0.350000X-0.625000X-0.350000X0.625000X-0.350000X0.625000X0.350000X0*%
%ADD29O,1.750000X1.200000*%
%ADD30FreePoly0,90.000000*%
%ADD31FreePoly1,90.000000*%
%ADD32O,3.500000X2.200000*%
%ADD33R,2.500000X1.500000*%
%ADD34O,2.500000X1.500000*%
G04 APERTURE END LIST*
D10*
X85678092Y-91703747D02*
X85527778Y-91712769D01*
X85527778Y-91712769D02*
X85297796Y-91651145D01*
X85297796Y-91651145D02*
X85218127Y-91580500D01*
X85218127Y-91580500D02*
X85184456Y-91522178D01*
X85184456Y-91522178D02*
X85163109Y-91417861D01*
X85163109Y-91417861D02*
X85187758Y-91325868D01*
X85187758Y-91325868D02*
X85258404Y-91246200D01*
X85258404Y-91246200D02*
X85316725Y-91212528D01*
X85316725Y-91212528D02*
X85421043Y-91191181D01*
X85421043Y-91191181D02*
X85617353Y-91194483D01*
X85617353Y-91194483D02*
X85721671Y-91173136D01*
X85721671Y-91173136D02*
X85779992Y-91139464D01*
X85779992Y-91139464D02*
X85850638Y-91059796D01*
X85850638Y-91059796D02*
X85875288Y-90967803D01*
X85875288Y-90967803D02*
X85853941Y-90863486D01*
X85853941Y-90863486D02*
X85820269Y-90805164D01*
X85820269Y-90805164D02*
X85740601Y-90734518D01*
X85740601Y-90734518D02*
X85510618Y-90672895D01*
X85510618Y-90672895D02*
X85360304Y-90681917D01*
X85050654Y-90549648D02*
X84561852Y-91453950D01*
X84561852Y-91453950D02*
X84562737Y-90714704D01*
X84562737Y-90714704D02*
X84193880Y-91355352D01*
X84193880Y-91355352D02*
X84222717Y-90327803D01*
X83876093Y-90333523D02*
X83842421Y-90275202D01*
X83842421Y-90275202D02*
X83762753Y-90204556D01*
X83762753Y-90204556D02*
X83532770Y-90142932D01*
X83532770Y-90142932D02*
X83428453Y-90164279D01*
X83428453Y-90164279D02*
X83370131Y-90197951D01*
X83370131Y-90197951D02*
X83299486Y-90277619D01*
X83299486Y-90277619D02*
X83274836Y-90369612D01*
X83274836Y-90369612D02*
X83283858Y-90519926D01*
X83283858Y-90519926D02*
X83687919Y-91219780D01*
X83687919Y-91219780D02*
X83089965Y-91059559D01*
X82170036Y-90813065D02*
X82721994Y-90960961D01*
X82446015Y-90887013D02*
X82704834Y-89921087D01*
X82704834Y-89921087D02*
X82759853Y-90083726D01*
X82759853Y-90083726D02*
X82827196Y-90200368D01*
X82827196Y-90200368D02*
X82906864Y-90271014D01*
X23960197Y-50602202D02*
X23817340Y-50649821D01*
X23817340Y-50649821D02*
X23579245Y-50649821D01*
X23579245Y-50649821D02*
X23484007Y-50602202D01*
X23484007Y-50602202D02*
X23436388Y-50554582D01*
X23436388Y-50554582D02*
X23388769Y-50459344D01*
X23388769Y-50459344D02*
X23388769Y-50364106D01*
X23388769Y-50364106D02*
X23436388Y-50268868D01*
X23436388Y-50268868D02*
X23484007Y-50221249D01*
X23484007Y-50221249D02*
X23579245Y-50173630D01*
X23579245Y-50173630D02*
X23769721Y-50126011D01*
X23769721Y-50126011D02*
X23864959Y-50078392D01*
X23864959Y-50078392D02*
X23912578Y-50030773D01*
X23912578Y-50030773D02*
X23960197Y-49935535D01*
X23960197Y-49935535D02*
X23960197Y-49840297D01*
X23960197Y-49840297D02*
X23912578Y-49745059D01*
X23912578Y-49745059D02*
X23864959Y-49697440D01*
X23864959Y-49697440D02*
X23769721Y-49649821D01*
X23769721Y-49649821D02*
X23531626Y-49649821D01*
X23531626Y-49649821D02*
X23388769Y-49697440D01*
X23055435Y-49649821D02*
X22817340Y-50649821D01*
X22817340Y-50649821D02*
X22626864Y-49935535D01*
X22626864Y-49935535D02*
X22436388Y-50649821D01*
X22436388Y-50649821D02*
X22198293Y-49649821D01*
X21864959Y-49745059D02*
X21817340Y-49697440D01*
X21817340Y-49697440D02*
X21722102Y-49649821D01*
X21722102Y-49649821D02*
X21484007Y-49649821D01*
X21484007Y-49649821D02*
X21388769Y-49697440D01*
X21388769Y-49697440D02*
X21341150Y-49745059D01*
X21341150Y-49745059D02*
X21293531Y-49840297D01*
X21293531Y-49840297D02*
X21293531Y-49935535D01*
X21293531Y-49935535D02*
X21341150Y-50078392D01*
X21341150Y-50078392D02*
X21912578Y-50649821D01*
X21912578Y-50649821D02*
X21293531Y-50649821D01*
X41960199Y-38602202D02*
X41817342Y-38649821D01*
X41817342Y-38649821D02*
X41579247Y-38649821D01*
X41579247Y-38649821D02*
X41484009Y-38602202D01*
X41484009Y-38602202D02*
X41436390Y-38554582D01*
X41436390Y-38554582D02*
X41388771Y-38459344D01*
X41388771Y-38459344D02*
X41388771Y-38364106D01*
X41388771Y-38364106D02*
X41436390Y-38268868D01*
X41436390Y-38268868D02*
X41484009Y-38221249D01*
X41484009Y-38221249D02*
X41579247Y-38173630D01*
X41579247Y-38173630D02*
X41769723Y-38126011D01*
X41769723Y-38126011D02*
X41864961Y-38078392D01*
X41864961Y-38078392D02*
X41912580Y-38030773D01*
X41912580Y-38030773D02*
X41960199Y-37935535D01*
X41960199Y-37935535D02*
X41960199Y-37840297D01*
X41960199Y-37840297D02*
X41912580Y-37745059D01*
X41912580Y-37745059D02*
X41864961Y-37697440D01*
X41864961Y-37697440D02*
X41769723Y-37649821D01*
X41769723Y-37649821D02*
X41531628Y-37649821D01*
X41531628Y-37649821D02*
X41388771Y-37697440D01*
X41055437Y-37649821D02*
X40817342Y-38649821D01*
X40817342Y-38649821D02*
X40626866Y-37935535D01*
X40626866Y-37935535D02*
X40436390Y-38649821D01*
X40436390Y-38649821D02*
X40198295Y-37649821D01*
X39912580Y-37649821D02*
X39293533Y-37649821D01*
X39293533Y-37649821D02*
X39626866Y-38030773D01*
X39626866Y-38030773D02*
X39484009Y-38030773D01*
X39484009Y-38030773D02*
X39388771Y-38078392D01*
X39388771Y-38078392D02*
X39341152Y-38126011D01*
X39341152Y-38126011D02*
X39293533Y-38221249D01*
X39293533Y-38221249D02*
X39293533Y-38459344D01*
X39293533Y-38459344D02*
X39341152Y-38554582D01*
X39341152Y-38554582D02*
X39388771Y-38602202D01*
X39388771Y-38602202D02*
X39484009Y-38649821D01*
X39484009Y-38649821D02*
X39769723Y-38649821D01*
X39769723Y-38649821D02*
X39864961Y-38602202D01*
X39864961Y-38602202D02*
X39912580Y-38554582D01*
X59960196Y-31602202D02*
X59817339Y-31649821D01*
X59817339Y-31649821D02*
X59579244Y-31649821D01*
X59579244Y-31649821D02*
X59484006Y-31602202D01*
X59484006Y-31602202D02*
X59436387Y-31554582D01*
X59436387Y-31554582D02*
X59388768Y-31459344D01*
X59388768Y-31459344D02*
X59388768Y-31364106D01*
X59388768Y-31364106D02*
X59436387Y-31268868D01*
X59436387Y-31268868D02*
X59484006Y-31221249D01*
X59484006Y-31221249D02*
X59579244Y-31173630D01*
X59579244Y-31173630D02*
X59769720Y-31126011D01*
X59769720Y-31126011D02*
X59864958Y-31078392D01*
X59864958Y-31078392D02*
X59912577Y-31030773D01*
X59912577Y-31030773D02*
X59960196Y-30935535D01*
X59960196Y-30935535D02*
X59960196Y-30840297D01*
X59960196Y-30840297D02*
X59912577Y-30745059D01*
X59912577Y-30745059D02*
X59864958Y-30697440D01*
X59864958Y-30697440D02*
X59769720Y-30649821D01*
X59769720Y-30649821D02*
X59531625Y-30649821D01*
X59531625Y-30649821D02*
X59388768Y-30697440D01*
X59055434Y-30649821D02*
X58817339Y-31649821D01*
X58817339Y-31649821D02*
X58626863Y-30935535D01*
X58626863Y-30935535D02*
X58436387Y-31649821D01*
X58436387Y-31649821D02*
X58198292Y-30649821D01*
X57388768Y-30983154D02*
X57388768Y-31649821D01*
X57626863Y-30602202D02*
X57864958Y-31316487D01*
X57864958Y-31316487D02*
X57245911Y-31316487D01*
X77960197Y-37102203D02*
X77817340Y-37149822D01*
X77817340Y-37149822D02*
X77579245Y-37149822D01*
X77579245Y-37149822D02*
X77484007Y-37102203D01*
X77484007Y-37102203D02*
X77436388Y-37054583D01*
X77436388Y-37054583D02*
X77388769Y-36959345D01*
X77388769Y-36959345D02*
X77388769Y-36864107D01*
X77388769Y-36864107D02*
X77436388Y-36768869D01*
X77436388Y-36768869D02*
X77484007Y-36721250D01*
X77484007Y-36721250D02*
X77579245Y-36673631D01*
X77579245Y-36673631D02*
X77769721Y-36626012D01*
X77769721Y-36626012D02*
X77864959Y-36578393D01*
X77864959Y-36578393D02*
X77912578Y-36530774D01*
X77912578Y-36530774D02*
X77960197Y-36435536D01*
X77960197Y-36435536D02*
X77960197Y-36340298D01*
X77960197Y-36340298D02*
X77912578Y-36245060D01*
X77912578Y-36245060D02*
X77864959Y-36197441D01*
X77864959Y-36197441D02*
X77769721Y-36149822D01*
X77769721Y-36149822D02*
X77531626Y-36149822D01*
X77531626Y-36149822D02*
X77388769Y-36197441D01*
X77055435Y-36149822D02*
X76817340Y-37149822D01*
X76817340Y-37149822D02*
X76626864Y-36435536D01*
X76626864Y-36435536D02*
X76436388Y-37149822D01*
X76436388Y-37149822D02*
X76198293Y-36149822D01*
X75341150Y-36149822D02*
X75817340Y-36149822D01*
X75817340Y-36149822D02*
X75864959Y-36626012D01*
X75864959Y-36626012D02*
X75817340Y-36578393D01*
X75817340Y-36578393D02*
X75722102Y-36530774D01*
X75722102Y-36530774D02*
X75484007Y-36530774D01*
X75484007Y-36530774D02*
X75388769Y-36578393D01*
X75388769Y-36578393D02*
X75341150Y-36626012D01*
X75341150Y-36626012D02*
X75293531Y-36721250D01*
X75293531Y-36721250D02*
X75293531Y-36959345D01*
X75293531Y-36959345D02*
X75341150Y-37054583D01*
X75341150Y-37054583D02*
X75388769Y-37102203D01*
X75388769Y-37102203D02*
X75484007Y-37149822D01*
X75484007Y-37149822D02*
X75722102Y-37149822D01*
X75722102Y-37149822D02*
X75817340Y-37102203D01*
X75817340Y-37102203D02*
X75864959Y-37054583D01*
X95960195Y-39602202D02*
X95817338Y-39649821D01*
X95817338Y-39649821D02*
X95579243Y-39649821D01*
X95579243Y-39649821D02*
X95484005Y-39602202D01*
X95484005Y-39602202D02*
X95436386Y-39554582D01*
X95436386Y-39554582D02*
X95388767Y-39459344D01*
X95388767Y-39459344D02*
X95388767Y-39364106D01*
X95388767Y-39364106D02*
X95436386Y-39268868D01*
X95436386Y-39268868D02*
X95484005Y-39221249D01*
X95484005Y-39221249D02*
X95579243Y-39173630D01*
X95579243Y-39173630D02*
X95769719Y-39126011D01*
X95769719Y-39126011D02*
X95864957Y-39078392D01*
X95864957Y-39078392D02*
X95912576Y-39030773D01*
X95912576Y-39030773D02*
X95960195Y-38935535D01*
X95960195Y-38935535D02*
X95960195Y-38840297D01*
X95960195Y-38840297D02*
X95912576Y-38745059D01*
X95912576Y-38745059D02*
X95864957Y-38697440D01*
X95864957Y-38697440D02*
X95769719Y-38649821D01*
X95769719Y-38649821D02*
X95531624Y-38649821D01*
X95531624Y-38649821D02*
X95388767Y-38697440D01*
X95055433Y-38649821D02*
X94817338Y-39649821D01*
X94817338Y-39649821D02*
X94626862Y-38935535D01*
X94626862Y-38935535D02*
X94436386Y-39649821D01*
X94436386Y-39649821D02*
X94198291Y-38649821D01*
X93388767Y-38649821D02*
X93579243Y-38649821D01*
X93579243Y-38649821D02*
X93674481Y-38697440D01*
X93674481Y-38697440D02*
X93722100Y-38745059D01*
X93722100Y-38745059D02*
X93817338Y-38887916D01*
X93817338Y-38887916D02*
X93864957Y-39078392D01*
X93864957Y-39078392D02*
X93864957Y-39459344D01*
X93864957Y-39459344D02*
X93817338Y-39554582D01*
X93817338Y-39554582D02*
X93769719Y-39602202D01*
X93769719Y-39602202D02*
X93674481Y-39649821D01*
X93674481Y-39649821D02*
X93484005Y-39649821D01*
X93484005Y-39649821D02*
X93388767Y-39602202D01*
X93388767Y-39602202D02*
X93341148Y-39554582D01*
X93341148Y-39554582D02*
X93293529Y-39459344D01*
X93293529Y-39459344D02*
X93293529Y-39221249D01*
X93293529Y-39221249D02*
X93341148Y-39126011D01*
X93341148Y-39126011D02*
X93388767Y-39078392D01*
X93388767Y-39078392D02*
X93484005Y-39030773D01*
X93484005Y-39030773D02*
X93674481Y-39030773D01*
X93674481Y-39030773D02*
X93769719Y-39078392D01*
X93769719Y-39078392D02*
X93817338Y-39126011D01*
X93817338Y-39126011D02*
X93864957Y-39221249D01*
X23960197Y-67602202D02*
X23817340Y-67649821D01*
X23817340Y-67649821D02*
X23579245Y-67649821D01*
X23579245Y-67649821D02*
X23484007Y-67602202D01*
X23484007Y-67602202D02*
X23436388Y-67554582D01*
X23436388Y-67554582D02*
X23388769Y-67459344D01*
X23388769Y-67459344D02*
X23388769Y-67364106D01*
X23388769Y-67364106D02*
X23436388Y-67268868D01*
X23436388Y-67268868D02*
X23484007Y-67221249D01*
X23484007Y-67221249D02*
X23579245Y-67173630D01*
X23579245Y-67173630D02*
X23769721Y-67126011D01*
X23769721Y-67126011D02*
X23864959Y-67078392D01*
X23864959Y-67078392D02*
X23912578Y-67030773D01*
X23912578Y-67030773D02*
X23960197Y-66935535D01*
X23960197Y-66935535D02*
X23960197Y-66840297D01*
X23960197Y-66840297D02*
X23912578Y-66745059D01*
X23912578Y-66745059D02*
X23864959Y-66697440D01*
X23864959Y-66697440D02*
X23769721Y-66649821D01*
X23769721Y-66649821D02*
X23531626Y-66649821D01*
X23531626Y-66649821D02*
X23388769Y-66697440D01*
X23055435Y-66649821D02*
X22817340Y-67649821D01*
X22817340Y-67649821D02*
X22626864Y-66935535D01*
X22626864Y-66935535D02*
X22436388Y-67649821D01*
X22436388Y-67649821D02*
X22198293Y-66649821D01*
X21674483Y-67078392D02*
X21769721Y-67030773D01*
X21769721Y-67030773D02*
X21817340Y-66983154D01*
X21817340Y-66983154D02*
X21864959Y-66887916D01*
X21864959Y-66887916D02*
X21864959Y-66840297D01*
X21864959Y-66840297D02*
X21817340Y-66745059D01*
X21817340Y-66745059D02*
X21769721Y-66697440D01*
X21769721Y-66697440D02*
X21674483Y-66649821D01*
X21674483Y-66649821D02*
X21484007Y-66649821D01*
X21484007Y-66649821D02*
X21388769Y-66697440D01*
X21388769Y-66697440D02*
X21341150Y-66745059D01*
X21341150Y-66745059D02*
X21293531Y-66840297D01*
X21293531Y-66840297D02*
X21293531Y-66887916D01*
X21293531Y-66887916D02*
X21341150Y-66983154D01*
X21341150Y-66983154D02*
X21388769Y-67030773D01*
X21388769Y-67030773D02*
X21484007Y-67078392D01*
X21484007Y-67078392D02*
X21674483Y-67078392D01*
X21674483Y-67078392D02*
X21769721Y-67126011D01*
X21769721Y-67126011D02*
X21817340Y-67173630D01*
X21817340Y-67173630D02*
X21864959Y-67268868D01*
X21864959Y-67268868D02*
X21864959Y-67459344D01*
X21864959Y-67459344D02*
X21817340Y-67554582D01*
X21817340Y-67554582D02*
X21769721Y-67602202D01*
X21769721Y-67602202D02*
X21674483Y-67649821D01*
X21674483Y-67649821D02*
X21484007Y-67649821D01*
X21484007Y-67649821D02*
X21388769Y-67602202D01*
X21388769Y-67602202D02*
X21341150Y-67554582D01*
X21341150Y-67554582D02*
X21293531Y-67459344D01*
X21293531Y-67459344D02*
X21293531Y-67268868D01*
X21293531Y-67268868D02*
X21341150Y-67173630D01*
X21341150Y-67173630D02*
X21388769Y-67126011D01*
X21388769Y-67126011D02*
X21484007Y-67078392D01*
X41960199Y-55576202D02*
X41817342Y-55623821D01*
X41817342Y-55623821D02*
X41579247Y-55623821D01*
X41579247Y-55623821D02*
X41484009Y-55576202D01*
X41484009Y-55576202D02*
X41436390Y-55528582D01*
X41436390Y-55528582D02*
X41388771Y-55433344D01*
X41388771Y-55433344D02*
X41388771Y-55338106D01*
X41388771Y-55338106D02*
X41436390Y-55242868D01*
X41436390Y-55242868D02*
X41484009Y-55195249D01*
X41484009Y-55195249D02*
X41579247Y-55147630D01*
X41579247Y-55147630D02*
X41769723Y-55100011D01*
X41769723Y-55100011D02*
X41864961Y-55052392D01*
X41864961Y-55052392D02*
X41912580Y-55004773D01*
X41912580Y-55004773D02*
X41960199Y-54909535D01*
X41960199Y-54909535D02*
X41960199Y-54814297D01*
X41960199Y-54814297D02*
X41912580Y-54719059D01*
X41912580Y-54719059D02*
X41864961Y-54671440D01*
X41864961Y-54671440D02*
X41769723Y-54623821D01*
X41769723Y-54623821D02*
X41531628Y-54623821D01*
X41531628Y-54623821D02*
X41388771Y-54671440D01*
X41055437Y-54623821D02*
X40817342Y-55623821D01*
X40817342Y-55623821D02*
X40626866Y-54909535D01*
X40626866Y-54909535D02*
X40436390Y-55623821D01*
X40436390Y-55623821D02*
X40198295Y-54623821D01*
X39769723Y-55623821D02*
X39579247Y-55623821D01*
X39579247Y-55623821D02*
X39484009Y-55576202D01*
X39484009Y-55576202D02*
X39436390Y-55528582D01*
X39436390Y-55528582D02*
X39341152Y-55385725D01*
X39341152Y-55385725D02*
X39293533Y-55195249D01*
X39293533Y-55195249D02*
X39293533Y-54814297D01*
X39293533Y-54814297D02*
X39341152Y-54719059D01*
X39341152Y-54719059D02*
X39388771Y-54671440D01*
X39388771Y-54671440D02*
X39484009Y-54623821D01*
X39484009Y-54623821D02*
X39674485Y-54623821D01*
X39674485Y-54623821D02*
X39769723Y-54671440D01*
X39769723Y-54671440D02*
X39817342Y-54719059D01*
X39817342Y-54719059D02*
X39864961Y-54814297D01*
X39864961Y-54814297D02*
X39864961Y-55052392D01*
X39864961Y-55052392D02*
X39817342Y-55147630D01*
X39817342Y-55147630D02*
X39769723Y-55195249D01*
X39769723Y-55195249D02*
X39674485Y-55242868D01*
X39674485Y-55242868D02*
X39484009Y-55242868D01*
X39484009Y-55242868D02*
X39388771Y-55195249D01*
X39388771Y-55195249D02*
X39341152Y-55147630D01*
X39341152Y-55147630D02*
X39293533Y-55052392D01*
X60436389Y-48718202D02*
X60293532Y-48765821D01*
X60293532Y-48765821D02*
X60055437Y-48765821D01*
X60055437Y-48765821D02*
X59960199Y-48718202D01*
X59960199Y-48718202D02*
X59912580Y-48670582D01*
X59912580Y-48670582D02*
X59864961Y-48575344D01*
X59864961Y-48575344D02*
X59864961Y-48480106D01*
X59864961Y-48480106D02*
X59912580Y-48384868D01*
X59912580Y-48384868D02*
X59960199Y-48337249D01*
X59960199Y-48337249D02*
X60055437Y-48289630D01*
X60055437Y-48289630D02*
X60245913Y-48242011D01*
X60245913Y-48242011D02*
X60341151Y-48194392D01*
X60341151Y-48194392D02*
X60388770Y-48146773D01*
X60388770Y-48146773D02*
X60436389Y-48051535D01*
X60436389Y-48051535D02*
X60436389Y-47956297D01*
X60436389Y-47956297D02*
X60388770Y-47861059D01*
X60388770Y-47861059D02*
X60341151Y-47813440D01*
X60341151Y-47813440D02*
X60245913Y-47765821D01*
X60245913Y-47765821D02*
X60007818Y-47765821D01*
X60007818Y-47765821D02*
X59864961Y-47813440D01*
X59531627Y-47765821D02*
X59293532Y-48765821D01*
X59293532Y-48765821D02*
X59103056Y-48051535D01*
X59103056Y-48051535D02*
X58912580Y-48765821D01*
X58912580Y-48765821D02*
X58674485Y-47765821D01*
X57769723Y-48765821D02*
X58341151Y-48765821D01*
X58055437Y-48765821D02*
X58055437Y-47765821D01*
X58055437Y-47765821D02*
X58150675Y-47908678D01*
X58150675Y-47908678D02*
X58245913Y-48003916D01*
X58245913Y-48003916D02*
X58341151Y-48051535D01*
X57150675Y-47765821D02*
X57055437Y-47765821D01*
X57055437Y-47765821D02*
X56960199Y-47813440D01*
X56960199Y-47813440D02*
X56912580Y-47861059D01*
X56912580Y-47861059D02*
X56864961Y-47956297D01*
X56864961Y-47956297D02*
X56817342Y-48146773D01*
X56817342Y-48146773D02*
X56817342Y-48384868D01*
X56817342Y-48384868D02*
X56864961Y-48575344D01*
X56864961Y-48575344D02*
X56912580Y-48670582D01*
X56912580Y-48670582D02*
X56960199Y-48718202D01*
X56960199Y-48718202D02*
X57055437Y-48765821D01*
X57055437Y-48765821D02*
X57150675Y-48765821D01*
X57150675Y-48765821D02*
X57245913Y-48718202D01*
X57245913Y-48718202D02*
X57293532Y-48670582D01*
X57293532Y-48670582D02*
X57341151Y-48575344D01*
X57341151Y-48575344D02*
X57388770Y-48384868D01*
X57388770Y-48384868D02*
X57388770Y-48146773D01*
X57388770Y-48146773D02*
X57341151Y-47956297D01*
X57341151Y-47956297D02*
X57293532Y-47861059D01*
X57293532Y-47861059D02*
X57245913Y-47813440D01*
X57245913Y-47813440D02*
X57150675Y-47765821D01*
X78436390Y-54052205D02*
X78293533Y-54099824D01*
X78293533Y-54099824D02*
X78055438Y-54099824D01*
X78055438Y-54099824D02*
X77960200Y-54052205D01*
X77960200Y-54052205D02*
X77912581Y-54004585D01*
X77912581Y-54004585D02*
X77864962Y-53909347D01*
X77864962Y-53909347D02*
X77864962Y-53814109D01*
X77864962Y-53814109D02*
X77912581Y-53718871D01*
X77912581Y-53718871D02*
X77960200Y-53671252D01*
X77960200Y-53671252D02*
X78055438Y-53623633D01*
X78055438Y-53623633D02*
X78245914Y-53576014D01*
X78245914Y-53576014D02*
X78341152Y-53528395D01*
X78341152Y-53528395D02*
X78388771Y-53480776D01*
X78388771Y-53480776D02*
X78436390Y-53385538D01*
X78436390Y-53385538D02*
X78436390Y-53290300D01*
X78436390Y-53290300D02*
X78388771Y-53195062D01*
X78388771Y-53195062D02*
X78341152Y-53147443D01*
X78341152Y-53147443D02*
X78245914Y-53099824D01*
X78245914Y-53099824D02*
X78007819Y-53099824D01*
X78007819Y-53099824D02*
X77864962Y-53147443D01*
X77531628Y-53099824D02*
X77293533Y-54099824D01*
X77293533Y-54099824D02*
X77103057Y-53385538D01*
X77103057Y-53385538D02*
X76912581Y-54099824D01*
X76912581Y-54099824D02*
X76674486Y-53099824D01*
X75769724Y-54099824D02*
X76341152Y-54099824D01*
X76055438Y-54099824D02*
X76055438Y-53099824D01*
X76055438Y-53099824D02*
X76150676Y-53242681D01*
X76150676Y-53242681D02*
X76245914Y-53337919D01*
X76245914Y-53337919D02*
X76341152Y-53385538D01*
X74817343Y-54099824D02*
X75388771Y-54099824D01*
X75103057Y-54099824D02*
X75103057Y-53099824D01*
X75103057Y-53099824D02*
X75198295Y-53242681D01*
X75198295Y-53242681D02*
X75293533Y-53337919D01*
X75293533Y-53337919D02*
X75388771Y-53385538D01*
X96416388Y-56592202D02*
X96273531Y-56639821D01*
X96273531Y-56639821D02*
X96035436Y-56639821D01*
X96035436Y-56639821D02*
X95940198Y-56592202D01*
X95940198Y-56592202D02*
X95892579Y-56544582D01*
X95892579Y-56544582D02*
X95844960Y-56449344D01*
X95844960Y-56449344D02*
X95844960Y-56354106D01*
X95844960Y-56354106D02*
X95892579Y-56258868D01*
X95892579Y-56258868D02*
X95940198Y-56211249D01*
X95940198Y-56211249D02*
X96035436Y-56163630D01*
X96035436Y-56163630D02*
X96225912Y-56116011D01*
X96225912Y-56116011D02*
X96321150Y-56068392D01*
X96321150Y-56068392D02*
X96368769Y-56020773D01*
X96368769Y-56020773D02*
X96416388Y-55925535D01*
X96416388Y-55925535D02*
X96416388Y-55830297D01*
X96416388Y-55830297D02*
X96368769Y-55735059D01*
X96368769Y-55735059D02*
X96321150Y-55687440D01*
X96321150Y-55687440D02*
X96225912Y-55639821D01*
X96225912Y-55639821D02*
X95987817Y-55639821D01*
X95987817Y-55639821D02*
X95844960Y-55687440D01*
X95511626Y-55639821D02*
X95273531Y-56639821D01*
X95273531Y-56639821D02*
X95083055Y-55925535D01*
X95083055Y-55925535D02*
X94892579Y-56639821D01*
X94892579Y-56639821D02*
X94654484Y-55639821D01*
X93749722Y-56639821D02*
X94321150Y-56639821D01*
X94035436Y-56639821D02*
X94035436Y-55639821D01*
X94035436Y-55639821D02*
X94130674Y-55782678D01*
X94130674Y-55782678D02*
X94225912Y-55877916D01*
X94225912Y-55877916D02*
X94321150Y-55925535D01*
X93368769Y-55735059D02*
X93321150Y-55687440D01*
X93321150Y-55687440D02*
X93225912Y-55639821D01*
X93225912Y-55639821D02*
X92987817Y-55639821D01*
X92987817Y-55639821D02*
X92892579Y-55687440D01*
X92892579Y-55687440D02*
X92844960Y-55735059D01*
X92844960Y-55735059D02*
X92797341Y-55830297D01*
X92797341Y-55830297D02*
X92797341Y-55925535D01*
X92797341Y-55925535D02*
X92844960Y-56068392D01*
X92844960Y-56068392D02*
X93416388Y-56639821D01*
X93416388Y-56639821D02*
X92797341Y-56639821D01*
X24436388Y-84602199D02*
X24293531Y-84649818D01*
X24293531Y-84649818D02*
X24055436Y-84649818D01*
X24055436Y-84649818D02*
X23960198Y-84602199D01*
X23960198Y-84602199D02*
X23912579Y-84554579D01*
X23912579Y-84554579D02*
X23864960Y-84459341D01*
X23864960Y-84459341D02*
X23864960Y-84364103D01*
X23864960Y-84364103D02*
X23912579Y-84268865D01*
X23912579Y-84268865D02*
X23960198Y-84221246D01*
X23960198Y-84221246D02*
X24055436Y-84173627D01*
X24055436Y-84173627D02*
X24245912Y-84126008D01*
X24245912Y-84126008D02*
X24341150Y-84078389D01*
X24341150Y-84078389D02*
X24388769Y-84030770D01*
X24388769Y-84030770D02*
X24436388Y-83935532D01*
X24436388Y-83935532D02*
X24436388Y-83840294D01*
X24436388Y-83840294D02*
X24388769Y-83745056D01*
X24388769Y-83745056D02*
X24341150Y-83697437D01*
X24341150Y-83697437D02*
X24245912Y-83649818D01*
X24245912Y-83649818D02*
X24007817Y-83649818D01*
X24007817Y-83649818D02*
X23864960Y-83697437D01*
X23531626Y-83649818D02*
X23293531Y-84649818D01*
X23293531Y-84649818D02*
X23103055Y-83935532D01*
X23103055Y-83935532D02*
X22912579Y-84649818D01*
X22912579Y-84649818D02*
X22674484Y-83649818D01*
X21769722Y-84649818D02*
X22341150Y-84649818D01*
X22055436Y-84649818D02*
X22055436Y-83649818D01*
X22055436Y-83649818D02*
X22150674Y-83792675D01*
X22150674Y-83792675D02*
X22245912Y-83887913D01*
X22245912Y-83887913D02*
X22341150Y-83935532D01*
X20912579Y-83983151D02*
X20912579Y-84649818D01*
X21150674Y-83602199D02*
X21388769Y-84316484D01*
X21388769Y-84316484D02*
X20769722Y-84316484D01*
X42436387Y-72594201D02*
X42293530Y-72641820D01*
X42293530Y-72641820D02*
X42055435Y-72641820D01*
X42055435Y-72641820D02*
X41960197Y-72594201D01*
X41960197Y-72594201D02*
X41912578Y-72546581D01*
X41912578Y-72546581D02*
X41864959Y-72451343D01*
X41864959Y-72451343D02*
X41864959Y-72356105D01*
X41864959Y-72356105D02*
X41912578Y-72260867D01*
X41912578Y-72260867D02*
X41960197Y-72213248D01*
X41960197Y-72213248D02*
X42055435Y-72165629D01*
X42055435Y-72165629D02*
X42245911Y-72118010D01*
X42245911Y-72118010D02*
X42341149Y-72070391D01*
X42341149Y-72070391D02*
X42388768Y-72022772D01*
X42388768Y-72022772D02*
X42436387Y-71927534D01*
X42436387Y-71927534D02*
X42436387Y-71832296D01*
X42436387Y-71832296D02*
X42388768Y-71737058D01*
X42388768Y-71737058D02*
X42341149Y-71689439D01*
X42341149Y-71689439D02*
X42245911Y-71641820D01*
X42245911Y-71641820D02*
X42007816Y-71641820D01*
X42007816Y-71641820D02*
X41864959Y-71689439D01*
X41531625Y-71641820D02*
X41293530Y-72641820D01*
X41293530Y-72641820D02*
X41103054Y-71927534D01*
X41103054Y-71927534D02*
X40912578Y-72641820D01*
X40912578Y-72641820D02*
X40674483Y-71641820D01*
X39769721Y-72641820D02*
X40341149Y-72641820D01*
X40055435Y-72641820D02*
X40055435Y-71641820D01*
X40055435Y-71641820D02*
X40150673Y-71784677D01*
X40150673Y-71784677D02*
X40245911Y-71879915D01*
X40245911Y-71879915D02*
X40341149Y-71927534D01*
X38864959Y-71641820D02*
X39341149Y-71641820D01*
X39341149Y-71641820D02*
X39388768Y-72118010D01*
X39388768Y-72118010D02*
X39341149Y-72070391D01*
X39341149Y-72070391D02*
X39245911Y-72022772D01*
X39245911Y-72022772D02*
X39007816Y-72022772D01*
X39007816Y-72022772D02*
X38912578Y-72070391D01*
X38912578Y-72070391D02*
X38864959Y-72118010D01*
X38864959Y-72118010D02*
X38817340Y-72213248D01*
X38817340Y-72213248D02*
X38817340Y-72451343D01*
X38817340Y-72451343D02*
X38864959Y-72546581D01*
X38864959Y-72546581D02*
X38912578Y-72594201D01*
X38912578Y-72594201D02*
X39007816Y-72641820D01*
X39007816Y-72641820D02*
X39245911Y-72641820D01*
X39245911Y-72641820D02*
X39341149Y-72594201D01*
X39341149Y-72594201D02*
X39388768Y-72546581D01*
X60436386Y-65736203D02*
X60293529Y-65783822D01*
X60293529Y-65783822D02*
X60055434Y-65783822D01*
X60055434Y-65783822D02*
X59960196Y-65736203D01*
X59960196Y-65736203D02*
X59912577Y-65688583D01*
X59912577Y-65688583D02*
X59864958Y-65593345D01*
X59864958Y-65593345D02*
X59864958Y-65498107D01*
X59864958Y-65498107D02*
X59912577Y-65402869D01*
X59912577Y-65402869D02*
X59960196Y-65355250D01*
X59960196Y-65355250D02*
X60055434Y-65307631D01*
X60055434Y-65307631D02*
X60245910Y-65260012D01*
X60245910Y-65260012D02*
X60341148Y-65212393D01*
X60341148Y-65212393D02*
X60388767Y-65164774D01*
X60388767Y-65164774D02*
X60436386Y-65069536D01*
X60436386Y-65069536D02*
X60436386Y-64974298D01*
X60436386Y-64974298D02*
X60388767Y-64879060D01*
X60388767Y-64879060D02*
X60341148Y-64831441D01*
X60341148Y-64831441D02*
X60245910Y-64783822D01*
X60245910Y-64783822D02*
X60007815Y-64783822D01*
X60007815Y-64783822D02*
X59864958Y-64831441D01*
X59531624Y-64783822D02*
X59293529Y-65783822D01*
X59293529Y-65783822D02*
X59103053Y-65069536D01*
X59103053Y-65069536D02*
X58912577Y-65783822D01*
X58912577Y-65783822D02*
X58674482Y-64783822D01*
X57769720Y-65783822D02*
X58341148Y-65783822D01*
X58055434Y-65783822D02*
X58055434Y-64783822D01*
X58055434Y-64783822D02*
X58150672Y-64926679D01*
X58150672Y-64926679D02*
X58245910Y-65021917D01*
X58245910Y-65021917D02*
X58341148Y-65069536D01*
X56912577Y-64783822D02*
X57103053Y-64783822D01*
X57103053Y-64783822D02*
X57198291Y-64831441D01*
X57198291Y-64831441D02*
X57245910Y-64879060D01*
X57245910Y-64879060D02*
X57341148Y-65021917D01*
X57341148Y-65021917D02*
X57388767Y-65212393D01*
X57388767Y-65212393D02*
X57388767Y-65593345D01*
X57388767Y-65593345D02*
X57341148Y-65688583D01*
X57341148Y-65688583D02*
X57293529Y-65736203D01*
X57293529Y-65736203D02*
X57198291Y-65783822D01*
X57198291Y-65783822D02*
X57007815Y-65783822D01*
X57007815Y-65783822D02*
X56912577Y-65736203D01*
X56912577Y-65736203D02*
X56864958Y-65688583D01*
X56864958Y-65688583D02*
X56817339Y-65593345D01*
X56817339Y-65593345D02*
X56817339Y-65355250D01*
X56817339Y-65355250D02*
X56864958Y-65260012D01*
X56864958Y-65260012D02*
X56912577Y-65212393D01*
X56912577Y-65212393D02*
X57007815Y-65164774D01*
X57007815Y-65164774D02*
X57198291Y-65164774D01*
X57198291Y-65164774D02*
X57293529Y-65212393D01*
X57293529Y-65212393D02*
X57341148Y-65260012D01*
X57341148Y-65260012D02*
X57388767Y-65355250D01*
X78436388Y-71070205D02*
X78293531Y-71117824D01*
X78293531Y-71117824D02*
X78055436Y-71117824D01*
X78055436Y-71117824D02*
X77960198Y-71070205D01*
X77960198Y-71070205D02*
X77912579Y-71022585D01*
X77912579Y-71022585D02*
X77864960Y-70927347D01*
X77864960Y-70927347D02*
X77864960Y-70832109D01*
X77864960Y-70832109D02*
X77912579Y-70736871D01*
X77912579Y-70736871D02*
X77960198Y-70689252D01*
X77960198Y-70689252D02*
X78055436Y-70641633D01*
X78055436Y-70641633D02*
X78245912Y-70594014D01*
X78245912Y-70594014D02*
X78341150Y-70546395D01*
X78341150Y-70546395D02*
X78388769Y-70498776D01*
X78388769Y-70498776D02*
X78436388Y-70403538D01*
X78436388Y-70403538D02*
X78436388Y-70308300D01*
X78436388Y-70308300D02*
X78388769Y-70213062D01*
X78388769Y-70213062D02*
X78341150Y-70165443D01*
X78341150Y-70165443D02*
X78245912Y-70117824D01*
X78245912Y-70117824D02*
X78007817Y-70117824D01*
X78007817Y-70117824D02*
X77864960Y-70165443D01*
X77531626Y-70117824D02*
X77293531Y-71117824D01*
X77293531Y-71117824D02*
X77103055Y-70403538D01*
X77103055Y-70403538D02*
X76912579Y-71117824D01*
X76912579Y-71117824D02*
X76674484Y-70117824D01*
X75769722Y-71117824D02*
X76341150Y-71117824D01*
X76055436Y-71117824D02*
X76055436Y-70117824D01*
X76055436Y-70117824D02*
X76150674Y-70260681D01*
X76150674Y-70260681D02*
X76245912Y-70355919D01*
X76245912Y-70355919D02*
X76341150Y-70403538D01*
X75436388Y-70117824D02*
X74769722Y-70117824D01*
X74769722Y-70117824D02*
X75198293Y-71117824D01*
X96410042Y-73610202D02*
X96267185Y-73657821D01*
X96267185Y-73657821D02*
X96029090Y-73657821D01*
X96029090Y-73657821D02*
X95933852Y-73610202D01*
X95933852Y-73610202D02*
X95886233Y-73562582D01*
X95886233Y-73562582D02*
X95838614Y-73467344D01*
X95838614Y-73467344D02*
X95838614Y-73372106D01*
X95838614Y-73372106D02*
X95886233Y-73276868D01*
X95886233Y-73276868D02*
X95933852Y-73229249D01*
X95933852Y-73229249D02*
X96029090Y-73181630D01*
X96029090Y-73181630D02*
X96219566Y-73134011D01*
X96219566Y-73134011D02*
X96314804Y-73086392D01*
X96314804Y-73086392D02*
X96362423Y-73038773D01*
X96362423Y-73038773D02*
X96410042Y-72943535D01*
X96410042Y-72943535D02*
X96410042Y-72848297D01*
X96410042Y-72848297D02*
X96362423Y-72753059D01*
X96362423Y-72753059D02*
X96314804Y-72705440D01*
X96314804Y-72705440D02*
X96219566Y-72657821D01*
X96219566Y-72657821D02*
X95981471Y-72657821D01*
X95981471Y-72657821D02*
X95838614Y-72705440D01*
X95505280Y-72657821D02*
X95267185Y-73657821D01*
X95267185Y-73657821D02*
X95076709Y-72943535D01*
X95076709Y-72943535D02*
X94886233Y-73657821D01*
X94886233Y-73657821D02*
X94648138Y-72657821D01*
X93743376Y-73657821D02*
X94314804Y-73657821D01*
X94029090Y-73657821D02*
X94029090Y-72657821D01*
X94029090Y-72657821D02*
X94124328Y-72800678D01*
X94124328Y-72800678D02*
X94219566Y-72895916D01*
X94219566Y-72895916D02*
X94314804Y-72943535D01*
X93171947Y-73086392D02*
X93267185Y-73038773D01*
X93267185Y-73038773D02*
X93314804Y-72991154D01*
X93314804Y-72991154D02*
X93362423Y-72895916D01*
X93362423Y-72895916D02*
X93362423Y-72848297D01*
X93362423Y-72848297D02*
X93314804Y-72753059D01*
X93314804Y-72753059D02*
X93267185Y-72705440D01*
X93267185Y-72705440D02*
X93171947Y-72657821D01*
X93171947Y-72657821D02*
X92981471Y-72657821D01*
X92981471Y-72657821D02*
X92886233Y-72705440D01*
X92886233Y-72705440D02*
X92838614Y-72753059D01*
X92838614Y-72753059D02*
X92790995Y-72848297D01*
X92790995Y-72848297D02*
X92790995Y-72895916D01*
X92790995Y-72895916D02*
X92838614Y-72991154D01*
X92838614Y-72991154D02*
X92886233Y-73038773D01*
X92886233Y-73038773D02*
X92981471Y-73086392D01*
X92981471Y-73086392D02*
X93171947Y-73086392D01*
X93171947Y-73086392D02*
X93267185Y-73134011D01*
X93267185Y-73134011D02*
X93314804Y-73181630D01*
X93314804Y-73181630D02*
X93362423Y-73276868D01*
X93362423Y-73276868D02*
X93362423Y-73467344D01*
X93362423Y-73467344D02*
X93314804Y-73562582D01*
X93314804Y-73562582D02*
X93267185Y-73610202D01*
X93267185Y-73610202D02*
X93171947Y-73657821D01*
X93171947Y-73657821D02*
X92981471Y-73657821D01*
X92981471Y-73657821D02*
X92886233Y-73610202D01*
X92886233Y-73610202D02*
X92838614Y-73562582D01*
X92838614Y-73562582D02*
X92790995Y-73467344D01*
X92790995Y-73467344D02*
X92790995Y-73276868D01*
X92790995Y-73276868D02*
X92838614Y-73181630D01*
X92838614Y-73181630D02*
X92886233Y-73134011D01*
X92886233Y-73134011D02*
X92981471Y-73086392D01*
X101815012Y-98961375D02*
X101667485Y-98931186D01*
X101667485Y-98931186D02*
X101461288Y-98812138D01*
X101461288Y-98812138D02*
X101402619Y-98723280D01*
X101402619Y-98723280D02*
X101385189Y-98658231D01*
X101385189Y-98658231D02*
X101391569Y-98551943D01*
X101391569Y-98551943D02*
X101439188Y-98469464D01*
X101439188Y-98469464D02*
X101528046Y-98410795D01*
X101528046Y-98410795D02*
X101593095Y-98393365D01*
X101593095Y-98393365D02*
X101699383Y-98399745D01*
X101699383Y-98399745D02*
X101888150Y-98453744D01*
X101888150Y-98453744D02*
X101994438Y-98460124D01*
X101994438Y-98460124D02*
X102059487Y-98442694D01*
X102059487Y-98442694D02*
X102148345Y-98384025D01*
X102148345Y-98384025D02*
X102195964Y-98301546D01*
X102195964Y-98301546D02*
X102202344Y-98195258D01*
X102202344Y-98195258D02*
X102184914Y-98130209D01*
X102184914Y-98130209D02*
X102126245Y-98041351D01*
X102126245Y-98041351D02*
X101920049Y-97922303D01*
X101920049Y-97922303D02*
X101772521Y-97892114D01*
X101507656Y-97684208D02*
X100801459Y-98431186D01*
X100801459Y-98431186D02*
X100993645Y-97717358D01*
X100993645Y-97717358D02*
X100471545Y-98240709D01*
X100471545Y-98240709D02*
X100765348Y-97255636D01*
X100429054Y-97171448D02*
X100411624Y-97106400D01*
X100411624Y-97106400D02*
X100352955Y-97017541D01*
X100352955Y-97017541D02*
X100146759Y-96898494D01*
X100146759Y-96898494D02*
X100040471Y-96892114D01*
X100040471Y-96892114D02*
X99975422Y-96909544D01*
X99975422Y-96909544D02*
X99886563Y-96968213D01*
X99886563Y-96968213D02*
X99838944Y-97050691D01*
X99838944Y-97050691D02*
X99808755Y-97198219D01*
X99808755Y-97198219D02*
X100017913Y-97978805D01*
X100017913Y-97978805D02*
X99481802Y-97669281D01*
X99445691Y-96493732D02*
X99363212Y-96446113D01*
X99363212Y-96446113D02*
X99256924Y-96439733D01*
X99256924Y-96439733D02*
X99191875Y-96457163D01*
X99191875Y-96457163D02*
X99103017Y-96515832D01*
X99103017Y-96515832D02*
X98966539Y-96656980D01*
X98966539Y-96656980D02*
X98847492Y-96863176D01*
X98847492Y-96863176D02*
X98793493Y-97051943D01*
X98793493Y-97051943D02*
X98787113Y-97158231D01*
X98787113Y-97158231D02*
X98804543Y-97223280D01*
X98804543Y-97223280D02*
X98863212Y-97312138D01*
X98863212Y-97312138D02*
X98945691Y-97359757D01*
X98945691Y-97359757D02*
X99051979Y-97366137D01*
X99051979Y-97366137D02*
X99117028Y-97348707D01*
X99117028Y-97348707D02*
X99205886Y-97290038D01*
X99205886Y-97290038D02*
X99342363Y-97148890D01*
X99342363Y-97148890D02*
X99461411Y-96942694D01*
X99461411Y-96942694D02*
X99515410Y-96753927D01*
X99515410Y-96753927D02*
X99521789Y-96647639D01*
X99521789Y-96647639D02*
X99504360Y-96582590D01*
X99504360Y-96582590D02*
X99445691Y-96493732D01*
D11*
X67727118Y-42737503D02*
X68727118Y-42737503D01*
X67774737Y-42737503D02*
X67727118Y-42832741D01*
X67727118Y-42832741D02*
X67727118Y-43023217D01*
X67727118Y-43023217D02*
X67774737Y-43118455D01*
X67774737Y-43118455D02*
X67822356Y-43166074D01*
X67822356Y-43166074D02*
X67917594Y-43213693D01*
X67917594Y-43213693D02*
X68203308Y-43213693D01*
X68203308Y-43213693D02*
X68298546Y-43166074D01*
X68298546Y-43166074D02*
X68346166Y-43118455D01*
X68346166Y-43118455D02*
X68393785Y-43023217D01*
X68393785Y-43023217D02*
X68393785Y-42832741D01*
X68393785Y-42832741D02*
X68346166Y-42737503D01*
X67727118Y-44070836D02*
X68393785Y-44070836D01*
X67727118Y-43642265D02*
X68250927Y-43642265D01*
X68250927Y-43642265D02*
X68346166Y-43689884D01*
X68346166Y-43689884D02*
X68393785Y-43785122D01*
X68393785Y-43785122D02*
X68393785Y-43927979D01*
X68393785Y-43927979D02*
X68346166Y-44023217D01*
X68346166Y-44023217D02*
X68298546Y-44070836D01*
X68346166Y-44975598D02*
X68393785Y-44880360D01*
X68393785Y-44880360D02*
X68393785Y-44689884D01*
X68393785Y-44689884D02*
X68346166Y-44594646D01*
X68346166Y-44594646D02*
X68298546Y-44547027D01*
X68298546Y-44547027D02*
X68203308Y-44499408D01*
X68203308Y-44499408D02*
X67917594Y-44499408D01*
X67917594Y-44499408D02*
X67822356Y-44547027D01*
X67822356Y-44547027D02*
X67774737Y-44594646D01*
X67774737Y-44594646D02*
X67727118Y-44689884D01*
X67727118Y-44689884D02*
X67727118Y-44880360D01*
X67727118Y-44880360D02*
X67774737Y-44975598D01*
X68393785Y-45404170D02*
X67393785Y-45404170D01*
X68012832Y-45499408D02*
X68393785Y-45785122D01*
X67727118Y-45785122D02*
X68108070Y-45404170D01*
X67663618Y-28783503D02*
X67663618Y-29164455D01*
X67330285Y-28926360D02*
X68187427Y-28926360D01*
X68187427Y-28926360D02*
X68282666Y-28973979D01*
X68282666Y-28973979D02*
X68330285Y-29069217D01*
X68330285Y-29069217D02*
X68330285Y-29164455D01*
X68282666Y-29878741D02*
X68330285Y-29783503D01*
X68330285Y-29783503D02*
X68330285Y-29593027D01*
X68330285Y-29593027D02*
X68282666Y-29497789D01*
X68282666Y-29497789D02*
X68187427Y-29450170D01*
X68187427Y-29450170D02*
X67806475Y-29450170D01*
X67806475Y-29450170D02*
X67711237Y-29497789D01*
X67711237Y-29497789D02*
X67663618Y-29593027D01*
X67663618Y-29593027D02*
X67663618Y-29783503D01*
X67663618Y-29783503D02*
X67711237Y-29878741D01*
X67711237Y-29878741D02*
X67806475Y-29926360D01*
X67806475Y-29926360D02*
X67901713Y-29926360D01*
X67901713Y-29926360D02*
X67996951Y-29450170D01*
X67663618Y-30354932D02*
X68330285Y-30354932D01*
X67758856Y-30354932D02*
X67711237Y-30402551D01*
X67711237Y-30402551D02*
X67663618Y-30497789D01*
X67663618Y-30497789D02*
X67663618Y-30640646D01*
X67663618Y-30640646D02*
X67711237Y-30735884D01*
X67711237Y-30735884D02*
X67806475Y-30783503D01*
X67806475Y-30783503D02*
X68330285Y-30783503D01*
X67663618Y-31116837D02*
X67663618Y-31497789D01*
X67330285Y-31259694D02*
X68187427Y-31259694D01*
X68187427Y-31259694D02*
X68282666Y-31307313D01*
X68282666Y-31307313D02*
X68330285Y-31402551D01*
X68330285Y-31402551D02*
X68330285Y-31497789D01*
X68330285Y-31831123D02*
X67663618Y-31831123D01*
X67330285Y-31831123D02*
X67377904Y-31783504D01*
X67377904Y-31783504D02*
X67425523Y-31831123D01*
X67425523Y-31831123D02*
X67377904Y-31878742D01*
X67377904Y-31878742D02*
X67330285Y-31831123D01*
X67330285Y-31831123D02*
X67425523Y-31831123D01*
X67663618Y-32307313D02*
X68330285Y-32307313D01*
X67758856Y-32307313D02*
X67711237Y-32354932D01*
X67711237Y-32354932D02*
X67663618Y-32450170D01*
X67663618Y-32450170D02*
X67663618Y-32593027D01*
X67663618Y-32593027D02*
X67711237Y-32688265D01*
X67711237Y-32688265D02*
X67806475Y-32735884D01*
X67806475Y-32735884D02*
X68330285Y-32735884D01*
X67663618Y-33640646D02*
X68473142Y-33640646D01*
X68473142Y-33640646D02*
X68568380Y-33593027D01*
X68568380Y-33593027D02*
X68615999Y-33545408D01*
X68615999Y-33545408D02*
X68663618Y-33450170D01*
X68663618Y-33450170D02*
X68663618Y-33307313D01*
X68663618Y-33307313D02*
X68615999Y-33212075D01*
X68282666Y-33640646D02*
X68330285Y-33545408D01*
X68330285Y-33545408D02*
X68330285Y-33354932D01*
X68330285Y-33354932D02*
X68282666Y-33259694D01*
X68282666Y-33259694D02*
X68235046Y-33212075D01*
X68235046Y-33212075D02*
X68139808Y-33164456D01*
X68139808Y-33164456D02*
X67854094Y-33164456D01*
X67854094Y-33164456D02*
X67758856Y-33212075D01*
X67758856Y-33212075D02*
X67711237Y-33259694D01*
X67711237Y-33259694D02*
X67663618Y-33354932D01*
X67663618Y-33354932D02*
X67663618Y-33545408D01*
X67663618Y-33545408D02*
X67711237Y-33640646D01*
D10*
X108639673Y-47304047D02*
X108563483Y-47304047D01*
X108563483Y-47304047D02*
X108487292Y-47342142D01*
X108487292Y-47342142D02*
X108449197Y-47380237D01*
X108449197Y-47380237D02*
X108411102Y-47456428D01*
X108411102Y-47456428D02*
X108373007Y-47608809D01*
X108373007Y-47608809D02*
X108373007Y-47799285D01*
X108373007Y-47799285D02*
X108411102Y-47951666D01*
X108411102Y-47951666D02*
X108449197Y-48027856D01*
X108449197Y-48027856D02*
X108487292Y-48065952D01*
X108487292Y-48065952D02*
X108563483Y-48104047D01*
X108563483Y-48104047D02*
X108639673Y-48104047D01*
X108639673Y-48104047D02*
X108715864Y-48065952D01*
X108715864Y-48065952D02*
X108753959Y-48027856D01*
X108753959Y-48027856D02*
X108792054Y-47951666D01*
X108792054Y-47951666D02*
X108830150Y-47799285D01*
X108830150Y-47799285D02*
X108830150Y-47608809D01*
X108830150Y-47608809D02*
X108792054Y-47456428D01*
X108792054Y-47456428D02*
X108753959Y-47380237D01*
X108753959Y-47380237D02*
X108715864Y-47342142D01*
X108715864Y-47342142D02*
X108639673Y-47304047D01*
X108068245Y-47380237D02*
X108030149Y-47342142D01*
X108030149Y-47342142D02*
X107953959Y-47304047D01*
X107953959Y-47304047D02*
X107763483Y-47304047D01*
X107763483Y-47304047D02*
X107687292Y-47342142D01*
X107687292Y-47342142D02*
X107649197Y-47380237D01*
X107649197Y-47380237D02*
X107611102Y-47456428D01*
X107611102Y-47456428D02*
X107611102Y-47532618D01*
X107611102Y-47532618D02*
X107649197Y-47646904D01*
X107649197Y-47646904D02*
X108106340Y-48104047D01*
X108106340Y-48104047D02*
X107611102Y-48104047D01*
X106925387Y-47570713D02*
X106925387Y-48104047D01*
X107115863Y-47265952D02*
X107306340Y-47837380D01*
X107306340Y-47837380D02*
X106811101Y-47837380D01*
X108373007Y-55734047D02*
X108830150Y-55734047D01*
X108601578Y-55734047D02*
X108601578Y-54934047D01*
X108601578Y-54934047D02*
X108677769Y-55048332D01*
X108677769Y-55048332D02*
X108753959Y-55124523D01*
X108753959Y-55124523D02*
X108830150Y-55162618D01*
X107877768Y-54934047D02*
X107801578Y-54934047D01*
X107801578Y-54934047D02*
X107725387Y-54972142D01*
X107725387Y-54972142D02*
X107687292Y-55010237D01*
X107687292Y-55010237D02*
X107649197Y-55086428D01*
X107649197Y-55086428D02*
X107611102Y-55238809D01*
X107611102Y-55238809D02*
X107611102Y-55429285D01*
X107611102Y-55429285D02*
X107649197Y-55581666D01*
X107649197Y-55581666D02*
X107687292Y-55657856D01*
X107687292Y-55657856D02*
X107725387Y-55695952D01*
X107725387Y-55695952D02*
X107801578Y-55734047D01*
X107801578Y-55734047D02*
X107877768Y-55734047D01*
X107877768Y-55734047D02*
X107953959Y-55695952D01*
X107953959Y-55695952D02*
X107992054Y-55657856D01*
X107992054Y-55657856D02*
X108030149Y-55581666D01*
X108030149Y-55581666D02*
X108068245Y-55429285D01*
X108068245Y-55429285D02*
X108068245Y-55238809D01*
X108068245Y-55238809D02*
X108030149Y-55086428D01*
X108030149Y-55086428D02*
X107992054Y-55010237D01*
X107992054Y-55010237D02*
X107953959Y-54972142D01*
X107953959Y-54972142D02*
X107877768Y-54934047D01*
X106925387Y-55200713D02*
X106925387Y-55734047D01*
X107115863Y-54895952D02*
X107306340Y-55467380D01*
X107306340Y-55467380D02*
X106811101Y-55467380D01*
X108639673Y-42304047D02*
X108563483Y-42304047D01*
X108563483Y-42304047D02*
X108487292Y-42342142D01*
X108487292Y-42342142D02*
X108449197Y-42380237D01*
X108449197Y-42380237D02*
X108411102Y-42456428D01*
X108411102Y-42456428D02*
X108373007Y-42608809D01*
X108373007Y-42608809D02*
X108373007Y-42799285D01*
X108373007Y-42799285D02*
X108411102Y-42951666D01*
X108411102Y-42951666D02*
X108449197Y-43027856D01*
X108449197Y-43027856D02*
X108487292Y-43065952D01*
X108487292Y-43065952D02*
X108563483Y-43104047D01*
X108563483Y-43104047D02*
X108639673Y-43104047D01*
X108639673Y-43104047D02*
X108715864Y-43065952D01*
X108715864Y-43065952D02*
X108753959Y-43027856D01*
X108753959Y-43027856D02*
X108792054Y-42951666D01*
X108792054Y-42951666D02*
X108830150Y-42799285D01*
X108830150Y-42799285D02*
X108830150Y-42608809D01*
X108830150Y-42608809D02*
X108792054Y-42456428D01*
X108792054Y-42456428D02*
X108753959Y-42380237D01*
X108753959Y-42380237D02*
X108715864Y-42342142D01*
X108715864Y-42342142D02*
X108639673Y-42304047D01*
X108068245Y-42380237D02*
X108030149Y-42342142D01*
X108030149Y-42342142D02*
X107953959Y-42304047D01*
X107953959Y-42304047D02*
X107763483Y-42304047D01*
X107763483Y-42304047D02*
X107687292Y-42342142D01*
X107687292Y-42342142D02*
X107649197Y-42380237D01*
X107649197Y-42380237D02*
X107611102Y-42456428D01*
X107611102Y-42456428D02*
X107611102Y-42532618D01*
X107611102Y-42532618D02*
X107649197Y-42646904D01*
X107649197Y-42646904D02*
X108106340Y-43104047D01*
X108106340Y-43104047D02*
X107611102Y-43104047D01*
X107115863Y-42304047D02*
X107039673Y-42304047D01*
X107039673Y-42304047D02*
X106963482Y-42342142D01*
X106963482Y-42342142D02*
X106925387Y-42380237D01*
X106925387Y-42380237D02*
X106887292Y-42456428D01*
X106887292Y-42456428D02*
X106849197Y-42608809D01*
X106849197Y-42608809D02*
X106849197Y-42799285D01*
X106849197Y-42799285D02*
X106887292Y-42951666D01*
X106887292Y-42951666D02*
X106925387Y-43027856D01*
X106925387Y-43027856D02*
X106963482Y-43065952D01*
X106963482Y-43065952D02*
X107039673Y-43104047D01*
X107039673Y-43104047D02*
X107115863Y-43104047D01*
X107115863Y-43104047D02*
X107192054Y-43065952D01*
X107192054Y-43065952D02*
X107230149Y-43027856D01*
X107230149Y-43027856D02*
X107268244Y-42951666D01*
X107268244Y-42951666D02*
X107306340Y-42799285D01*
X107306340Y-42799285D02*
X107306340Y-42608809D01*
X107306340Y-42608809D02*
X107268244Y-42456428D01*
X107268244Y-42456428D02*
X107230149Y-42380237D01*
X107230149Y-42380237D02*
X107192054Y-42342142D01*
X107192054Y-42342142D02*
X107115863Y-42304047D01*
X108373007Y-50654047D02*
X108830150Y-50654047D01*
X108601578Y-50654047D02*
X108601578Y-49854047D01*
X108601578Y-49854047D02*
X108677769Y-49968332D01*
X108677769Y-49968332D02*
X108753959Y-50044523D01*
X108753959Y-50044523D02*
X108830150Y-50082618D01*
X107877768Y-49854047D02*
X107801578Y-49854047D01*
X107801578Y-49854047D02*
X107725387Y-49892142D01*
X107725387Y-49892142D02*
X107687292Y-49930237D01*
X107687292Y-49930237D02*
X107649197Y-50006428D01*
X107649197Y-50006428D02*
X107611102Y-50158809D01*
X107611102Y-50158809D02*
X107611102Y-50349285D01*
X107611102Y-50349285D02*
X107649197Y-50501666D01*
X107649197Y-50501666D02*
X107687292Y-50577856D01*
X107687292Y-50577856D02*
X107725387Y-50615952D01*
X107725387Y-50615952D02*
X107801578Y-50654047D01*
X107801578Y-50654047D02*
X107877768Y-50654047D01*
X107877768Y-50654047D02*
X107953959Y-50615952D01*
X107953959Y-50615952D02*
X107992054Y-50577856D01*
X107992054Y-50577856D02*
X108030149Y-50501666D01*
X108030149Y-50501666D02*
X108068245Y-50349285D01*
X108068245Y-50349285D02*
X108068245Y-50158809D01*
X108068245Y-50158809D02*
X108030149Y-50006428D01*
X108030149Y-50006428D02*
X107992054Y-49930237D01*
X107992054Y-49930237D02*
X107953959Y-49892142D01*
X107953959Y-49892142D02*
X107877768Y-49854047D01*
X107115863Y-49854047D02*
X107039673Y-49854047D01*
X107039673Y-49854047D02*
X106963482Y-49892142D01*
X106963482Y-49892142D02*
X106925387Y-49930237D01*
X106925387Y-49930237D02*
X106887292Y-50006428D01*
X106887292Y-50006428D02*
X106849197Y-50158809D01*
X106849197Y-50158809D02*
X106849197Y-50349285D01*
X106849197Y-50349285D02*
X106887292Y-50501666D01*
X106887292Y-50501666D02*
X106925387Y-50577856D01*
X106925387Y-50577856D02*
X106963482Y-50615952D01*
X106963482Y-50615952D02*
X107039673Y-50654047D01*
X107039673Y-50654047D02*
X107115863Y-50654047D01*
X107115863Y-50654047D02*
X107192054Y-50615952D01*
X107192054Y-50615952D02*
X107230149Y-50577856D01*
X107230149Y-50577856D02*
X107268244Y-50501666D01*
X107268244Y-50501666D02*
X107306340Y-50349285D01*
X107306340Y-50349285D02*
X107306340Y-50158809D01*
X107306340Y-50158809D02*
X107268244Y-50006428D01*
X107268244Y-50006428D02*
X107230149Y-49930237D01*
X107230149Y-49930237D02*
X107192054Y-49892142D01*
X107192054Y-49892142D02*
X107115863Y-49854047D01*
X119447388Y-50654047D02*
X119904531Y-50654047D01*
X119675959Y-50654047D02*
X119675959Y-49854047D01*
X119675959Y-49854047D02*
X119752150Y-49968332D01*
X119752150Y-49968332D02*
X119828340Y-50044523D01*
X119828340Y-50044523D02*
X119904531Y-50082618D01*
X118685483Y-50654047D02*
X119142626Y-50654047D01*
X118914054Y-50654047D02*
X118914054Y-49854047D01*
X118914054Y-49854047D02*
X118990245Y-49968332D01*
X118990245Y-49968332D02*
X119066435Y-50044523D01*
X119066435Y-50044523D02*
X119142626Y-50082618D01*
X118418816Y-49854047D02*
X117923578Y-49854047D01*
X117923578Y-49854047D02*
X118190244Y-50158809D01*
X118190244Y-50158809D02*
X118075959Y-50158809D01*
X118075959Y-50158809D02*
X117999768Y-50196904D01*
X117999768Y-50196904D02*
X117961673Y-50234999D01*
X117961673Y-50234999D02*
X117923578Y-50311190D01*
X117923578Y-50311190D02*
X117923578Y-50501666D01*
X117923578Y-50501666D02*
X117961673Y-50577856D01*
X117961673Y-50577856D02*
X117999768Y-50615952D01*
X117999768Y-50615952D02*
X118075959Y-50654047D01*
X118075959Y-50654047D02*
X118304530Y-50654047D01*
X118304530Y-50654047D02*
X118380721Y-50615952D01*
X118380721Y-50615952D02*
X118418816Y-50577856D01*
X119447388Y-48114047D02*
X119904531Y-48114047D01*
X119675959Y-48114047D02*
X119675959Y-47314047D01*
X119675959Y-47314047D02*
X119752150Y-47428332D01*
X119752150Y-47428332D02*
X119828340Y-47504523D01*
X119828340Y-47504523D02*
X119904531Y-47542618D01*
X118685483Y-48114047D02*
X119142626Y-48114047D01*
X118914054Y-48114047D02*
X118914054Y-47314047D01*
X118914054Y-47314047D02*
X118990245Y-47428332D01*
X118990245Y-47428332D02*
X119066435Y-47504523D01*
X119066435Y-47504523D02*
X119142626Y-47542618D01*
X117961673Y-47314047D02*
X118342625Y-47314047D01*
X118342625Y-47314047D02*
X118380721Y-47694999D01*
X118380721Y-47694999D02*
X118342625Y-47656904D01*
X118342625Y-47656904D02*
X118266435Y-47618809D01*
X118266435Y-47618809D02*
X118075959Y-47618809D01*
X118075959Y-47618809D02*
X117999768Y-47656904D01*
X117999768Y-47656904D02*
X117961673Y-47694999D01*
X117961673Y-47694999D02*
X117923578Y-47771190D01*
X117923578Y-47771190D02*
X117923578Y-47961666D01*
X117923578Y-47961666D02*
X117961673Y-48037856D01*
X117961673Y-48037856D02*
X117999768Y-48075952D01*
X117999768Y-48075952D02*
X118075959Y-48114047D01*
X118075959Y-48114047D02*
X118266435Y-48114047D01*
X118266435Y-48114047D02*
X118342625Y-48075952D01*
X118342625Y-48075952D02*
X118380721Y-48037856D01*
X119980721Y-37154047D02*
X119714054Y-37954047D01*
X119714054Y-37954047D02*
X119447388Y-37154047D01*
X118723578Y-37877856D02*
X118761674Y-37915952D01*
X118761674Y-37915952D02*
X118875959Y-37954047D01*
X118875959Y-37954047D02*
X118952150Y-37954047D01*
X118952150Y-37954047D02*
X119066436Y-37915952D01*
X119066436Y-37915952D02*
X119142626Y-37839761D01*
X119142626Y-37839761D02*
X119180721Y-37763571D01*
X119180721Y-37763571D02*
X119218817Y-37611190D01*
X119218817Y-37611190D02*
X119218817Y-37496904D01*
X119218817Y-37496904D02*
X119180721Y-37344523D01*
X119180721Y-37344523D02*
X119142626Y-37268332D01*
X119142626Y-37268332D02*
X119066436Y-37192142D01*
X119066436Y-37192142D02*
X118952150Y-37154047D01*
X118952150Y-37154047D02*
X118875959Y-37154047D01*
X118875959Y-37154047D02*
X118761674Y-37192142D01*
X118761674Y-37192142D02*
X118723578Y-37230237D01*
X117923578Y-37877856D02*
X117961674Y-37915952D01*
X117961674Y-37915952D02*
X118075959Y-37954047D01*
X118075959Y-37954047D02*
X118152150Y-37954047D01*
X118152150Y-37954047D02*
X118266436Y-37915952D01*
X118266436Y-37915952D02*
X118342626Y-37839761D01*
X118342626Y-37839761D02*
X118380721Y-37763571D01*
X118380721Y-37763571D02*
X118418817Y-37611190D01*
X118418817Y-37611190D02*
X118418817Y-37496904D01*
X118418817Y-37496904D02*
X118380721Y-37344523D01*
X118380721Y-37344523D02*
X118342626Y-37268332D01*
X118342626Y-37268332D02*
X118266436Y-37192142D01*
X118266436Y-37192142D02*
X118152150Y-37154047D01*
X118152150Y-37154047D02*
X118075959Y-37154047D01*
X118075959Y-37154047D02*
X117961674Y-37192142D01*
X117961674Y-37192142D02*
X117923578Y-37230237D01*
X119714054Y-39694047D02*
X119637864Y-39694047D01*
X119637864Y-39694047D02*
X119561673Y-39732142D01*
X119561673Y-39732142D02*
X119523578Y-39770237D01*
X119523578Y-39770237D02*
X119485483Y-39846428D01*
X119485483Y-39846428D02*
X119447388Y-39998809D01*
X119447388Y-39998809D02*
X119447388Y-40189285D01*
X119447388Y-40189285D02*
X119485483Y-40341666D01*
X119485483Y-40341666D02*
X119523578Y-40417856D01*
X119523578Y-40417856D02*
X119561673Y-40455952D01*
X119561673Y-40455952D02*
X119637864Y-40494047D01*
X119637864Y-40494047D02*
X119714054Y-40494047D01*
X119714054Y-40494047D02*
X119790245Y-40455952D01*
X119790245Y-40455952D02*
X119828340Y-40417856D01*
X119828340Y-40417856D02*
X119866435Y-40341666D01*
X119866435Y-40341666D02*
X119904531Y-40189285D01*
X119904531Y-40189285D02*
X119904531Y-39998809D01*
X119904531Y-39998809D02*
X119866435Y-39846428D01*
X119866435Y-39846428D02*
X119828340Y-39770237D01*
X119828340Y-39770237D02*
X119790245Y-39732142D01*
X119790245Y-39732142D02*
X119714054Y-39694047D01*
X119180721Y-39694047D02*
X118685483Y-39694047D01*
X118685483Y-39694047D02*
X118952149Y-39998809D01*
X118952149Y-39998809D02*
X118837864Y-39998809D01*
X118837864Y-39998809D02*
X118761673Y-40036904D01*
X118761673Y-40036904D02*
X118723578Y-40074999D01*
X118723578Y-40074999D02*
X118685483Y-40151190D01*
X118685483Y-40151190D02*
X118685483Y-40341666D01*
X118685483Y-40341666D02*
X118723578Y-40417856D01*
X118723578Y-40417856D02*
X118761673Y-40455952D01*
X118761673Y-40455952D02*
X118837864Y-40494047D01*
X118837864Y-40494047D02*
X119066435Y-40494047D01*
X119066435Y-40494047D02*
X119142626Y-40455952D01*
X119142626Y-40455952D02*
X119180721Y-40417856D01*
X117923578Y-40494047D02*
X118380721Y-40494047D01*
X118152149Y-40494047D02*
X118152149Y-39694047D01*
X118152149Y-39694047D02*
X118228340Y-39808332D01*
X118228340Y-39808332D02*
X118304530Y-39884523D01*
X118304530Y-39884523D02*
X118380721Y-39922618D01*
X119402959Y-30334047D02*
X119669626Y-29953094D01*
X119860102Y-30334047D02*
X119860102Y-29534047D01*
X119860102Y-29534047D02*
X119555340Y-29534047D01*
X119555340Y-29534047D02*
X119479150Y-29572142D01*
X119479150Y-29572142D02*
X119441055Y-29610237D01*
X119441055Y-29610237D02*
X119402959Y-29686428D01*
X119402959Y-29686428D02*
X119402959Y-29800713D01*
X119402959Y-29800713D02*
X119441055Y-29876904D01*
X119441055Y-29876904D02*
X119479150Y-29914999D01*
X119479150Y-29914999D02*
X119555340Y-29953094D01*
X119555340Y-29953094D02*
X119860102Y-29953094D01*
X119098198Y-30105475D02*
X118717245Y-30105475D01*
X119174388Y-30334047D02*
X118907721Y-29534047D01*
X118907721Y-29534047D02*
X118641055Y-30334047D01*
X118450579Y-29534047D02*
X118260103Y-30334047D01*
X118260103Y-30334047D02*
X118107722Y-29762618D01*
X118107722Y-29762618D02*
X117955341Y-30334047D01*
X117955341Y-30334047D02*
X117764865Y-29534047D01*
X108525387Y-37192142D02*
X108601577Y-37154047D01*
X108601577Y-37154047D02*
X108715863Y-37154047D01*
X108715863Y-37154047D02*
X108830149Y-37192142D01*
X108830149Y-37192142D02*
X108906339Y-37268332D01*
X108906339Y-37268332D02*
X108944434Y-37344523D01*
X108944434Y-37344523D02*
X108982530Y-37496904D01*
X108982530Y-37496904D02*
X108982530Y-37611190D01*
X108982530Y-37611190D02*
X108944434Y-37763571D01*
X108944434Y-37763571D02*
X108906339Y-37839761D01*
X108906339Y-37839761D02*
X108830149Y-37915952D01*
X108830149Y-37915952D02*
X108715863Y-37954047D01*
X108715863Y-37954047D02*
X108639672Y-37954047D01*
X108639672Y-37954047D02*
X108525387Y-37915952D01*
X108525387Y-37915952D02*
X108487291Y-37877856D01*
X108487291Y-37877856D02*
X108487291Y-37611190D01*
X108487291Y-37611190D02*
X108639672Y-37611190D01*
X108144434Y-37954047D02*
X108144434Y-37154047D01*
X108144434Y-37154047D02*
X107687291Y-37954047D01*
X107687291Y-37954047D02*
X107687291Y-37154047D01*
X107306339Y-37954047D02*
X107306339Y-37154047D01*
X107306339Y-37154047D02*
X107115863Y-37154047D01*
X107115863Y-37154047D02*
X107001577Y-37192142D01*
X107001577Y-37192142D02*
X106925387Y-37268332D01*
X106925387Y-37268332D02*
X106887292Y-37344523D01*
X106887292Y-37344523D02*
X106849196Y-37496904D01*
X106849196Y-37496904D02*
X106849196Y-37611190D01*
X106849196Y-37611190D02*
X106887292Y-37763571D01*
X106887292Y-37763571D02*
X106925387Y-37839761D01*
X106925387Y-37839761D02*
X107001577Y-37915952D01*
X107001577Y-37915952D02*
X107115863Y-37954047D01*
X107115863Y-37954047D02*
X107306339Y-37954047D01*
X108639673Y-39694047D02*
X108563483Y-39694047D01*
X108563483Y-39694047D02*
X108487292Y-39732142D01*
X108487292Y-39732142D02*
X108449197Y-39770237D01*
X108449197Y-39770237D02*
X108411102Y-39846428D01*
X108411102Y-39846428D02*
X108373007Y-39998809D01*
X108373007Y-39998809D02*
X108373007Y-40189285D01*
X108373007Y-40189285D02*
X108411102Y-40341666D01*
X108411102Y-40341666D02*
X108449197Y-40417856D01*
X108449197Y-40417856D02*
X108487292Y-40455952D01*
X108487292Y-40455952D02*
X108563483Y-40494047D01*
X108563483Y-40494047D02*
X108639673Y-40494047D01*
X108639673Y-40494047D02*
X108715864Y-40455952D01*
X108715864Y-40455952D02*
X108753959Y-40417856D01*
X108753959Y-40417856D02*
X108792054Y-40341666D01*
X108792054Y-40341666D02*
X108830150Y-40189285D01*
X108830150Y-40189285D02*
X108830150Y-39998809D01*
X108830150Y-39998809D02*
X108792054Y-39846428D01*
X108792054Y-39846428D02*
X108753959Y-39770237D01*
X108753959Y-39770237D02*
X108715864Y-39732142D01*
X108715864Y-39732142D02*
X108639673Y-39694047D01*
X107611102Y-40494047D02*
X108068245Y-40494047D01*
X107839673Y-40494047D02*
X107839673Y-39694047D01*
X107839673Y-39694047D02*
X107915864Y-39808332D01*
X107915864Y-39808332D02*
X107992054Y-39884523D01*
X107992054Y-39884523D02*
X108068245Y-39922618D01*
X107344435Y-39694047D02*
X106811101Y-39694047D01*
X106811101Y-39694047D02*
X107153959Y-40494047D01*
X119714054Y-54934047D02*
X119637864Y-54934047D01*
X119637864Y-54934047D02*
X119561673Y-54972142D01*
X119561673Y-54972142D02*
X119523578Y-55010237D01*
X119523578Y-55010237D02*
X119485483Y-55086428D01*
X119485483Y-55086428D02*
X119447388Y-55238809D01*
X119447388Y-55238809D02*
X119447388Y-55429285D01*
X119447388Y-55429285D02*
X119485483Y-55581666D01*
X119485483Y-55581666D02*
X119523578Y-55657856D01*
X119523578Y-55657856D02*
X119561673Y-55695952D01*
X119561673Y-55695952D02*
X119637864Y-55734047D01*
X119637864Y-55734047D02*
X119714054Y-55734047D01*
X119714054Y-55734047D02*
X119790245Y-55695952D01*
X119790245Y-55695952D02*
X119828340Y-55657856D01*
X119828340Y-55657856D02*
X119866435Y-55581666D01*
X119866435Y-55581666D02*
X119904531Y-55429285D01*
X119904531Y-55429285D02*
X119904531Y-55238809D01*
X119904531Y-55238809D02*
X119866435Y-55086428D01*
X119866435Y-55086428D02*
X119828340Y-55010237D01*
X119828340Y-55010237D02*
X119790245Y-54972142D01*
X119790245Y-54972142D02*
X119714054Y-54934047D01*
X118685483Y-55734047D02*
X119142626Y-55734047D01*
X118914054Y-55734047D02*
X118914054Y-54934047D01*
X118914054Y-54934047D02*
X118990245Y-55048332D01*
X118990245Y-55048332D02*
X119066435Y-55124523D01*
X119066435Y-55124523D02*
X119142626Y-55162618D01*
X118190244Y-54934047D02*
X118114054Y-54934047D01*
X118114054Y-54934047D02*
X118037863Y-54972142D01*
X118037863Y-54972142D02*
X117999768Y-55010237D01*
X117999768Y-55010237D02*
X117961673Y-55086428D01*
X117961673Y-55086428D02*
X117923578Y-55238809D01*
X117923578Y-55238809D02*
X117923578Y-55429285D01*
X117923578Y-55429285D02*
X117961673Y-55581666D01*
X117961673Y-55581666D02*
X117999768Y-55657856D01*
X117999768Y-55657856D02*
X118037863Y-55695952D01*
X118037863Y-55695952D02*
X118114054Y-55734047D01*
X118114054Y-55734047D02*
X118190244Y-55734047D01*
X118190244Y-55734047D02*
X118266435Y-55695952D01*
X118266435Y-55695952D02*
X118304530Y-55657856D01*
X118304530Y-55657856D02*
X118342625Y-55581666D01*
X118342625Y-55581666D02*
X118380721Y-55429285D01*
X118380721Y-55429285D02*
X118380721Y-55238809D01*
X118380721Y-55238809D02*
X118342625Y-55086428D01*
X118342625Y-55086428D02*
X118304530Y-55010237D01*
X118304530Y-55010237D02*
X118266435Y-54972142D01*
X118266435Y-54972142D02*
X118190244Y-54934047D01*
X108639673Y-29534047D02*
X108563483Y-29534047D01*
X108563483Y-29534047D02*
X108487292Y-29572142D01*
X108487292Y-29572142D02*
X108449197Y-29610237D01*
X108449197Y-29610237D02*
X108411102Y-29686428D01*
X108411102Y-29686428D02*
X108373007Y-29838809D01*
X108373007Y-29838809D02*
X108373007Y-30029285D01*
X108373007Y-30029285D02*
X108411102Y-30181666D01*
X108411102Y-30181666D02*
X108449197Y-30257856D01*
X108449197Y-30257856D02*
X108487292Y-30295952D01*
X108487292Y-30295952D02*
X108563483Y-30334047D01*
X108563483Y-30334047D02*
X108639673Y-30334047D01*
X108639673Y-30334047D02*
X108715864Y-30295952D01*
X108715864Y-30295952D02*
X108753959Y-30257856D01*
X108753959Y-30257856D02*
X108792054Y-30181666D01*
X108792054Y-30181666D02*
X108830150Y-30029285D01*
X108830150Y-30029285D02*
X108830150Y-29838809D01*
X108830150Y-29838809D02*
X108792054Y-29686428D01*
X108792054Y-29686428D02*
X108753959Y-29610237D01*
X108753959Y-29610237D02*
X108715864Y-29572142D01*
X108715864Y-29572142D02*
X108639673Y-29534047D01*
X107877768Y-29534047D02*
X107801578Y-29534047D01*
X107801578Y-29534047D02*
X107725387Y-29572142D01*
X107725387Y-29572142D02*
X107687292Y-29610237D01*
X107687292Y-29610237D02*
X107649197Y-29686428D01*
X107649197Y-29686428D02*
X107611102Y-29838809D01*
X107611102Y-29838809D02*
X107611102Y-30029285D01*
X107611102Y-30029285D02*
X107649197Y-30181666D01*
X107649197Y-30181666D02*
X107687292Y-30257856D01*
X107687292Y-30257856D02*
X107725387Y-30295952D01*
X107725387Y-30295952D02*
X107801578Y-30334047D01*
X107801578Y-30334047D02*
X107877768Y-30334047D01*
X107877768Y-30334047D02*
X107953959Y-30295952D01*
X107953959Y-30295952D02*
X107992054Y-30257856D01*
X107992054Y-30257856D02*
X108030149Y-30181666D01*
X108030149Y-30181666D02*
X108068245Y-30029285D01*
X108068245Y-30029285D02*
X108068245Y-29838809D01*
X108068245Y-29838809D02*
X108030149Y-29686428D01*
X108030149Y-29686428D02*
X107992054Y-29610237D01*
X107992054Y-29610237D02*
X107953959Y-29572142D01*
X107953959Y-29572142D02*
X107877768Y-29534047D01*
X106925387Y-29534047D02*
X107077768Y-29534047D01*
X107077768Y-29534047D02*
X107153959Y-29572142D01*
X107153959Y-29572142D02*
X107192054Y-29610237D01*
X107192054Y-29610237D02*
X107268244Y-29724523D01*
X107268244Y-29724523D02*
X107306340Y-29876904D01*
X107306340Y-29876904D02*
X107306340Y-30181666D01*
X107306340Y-30181666D02*
X107268244Y-30257856D01*
X107268244Y-30257856D02*
X107230149Y-30295952D01*
X107230149Y-30295952D02*
X107153959Y-30334047D01*
X107153959Y-30334047D02*
X107001578Y-30334047D01*
X107001578Y-30334047D02*
X106925387Y-30295952D01*
X106925387Y-30295952D02*
X106887292Y-30257856D01*
X106887292Y-30257856D02*
X106849197Y-30181666D01*
X106849197Y-30181666D02*
X106849197Y-29991190D01*
X106849197Y-29991190D02*
X106887292Y-29914999D01*
X106887292Y-29914999D02*
X106925387Y-29876904D01*
X106925387Y-29876904D02*
X107001578Y-29838809D01*
X107001578Y-29838809D02*
X107153959Y-29838809D01*
X107153959Y-29838809D02*
X107230149Y-29876904D01*
X107230149Y-29876904D02*
X107268244Y-29914999D01*
X107268244Y-29914999D02*
X107306340Y-29991190D01*
X119714054Y-42234047D02*
X119637864Y-42234047D01*
X119637864Y-42234047D02*
X119561673Y-42272142D01*
X119561673Y-42272142D02*
X119523578Y-42310237D01*
X119523578Y-42310237D02*
X119485483Y-42386428D01*
X119485483Y-42386428D02*
X119447388Y-42538809D01*
X119447388Y-42538809D02*
X119447388Y-42729285D01*
X119447388Y-42729285D02*
X119485483Y-42881666D01*
X119485483Y-42881666D02*
X119523578Y-42957856D01*
X119523578Y-42957856D02*
X119561673Y-42995952D01*
X119561673Y-42995952D02*
X119637864Y-43034047D01*
X119637864Y-43034047D02*
X119714054Y-43034047D01*
X119714054Y-43034047D02*
X119790245Y-42995952D01*
X119790245Y-42995952D02*
X119828340Y-42957856D01*
X119828340Y-42957856D02*
X119866435Y-42881666D01*
X119866435Y-42881666D02*
X119904531Y-42729285D01*
X119904531Y-42729285D02*
X119904531Y-42538809D01*
X119904531Y-42538809D02*
X119866435Y-42386428D01*
X119866435Y-42386428D02*
X119828340Y-42310237D01*
X119828340Y-42310237D02*
X119790245Y-42272142D01*
X119790245Y-42272142D02*
X119714054Y-42234047D01*
X119142626Y-42310237D02*
X119104530Y-42272142D01*
X119104530Y-42272142D02*
X119028340Y-42234047D01*
X119028340Y-42234047D02*
X118837864Y-42234047D01*
X118837864Y-42234047D02*
X118761673Y-42272142D01*
X118761673Y-42272142D02*
X118723578Y-42310237D01*
X118723578Y-42310237D02*
X118685483Y-42386428D01*
X118685483Y-42386428D02*
X118685483Y-42462618D01*
X118685483Y-42462618D02*
X118723578Y-42576904D01*
X118723578Y-42576904D02*
X119180721Y-43034047D01*
X119180721Y-43034047D02*
X118685483Y-43034047D01*
X118304530Y-43034047D02*
X118152149Y-43034047D01*
X118152149Y-43034047D02*
X118075959Y-42995952D01*
X118075959Y-42995952D02*
X118037863Y-42957856D01*
X118037863Y-42957856D02*
X117961673Y-42843571D01*
X117961673Y-42843571D02*
X117923578Y-42691190D01*
X117923578Y-42691190D02*
X117923578Y-42386428D01*
X117923578Y-42386428D02*
X117961673Y-42310237D01*
X117961673Y-42310237D02*
X117999768Y-42272142D01*
X117999768Y-42272142D02*
X118075959Y-42234047D01*
X118075959Y-42234047D02*
X118228340Y-42234047D01*
X118228340Y-42234047D02*
X118304530Y-42272142D01*
X118304530Y-42272142D02*
X118342625Y-42310237D01*
X118342625Y-42310237D02*
X118380721Y-42386428D01*
X118380721Y-42386428D02*
X118380721Y-42576904D01*
X118380721Y-42576904D02*
X118342625Y-42653094D01*
X118342625Y-42653094D02*
X118304530Y-42691190D01*
X118304530Y-42691190D02*
X118228340Y-42729285D01*
X118228340Y-42729285D02*
X118075959Y-42729285D01*
X118075959Y-42729285D02*
X117999768Y-42691190D01*
X117999768Y-42691190D02*
X117961673Y-42653094D01*
X117961673Y-42653094D02*
X117923578Y-42576904D01*
X119714054Y-44774047D02*
X119637864Y-44774047D01*
X119637864Y-44774047D02*
X119561673Y-44812142D01*
X119561673Y-44812142D02*
X119523578Y-44850237D01*
X119523578Y-44850237D02*
X119485483Y-44926428D01*
X119485483Y-44926428D02*
X119447388Y-45078809D01*
X119447388Y-45078809D02*
X119447388Y-45269285D01*
X119447388Y-45269285D02*
X119485483Y-45421666D01*
X119485483Y-45421666D02*
X119523578Y-45497856D01*
X119523578Y-45497856D02*
X119561673Y-45535952D01*
X119561673Y-45535952D02*
X119637864Y-45574047D01*
X119637864Y-45574047D02*
X119714054Y-45574047D01*
X119714054Y-45574047D02*
X119790245Y-45535952D01*
X119790245Y-45535952D02*
X119828340Y-45497856D01*
X119828340Y-45497856D02*
X119866435Y-45421666D01*
X119866435Y-45421666D02*
X119904531Y-45269285D01*
X119904531Y-45269285D02*
X119904531Y-45078809D01*
X119904531Y-45078809D02*
X119866435Y-44926428D01*
X119866435Y-44926428D02*
X119828340Y-44850237D01*
X119828340Y-44850237D02*
X119790245Y-44812142D01*
X119790245Y-44812142D02*
X119714054Y-44774047D01*
X118952149Y-44774047D02*
X118875959Y-44774047D01*
X118875959Y-44774047D02*
X118799768Y-44812142D01*
X118799768Y-44812142D02*
X118761673Y-44850237D01*
X118761673Y-44850237D02*
X118723578Y-44926428D01*
X118723578Y-44926428D02*
X118685483Y-45078809D01*
X118685483Y-45078809D02*
X118685483Y-45269285D01*
X118685483Y-45269285D02*
X118723578Y-45421666D01*
X118723578Y-45421666D02*
X118761673Y-45497856D01*
X118761673Y-45497856D02*
X118799768Y-45535952D01*
X118799768Y-45535952D02*
X118875959Y-45574047D01*
X118875959Y-45574047D02*
X118952149Y-45574047D01*
X118952149Y-45574047D02*
X119028340Y-45535952D01*
X119028340Y-45535952D02*
X119066435Y-45497856D01*
X119066435Y-45497856D02*
X119104530Y-45421666D01*
X119104530Y-45421666D02*
X119142626Y-45269285D01*
X119142626Y-45269285D02*
X119142626Y-45078809D01*
X119142626Y-45078809D02*
X119104530Y-44926428D01*
X119104530Y-44926428D02*
X119066435Y-44850237D01*
X119066435Y-44850237D02*
X119028340Y-44812142D01*
X119028340Y-44812142D02*
X118952149Y-44774047D01*
X118380721Y-44850237D02*
X118342625Y-44812142D01*
X118342625Y-44812142D02*
X118266435Y-44774047D01*
X118266435Y-44774047D02*
X118075959Y-44774047D01*
X118075959Y-44774047D02*
X117999768Y-44812142D01*
X117999768Y-44812142D02*
X117961673Y-44850237D01*
X117961673Y-44850237D02*
X117923578Y-44926428D01*
X117923578Y-44926428D02*
X117923578Y-45002618D01*
X117923578Y-45002618D02*
X117961673Y-45116904D01*
X117961673Y-45116904D02*
X118418816Y-45574047D01*
X118418816Y-45574047D02*
X117923578Y-45574047D01*
X119441054Y-32112142D02*
X119517244Y-32074047D01*
X119517244Y-32074047D02*
X119631530Y-32074047D01*
X119631530Y-32074047D02*
X119745816Y-32112142D01*
X119745816Y-32112142D02*
X119822006Y-32188332D01*
X119822006Y-32188332D02*
X119860101Y-32264523D01*
X119860101Y-32264523D02*
X119898197Y-32416904D01*
X119898197Y-32416904D02*
X119898197Y-32531190D01*
X119898197Y-32531190D02*
X119860101Y-32683571D01*
X119860101Y-32683571D02*
X119822006Y-32759761D01*
X119822006Y-32759761D02*
X119745816Y-32835952D01*
X119745816Y-32835952D02*
X119631530Y-32874047D01*
X119631530Y-32874047D02*
X119555339Y-32874047D01*
X119555339Y-32874047D02*
X119441054Y-32835952D01*
X119441054Y-32835952D02*
X119402958Y-32797856D01*
X119402958Y-32797856D02*
X119402958Y-32531190D01*
X119402958Y-32531190D02*
X119555339Y-32531190D01*
X119060101Y-32874047D02*
X119060101Y-32074047D01*
X119060101Y-32074047D02*
X118602958Y-32874047D01*
X118602958Y-32874047D02*
X118602958Y-32074047D01*
X118222006Y-32874047D02*
X118222006Y-32074047D01*
X118222006Y-32074047D02*
X118031530Y-32074047D01*
X118031530Y-32074047D02*
X117917244Y-32112142D01*
X117917244Y-32112142D02*
X117841054Y-32188332D01*
X117841054Y-32188332D02*
X117802959Y-32264523D01*
X117802959Y-32264523D02*
X117764863Y-32416904D01*
X117764863Y-32416904D02*
X117764863Y-32531190D01*
X117764863Y-32531190D02*
X117802959Y-32683571D01*
X117802959Y-32683571D02*
X117841054Y-32759761D01*
X117841054Y-32759761D02*
X117917244Y-32835952D01*
X117917244Y-32835952D02*
X118031530Y-32874047D01*
X118031530Y-32874047D02*
X118222006Y-32874047D01*
X108639673Y-32004047D02*
X108563483Y-32004047D01*
X108563483Y-32004047D02*
X108487292Y-32042142D01*
X108487292Y-32042142D02*
X108449197Y-32080237D01*
X108449197Y-32080237D02*
X108411102Y-32156428D01*
X108411102Y-32156428D02*
X108373007Y-32308809D01*
X108373007Y-32308809D02*
X108373007Y-32499285D01*
X108373007Y-32499285D02*
X108411102Y-32651666D01*
X108411102Y-32651666D02*
X108449197Y-32727856D01*
X108449197Y-32727856D02*
X108487292Y-32765952D01*
X108487292Y-32765952D02*
X108563483Y-32804047D01*
X108563483Y-32804047D02*
X108639673Y-32804047D01*
X108639673Y-32804047D02*
X108715864Y-32765952D01*
X108715864Y-32765952D02*
X108753959Y-32727856D01*
X108753959Y-32727856D02*
X108792054Y-32651666D01*
X108792054Y-32651666D02*
X108830150Y-32499285D01*
X108830150Y-32499285D02*
X108830150Y-32308809D01*
X108830150Y-32308809D02*
X108792054Y-32156428D01*
X108792054Y-32156428D02*
X108753959Y-32080237D01*
X108753959Y-32080237D02*
X108715864Y-32042142D01*
X108715864Y-32042142D02*
X108639673Y-32004047D01*
X107877768Y-32004047D02*
X107801578Y-32004047D01*
X107801578Y-32004047D02*
X107725387Y-32042142D01*
X107725387Y-32042142D02*
X107687292Y-32080237D01*
X107687292Y-32080237D02*
X107649197Y-32156428D01*
X107649197Y-32156428D02*
X107611102Y-32308809D01*
X107611102Y-32308809D02*
X107611102Y-32499285D01*
X107611102Y-32499285D02*
X107649197Y-32651666D01*
X107649197Y-32651666D02*
X107687292Y-32727856D01*
X107687292Y-32727856D02*
X107725387Y-32765952D01*
X107725387Y-32765952D02*
X107801578Y-32804047D01*
X107801578Y-32804047D02*
X107877768Y-32804047D01*
X107877768Y-32804047D02*
X107953959Y-32765952D01*
X107953959Y-32765952D02*
X107992054Y-32727856D01*
X107992054Y-32727856D02*
X108030149Y-32651666D01*
X108030149Y-32651666D02*
X108068245Y-32499285D01*
X108068245Y-32499285D02*
X108068245Y-32308809D01*
X108068245Y-32308809D02*
X108030149Y-32156428D01*
X108030149Y-32156428D02*
X107992054Y-32080237D01*
X107992054Y-32080237D02*
X107953959Y-32042142D01*
X107953959Y-32042142D02*
X107877768Y-32004047D01*
X107153959Y-32346904D02*
X107230149Y-32308809D01*
X107230149Y-32308809D02*
X107268244Y-32270713D01*
X107268244Y-32270713D02*
X107306340Y-32194523D01*
X107306340Y-32194523D02*
X107306340Y-32156428D01*
X107306340Y-32156428D02*
X107268244Y-32080237D01*
X107268244Y-32080237D02*
X107230149Y-32042142D01*
X107230149Y-32042142D02*
X107153959Y-32004047D01*
X107153959Y-32004047D02*
X107001578Y-32004047D01*
X107001578Y-32004047D02*
X106925387Y-32042142D01*
X106925387Y-32042142D02*
X106887292Y-32080237D01*
X106887292Y-32080237D02*
X106849197Y-32156428D01*
X106849197Y-32156428D02*
X106849197Y-32194523D01*
X106849197Y-32194523D02*
X106887292Y-32270713D01*
X106887292Y-32270713D02*
X106925387Y-32308809D01*
X106925387Y-32308809D02*
X107001578Y-32346904D01*
X107001578Y-32346904D02*
X107153959Y-32346904D01*
X107153959Y-32346904D02*
X107230149Y-32384999D01*
X107230149Y-32384999D02*
X107268244Y-32423094D01*
X107268244Y-32423094D02*
X107306340Y-32499285D01*
X107306340Y-32499285D02*
X107306340Y-32651666D01*
X107306340Y-32651666D02*
X107268244Y-32727856D01*
X107268244Y-32727856D02*
X107230149Y-32765952D01*
X107230149Y-32765952D02*
X107153959Y-32804047D01*
X107153959Y-32804047D02*
X107001578Y-32804047D01*
X107001578Y-32804047D02*
X106925387Y-32765952D01*
X106925387Y-32765952D02*
X106887292Y-32727856D01*
X106887292Y-32727856D02*
X106849197Y-32651666D01*
X106849197Y-32651666D02*
X106849197Y-32499285D01*
X106849197Y-32499285D02*
X106887292Y-32423094D01*
X106887292Y-32423094D02*
X106925387Y-32384999D01*
X106925387Y-32384999D02*
X107001578Y-32346904D01*
X108525387Y-34652142D02*
X108601577Y-34614047D01*
X108601577Y-34614047D02*
X108715863Y-34614047D01*
X108715863Y-34614047D02*
X108830149Y-34652142D01*
X108830149Y-34652142D02*
X108906339Y-34728332D01*
X108906339Y-34728332D02*
X108944434Y-34804523D01*
X108944434Y-34804523D02*
X108982530Y-34956904D01*
X108982530Y-34956904D02*
X108982530Y-35071190D01*
X108982530Y-35071190D02*
X108944434Y-35223571D01*
X108944434Y-35223571D02*
X108906339Y-35299761D01*
X108906339Y-35299761D02*
X108830149Y-35375952D01*
X108830149Y-35375952D02*
X108715863Y-35414047D01*
X108715863Y-35414047D02*
X108639672Y-35414047D01*
X108639672Y-35414047D02*
X108525387Y-35375952D01*
X108525387Y-35375952D02*
X108487291Y-35337856D01*
X108487291Y-35337856D02*
X108487291Y-35071190D01*
X108487291Y-35071190D02*
X108639672Y-35071190D01*
X108144434Y-35414047D02*
X108144434Y-34614047D01*
X108144434Y-34614047D02*
X107687291Y-35414047D01*
X107687291Y-35414047D02*
X107687291Y-34614047D01*
X107306339Y-35414047D02*
X107306339Y-34614047D01*
X107306339Y-34614047D02*
X107115863Y-34614047D01*
X107115863Y-34614047D02*
X107001577Y-34652142D01*
X107001577Y-34652142D02*
X106925387Y-34728332D01*
X106925387Y-34728332D02*
X106887292Y-34804523D01*
X106887292Y-34804523D02*
X106849196Y-34956904D01*
X106849196Y-34956904D02*
X106849196Y-35071190D01*
X106849196Y-35071190D02*
X106887292Y-35223571D01*
X106887292Y-35223571D02*
X106925387Y-35299761D01*
X106925387Y-35299761D02*
X107001577Y-35375952D01*
X107001577Y-35375952D02*
X107115863Y-35414047D01*
X107115863Y-35414047D02*
X107306339Y-35414047D01*
X119402958Y-35414047D02*
X119669625Y-35033094D01*
X119860101Y-35414047D02*
X119860101Y-34614047D01*
X119860101Y-34614047D02*
X119555339Y-34614047D01*
X119555339Y-34614047D02*
X119479149Y-34652142D01*
X119479149Y-34652142D02*
X119441054Y-34690237D01*
X119441054Y-34690237D02*
X119402958Y-34766428D01*
X119402958Y-34766428D02*
X119402958Y-34880713D01*
X119402958Y-34880713D02*
X119441054Y-34956904D01*
X119441054Y-34956904D02*
X119479149Y-34994999D01*
X119479149Y-34994999D02*
X119555339Y-35033094D01*
X119555339Y-35033094D02*
X119860101Y-35033094D01*
X119098197Y-35375952D02*
X118983911Y-35414047D01*
X118983911Y-35414047D02*
X118793435Y-35414047D01*
X118793435Y-35414047D02*
X118717244Y-35375952D01*
X118717244Y-35375952D02*
X118679149Y-35337856D01*
X118679149Y-35337856D02*
X118641054Y-35261666D01*
X118641054Y-35261666D02*
X118641054Y-35185475D01*
X118641054Y-35185475D02*
X118679149Y-35109285D01*
X118679149Y-35109285D02*
X118717244Y-35071190D01*
X118717244Y-35071190D02*
X118793435Y-35033094D01*
X118793435Y-35033094D02*
X118945816Y-34994999D01*
X118945816Y-34994999D02*
X119022006Y-34956904D01*
X119022006Y-34956904D02*
X119060101Y-34918809D01*
X119060101Y-34918809D02*
X119098197Y-34842618D01*
X119098197Y-34842618D02*
X119098197Y-34766428D01*
X119098197Y-34766428D02*
X119060101Y-34690237D01*
X119060101Y-34690237D02*
X119022006Y-34652142D01*
X119022006Y-34652142D02*
X118945816Y-34614047D01*
X118945816Y-34614047D02*
X118755339Y-34614047D01*
X118755339Y-34614047D02*
X118641054Y-34652142D01*
X118412482Y-34614047D02*
X117955339Y-34614047D01*
X118183911Y-35414047D02*
X118183911Y-34614047D01*
X108639673Y-44804047D02*
X108563483Y-44804047D01*
X108563483Y-44804047D02*
X108487292Y-44842142D01*
X108487292Y-44842142D02*
X108449197Y-44880237D01*
X108449197Y-44880237D02*
X108411102Y-44956428D01*
X108411102Y-44956428D02*
X108373007Y-45108809D01*
X108373007Y-45108809D02*
X108373007Y-45299285D01*
X108373007Y-45299285D02*
X108411102Y-45451666D01*
X108411102Y-45451666D02*
X108449197Y-45527856D01*
X108449197Y-45527856D02*
X108487292Y-45565952D01*
X108487292Y-45565952D02*
X108563483Y-45604047D01*
X108563483Y-45604047D02*
X108639673Y-45604047D01*
X108639673Y-45604047D02*
X108715864Y-45565952D01*
X108715864Y-45565952D02*
X108753959Y-45527856D01*
X108753959Y-45527856D02*
X108792054Y-45451666D01*
X108792054Y-45451666D02*
X108830150Y-45299285D01*
X108830150Y-45299285D02*
X108830150Y-45108809D01*
X108830150Y-45108809D02*
X108792054Y-44956428D01*
X108792054Y-44956428D02*
X108753959Y-44880237D01*
X108753959Y-44880237D02*
X108715864Y-44842142D01*
X108715864Y-44842142D02*
X108639673Y-44804047D01*
X108068245Y-44880237D02*
X108030149Y-44842142D01*
X108030149Y-44842142D02*
X107953959Y-44804047D01*
X107953959Y-44804047D02*
X107763483Y-44804047D01*
X107763483Y-44804047D02*
X107687292Y-44842142D01*
X107687292Y-44842142D02*
X107649197Y-44880237D01*
X107649197Y-44880237D02*
X107611102Y-44956428D01*
X107611102Y-44956428D02*
X107611102Y-45032618D01*
X107611102Y-45032618D02*
X107649197Y-45146904D01*
X107649197Y-45146904D02*
X108106340Y-45604047D01*
X108106340Y-45604047D02*
X107611102Y-45604047D01*
X107306340Y-44880237D02*
X107268244Y-44842142D01*
X107268244Y-44842142D02*
X107192054Y-44804047D01*
X107192054Y-44804047D02*
X107001578Y-44804047D01*
X107001578Y-44804047D02*
X106925387Y-44842142D01*
X106925387Y-44842142D02*
X106887292Y-44880237D01*
X106887292Y-44880237D02*
X106849197Y-44956428D01*
X106849197Y-44956428D02*
X106849197Y-45032618D01*
X106849197Y-45032618D02*
X106887292Y-45146904D01*
X106887292Y-45146904D02*
X107344435Y-45604047D01*
X107344435Y-45604047D02*
X106849197Y-45604047D01*
X119447388Y-53194047D02*
X119904531Y-53194047D01*
X119675959Y-53194047D02*
X119675959Y-52394047D01*
X119675959Y-52394047D02*
X119752150Y-52508332D01*
X119752150Y-52508332D02*
X119828340Y-52584523D01*
X119828340Y-52584523D02*
X119904531Y-52622618D01*
X118685483Y-53194047D02*
X119142626Y-53194047D01*
X118914054Y-53194047D02*
X118914054Y-52394047D01*
X118914054Y-52394047D02*
X118990245Y-52508332D01*
X118990245Y-52508332D02*
X119066435Y-52584523D01*
X119066435Y-52584523D02*
X119142626Y-52622618D01*
X117923578Y-53194047D02*
X118380721Y-53194047D01*
X118152149Y-53194047D02*
X118152149Y-52394047D01*
X118152149Y-52394047D02*
X118228340Y-52508332D01*
X118228340Y-52508332D02*
X118304530Y-52584523D01*
X118304530Y-52584523D02*
X118380721Y-52622618D01*
X113059199Y-74931339D02*
X113059199Y-75693244D01*
X112678246Y-75312291D02*
X113440151Y-75312291D01*
X116159199Y-74931339D02*
X116159199Y-75693244D01*
X115778246Y-75312291D02*
X116540151Y-75312291D01*
X114759199Y-71531339D02*
X114759199Y-72293244D01*
X113059199Y-76931339D02*
X113059199Y-77693244D01*
X113059199Y-72931339D02*
X113059199Y-73693244D01*
X114759199Y-78331339D02*
X114759199Y-79093244D01*
X116964819Y-61956666D02*
X117679104Y-61956666D01*
X117679104Y-61956666D02*
X117821961Y-61909047D01*
X117821961Y-61909047D02*
X117917200Y-61813809D01*
X117917200Y-61813809D02*
X117964819Y-61670952D01*
X117964819Y-61670952D02*
X117964819Y-61575714D01*
X117964819Y-62432857D02*
X116964819Y-62432857D01*
X116964819Y-62432857D02*
X116964819Y-62813809D01*
X116964819Y-62813809D02*
X117012438Y-62909047D01*
X117012438Y-62909047D02*
X117060057Y-62956666D01*
X117060057Y-62956666D02*
X117155295Y-63004285D01*
X117155295Y-63004285D02*
X117298152Y-63004285D01*
X117298152Y-63004285D02*
X117393390Y-62956666D01*
X117393390Y-62956666D02*
X117441009Y-62909047D01*
X117441009Y-62909047D02*
X117488628Y-62813809D01*
X117488628Y-62813809D02*
X117488628Y-62432857D01*
X117060057Y-63385238D02*
X117012438Y-63432857D01*
X117012438Y-63432857D02*
X116964819Y-63528095D01*
X116964819Y-63528095D02*
X116964819Y-63766190D01*
X116964819Y-63766190D02*
X117012438Y-63861428D01*
X117012438Y-63861428D02*
X117060057Y-63909047D01*
X117060057Y-63909047D02*
X117155295Y-63956666D01*
X117155295Y-63956666D02*
X117250533Y-63956666D01*
X117250533Y-63956666D02*
X117393390Y-63909047D01*
X117393390Y-63909047D02*
X117964819Y-63337619D01*
X117964819Y-63337619D02*
X117964819Y-63956666D01*
X117397200Y-73636667D02*
X117444819Y-73779524D01*
X117444819Y-73779524D02*
X117444819Y-74017619D01*
X117444819Y-74017619D02*
X117397200Y-74112857D01*
X117397200Y-74112857D02*
X117349580Y-74160476D01*
X117349580Y-74160476D02*
X117254342Y-74208095D01*
X117254342Y-74208095D02*
X117159104Y-74208095D01*
X117159104Y-74208095D02*
X117063866Y-74160476D01*
X117063866Y-74160476D02*
X117016247Y-74112857D01*
X117016247Y-74112857D02*
X116968628Y-74017619D01*
X116968628Y-74017619D02*
X116921009Y-73827143D01*
X116921009Y-73827143D02*
X116873390Y-73731905D01*
X116873390Y-73731905D02*
X116825771Y-73684286D01*
X116825771Y-73684286D02*
X116730533Y-73636667D01*
X116730533Y-73636667D02*
X116635295Y-73636667D01*
X116635295Y-73636667D02*
X116540057Y-73684286D01*
X116540057Y-73684286D02*
X116492438Y-73731905D01*
X116492438Y-73731905D02*
X116444819Y-73827143D01*
X116444819Y-73827143D02*
X116444819Y-74065238D01*
X116444819Y-74065238D02*
X116492438Y-74208095D01*
X116444819Y-74541429D02*
X117444819Y-74779524D01*
X117444819Y-74779524D02*
X116730533Y-74970000D01*
X116730533Y-74970000D02*
X117444819Y-75160476D01*
X117444819Y-75160476D02*
X116444819Y-75398572D01*
X116444819Y-75684286D02*
X116444819Y-76350952D01*
X116444819Y-76350952D02*
X117444819Y-75922381D01*
X119484819Y-61956666D02*
X120199104Y-61956666D01*
X120199104Y-61956666D02*
X120341961Y-61909047D01*
X120341961Y-61909047D02*
X120437200Y-61813809D01*
X120437200Y-61813809D02*
X120484819Y-61670952D01*
X120484819Y-61670952D02*
X120484819Y-61575714D01*
X120484819Y-62432857D02*
X119484819Y-62432857D01*
X119484819Y-62432857D02*
X119484819Y-62813809D01*
X119484819Y-62813809D02*
X119532438Y-62909047D01*
X119532438Y-62909047D02*
X119580057Y-62956666D01*
X119580057Y-62956666D02*
X119675295Y-63004285D01*
X119675295Y-63004285D02*
X119818152Y-63004285D01*
X119818152Y-63004285D02*
X119913390Y-62956666D01*
X119913390Y-62956666D02*
X119961009Y-62909047D01*
X119961009Y-62909047D02*
X120008628Y-62813809D01*
X120008628Y-62813809D02*
X120008628Y-62432857D01*
X120484819Y-63956666D02*
X120484819Y-63385238D01*
X120484819Y-63670952D02*
X119484819Y-63670952D01*
X119484819Y-63670952D02*
X119627676Y-63575714D01*
X119627676Y-63575714D02*
X119722914Y-63480476D01*
X119722914Y-63480476D02*
X119770533Y-63385238D01*
X109324819Y-61956666D02*
X110039104Y-61956666D01*
X110039104Y-61956666D02*
X110181961Y-61909047D01*
X110181961Y-61909047D02*
X110277200Y-61813809D01*
X110277200Y-61813809D02*
X110324819Y-61670952D01*
X110324819Y-61670952D02*
X110324819Y-61575714D01*
X110324819Y-62432857D02*
X109324819Y-62432857D01*
X109324819Y-62432857D02*
X109324819Y-62813809D01*
X109324819Y-62813809D02*
X109372438Y-62909047D01*
X109372438Y-62909047D02*
X109420057Y-62956666D01*
X109420057Y-62956666D02*
X109515295Y-63004285D01*
X109515295Y-63004285D02*
X109658152Y-63004285D01*
X109658152Y-63004285D02*
X109753390Y-62956666D01*
X109753390Y-62956666D02*
X109801009Y-62909047D01*
X109801009Y-62909047D02*
X109848628Y-62813809D01*
X109848628Y-62813809D02*
X109848628Y-62432857D01*
X109658152Y-63861428D02*
X110324819Y-63861428D01*
X109277200Y-63623333D02*
X109991485Y-63385238D01*
X109991485Y-63385238D02*
X109991485Y-64004285D01*
X111874819Y-61956666D02*
X112589104Y-61956666D01*
X112589104Y-61956666D02*
X112731961Y-61909047D01*
X112731961Y-61909047D02*
X112827200Y-61813809D01*
X112827200Y-61813809D02*
X112874819Y-61670952D01*
X112874819Y-61670952D02*
X112874819Y-61575714D01*
X112874819Y-62432857D02*
X111874819Y-62432857D01*
X111874819Y-62432857D02*
X111874819Y-62813809D01*
X111874819Y-62813809D02*
X111922438Y-62909047D01*
X111922438Y-62909047D02*
X111970057Y-62956666D01*
X111970057Y-62956666D02*
X112065295Y-63004285D01*
X112065295Y-63004285D02*
X112208152Y-63004285D01*
X112208152Y-63004285D02*
X112303390Y-62956666D01*
X112303390Y-62956666D02*
X112351009Y-62909047D01*
X112351009Y-62909047D02*
X112398628Y-62813809D01*
X112398628Y-62813809D02*
X112398628Y-62432857D01*
X111874819Y-63337619D02*
X111874819Y-63956666D01*
X111874819Y-63956666D02*
X112255771Y-63623333D01*
X112255771Y-63623333D02*
X112255771Y-63766190D01*
X112255771Y-63766190D02*
X112303390Y-63861428D01*
X112303390Y-63861428D02*
X112351009Y-63909047D01*
X112351009Y-63909047D02*
X112446247Y-63956666D01*
X112446247Y-63956666D02*
X112684342Y-63956666D01*
X112684342Y-63956666D02*
X112779580Y-63909047D01*
X112779580Y-63909047D02*
X112827200Y-63861428D01*
X112827200Y-63861428D02*
X112874819Y-63766190D01*
X112874819Y-63766190D02*
X112874819Y-63480476D01*
X112874819Y-63480476D02*
X112827200Y-63385238D01*
X112827200Y-63385238D02*
X112779580Y-63337619D01*
%TO.C,SW21*%
X91286266Y-90828216D02*
X90320341Y-90569397D01*
X91545086Y-89862290D02*
X91286266Y-90828216D01*
X94909733Y-77305255D02*
X94650914Y-78271180D01*
X93943807Y-77046435D02*
X94909733Y-77305255D01*
X86275464Y-90210269D02*
X85663092Y-90563822D01*
X87181331Y-86829529D02*
X86827777Y-86217156D01*
X85663092Y-90563822D02*
X82765314Y-89787365D01*
X86827777Y-86217156D02*
X84412963Y-85570109D01*
X82765314Y-89787365D02*
X82411761Y-89174993D01*
X82670580Y-88209067D02*
X82411761Y-89174993D01*
X83352303Y-83732991D02*
X83533476Y-83056843D01*
X83533476Y-83056843D02*
X79186810Y-81892157D01*
X78729231Y-87463569D02*
X77763305Y-87204749D01*
X77763305Y-87204749D02*
X78022124Y-86238824D01*
X77970360Y-86432009D02*
X82317026Y-87596695D01*
X78125652Y-85852453D02*
X77970360Y-86432009D01*
X79186810Y-81892157D02*
X79057400Y-82375120D01*
X81127952Y-74647714D02*
X81386772Y-73681788D01*
X81386772Y-73681788D02*
X82352697Y-73940607D01*
X83352302Y-83732991D02*
G75*
G03*
X84412963Y-85570109I1448889J-388229D01*
G01*
X82670578Y-88209066D02*
G75*
G03*
X82317026Y-87596696I-482961J129409D01*
G01*
%TO.C,SW2*%
X29626865Y-48305002D02*
X28626865Y-48305002D01*
X29626865Y-47305002D02*
X29626865Y-48305002D01*
X29626865Y-34305002D02*
X29626865Y-35305002D01*
X28626865Y-34305002D02*
X29626865Y-34305002D01*
X24626865Y-49005002D02*
X24126865Y-49505002D01*
X24626865Y-45505002D02*
X24126865Y-45005002D01*
X24126865Y-49505002D02*
X21126865Y-49505002D01*
X24126865Y-45005002D02*
X21626865Y-45005002D01*
X21126865Y-49505002D02*
X20626865Y-49005002D01*
X20626865Y-48005002D02*
X20626865Y-49005002D01*
X20126865Y-43505002D02*
X20126865Y-42805002D01*
X20126865Y-42805002D02*
X15626865Y-42805002D01*
X16626865Y-48305002D02*
X15626865Y-48305002D01*
X15626865Y-48305002D02*
X15626865Y-47305002D01*
X15626865Y-47505002D02*
X20126865Y-47505002D01*
X15626865Y-46905002D02*
X15626865Y-47505002D01*
X15626865Y-42805002D02*
X15626865Y-43305002D01*
X15626865Y-35305002D02*
X15626865Y-34305002D01*
X15626865Y-34305002D02*
X16626865Y-34305002D01*
X20126865Y-43505002D02*
G75*
G03*
X21626865Y-45005002I1500000J0D01*
G01*
X20626865Y-48005002D02*
G75*
G03*
X20126865Y-47505002I-500000J0D01*
G01*
%TO.C,SW3*%
X47626867Y-36305002D02*
X46626867Y-36305002D01*
X47626867Y-35305002D02*
X47626867Y-36305002D01*
X47626867Y-22305002D02*
X47626867Y-23305002D01*
X46626867Y-22305002D02*
X47626867Y-22305002D01*
X42626867Y-37005002D02*
X42126867Y-37505002D01*
X42626867Y-33505002D02*
X42126867Y-33005002D01*
X42126867Y-37505002D02*
X39126867Y-37505002D01*
X42126867Y-33005002D02*
X39626867Y-33005002D01*
X39126867Y-37505002D02*
X38626867Y-37005002D01*
X38626867Y-36005002D02*
X38626867Y-37005002D01*
X38126867Y-31505002D02*
X38126867Y-30805002D01*
X38126867Y-30805002D02*
X33626867Y-30805002D01*
X34626867Y-36305002D02*
X33626867Y-36305002D01*
X33626867Y-36305002D02*
X33626867Y-35305002D01*
X33626867Y-35505002D02*
X38126867Y-35505002D01*
X33626867Y-34905002D02*
X33626867Y-35505002D01*
X33626867Y-30805002D02*
X33626867Y-31305002D01*
X33626867Y-23305002D02*
X33626867Y-22305002D01*
X33626867Y-22305002D02*
X34626867Y-22305002D01*
X38126867Y-31505002D02*
G75*
G03*
X39626867Y-33005002I1500000J0D01*
G01*
X38626867Y-36005002D02*
G75*
G03*
X38126867Y-35505002I-500000J0D01*
G01*
%TO.C,SW4*%
X65626864Y-29305002D02*
X64626864Y-29305002D01*
X65626864Y-28305002D02*
X65626864Y-29305002D01*
X65626864Y-15305002D02*
X65626864Y-16305002D01*
X64626864Y-15305002D02*
X65626864Y-15305002D01*
X60626864Y-30005002D02*
X60126864Y-30505002D01*
X60626864Y-26505002D02*
X60126864Y-26005002D01*
X60126864Y-30505002D02*
X57126864Y-30505002D01*
X60126864Y-26005002D02*
X57626864Y-26005002D01*
X57126864Y-30505002D02*
X56626864Y-30005002D01*
X56626864Y-29005002D02*
X56626864Y-30005002D01*
X56126864Y-24505002D02*
X56126864Y-23805002D01*
X56126864Y-23805002D02*
X51626864Y-23805002D01*
X52626864Y-29305002D02*
X51626864Y-29305002D01*
X51626864Y-29305002D02*
X51626864Y-28305002D01*
X51626864Y-28505002D02*
X56126864Y-28505002D01*
X51626864Y-27905002D02*
X51626864Y-28505002D01*
X51626864Y-23805002D02*
X51626864Y-24305002D01*
X51626864Y-16305002D02*
X51626864Y-15305002D01*
X51626864Y-15305002D02*
X52626864Y-15305002D01*
X56126864Y-24505002D02*
G75*
G03*
X57626864Y-26005002I1500000J0D01*
G01*
X56626864Y-29005002D02*
G75*
G03*
X56126864Y-28505002I-500000J0D01*
G01*
%TO.C,SW5*%
X83626865Y-34805003D02*
X82626865Y-34805003D01*
X83626865Y-33805003D02*
X83626865Y-34805003D01*
X83626865Y-20805003D02*
X83626865Y-21805003D01*
X82626865Y-20805003D02*
X83626865Y-20805003D01*
X78626865Y-35505003D02*
X78126865Y-36005003D01*
X78626865Y-32005003D02*
X78126865Y-31505003D01*
X78126865Y-36005003D02*
X75126865Y-36005003D01*
X78126865Y-31505003D02*
X75626865Y-31505003D01*
X75126865Y-36005003D02*
X74626865Y-35505003D01*
X74626865Y-34505003D02*
X74626865Y-35505003D01*
X74126865Y-30005003D02*
X74126865Y-29305003D01*
X74126865Y-29305003D02*
X69626865Y-29305003D01*
X70626865Y-34805003D02*
X69626865Y-34805003D01*
X69626865Y-34805003D02*
X69626865Y-33805003D01*
X69626865Y-34005003D02*
X74126865Y-34005003D01*
X69626865Y-33405003D02*
X69626865Y-34005003D01*
X69626865Y-29305003D02*
X69626865Y-29805003D01*
X69626865Y-21805003D02*
X69626865Y-20805003D01*
X69626865Y-20805003D02*
X70626865Y-20805003D01*
X74126865Y-30005003D02*
G75*
G03*
X75626865Y-31505003I1500000J0D01*
G01*
X74626865Y-34505003D02*
G75*
G03*
X74126865Y-34005003I-500000J0D01*
G01*
%TO.C,SW6*%
X101626863Y-37305002D02*
X100626863Y-37305002D01*
X101626863Y-36305002D02*
X101626863Y-37305002D01*
X101626863Y-23305002D02*
X101626863Y-24305002D01*
X100626863Y-23305002D02*
X101626863Y-23305002D01*
X96626863Y-38005002D02*
X96126863Y-38505002D01*
X96626863Y-34505002D02*
X96126863Y-34005002D01*
X96126863Y-38505002D02*
X93126863Y-38505002D01*
X96126863Y-34005002D02*
X93626863Y-34005002D01*
X93126863Y-38505002D02*
X92626863Y-38005002D01*
X92626863Y-37005002D02*
X92626863Y-38005002D01*
X92126863Y-32505002D02*
X92126863Y-31805002D01*
X92126863Y-31805002D02*
X87626863Y-31805002D01*
X88626863Y-37305002D02*
X87626863Y-37305002D01*
X87626863Y-37305002D02*
X87626863Y-36305002D01*
X87626863Y-36505002D02*
X92126863Y-36505002D01*
X87626863Y-35905002D02*
X87626863Y-36505002D01*
X87626863Y-31805002D02*
X87626863Y-32305002D01*
X87626863Y-24305002D02*
X87626863Y-23305002D01*
X87626863Y-23305002D02*
X88626863Y-23305002D01*
X92126863Y-32505002D02*
G75*
G03*
X93626863Y-34005002I1500000J0D01*
G01*
X92626863Y-37005002D02*
G75*
G03*
X92126863Y-36505002I-500000J0D01*
G01*
%TO.C,SW8*%
X29626865Y-65305002D02*
X28626865Y-65305002D01*
X29626865Y-64305002D02*
X29626865Y-65305002D01*
X29626865Y-51305002D02*
X29626865Y-52305002D01*
X28626865Y-51305002D02*
X29626865Y-51305002D01*
X24626865Y-66005002D02*
X24126865Y-66505002D01*
X24626865Y-62505002D02*
X24126865Y-62005002D01*
X24126865Y-66505002D02*
X21126865Y-66505002D01*
X24126865Y-62005002D02*
X21626865Y-62005002D01*
X21126865Y-66505002D02*
X20626865Y-66005002D01*
X20626865Y-65005002D02*
X20626865Y-66005002D01*
X20126865Y-60505002D02*
X20126865Y-59805002D01*
X20126865Y-59805002D02*
X15626865Y-59805002D01*
X16626865Y-65305002D02*
X15626865Y-65305002D01*
X15626865Y-65305002D02*
X15626865Y-64305002D01*
X15626865Y-64505002D02*
X20126865Y-64505002D01*
X15626865Y-63905002D02*
X15626865Y-64505002D01*
X15626865Y-59805002D02*
X15626865Y-60305002D01*
X15626865Y-52305002D02*
X15626865Y-51305002D01*
X15626865Y-51305002D02*
X16626865Y-51305002D01*
X20126865Y-60505002D02*
G75*
G03*
X21626865Y-62005002I1500000J0D01*
G01*
X20626865Y-65005002D02*
G75*
G03*
X20126865Y-64505002I-500000J0D01*
G01*
%TO.C,SW9*%
X47626867Y-53279002D02*
X46626867Y-53279002D01*
X47626867Y-52279002D02*
X47626867Y-53279002D01*
X47626867Y-39279002D02*
X47626867Y-40279002D01*
X46626867Y-39279002D02*
X47626867Y-39279002D01*
X42626867Y-53979002D02*
X42126867Y-54479002D01*
X42626867Y-50479002D02*
X42126867Y-49979002D01*
X42126867Y-54479002D02*
X39126867Y-54479002D01*
X42126867Y-49979002D02*
X39626867Y-49979002D01*
X39126867Y-54479002D02*
X38626867Y-53979002D01*
X38626867Y-52979002D02*
X38626867Y-53979002D01*
X38126867Y-48479002D02*
X38126867Y-47779002D01*
X38126867Y-47779002D02*
X33626867Y-47779002D01*
X34626867Y-53279002D02*
X33626867Y-53279002D01*
X33626867Y-53279002D02*
X33626867Y-52279002D01*
X33626867Y-52479002D02*
X38126867Y-52479002D01*
X33626867Y-51879002D02*
X33626867Y-52479002D01*
X33626867Y-47779002D02*
X33626867Y-48279002D01*
X33626867Y-40279002D02*
X33626867Y-39279002D01*
X33626867Y-39279002D02*
X34626867Y-39279002D01*
X38126867Y-48479002D02*
G75*
G03*
X39626867Y-49979002I1500000J0D01*
G01*
X38626867Y-52979002D02*
G75*
G03*
X38126867Y-52479002I-500000J0D01*
G01*
%TO.C,SW10*%
X65626866Y-46421002D02*
X64626866Y-46421002D01*
X65626866Y-45421002D02*
X65626866Y-46421002D01*
X65626866Y-32421002D02*
X65626866Y-33421002D01*
X64626866Y-32421002D02*
X65626866Y-32421002D01*
X60626866Y-47121002D02*
X60126866Y-47621002D01*
X60626866Y-43621002D02*
X60126866Y-43121002D01*
X60126866Y-47621002D02*
X57126866Y-47621002D01*
X60126866Y-43121002D02*
X57626866Y-43121002D01*
X57126866Y-47621002D02*
X56626866Y-47121002D01*
X56626866Y-46121002D02*
X56626866Y-47121002D01*
X56126866Y-41621002D02*
X56126866Y-40921002D01*
X56126866Y-40921002D02*
X51626866Y-40921002D01*
X52626866Y-46421002D02*
X51626866Y-46421002D01*
X51626866Y-46421002D02*
X51626866Y-45421002D01*
X51626866Y-45621002D02*
X56126866Y-45621002D01*
X51626866Y-45021002D02*
X51626866Y-45621002D01*
X51626866Y-40921002D02*
X51626866Y-41421002D01*
X51626866Y-33421002D02*
X51626866Y-32421002D01*
X51626866Y-32421002D02*
X52626866Y-32421002D01*
X56126866Y-41621002D02*
G75*
G03*
X57626866Y-43121002I1500000J0D01*
G01*
X56626866Y-46121002D02*
G75*
G03*
X56126866Y-45621002I-500000J0D01*
G01*
%TO.C,SW11*%
X83626867Y-51755005D02*
X82626867Y-51755005D01*
X83626867Y-50755005D02*
X83626867Y-51755005D01*
X83626867Y-37755005D02*
X83626867Y-38755005D01*
X82626867Y-37755005D02*
X83626867Y-37755005D01*
X78626867Y-52455005D02*
X78126867Y-52955005D01*
X78626867Y-48955005D02*
X78126867Y-48455005D01*
X78126867Y-52955005D02*
X75126867Y-52955005D01*
X78126867Y-48455005D02*
X75626867Y-48455005D01*
X75126867Y-52955005D02*
X74626867Y-52455005D01*
X74626867Y-51455005D02*
X74626867Y-52455005D01*
X74126867Y-46955005D02*
X74126867Y-46255005D01*
X74126867Y-46255005D02*
X69626867Y-46255005D01*
X70626867Y-51755005D02*
X69626867Y-51755005D01*
X69626867Y-51755005D02*
X69626867Y-50755005D01*
X69626867Y-50955005D02*
X74126867Y-50955005D01*
X69626867Y-50355005D02*
X69626867Y-50955005D01*
X69626867Y-46255005D02*
X69626867Y-46755005D01*
X69626867Y-38755005D02*
X69626867Y-37755005D01*
X69626867Y-37755005D02*
X70626867Y-37755005D01*
X74126867Y-46955005D02*
G75*
G03*
X75626867Y-48455005I1500000J0D01*
G01*
X74626867Y-51455005D02*
G75*
G03*
X74126867Y-50955005I-500000J0D01*
G01*
%TO.C,SW12*%
X101606865Y-54295002D02*
X100606865Y-54295002D01*
X101606865Y-53295002D02*
X101606865Y-54295002D01*
X101606865Y-40295002D02*
X101606865Y-41295002D01*
X100606865Y-40295002D02*
X101606865Y-40295002D01*
X96606865Y-54995002D02*
X96106865Y-55495002D01*
X96606865Y-51495002D02*
X96106865Y-50995002D01*
X96106865Y-55495002D02*
X93106865Y-55495002D01*
X96106865Y-50995002D02*
X93606865Y-50995002D01*
X93106865Y-55495002D02*
X92606865Y-54995002D01*
X92606865Y-53995002D02*
X92606865Y-54995002D01*
X92106865Y-49495002D02*
X92106865Y-48795002D01*
X92106865Y-48795002D02*
X87606865Y-48795002D01*
X88606865Y-54295002D02*
X87606865Y-54295002D01*
X87606865Y-54295002D02*
X87606865Y-53295002D01*
X87606865Y-53495002D02*
X92106865Y-53495002D01*
X87606865Y-52895002D02*
X87606865Y-53495002D01*
X87606865Y-48795002D02*
X87606865Y-49295002D01*
X87606865Y-41295002D02*
X87606865Y-40295002D01*
X87606865Y-40295002D02*
X88606865Y-40295002D01*
X92106865Y-49495002D02*
G75*
G03*
X93606865Y-50995002I1500000J0D01*
G01*
X92606865Y-53995002D02*
G75*
G03*
X92106865Y-53495002I-500000J0D01*
G01*
%TO.C,SW14*%
X29626865Y-82304999D02*
X28626865Y-82304999D01*
X29626865Y-81304999D02*
X29626865Y-82304999D01*
X29626865Y-68304999D02*
X29626865Y-69304999D01*
X28626865Y-68304999D02*
X29626865Y-68304999D01*
X24626865Y-83004999D02*
X24126865Y-83504999D01*
X24626865Y-79504999D02*
X24126865Y-79004999D01*
X24126865Y-83504999D02*
X21126865Y-83504999D01*
X24126865Y-79004999D02*
X21626865Y-79004999D01*
X21126865Y-83504999D02*
X20626865Y-83004999D01*
X20626865Y-82004999D02*
X20626865Y-83004999D01*
X20126865Y-77504999D02*
X20126865Y-76804999D01*
X20126865Y-76804999D02*
X15626865Y-76804999D01*
X16626865Y-82304999D02*
X15626865Y-82304999D01*
X15626865Y-82304999D02*
X15626865Y-81304999D01*
X15626865Y-81504999D02*
X20126865Y-81504999D01*
X15626865Y-80904999D02*
X15626865Y-81504999D01*
X15626865Y-76804999D02*
X15626865Y-77304999D01*
X15626865Y-69304999D02*
X15626865Y-68304999D01*
X15626865Y-68304999D02*
X16626865Y-68304999D01*
X20126865Y-77504999D02*
G75*
G03*
X21626865Y-79004999I1500000J0D01*
G01*
X20626865Y-82004999D02*
G75*
G03*
X20126865Y-81504999I-500000J0D01*
G01*
%TO.C,SW15*%
X47626864Y-70297001D02*
X46626864Y-70297001D01*
X47626864Y-69297001D02*
X47626864Y-70297001D01*
X47626864Y-56297001D02*
X47626864Y-57297001D01*
X46626864Y-56297001D02*
X47626864Y-56297001D01*
X42626864Y-70997001D02*
X42126864Y-71497001D01*
X42626864Y-67497001D02*
X42126864Y-66997001D01*
X42126864Y-71497001D02*
X39126864Y-71497001D01*
X42126864Y-66997001D02*
X39626864Y-66997001D01*
X39126864Y-71497001D02*
X38626864Y-70997001D01*
X38626864Y-69997001D02*
X38626864Y-70997001D01*
X38126864Y-65497001D02*
X38126864Y-64797001D01*
X38126864Y-64797001D02*
X33626864Y-64797001D01*
X34626864Y-70297001D02*
X33626864Y-70297001D01*
X33626864Y-70297001D02*
X33626864Y-69297001D01*
X33626864Y-69497001D02*
X38126864Y-69497001D01*
X33626864Y-68897001D02*
X33626864Y-69497001D01*
X33626864Y-64797001D02*
X33626864Y-65297001D01*
X33626864Y-57297001D02*
X33626864Y-56297001D01*
X33626864Y-56297001D02*
X34626864Y-56297001D01*
X38126864Y-65497001D02*
G75*
G03*
X39626864Y-66997001I1500000J0D01*
G01*
X38626864Y-69997001D02*
G75*
G03*
X38126864Y-69497001I-500000J0D01*
G01*
%TO.C,SW16*%
X65626863Y-63439003D02*
X64626863Y-63439003D01*
X65626863Y-62439003D02*
X65626863Y-63439003D01*
X65626863Y-49439003D02*
X65626863Y-50439003D01*
X64626863Y-49439003D02*
X65626863Y-49439003D01*
X60626863Y-64139003D02*
X60126863Y-64639003D01*
X60626863Y-60639003D02*
X60126863Y-60139003D01*
X60126863Y-64639003D02*
X57126863Y-64639003D01*
X60126863Y-60139003D02*
X57626863Y-60139003D01*
X57126863Y-64639003D02*
X56626863Y-64139003D01*
X56626863Y-63139003D02*
X56626863Y-64139003D01*
X56126863Y-58639003D02*
X56126863Y-57939003D01*
X56126863Y-57939003D02*
X51626863Y-57939003D01*
X52626863Y-63439003D02*
X51626863Y-63439003D01*
X51626863Y-63439003D02*
X51626863Y-62439003D01*
X51626863Y-62639003D02*
X56126863Y-62639003D01*
X51626863Y-62039003D02*
X51626863Y-62639003D01*
X51626863Y-57939003D02*
X51626863Y-58439003D01*
X51626863Y-50439003D02*
X51626863Y-49439003D01*
X51626863Y-49439003D02*
X52626863Y-49439003D01*
X56126863Y-58639003D02*
G75*
G03*
X57626863Y-60139003I1500000J0D01*
G01*
X56626863Y-63139003D02*
G75*
G03*
X56126863Y-62639003I-500000J0D01*
G01*
%TO.C,SW17*%
X83626865Y-68773005D02*
X82626865Y-68773005D01*
X83626865Y-67773005D02*
X83626865Y-68773005D01*
X83626865Y-54773005D02*
X83626865Y-55773005D01*
X82626865Y-54773005D02*
X83626865Y-54773005D01*
X78626865Y-69473005D02*
X78126865Y-69973005D01*
X78626865Y-65973005D02*
X78126865Y-65473005D01*
X78126865Y-69973005D02*
X75126865Y-69973005D01*
X78126865Y-65473005D02*
X75626865Y-65473005D01*
X75126865Y-69973005D02*
X74626865Y-69473005D01*
X74626865Y-68473005D02*
X74626865Y-69473005D01*
X74126865Y-63973005D02*
X74126865Y-63273005D01*
X74126865Y-63273005D02*
X69626865Y-63273005D01*
X70626865Y-68773005D02*
X69626865Y-68773005D01*
X69626865Y-68773005D02*
X69626865Y-67773005D01*
X69626865Y-67973005D02*
X74126865Y-67973005D01*
X69626865Y-67373005D02*
X69626865Y-67973005D01*
X69626865Y-63273005D02*
X69626865Y-63773005D01*
X69626865Y-55773005D02*
X69626865Y-54773005D01*
X69626865Y-54773005D02*
X70626865Y-54773005D01*
X74126865Y-63973005D02*
G75*
G03*
X75626865Y-65473005I1500000J0D01*
G01*
X74626865Y-68473005D02*
G75*
G03*
X74126865Y-67973005I-500000J0D01*
G01*
%TO.C,SW18*%
X101600519Y-71313002D02*
X100600519Y-71313002D01*
X101600519Y-70313002D02*
X101600519Y-71313002D01*
X101600519Y-57313002D02*
X101600519Y-58313002D01*
X100600519Y-57313002D02*
X101600519Y-57313002D01*
X96600519Y-72013002D02*
X96100519Y-72513002D01*
X96600519Y-68513002D02*
X96100519Y-68013002D01*
X96100519Y-72513002D02*
X93100519Y-72513002D01*
X96100519Y-68013002D02*
X93600519Y-68013002D01*
X93100519Y-72513002D02*
X92600519Y-72013002D01*
X92600519Y-71013002D02*
X92600519Y-72013002D01*
X92100519Y-66513002D02*
X92100519Y-65813002D01*
X92100519Y-65813002D02*
X87600519Y-65813002D01*
X88600519Y-71313002D02*
X87600519Y-71313002D01*
X87600519Y-71313002D02*
X87600519Y-70313002D01*
X87600519Y-70513002D02*
X92100519Y-70513002D01*
X87600519Y-69913002D02*
X87600519Y-70513002D01*
X87600519Y-65813002D02*
X87600519Y-66313002D01*
X87600519Y-58313002D02*
X87600519Y-57313002D01*
X87600519Y-57313002D02*
X88600519Y-57313002D01*
X92100519Y-66513002D02*
G75*
G03*
X93600519Y-68013002I1500000J0D01*
G01*
X92600519Y-71013002D02*
G75*
G03*
X92100519Y-70513002I-500000J0D01*
G01*
%TO.C,SW20*%
X107458697Y-99567180D02*
X106592671Y-99067180D01*
X107958697Y-98701154D02*
X107458697Y-99567180D01*
X114458697Y-87442824D02*
X113958697Y-88308850D01*
X113592671Y-86942824D02*
X114458697Y-87442824D01*
X102778570Y-97673398D02*
X102095557Y-97856410D01*
X104528570Y-94642309D02*
X104345557Y-93959296D01*
X102095557Y-97856410D02*
X99497481Y-96356410D01*
X104345557Y-93959296D02*
X102180494Y-92709296D01*
X99497481Y-96356410D02*
X99314468Y-95673398D01*
X99814468Y-94807372D02*
X99314468Y-95673398D01*
X101631455Y-90660258D02*
X101981455Y-90054040D01*
X101981455Y-90054040D02*
X98084341Y-87804040D01*
X96200367Y-93067180D02*
X95334341Y-92567180D01*
X95334341Y-92567180D02*
X95834341Y-91701154D01*
X95734341Y-91874360D02*
X99631455Y-94124360D01*
X96034341Y-91354744D02*
X95734341Y-91874360D01*
X98084341Y-87804040D02*
X97834341Y-88237053D01*
X101834341Y-81308850D02*
X102334341Y-80442824D01*
X102334341Y-80442824D02*
X103200367Y-80942824D01*
X101631457Y-90660259D02*
G75*
G03*
X102180494Y-92709295I1299037J-749999D01*
G01*
X99814467Y-94807371D02*
G75*
G03*
X99631455Y-94124360I-433012J249999D01*
G01*
D12*
%TO.C,REF\u002A\u002A*%
X48840731Y-31196959D02*
G75*
G03*
X47806866Y-35347503I19286255J-7008074D01*
G01*
X47806866Y-41062503D02*
G75*
G03*
X48840731Y-45213049I20320000J2857500D01*
G01*
X65269366Y-17885003D02*
G75*
G03*
X61118820Y-18918868I2857500J-20320000D01*
G01*
X61118821Y-57491138D02*
G75*
G03*
X65269366Y-58525003I7008045J19286135D01*
G01*
X68126866Y-27410004D02*
G75*
G03*
X66998481Y-27469140I-6J-10794920D01*
G01*
X69255251Y-27469140D02*
G75*
G03*
X68126866Y-27410003I-1128385J-10735763D01*
G01*
X66998481Y-48940867D02*
G75*
G03*
X68126866Y-49000003I1128379J10735785D01*
G01*
X68126866Y-49000003D02*
G75*
G03*
X69255251Y-48940866I0J10794900D01*
G01*
X75134915Y-18918870D02*
G75*
G03*
X70984366Y-17885003I-7008049J-19286133D01*
G01*
X70984366Y-58525003D02*
G75*
G03*
X75134911Y-57491138I-2857506J20320019D01*
G01*
X88446866Y-35347503D02*
G75*
G03*
X87413000Y-31196955I-20320000J-2857500D01*
G01*
X87413000Y-45213051D02*
G75*
G03*
X88446866Y-41062503I-19286134J7008048D01*
G01*
D13*
X70207818Y-53431359D02*
X70116974Y-53339083D01*
X70103193Y-53325087D01*
X70071332Y-53292734D01*
X70025385Y-53246080D01*
X69966569Y-53186362D01*
X69896102Y-53114817D01*
X69815203Y-53032680D01*
X69725088Y-52941187D01*
X69626976Y-52841576D01*
X69522084Y-52735083D01*
X69411630Y-52622943D01*
X69296831Y-52506394D01*
X69178906Y-52386671D01*
X68331682Y-51526534D01*
X68620050Y-51523441D01*
X68908418Y-51520347D01*
X69711364Y-52323047D01*
X69711364Y-50689489D01*
X70207818Y-50689489D01*
X70207818Y-53431359D01*
G36*
X70207818Y-53431359D02*
G01*
X70116974Y-53339083D01*
X70103193Y-53325087D01*
X70071332Y-53292734D01*
X70025385Y-53246080D01*
X69966569Y-53186362D01*
X69896102Y-53114817D01*
X69815203Y-53032680D01*
X69725088Y-52941187D01*
X69626976Y-52841576D01*
X69522084Y-52735083D01*
X69411630Y-52622943D01*
X69296831Y-52506394D01*
X69178906Y-52386671D01*
X68331682Y-51526534D01*
X68620050Y-51523441D01*
X68908418Y-51520347D01*
X69711364Y-52323047D01*
X69711364Y-50689489D01*
X70207818Y-50689489D01*
X70207818Y-53431359D01*
G37*
X68914050Y-52721672D02*
X68926279Y-52731720D01*
X68951761Y-52755340D01*
X68987908Y-52790053D01*
X69032132Y-52833378D01*
X69081845Y-52882833D01*
X69242880Y-53044177D01*
X69208998Y-53081992D01*
X69205821Y-53085484D01*
X69183953Y-53108693D01*
X69149607Y-53144439D01*
X69105791Y-53189619D01*
X69055508Y-53241132D01*
X69001766Y-53295875D01*
X68828416Y-53471944D01*
X68208402Y-53471944D01*
X68236703Y-53438309D01*
X68238996Y-53435618D01*
X68259664Y-53412389D01*
X68292422Y-53376549D01*
X68335282Y-53330204D01*
X68386254Y-53275461D01*
X68443350Y-53214426D01*
X68504580Y-53149207D01*
X68567955Y-53081909D01*
X68631488Y-53014639D01*
X68693187Y-52949504D01*
X68751066Y-52888610D01*
X68803133Y-52834064D01*
X68847402Y-52787972D01*
X68881881Y-52752441D01*
X68904584Y-52729578D01*
X68913519Y-52721489D01*
X68914050Y-52721672D01*
G36*
X68914050Y-52721672D02*
G01*
X68926279Y-52731720D01*
X68951761Y-52755340D01*
X68987908Y-52790053D01*
X69032132Y-52833378D01*
X69081845Y-52882833D01*
X69242880Y-53044177D01*
X69208998Y-53081992D01*
X69205821Y-53085484D01*
X69183953Y-53108693D01*
X69149607Y-53144439D01*
X69105791Y-53189619D01*
X69055508Y-53241132D01*
X69001766Y-53295875D01*
X68828416Y-53471944D01*
X68208402Y-53471944D01*
X68236703Y-53438309D01*
X68238996Y-53435618D01*
X68259664Y-53412389D01*
X68292422Y-53376549D01*
X68335282Y-53330204D01*
X68386254Y-53275461D01*
X68443350Y-53214426D01*
X68504580Y-53149207D01*
X68567955Y-53081909D01*
X68631488Y-53014639D01*
X68693187Y-52949504D01*
X68751066Y-52888610D01*
X68803133Y-52834064D01*
X68847402Y-52787972D01*
X68881881Y-52752441D01*
X68904584Y-52729578D01*
X68913519Y-52721489D01*
X68914050Y-52721672D01*
G37*
X68006928Y-52585295D02*
X68004583Y-52635367D01*
X68001970Y-52663762D01*
X67993101Y-52710212D01*
X67955548Y-52837372D01*
X67900382Y-52963235D01*
X67830690Y-53081417D01*
X67749559Y-53185537D01*
X67741165Y-53194703D01*
X67632853Y-53295029D01*
X67510433Y-53379026D01*
X67377260Y-53445005D01*
X67236692Y-53491280D01*
X67092084Y-53516161D01*
X66991838Y-53520644D01*
X66843417Y-53509245D01*
X66699998Y-53476992D01*
X66563762Y-53424969D01*
X66436887Y-53354255D01*
X66321554Y-53265933D01*
X66219941Y-53161084D01*
X66134229Y-53040791D01*
X66076974Y-52933872D01*
X66023829Y-52794636D01*
X65992473Y-52650072D01*
X65985969Y-52553708D01*
X66481208Y-52553708D01*
X66481490Y-52558998D01*
X66485808Y-52614301D01*
X66493165Y-52656593D01*
X66505810Y-52695201D01*
X66525991Y-52739447D01*
X66547479Y-52777774D01*
X66588964Y-52836568D01*
X66637021Y-52892024D01*
X66686344Y-52938218D01*
X66731630Y-52969222D01*
X66747797Y-52976998D01*
X66788702Y-52994358D01*
X66831699Y-53010444D01*
X66904526Y-53029732D01*
X67008227Y-53038253D01*
X67109768Y-53025459D01*
X67206554Y-52992327D01*
X67295986Y-52939834D01*
X67375467Y-52868957D01*
X67442401Y-52780674D01*
X67471055Y-52726529D01*
X67501487Y-52632510D01*
X67512059Y-52534961D01*
X67503753Y-52437013D01*
X67477551Y-52341800D01*
X67434438Y-52252453D01*
X67375395Y-52172107D01*
X67301405Y-52103893D01*
X67213453Y-52050944D01*
X67199450Y-52044658D01*
X67101104Y-52014033D01*
X66999752Y-52003851D01*
X66898848Y-52013171D01*
X66801849Y-52041049D01*
X66712213Y-52086545D01*
X66633396Y-52148715D01*
X66568854Y-52226619D01*
X66551084Y-52255148D01*
X66507432Y-52348571D01*
X66484576Y-52446463D01*
X66481208Y-52553708D01*
X65985969Y-52553708D01*
X65982182Y-52497594D01*
X65985743Y-52407924D01*
X66008424Y-52257645D01*
X66051176Y-52115676D01*
X66112986Y-51983691D01*
X66192844Y-51863366D01*
X66289738Y-51756377D01*
X66402658Y-51664397D01*
X66530591Y-51589104D01*
X66600442Y-51556465D01*
X66675580Y-51527248D01*
X66747232Y-51507756D01*
X66823715Y-51495819D01*
X66913350Y-51489267D01*
X66931162Y-51488599D01*
X67070363Y-51495037D01*
X67200746Y-51522713D01*
X67322962Y-51571817D01*
X67437659Y-51642539D01*
X67461793Y-51659741D01*
X67486639Y-51676084D01*
X67499070Y-51682398D01*
X67499978Y-51678368D01*
X67501427Y-51654561D01*
X67502754Y-51611438D01*
X67503923Y-51551363D01*
X67504899Y-51476701D01*
X67505649Y-51389815D01*
X67506138Y-51293070D01*
X67506330Y-51188830D01*
X67506478Y-50695262D01*
X68014182Y-51205288D01*
X68014095Y-51897002D01*
X68014092Y-51908738D01*
X68013831Y-52059212D01*
X68013167Y-52196484D01*
X68012123Y-52319140D01*
X68010720Y-52425769D01*
X68008981Y-52514958D01*
X68008397Y-52534961D01*
X68006928Y-52585295D01*
G36*
X68006928Y-52585295D02*
G01*
X68004583Y-52635367D01*
X68001970Y-52663762D01*
X67993101Y-52710212D01*
X67955548Y-52837372D01*
X67900382Y-52963235D01*
X67830690Y-53081417D01*
X67749559Y-53185537D01*
X67741165Y-53194703D01*
X67632853Y-53295029D01*
X67510433Y-53379026D01*
X67377260Y-53445005D01*
X67236692Y-53491280D01*
X67092084Y-53516161D01*
X66991838Y-53520644D01*
X66843417Y-53509245D01*
X66699998Y-53476992D01*
X66563762Y-53424969D01*
X66436887Y-53354255D01*
X66321554Y-53265933D01*
X66219941Y-53161084D01*
X66134229Y-53040791D01*
X66076974Y-52933872D01*
X66023829Y-52794636D01*
X65992473Y-52650072D01*
X65985969Y-52553708D01*
X66481208Y-52553708D01*
X66481490Y-52558998D01*
X66485808Y-52614301D01*
X66493165Y-52656593D01*
X66505810Y-52695201D01*
X66525991Y-52739447D01*
X66547479Y-52777774D01*
X66588964Y-52836568D01*
X66637021Y-52892024D01*
X66686344Y-52938218D01*
X66731630Y-52969222D01*
X66747797Y-52976998D01*
X66788702Y-52994358D01*
X66831699Y-53010444D01*
X66904526Y-53029732D01*
X67008227Y-53038253D01*
X67109768Y-53025459D01*
X67206554Y-52992327D01*
X67295986Y-52939834D01*
X67375467Y-52868957D01*
X67442401Y-52780674D01*
X67471055Y-52726529D01*
X67501487Y-52632510D01*
X67512059Y-52534961D01*
X67503753Y-52437013D01*
X67477551Y-52341800D01*
X67434438Y-52252453D01*
X67375395Y-52172107D01*
X67301405Y-52103893D01*
X67213453Y-52050944D01*
X67199450Y-52044658D01*
X67101104Y-52014033D01*
X66999752Y-52003851D01*
X66898848Y-52013171D01*
X66801849Y-52041049D01*
X66712213Y-52086545D01*
X66633396Y-52148715D01*
X66568854Y-52226619D01*
X66551084Y-52255148D01*
X66507432Y-52348571D01*
X66484576Y-52446463D01*
X66481208Y-52553708D01*
X65985969Y-52553708D01*
X65982182Y-52497594D01*
X65985743Y-52407924D01*
X66008424Y-52257645D01*
X66051176Y-52115676D01*
X66112986Y-51983691D01*
X66192844Y-51863366D01*
X66289738Y-51756377D01*
X66402658Y-51664397D01*
X66530591Y-51589104D01*
X66600442Y-51556465D01*
X66675580Y-51527248D01*
X66747232Y-51507756D01*
X66823715Y-51495819D01*
X66913350Y-51489267D01*
X66931162Y-51488599D01*
X67070363Y-51495037D01*
X67200746Y-51522713D01*
X67322962Y-51571817D01*
X67437659Y-51642539D01*
X67461793Y-51659741D01*
X67486639Y-51676084D01*
X67499070Y-51682398D01*
X67499978Y-51678368D01*
X67501427Y-51654561D01*
X67502754Y-51611438D01*
X67503923Y-51551363D01*
X67504899Y-51476701D01*
X67505649Y-51389815D01*
X67506138Y-51293070D01*
X67506330Y-51188830D01*
X67506478Y-50695262D01*
X68014182Y-51205288D01*
X68014095Y-51897002D01*
X68014092Y-51908738D01*
X68013831Y-52059212D01*
X68013167Y-52196484D01*
X68012123Y-52319140D01*
X68010720Y-52425769D01*
X68008981Y-52514958D01*
X68008397Y-52534961D01*
X68006928Y-52585295D01*
G37*
D14*
%TO.C,U1*%
X122266864Y-26161752D02*
X104486864Y-26161752D01*
X104486864Y-26161752D02*
X104486864Y-59181752D01*
X122266864Y-59181752D02*
X122266864Y-26161752D01*
X104486864Y-59181752D02*
X122266864Y-59181752D01*
D15*
%TO.C,JP2*%
X114710000Y-64190000D02*
X116710000Y-64190000D01*
X116710000Y-64190000D02*
X116710000Y-61390000D01*
X114710000Y-61390000D02*
X114710000Y-64190000D01*
X116710000Y-61390000D02*
X114710000Y-61390000D01*
D10*
%TO.C,SW7*%
X122890000Y-71270000D02*
X122890000Y-73470000D01*
X118290000Y-71270000D02*
X118290000Y-79870000D01*
X122890000Y-77570000D02*
X122890000Y-79870000D01*
D15*
%TO.C,JP1*%
X117230000Y-64190000D02*
X119230000Y-64190000D01*
X119230000Y-64190000D02*
X119230000Y-61390000D01*
X117230000Y-61390000D02*
X117230000Y-64190000D01*
X119230000Y-61390000D02*
X117230000Y-61390000D01*
%TO.C,JP4*%
X107070000Y-64190000D02*
X109070000Y-64190000D01*
X109070000Y-64190000D02*
X109070000Y-61390000D01*
X107070000Y-61390000D02*
X107070000Y-64190000D01*
X109070000Y-61390000D02*
X107070000Y-61390000D01*
%TO.C,JP3*%
X109620000Y-64190000D02*
X111620000Y-64190000D01*
X111620000Y-64190000D02*
X111620000Y-61390000D01*
X109620000Y-61390000D02*
X109620000Y-64190000D01*
X111620000Y-61390000D02*
X109620000Y-61390000D01*
D16*
%TO.C,REF\u002A\u002A*%
X26135199Y-27216519D02*
X26114350Y-27430223D01*
X26114350Y-27430223D02*
X26053072Y-27632867D01*
X26114350Y-27002895D02*
X26135199Y-27216519D01*
X26053073Y-26800383D02*
X26114350Y-27002895D01*
X26053072Y-27632867D02*
X25953272Y-27819530D01*
X25953272Y-27819530D02*
X25816853Y-27985291D01*
X25953272Y-26613747D02*
X26053073Y-26800383D01*
X25816853Y-27985291D02*
X24290027Y-29512123D01*
X25816853Y-26447747D02*
X25953272Y-26613747D01*
X25646444Y-26308655D02*
X25816853Y-26447747D01*
X25583736Y-27216519D02*
X25543167Y-27011273D01*
X25543167Y-27421553D02*
X25583736Y-27216519D01*
X25543167Y-27011273D02*
X25426821Y-26837777D01*
X25457302Y-26209304D02*
X25646444Y-26308655D01*
X25426821Y-27595261D02*
X25543167Y-27421553D01*
X25426821Y-26837777D02*
X25249639Y-26720302D01*
X25255672Y-26149694D02*
X25457302Y-26209304D01*
X25249639Y-26720302D02*
X25047797Y-26681144D01*
X25048079Y-27974003D02*
X25426821Y-27595261D01*
X25047798Y-26129824D02*
X25255672Y-26149694D01*
X25047797Y-26681144D02*
X24845955Y-26720302D01*
X24845955Y-26720302D02*
X24668773Y-26837777D01*
X24839924Y-26149694D02*
X25047798Y-26129824D01*
X24716182Y-30277226D02*
X24701259Y-30433394D01*
X24701259Y-30433394D02*
X24656492Y-30584866D01*
X24701259Y-30121059D02*
X24716182Y-30277226D01*
X24668773Y-26837777D02*
X24278743Y-26447747D01*
X24657487Y-28364043D02*
X24060869Y-27767425D01*
X24656492Y-30584866D02*
X24581880Y-30726945D01*
X24656492Y-29969587D02*
X24701259Y-30121059D01*
X24638294Y-26209304D02*
X24839924Y-26149694D01*
X24581880Y-30726945D02*
X24477422Y-30854934D01*
X24581880Y-29827508D02*
X24656492Y-29969587D01*
X24477422Y-30854934D02*
X24349408Y-30959392D01*
X24477422Y-29699518D02*
X24581880Y-29827508D01*
X24449152Y-26308655D02*
X24638294Y-26209304D01*
X24349408Y-30959392D02*
X24207265Y-31034004D01*
X24290027Y-29512123D02*
X24477422Y-29699518D01*
X24278743Y-26447747D02*
X24449152Y-26308655D01*
X24207265Y-31034004D02*
X24055704Y-31078772D01*
X24173758Y-27207497D02*
X24168113Y-27094044D01*
X24168113Y-27094044D02*
X25048079Y-27974003D01*
X24164873Y-30277783D02*
X24145505Y-30177806D01*
X24145505Y-30377761D02*
X24164873Y-30277783D01*
X24145505Y-30177806D02*
X24087403Y-30090105D01*
X24145465Y-27495293D02*
X24173758Y-27207497D01*
X24087403Y-30465461D02*
X24145505Y-30377761D01*
X24087403Y-30090105D02*
X23900008Y-29902710D01*
X24060869Y-27767425D02*
X24145465Y-27495293D01*
X24055704Y-31078772D02*
X23899432Y-31093694D01*
X24000496Y-30521976D02*
X24087403Y-30465461D01*
X23900008Y-29902710D02*
X23712612Y-30090105D01*
X23900007Y-29122083D02*
X24657487Y-28364043D01*
X23900007Y-29122083D02*
X23900007Y-29122083D01*
X23899725Y-30540814D02*
X24000496Y-30521976D01*
X23899432Y-31093694D02*
X23743240Y-31078772D01*
X23843555Y-27209194D02*
X23802351Y-27508914D01*
X23827081Y-27022265D02*
X23843555Y-27209194D01*
X23802351Y-27508914D02*
X23695318Y-27761714D01*
X23798954Y-30521976D02*
X23899725Y-30540814D01*
X23779491Y-26843645D02*
X23827081Y-27022265D01*
X23743240Y-31078772D02*
X23591810Y-31034004D01*
X23712612Y-30090105D02*
X23654179Y-30177726D01*
X23712047Y-30465461D02*
X23798954Y-30521976D01*
X23712047Y-30465461D02*
X23712047Y-30465461D01*
X23702268Y-26676349D02*
X23779491Y-26843645D01*
X23695318Y-27761714D02*
X23525209Y-27981918D01*
X23654179Y-30177726D02*
X23634643Y-30277571D01*
X23653950Y-30377522D02*
X23712047Y-30465461D01*
X23634643Y-30277571D02*
X23653950Y-30377522D01*
X23596893Y-26523394D02*
X23702268Y-26676349D01*
X23591810Y-31034004D02*
X23449694Y-30959392D01*
X23525209Y-27981918D02*
X23142515Y-28364612D01*
X23520129Y-26438727D02*
X23596893Y-26523394D01*
X23509967Y-29512123D02*
X22751919Y-28754075D01*
X23449694Y-30959392D02*
X23321442Y-30854934D01*
X23349822Y-26301567D02*
X23520129Y-26438727D01*
X23321442Y-30854934D02*
X23216985Y-30726945D01*
X23321442Y-29699518D02*
X23509967Y-29512123D01*
X23290958Y-27210311D02*
X23258785Y-27031947D01*
X23258785Y-27031947D02*
X23169038Y-26875595D01*
X23250812Y-27416686D02*
X23290958Y-27210311D01*
X23216985Y-30726945D02*
X23142373Y-30584866D01*
X23216985Y-29827508D02*
X23321442Y-29699518D01*
X23169038Y-26875595D02*
X23131785Y-26831004D01*
X23160975Y-26203777D02*
X23349822Y-26301567D01*
X23142515Y-28364612D02*
X23900007Y-29122083D01*
X23142373Y-30584866D02*
X23097605Y-30433394D01*
X23142373Y-29969587D02*
X23216985Y-29827508D01*
X23134043Y-27591311D02*
X23250812Y-27416686D01*
X23131785Y-26831004D02*
X23130656Y-26829875D01*
X23130656Y-26829875D02*
X22955890Y-26715787D01*
X23097605Y-30433394D02*
X23082683Y-30277226D01*
X23097605Y-30121059D02*
X23142373Y-29969587D01*
X23082683Y-30277226D02*
X23097605Y-30121059D01*
X22959811Y-26145357D02*
X23160975Y-26203777D01*
X22955890Y-26715787D02*
X22756994Y-26677475D01*
X22756994Y-26677475D02*
X22552948Y-26717339D01*
X22752556Y-26126307D02*
X22959811Y-26145357D01*
X22751919Y-28754075D02*
X22373177Y-29132817D01*
X22751349Y-27974005D02*
X23134043Y-27591311D01*
X22552948Y-26717339D02*
X22372608Y-26837213D01*
X22545432Y-26146627D02*
X22752556Y-26126307D01*
X22373177Y-29132817D02*
X21983147Y-28742787D01*
X22372608Y-26837213D02*
X22256262Y-27010921D01*
X22372607Y-27595263D02*
X22751349Y-27974005D01*
X22372607Y-27595263D02*
X22372607Y-27595263D01*
X22361889Y-28364045D02*
X21983147Y-27985303D01*
X22344666Y-26206317D02*
X22545432Y-26146627D01*
X22256267Y-27421060D02*
X22372607Y-27595263D01*
X22256262Y-27010921D02*
X22215693Y-27215955D01*
X22215693Y-27215955D02*
X22256267Y-27421060D01*
X22156480Y-26305377D02*
X22344666Y-26206317D01*
X21987099Y-26443807D02*
X22156480Y-26305377D01*
X21983147Y-28742787D02*
X22361889Y-28364045D01*
X21983147Y-27985303D02*
X21846728Y-27819303D01*
X21848395Y-26611852D02*
X21987099Y-26443807D01*
X21846728Y-27819303D02*
X21746927Y-27632667D01*
X21747422Y-26799689D02*
X21848395Y-26611852D01*
X21746927Y-27632667D02*
X21685650Y-27430155D01*
X21685712Y-27002766D02*
X21747422Y-26799689D01*
X21685650Y-27430155D02*
X21664801Y-27216531D01*
X21664801Y-27216531D02*
X21685712Y-27002766D01*
%TD*%
D17*
%TO.C,U1*%
X105756864Y-29971752D03*
X105756864Y-32511752D03*
X105756864Y-35051752D03*
X105756864Y-37591752D03*
X105756864Y-40131752D03*
X105756864Y-42671752D03*
X105756864Y-45211752D03*
X105756864Y-47751752D03*
X105756864Y-50291752D03*
X105756864Y-52831752D03*
X105756864Y-55371752D03*
X105756864Y-57911752D03*
X120996864Y-57911752D03*
X120996864Y-55371752D03*
X120996864Y-52831752D03*
X120996864Y-50291752D03*
X120996864Y-47751752D03*
X120996864Y-45211752D03*
X120996864Y-42671752D03*
X120996864Y-40131752D03*
X120996864Y-37591752D03*
X120996864Y-35051752D03*
X120996864Y-32511752D03*
X120996864Y-29971752D03*
X108296864Y-52831752D03*
X110836864Y-52831752D03*
X113376864Y-52831752D03*
%TD*%
%LPC*%
D18*
%TO.C,SW21*%
X91649111Y-83678507D03*
D19*
X90195577Y-87171319D03*
X84796546Y-88002261D03*
D20*
X86336519Y-82255002D03*
D19*
X80536318Y-84583129D03*
D18*
X81023927Y-80831497D03*
D21*
X87959953Y-88849893D03*
D22*
X87863551Y-76556040D03*
X92149661Y-79878579D03*
X82490402Y-77290389D03*
D21*
X77372911Y-83735496D03*
%TD*%
D23*
%TO.C,RSW1*%
X75451865Y-14657504D03*
D24*
X72951865Y-15867504D03*
X77951865Y-15867504D03*
%TD*%
D18*
%TO.C,SW2*%
X28126865Y-41305002D03*
D19*
X27626865Y-45055002D03*
X22626865Y-47255002D03*
D20*
X22626865Y-41305002D03*
D19*
X17626865Y-45055002D03*
D18*
X17126865Y-41305002D03*
D25*
X25901865Y-47255002D03*
D22*
X22626865Y-35405002D03*
X27626865Y-37505002D03*
X17626865Y-37505002D03*
D25*
X14351865Y-45055002D03*
%TD*%
D18*
%TO.C,SW3*%
X46126867Y-29305002D03*
D19*
X45626867Y-33055002D03*
X40626867Y-35255002D03*
D20*
X40626867Y-29305002D03*
D19*
X35626867Y-33055002D03*
D18*
X35126867Y-29305002D03*
D25*
X43901867Y-35255002D03*
D22*
X40626867Y-23405002D03*
X45626867Y-25505002D03*
X35626867Y-25505002D03*
D25*
X32351867Y-33055002D03*
%TD*%
D18*
%TO.C,SW4*%
X64126864Y-22305002D03*
D19*
X63626864Y-26055002D03*
X58626864Y-28255002D03*
D20*
X58626864Y-22305002D03*
D19*
X53626864Y-26055002D03*
D18*
X53126864Y-22305002D03*
D25*
X61901864Y-28255002D03*
D22*
X58626864Y-16405002D03*
X63626864Y-18505002D03*
X53626864Y-18505002D03*
D25*
X50351864Y-26055002D03*
%TD*%
D18*
%TO.C,SW5*%
X82126865Y-27805003D03*
D19*
X81626865Y-31555003D03*
X76626865Y-33755003D03*
D20*
X76626865Y-27805003D03*
D19*
X71626865Y-31555003D03*
D18*
X71126865Y-27805003D03*
D25*
X79901865Y-33755003D03*
D22*
X76626865Y-21905003D03*
X81626865Y-24005003D03*
X71626865Y-24005003D03*
D25*
X68351865Y-31555003D03*
%TD*%
D18*
%TO.C,SW6*%
X100126863Y-30305002D03*
D19*
X99626863Y-34055002D03*
X94626863Y-36255002D03*
D20*
X94626863Y-30305002D03*
D19*
X89626863Y-34055002D03*
D18*
X89126863Y-30305002D03*
D25*
X97901863Y-36255002D03*
D22*
X94626863Y-24405002D03*
X99626863Y-26505002D03*
X89626863Y-26505002D03*
D25*
X86351863Y-34055002D03*
%TD*%
D18*
%TO.C,SW8*%
X28126865Y-58305002D03*
D19*
X27626865Y-62055002D03*
X22626865Y-64255002D03*
D20*
X22626865Y-58305002D03*
D19*
X17626865Y-62055002D03*
D18*
X17126865Y-58305002D03*
D25*
X25901865Y-64255002D03*
D22*
X22626865Y-52405002D03*
X27626865Y-54505002D03*
X17626865Y-54505002D03*
D25*
X14351865Y-62055002D03*
%TD*%
D18*
%TO.C,SW9*%
X46126867Y-46279002D03*
D19*
X45626867Y-50029002D03*
X40626867Y-52229002D03*
D20*
X40626867Y-46279002D03*
D19*
X35626867Y-50029002D03*
D18*
X35126867Y-46279002D03*
D25*
X43901867Y-52229002D03*
D22*
X40626867Y-40379002D03*
X45626867Y-42479002D03*
X35626867Y-42479002D03*
D25*
X32351867Y-50029002D03*
%TD*%
D18*
%TO.C,SW10*%
X64126866Y-39421002D03*
D19*
X63626866Y-43171002D03*
X58626866Y-45371002D03*
D20*
X58626866Y-39421002D03*
D19*
X53626866Y-43171002D03*
D18*
X53126866Y-39421002D03*
D25*
X61901866Y-45371002D03*
D22*
X58626866Y-33521002D03*
X63626866Y-35621002D03*
X53626866Y-35621002D03*
D25*
X50351866Y-43171002D03*
%TD*%
D18*
%TO.C,SW11*%
X82126867Y-44755005D03*
D19*
X81626867Y-48505005D03*
X76626867Y-50705005D03*
D20*
X76626867Y-44755005D03*
D19*
X71626867Y-48505005D03*
D18*
X71126867Y-44755005D03*
D25*
X79901867Y-50705005D03*
D22*
X76626867Y-38855005D03*
X81626867Y-40955005D03*
X71626867Y-40955005D03*
D25*
X68351867Y-48505005D03*
%TD*%
D18*
%TO.C,SW12*%
X100106865Y-47295002D03*
D19*
X99606865Y-51045002D03*
X94606865Y-53245002D03*
D20*
X94606865Y-47295002D03*
D19*
X89606865Y-51045002D03*
D18*
X89106865Y-47295002D03*
D25*
X97881865Y-53245002D03*
D22*
X94606865Y-41395002D03*
X99606865Y-43495002D03*
X89606865Y-43495002D03*
D25*
X86331865Y-51045002D03*
%TD*%
D18*
%TO.C,SW14*%
X28126865Y-75304999D03*
D19*
X27626865Y-79054999D03*
X22626865Y-81254999D03*
D20*
X22626865Y-75304999D03*
D19*
X17626865Y-79054999D03*
D18*
X17126865Y-75304999D03*
D25*
X25901865Y-81254999D03*
D22*
X22626865Y-69404999D03*
X27626865Y-71504999D03*
X17626865Y-71504999D03*
D25*
X14351865Y-79054999D03*
%TD*%
D18*
%TO.C,SW15*%
X46126864Y-63297001D03*
D19*
X45626864Y-67047001D03*
X40626864Y-69247001D03*
D20*
X40626864Y-63297001D03*
D19*
X35626864Y-67047001D03*
D18*
X35126864Y-63297001D03*
D25*
X43901864Y-69247001D03*
D22*
X40626864Y-57397001D03*
X45626864Y-59497001D03*
X35626864Y-59497001D03*
D25*
X32351864Y-67047001D03*
%TD*%
D18*
%TO.C,SW16*%
X64126863Y-56439003D03*
D19*
X63626863Y-60189003D03*
X58626863Y-62389003D03*
D20*
X58626863Y-56439003D03*
D19*
X53626863Y-60189003D03*
D18*
X53126863Y-56439003D03*
D25*
X61901863Y-62389003D03*
D22*
X58626863Y-50539003D03*
X63626863Y-52639003D03*
X53626863Y-52639003D03*
D25*
X50351863Y-60189003D03*
%TD*%
D18*
%TO.C,SW17*%
X82126865Y-61773005D03*
D19*
X81626865Y-65523005D03*
X76626865Y-67723005D03*
D20*
X76626865Y-61773005D03*
D19*
X71626865Y-65523005D03*
D18*
X71126865Y-61773005D03*
D25*
X79901865Y-67723005D03*
D22*
X76626865Y-55873005D03*
X81626865Y-57973005D03*
X71626865Y-57973005D03*
D25*
X68351865Y-65523005D03*
%TD*%
D18*
%TO.C,SW18*%
X100100519Y-64313002D03*
D19*
X99600519Y-68063002D03*
X94600519Y-70263002D03*
D20*
X94600519Y-64313002D03*
D19*
X89600519Y-68063002D03*
D18*
X89100519Y-64313002D03*
D25*
X97875519Y-70263002D03*
D22*
X94600519Y-58413002D03*
X99600519Y-60513002D03*
X89600519Y-60513002D03*
D25*
X86325519Y-68063002D03*
%TD*%
D18*
%TO.C,SW20*%
X109659659Y-92755002D03*
D19*
X107351646Y-95752597D03*
X101921519Y-95157853D03*
D20*
X104896519Y-90005002D03*
D19*
X98691392Y-90752597D03*
D18*
X100133379Y-87255002D03*
D26*
X104757752Y-96795353D03*
D22*
X107846519Y-84895452D03*
X111126646Y-89214105D03*
X102466392Y-84214105D03*
D26*
X95855159Y-89115097D03*
%TD*%
D27*
%TO.C,REF\u002A\u002A*%
X49076866Y-38205003D03*
X68126866Y-19155003D03*
X68126866Y-57255003D03*
X87176866Y-38205003D03*
%TD*%
D17*
%TO.C,U1*%
X105756864Y-29971752D03*
X105756864Y-32511752D03*
X105756864Y-35051752D03*
X105756864Y-37591752D03*
X105756864Y-40131752D03*
X105756864Y-42671752D03*
X105756864Y-45211752D03*
X105756864Y-47751752D03*
X105756864Y-50291752D03*
X105756864Y-52831752D03*
X105756864Y-55371752D03*
X105756864Y-57911752D03*
X120996864Y-57911752D03*
X120996864Y-55371752D03*
X120996864Y-52831752D03*
X120996864Y-50291752D03*
X120996864Y-47751752D03*
X120996864Y-45211752D03*
X120996864Y-42671752D03*
X120996864Y-40131752D03*
X120996864Y-37591752D03*
X120996864Y-35051752D03*
X120996864Y-32511752D03*
X120996864Y-29971752D03*
X108296864Y-52831752D03*
X110836864Y-52831752D03*
X113376864Y-52831752D03*
%TD*%
D28*
%TO.C,J1*%
X114733066Y-73312291D03*
D29*
X114733066Y-75312291D03*
X114733066Y-77312291D03*
%TD*%
D17*
%TO.C,Display1*%
X108073066Y-65902292D03*
X110613066Y-65902292D03*
X113153066Y-65902292D03*
X115693066Y-65902292D03*
X118233066Y-65902292D03*
%TD*%
D30*
%TO.C,JP2*%
X115710000Y-63515000D03*
D31*
X115710000Y-62065000D03*
%TD*%
D32*
%TO.C,SW7*%
X120590000Y-71470000D03*
X120590000Y-79670000D03*
D33*
X120590000Y-73570000D03*
D34*
X120590000Y-75570000D03*
X120590000Y-77570000D03*
%TD*%
D30*
%TO.C,JP1*%
X118230000Y-63515000D03*
D31*
X118230000Y-62065000D03*
%TD*%
D30*
%TO.C,JP4*%
X108070000Y-63515000D03*
D31*
X108070000Y-62065000D03*
%TD*%
D30*
%TO.C,JP3*%
X110620000Y-63515000D03*
D31*
X110620000Y-62065000D03*
%TD*%
%LPD*%
M02*
