%TF.GenerationSoftware,KiCad,Pcbnew,7.0.8*%
%TF.CreationDate,2023-10-31T13:57:00-04:00*%
%TF.ProjectId,half-swept,68616c66-2d73-4776-9570-742e6b696361,rev?*%
%TF.SameCoordinates,Original*%
%TF.FileFunction,Legend,Top*%
%TF.FilePolarity,Positive*%
%FSLAX46Y46*%
G04 Gerber Fmt 4.6, Leading zero omitted, Abs format (unit mm)*
G04 Created by KiCad (PCBNEW 7.0.8) date 2023-10-31 13:57:00*
%MOMM*%
%LPD*%
G01*
G04 APERTURE LIST*
G04 Aperture macros list*
%AMRoundRect*
0 Rectangle with rounded corners*
0 $1 Rounding radius*
0 $2 $3 $4 $5 $6 $7 $8 $9 X,Y pos of 4 corners*
0 Add a 4 corners polygon primitive as box body*
4,1,4,$2,$3,$4,$5,$6,$7,$8,$9,$2,$3,0*
0 Add four circle primitives for the rounded corners*
1,1,$1+$1,$2,$3*
1,1,$1+$1,$4,$5*
1,1,$1+$1,$6,$7*
1,1,$1+$1,$8,$9*
0 Add four rect primitives between the rounded corners*
20,1,$1+$1,$2,$3,$4,$5,0*
20,1,$1+$1,$4,$5,$6,$7,0*
20,1,$1+$1,$6,$7,$8,$9,0*
20,1,$1+$1,$8,$9,$2,$3,0*%
%AMRotRect*
0 Rectangle, with rotation*
0 The origin of the aperture is its center*
0 $1 length*
0 $2 width*
0 $3 Rotation angle, in degrees counterclockwise*
0 Add horizontal line*
21,1,$1,$2,0,0,$3*%
%AMFreePoly0*
4,1,6,1.000000,0.000000,0.500000,-0.750000,-0.500000,-0.750000,-0.500000,0.750000,0.500000,0.750000,1.000000,0.000000,1.000000,0.000000,$1*%
%AMFreePoly1*
4,1,6,0.500000,-0.750000,-0.650000,-0.750000,-0.150000,0.000000,-0.650000,0.750000,0.500000,0.750000,0.500000,-0.750000,0.500000,-0.750000,$1*%
G04 Aperture macros list end*
%ADD10C,0.150000*%
%ADD11C,0.100000*%
%ADD12C,0.300000*%
%ADD13C,0.120000*%
%ADD14C,0.200000*%
%ADD15C,0.010000*%
%ADD16C,0.381000*%
%ADD17C,0.040000*%
%ADD18C,1.752600*%
%ADD19C,1.701800*%
%ADD20C,3.000000*%
%ADD21C,3.429000*%
%ADD22C,2.232000*%
%ADD23RotRect,2.600000X2.600000X165.000000*%
%ADD24C,1.200000*%
%ADD25C,1.750000*%
%ADD26R,2.600000X2.600000*%
%ADD27RotRect,2.600000X2.600000X150.000000*%
%ADD28C,4.400000*%
%ADD29FreePoly0,90.000000*%
%ADD30FreePoly1,90.000000*%
%ADD31RoundRect,0.250000X-0.625000X0.350000X-0.625000X-0.350000X0.625000X-0.350000X0.625000X0.350000X0*%
%ADD32O,1.750000X1.200000*%
%ADD33O,3.500000X2.200000*%
%ADD34R,2.500000X1.500000*%
%ADD35O,2.500000X1.500000*%
G04 APERTURE END LIST*
D10*
X82182361Y-90767068D02*
X82308025Y-90850039D01*
X82308025Y-90850039D02*
X82538008Y-90911662D01*
X82538008Y-90911662D02*
X82642325Y-90890315D01*
X82642325Y-90890315D02*
X82700646Y-90856644D01*
X82700646Y-90856644D02*
X82771292Y-90776975D01*
X82771292Y-90776975D02*
X82795942Y-90684983D01*
X82795942Y-90684983D02*
X82774595Y-90580665D01*
X82774595Y-90580665D02*
X82740923Y-90522344D01*
X82740923Y-90522344D02*
X82661255Y-90451698D01*
X82661255Y-90451698D02*
X82489594Y-90356402D01*
X82489594Y-90356402D02*
X82409925Y-90285757D01*
X82409925Y-90285757D02*
X82376254Y-90227435D01*
X82376254Y-90227435D02*
X82354907Y-90123118D01*
X82354907Y-90123118D02*
X82379556Y-90031125D01*
X82379556Y-90031125D02*
X82450202Y-89951457D01*
X82450202Y-89951457D02*
X82508523Y-89917785D01*
X82508523Y-89917785D02*
X82612841Y-89896438D01*
X82612841Y-89896438D02*
X82842823Y-89958061D01*
X82842823Y-89958061D02*
X82968488Y-90041032D01*
X83302788Y-90081309D02*
X83273951Y-91108858D01*
X83273951Y-91108858D02*
X83642808Y-90468210D01*
X83642808Y-90468210D02*
X83641923Y-91207456D01*
X83641923Y-91207456D02*
X84130724Y-90303153D01*
X84428050Y-90481419D02*
X84486371Y-90447748D01*
X84486371Y-90447748D02*
X84590689Y-90426401D01*
X84590689Y-90426401D02*
X84820671Y-90488024D01*
X84820671Y-90488024D02*
X84900339Y-90558670D01*
X84900339Y-90558670D02*
X84934011Y-90616991D01*
X84934011Y-90616991D02*
X84955358Y-90721309D01*
X84955358Y-90721309D02*
X84930709Y-90813302D01*
X84930709Y-90813302D02*
X84847738Y-90938967D01*
X84847738Y-90938967D02*
X84147884Y-91343028D01*
X84147884Y-91343028D02*
X84745838Y-91503249D01*
X85665767Y-91749743D02*
X85113810Y-91601847D01*
X85389789Y-91675795D02*
X85648608Y-90709869D01*
X85648608Y-90709869D02*
X85519641Y-90823209D01*
X85519641Y-90823209D02*
X85402998Y-90890553D01*
X85402998Y-90890553D02*
X85298681Y-90911900D01*
X74237579Y-18002323D02*
X73904246Y-17526132D01*
X73666151Y-18002323D02*
X73666151Y-17002323D01*
X73666151Y-17002323D02*
X74047103Y-17002323D01*
X74047103Y-17002323D02*
X74142341Y-17049942D01*
X74142341Y-17049942D02*
X74189960Y-17097561D01*
X74189960Y-17097561D02*
X74237579Y-17192799D01*
X74237579Y-17192799D02*
X74237579Y-17335656D01*
X74237579Y-17335656D02*
X74189960Y-17430894D01*
X74189960Y-17430894D02*
X74142341Y-17478513D01*
X74142341Y-17478513D02*
X74047103Y-17526132D01*
X74047103Y-17526132D02*
X73666151Y-17526132D01*
X74618532Y-17954704D02*
X74761389Y-18002323D01*
X74761389Y-18002323D02*
X74999484Y-18002323D01*
X74999484Y-18002323D02*
X75094722Y-17954704D01*
X75094722Y-17954704D02*
X75142341Y-17907084D01*
X75142341Y-17907084D02*
X75189960Y-17811846D01*
X75189960Y-17811846D02*
X75189960Y-17716608D01*
X75189960Y-17716608D02*
X75142341Y-17621370D01*
X75142341Y-17621370D02*
X75094722Y-17573751D01*
X75094722Y-17573751D02*
X74999484Y-17526132D01*
X74999484Y-17526132D02*
X74809008Y-17478513D01*
X74809008Y-17478513D02*
X74713770Y-17430894D01*
X74713770Y-17430894D02*
X74666151Y-17383275D01*
X74666151Y-17383275D02*
X74618532Y-17288037D01*
X74618532Y-17288037D02*
X74618532Y-17192799D01*
X74618532Y-17192799D02*
X74666151Y-17097561D01*
X74666151Y-17097561D02*
X74713770Y-17049942D01*
X74713770Y-17049942D02*
X74809008Y-17002323D01*
X74809008Y-17002323D02*
X75047103Y-17002323D01*
X75047103Y-17002323D02*
X75189960Y-17049942D01*
X75523294Y-17002323D02*
X75761389Y-18002323D01*
X75761389Y-18002323D02*
X75951865Y-17288037D01*
X75951865Y-17288037D02*
X76142341Y-18002323D01*
X76142341Y-18002323D02*
X76380437Y-17002323D01*
X77285198Y-18002323D02*
X76713770Y-18002323D01*
X76999484Y-18002323D02*
X76999484Y-17002323D01*
X76999484Y-17002323D02*
X76904246Y-17145180D01*
X76904246Y-17145180D02*
X76809008Y-17240418D01*
X76809008Y-17240418D02*
X76713770Y-17288037D01*
X21293532Y-50602202D02*
X21436389Y-50649821D01*
X21436389Y-50649821D02*
X21674484Y-50649821D01*
X21674484Y-50649821D02*
X21769722Y-50602202D01*
X21769722Y-50602202D02*
X21817341Y-50554582D01*
X21817341Y-50554582D02*
X21864960Y-50459344D01*
X21864960Y-50459344D02*
X21864960Y-50364106D01*
X21864960Y-50364106D02*
X21817341Y-50268868D01*
X21817341Y-50268868D02*
X21769722Y-50221249D01*
X21769722Y-50221249D02*
X21674484Y-50173630D01*
X21674484Y-50173630D02*
X21484008Y-50126011D01*
X21484008Y-50126011D02*
X21388770Y-50078392D01*
X21388770Y-50078392D02*
X21341151Y-50030773D01*
X21341151Y-50030773D02*
X21293532Y-49935535D01*
X21293532Y-49935535D02*
X21293532Y-49840297D01*
X21293532Y-49840297D02*
X21341151Y-49745059D01*
X21341151Y-49745059D02*
X21388770Y-49697440D01*
X21388770Y-49697440D02*
X21484008Y-49649821D01*
X21484008Y-49649821D02*
X21722103Y-49649821D01*
X21722103Y-49649821D02*
X21864960Y-49697440D01*
X22198294Y-49649821D02*
X22436389Y-50649821D01*
X22436389Y-50649821D02*
X22626865Y-49935535D01*
X22626865Y-49935535D02*
X22817341Y-50649821D01*
X22817341Y-50649821D02*
X23055437Y-49649821D01*
X23388770Y-49745059D02*
X23436389Y-49697440D01*
X23436389Y-49697440D02*
X23531627Y-49649821D01*
X23531627Y-49649821D02*
X23769722Y-49649821D01*
X23769722Y-49649821D02*
X23864960Y-49697440D01*
X23864960Y-49697440D02*
X23912579Y-49745059D01*
X23912579Y-49745059D02*
X23960198Y-49840297D01*
X23960198Y-49840297D02*
X23960198Y-49935535D01*
X23960198Y-49935535D02*
X23912579Y-50078392D01*
X23912579Y-50078392D02*
X23341151Y-50649821D01*
X23341151Y-50649821D02*
X23960198Y-50649821D01*
X39293534Y-38602202D02*
X39436391Y-38649821D01*
X39436391Y-38649821D02*
X39674486Y-38649821D01*
X39674486Y-38649821D02*
X39769724Y-38602202D01*
X39769724Y-38602202D02*
X39817343Y-38554582D01*
X39817343Y-38554582D02*
X39864962Y-38459344D01*
X39864962Y-38459344D02*
X39864962Y-38364106D01*
X39864962Y-38364106D02*
X39817343Y-38268868D01*
X39817343Y-38268868D02*
X39769724Y-38221249D01*
X39769724Y-38221249D02*
X39674486Y-38173630D01*
X39674486Y-38173630D02*
X39484010Y-38126011D01*
X39484010Y-38126011D02*
X39388772Y-38078392D01*
X39388772Y-38078392D02*
X39341153Y-38030773D01*
X39341153Y-38030773D02*
X39293534Y-37935535D01*
X39293534Y-37935535D02*
X39293534Y-37840297D01*
X39293534Y-37840297D02*
X39341153Y-37745059D01*
X39341153Y-37745059D02*
X39388772Y-37697440D01*
X39388772Y-37697440D02*
X39484010Y-37649821D01*
X39484010Y-37649821D02*
X39722105Y-37649821D01*
X39722105Y-37649821D02*
X39864962Y-37697440D01*
X40198296Y-37649821D02*
X40436391Y-38649821D01*
X40436391Y-38649821D02*
X40626867Y-37935535D01*
X40626867Y-37935535D02*
X40817343Y-38649821D01*
X40817343Y-38649821D02*
X41055439Y-37649821D01*
X41341153Y-37649821D02*
X41960200Y-37649821D01*
X41960200Y-37649821D02*
X41626867Y-38030773D01*
X41626867Y-38030773D02*
X41769724Y-38030773D01*
X41769724Y-38030773D02*
X41864962Y-38078392D01*
X41864962Y-38078392D02*
X41912581Y-38126011D01*
X41912581Y-38126011D02*
X41960200Y-38221249D01*
X41960200Y-38221249D02*
X41960200Y-38459344D01*
X41960200Y-38459344D02*
X41912581Y-38554582D01*
X41912581Y-38554582D02*
X41864962Y-38602202D01*
X41864962Y-38602202D02*
X41769724Y-38649821D01*
X41769724Y-38649821D02*
X41484010Y-38649821D01*
X41484010Y-38649821D02*
X41388772Y-38602202D01*
X41388772Y-38602202D02*
X41341153Y-38554582D01*
X57293531Y-31602202D02*
X57436388Y-31649821D01*
X57436388Y-31649821D02*
X57674483Y-31649821D01*
X57674483Y-31649821D02*
X57769721Y-31602202D01*
X57769721Y-31602202D02*
X57817340Y-31554582D01*
X57817340Y-31554582D02*
X57864959Y-31459344D01*
X57864959Y-31459344D02*
X57864959Y-31364106D01*
X57864959Y-31364106D02*
X57817340Y-31268868D01*
X57817340Y-31268868D02*
X57769721Y-31221249D01*
X57769721Y-31221249D02*
X57674483Y-31173630D01*
X57674483Y-31173630D02*
X57484007Y-31126011D01*
X57484007Y-31126011D02*
X57388769Y-31078392D01*
X57388769Y-31078392D02*
X57341150Y-31030773D01*
X57341150Y-31030773D02*
X57293531Y-30935535D01*
X57293531Y-30935535D02*
X57293531Y-30840297D01*
X57293531Y-30840297D02*
X57341150Y-30745059D01*
X57341150Y-30745059D02*
X57388769Y-30697440D01*
X57388769Y-30697440D02*
X57484007Y-30649821D01*
X57484007Y-30649821D02*
X57722102Y-30649821D01*
X57722102Y-30649821D02*
X57864959Y-30697440D01*
X58198293Y-30649821D02*
X58436388Y-31649821D01*
X58436388Y-31649821D02*
X58626864Y-30935535D01*
X58626864Y-30935535D02*
X58817340Y-31649821D01*
X58817340Y-31649821D02*
X59055436Y-30649821D01*
X59864959Y-30983154D02*
X59864959Y-31649821D01*
X59626864Y-30602202D02*
X59388769Y-31316487D01*
X59388769Y-31316487D02*
X60007816Y-31316487D01*
X75293532Y-37102203D02*
X75436389Y-37149822D01*
X75436389Y-37149822D02*
X75674484Y-37149822D01*
X75674484Y-37149822D02*
X75769722Y-37102203D01*
X75769722Y-37102203D02*
X75817341Y-37054583D01*
X75817341Y-37054583D02*
X75864960Y-36959345D01*
X75864960Y-36959345D02*
X75864960Y-36864107D01*
X75864960Y-36864107D02*
X75817341Y-36768869D01*
X75817341Y-36768869D02*
X75769722Y-36721250D01*
X75769722Y-36721250D02*
X75674484Y-36673631D01*
X75674484Y-36673631D02*
X75484008Y-36626012D01*
X75484008Y-36626012D02*
X75388770Y-36578393D01*
X75388770Y-36578393D02*
X75341151Y-36530774D01*
X75341151Y-36530774D02*
X75293532Y-36435536D01*
X75293532Y-36435536D02*
X75293532Y-36340298D01*
X75293532Y-36340298D02*
X75341151Y-36245060D01*
X75341151Y-36245060D02*
X75388770Y-36197441D01*
X75388770Y-36197441D02*
X75484008Y-36149822D01*
X75484008Y-36149822D02*
X75722103Y-36149822D01*
X75722103Y-36149822D02*
X75864960Y-36197441D01*
X76198294Y-36149822D02*
X76436389Y-37149822D01*
X76436389Y-37149822D02*
X76626865Y-36435536D01*
X76626865Y-36435536D02*
X76817341Y-37149822D01*
X76817341Y-37149822D02*
X77055437Y-36149822D01*
X77912579Y-36149822D02*
X77436389Y-36149822D01*
X77436389Y-36149822D02*
X77388770Y-36626012D01*
X77388770Y-36626012D02*
X77436389Y-36578393D01*
X77436389Y-36578393D02*
X77531627Y-36530774D01*
X77531627Y-36530774D02*
X77769722Y-36530774D01*
X77769722Y-36530774D02*
X77864960Y-36578393D01*
X77864960Y-36578393D02*
X77912579Y-36626012D01*
X77912579Y-36626012D02*
X77960198Y-36721250D01*
X77960198Y-36721250D02*
X77960198Y-36959345D01*
X77960198Y-36959345D02*
X77912579Y-37054583D01*
X77912579Y-37054583D02*
X77864960Y-37102203D01*
X77864960Y-37102203D02*
X77769722Y-37149822D01*
X77769722Y-37149822D02*
X77531627Y-37149822D01*
X77531627Y-37149822D02*
X77436389Y-37102203D01*
X77436389Y-37102203D02*
X77388770Y-37054583D01*
X93293530Y-39602202D02*
X93436387Y-39649821D01*
X93436387Y-39649821D02*
X93674482Y-39649821D01*
X93674482Y-39649821D02*
X93769720Y-39602202D01*
X93769720Y-39602202D02*
X93817339Y-39554582D01*
X93817339Y-39554582D02*
X93864958Y-39459344D01*
X93864958Y-39459344D02*
X93864958Y-39364106D01*
X93864958Y-39364106D02*
X93817339Y-39268868D01*
X93817339Y-39268868D02*
X93769720Y-39221249D01*
X93769720Y-39221249D02*
X93674482Y-39173630D01*
X93674482Y-39173630D02*
X93484006Y-39126011D01*
X93484006Y-39126011D02*
X93388768Y-39078392D01*
X93388768Y-39078392D02*
X93341149Y-39030773D01*
X93341149Y-39030773D02*
X93293530Y-38935535D01*
X93293530Y-38935535D02*
X93293530Y-38840297D01*
X93293530Y-38840297D02*
X93341149Y-38745059D01*
X93341149Y-38745059D02*
X93388768Y-38697440D01*
X93388768Y-38697440D02*
X93484006Y-38649821D01*
X93484006Y-38649821D02*
X93722101Y-38649821D01*
X93722101Y-38649821D02*
X93864958Y-38697440D01*
X94198292Y-38649821D02*
X94436387Y-39649821D01*
X94436387Y-39649821D02*
X94626863Y-38935535D01*
X94626863Y-38935535D02*
X94817339Y-39649821D01*
X94817339Y-39649821D02*
X95055435Y-38649821D01*
X95864958Y-38649821D02*
X95674482Y-38649821D01*
X95674482Y-38649821D02*
X95579244Y-38697440D01*
X95579244Y-38697440D02*
X95531625Y-38745059D01*
X95531625Y-38745059D02*
X95436387Y-38887916D01*
X95436387Y-38887916D02*
X95388768Y-39078392D01*
X95388768Y-39078392D02*
X95388768Y-39459344D01*
X95388768Y-39459344D02*
X95436387Y-39554582D01*
X95436387Y-39554582D02*
X95484006Y-39602202D01*
X95484006Y-39602202D02*
X95579244Y-39649821D01*
X95579244Y-39649821D02*
X95769720Y-39649821D01*
X95769720Y-39649821D02*
X95864958Y-39602202D01*
X95864958Y-39602202D02*
X95912577Y-39554582D01*
X95912577Y-39554582D02*
X95960196Y-39459344D01*
X95960196Y-39459344D02*
X95960196Y-39221249D01*
X95960196Y-39221249D02*
X95912577Y-39126011D01*
X95912577Y-39126011D02*
X95864958Y-39078392D01*
X95864958Y-39078392D02*
X95769720Y-39030773D01*
X95769720Y-39030773D02*
X95579244Y-39030773D01*
X95579244Y-39030773D02*
X95484006Y-39078392D01*
X95484006Y-39078392D02*
X95436387Y-39126011D01*
X95436387Y-39126011D02*
X95388768Y-39221249D01*
X21293532Y-67602202D02*
X21436389Y-67649821D01*
X21436389Y-67649821D02*
X21674484Y-67649821D01*
X21674484Y-67649821D02*
X21769722Y-67602202D01*
X21769722Y-67602202D02*
X21817341Y-67554582D01*
X21817341Y-67554582D02*
X21864960Y-67459344D01*
X21864960Y-67459344D02*
X21864960Y-67364106D01*
X21864960Y-67364106D02*
X21817341Y-67268868D01*
X21817341Y-67268868D02*
X21769722Y-67221249D01*
X21769722Y-67221249D02*
X21674484Y-67173630D01*
X21674484Y-67173630D02*
X21484008Y-67126011D01*
X21484008Y-67126011D02*
X21388770Y-67078392D01*
X21388770Y-67078392D02*
X21341151Y-67030773D01*
X21341151Y-67030773D02*
X21293532Y-66935535D01*
X21293532Y-66935535D02*
X21293532Y-66840297D01*
X21293532Y-66840297D02*
X21341151Y-66745059D01*
X21341151Y-66745059D02*
X21388770Y-66697440D01*
X21388770Y-66697440D02*
X21484008Y-66649821D01*
X21484008Y-66649821D02*
X21722103Y-66649821D01*
X21722103Y-66649821D02*
X21864960Y-66697440D01*
X22198294Y-66649821D02*
X22436389Y-67649821D01*
X22436389Y-67649821D02*
X22626865Y-66935535D01*
X22626865Y-66935535D02*
X22817341Y-67649821D01*
X22817341Y-67649821D02*
X23055437Y-66649821D01*
X23579246Y-67078392D02*
X23484008Y-67030773D01*
X23484008Y-67030773D02*
X23436389Y-66983154D01*
X23436389Y-66983154D02*
X23388770Y-66887916D01*
X23388770Y-66887916D02*
X23388770Y-66840297D01*
X23388770Y-66840297D02*
X23436389Y-66745059D01*
X23436389Y-66745059D02*
X23484008Y-66697440D01*
X23484008Y-66697440D02*
X23579246Y-66649821D01*
X23579246Y-66649821D02*
X23769722Y-66649821D01*
X23769722Y-66649821D02*
X23864960Y-66697440D01*
X23864960Y-66697440D02*
X23912579Y-66745059D01*
X23912579Y-66745059D02*
X23960198Y-66840297D01*
X23960198Y-66840297D02*
X23960198Y-66887916D01*
X23960198Y-66887916D02*
X23912579Y-66983154D01*
X23912579Y-66983154D02*
X23864960Y-67030773D01*
X23864960Y-67030773D02*
X23769722Y-67078392D01*
X23769722Y-67078392D02*
X23579246Y-67078392D01*
X23579246Y-67078392D02*
X23484008Y-67126011D01*
X23484008Y-67126011D02*
X23436389Y-67173630D01*
X23436389Y-67173630D02*
X23388770Y-67268868D01*
X23388770Y-67268868D02*
X23388770Y-67459344D01*
X23388770Y-67459344D02*
X23436389Y-67554582D01*
X23436389Y-67554582D02*
X23484008Y-67602202D01*
X23484008Y-67602202D02*
X23579246Y-67649821D01*
X23579246Y-67649821D02*
X23769722Y-67649821D01*
X23769722Y-67649821D02*
X23864960Y-67602202D01*
X23864960Y-67602202D02*
X23912579Y-67554582D01*
X23912579Y-67554582D02*
X23960198Y-67459344D01*
X23960198Y-67459344D02*
X23960198Y-67268868D01*
X23960198Y-67268868D02*
X23912579Y-67173630D01*
X23912579Y-67173630D02*
X23864960Y-67126011D01*
X23864960Y-67126011D02*
X23769722Y-67078392D01*
X39293534Y-55576202D02*
X39436391Y-55623821D01*
X39436391Y-55623821D02*
X39674486Y-55623821D01*
X39674486Y-55623821D02*
X39769724Y-55576202D01*
X39769724Y-55576202D02*
X39817343Y-55528582D01*
X39817343Y-55528582D02*
X39864962Y-55433344D01*
X39864962Y-55433344D02*
X39864962Y-55338106D01*
X39864962Y-55338106D02*
X39817343Y-55242868D01*
X39817343Y-55242868D02*
X39769724Y-55195249D01*
X39769724Y-55195249D02*
X39674486Y-55147630D01*
X39674486Y-55147630D02*
X39484010Y-55100011D01*
X39484010Y-55100011D02*
X39388772Y-55052392D01*
X39388772Y-55052392D02*
X39341153Y-55004773D01*
X39341153Y-55004773D02*
X39293534Y-54909535D01*
X39293534Y-54909535D02*
X39293534Y-54814297D01*
X39293534Y-54814297D02*
X39341153Y-54719059D01*
X39341153Y-54719059D02*
X39388772Y-54671440D01*
X39388772Y-54671440D02*
X39484010Y-54623821D01*
X39484010Y-54623821D02*
X39722105Y-54623821D01*
X39722105Y-54623821D02*
X39864962Y-54671440D01*
X40198296Y-54623821D02*
X40436391Y-55623821D01*
X40436391Y-55623821D02*
X40626867Y-54909535D01*
X40626867Y-54909535D02*
X40817343Y-55623821D01*
X40817343Y-55623821D02*
X41055439Y-54623821D01*
X41484010Y-55623821D02*
X41674486Y-55623821D01*
X41674486Y-55623821D02*
X41769724Y-55576202D01*
X41769724Y-55576202D02*
X41817343Y-55528582D01*
X41817343Y-55528582D02*
X41912581Y-55385725D01*
X41912581Y-55385725D02*
X41960200Y-55195249D01*
X41960200Y-55195249D02*
X41960200Y-54814297D01*
X41960200Y-54814297D02*
X41912581Y-54719059D01*
X41912581Y-54719059D02*
X41864962Y-54671440D01*
X41864962Y-54671440D02*
X41769724Y-54623821D01*
X41769724Y-54623821D02*
X41579248Y-54623821D01*
X41579248Y-54623821D02*
X41484010Y-54671440D01*
X41484010Y-54671440D02*
X41436391Y-54719059D01*
X41436391Y-54719059D02*
X41388772Y-54814297D01*
X41388772Y-54814297D02*
X41388772Y-55052392D01*
X41388772Y-55052392D02*
X41436391Y-55147630D01*
X41436391Y-55147630D02*
X41484010Y-55195249D01*
X41484010Y-55195249D02*
X41579248Y-55242868D01*
X41579248Y-55242868D02*
X41769724Y-55242868D01*
X41769724Y-55242868D02*
X41864962Y-55195249D01*
X41864962Y-55195249D02*
X41912581Y-55147630D01*
X41912581Y-55147630D02*
X41960200Y-55052392D01*
X56817342Y-48718202D02*
X56960199Y-48765821D01*
X56960199Y-48765821D02*
X57198294Y-48765821D01*
X57198294Y-48765821D02*
X57293532Y-48718202D01*
X57293532Y-48718202D02*
X57341151Y-48670582D01*
X57341151Y-48670582D02*
X57388770Y-48575344D01*
X57388770Y-48575344D02*
X57388770Y-48480106D01*
X57388770Y-48480106D02*
X57341151Y-48384868D01*
X57341151Y-48384868D02*
X57293532Y-48337249D01*
X57293532Y-48337249D02*
X57198294Y-48289630D01*
X57198294Y-48289630D02*
X57007818Y-48242011D01*
X57007818Y-48242011D02*
X56912580Y-48194392D01*
X56912580Y-48194392D02*
X56864961Y-48146773D01*
X56864961Y-48146773D02*
X56817342Y-48051535D01*
X56817342Y-48051535D02*
X56817342Y-47956297D01*
X56817342Y-47956297D02*
X56864961Y-47861059D01*
X56864961Y-47861059D02*
X56912580Y-47813440D01*
X56912580Y-47813440D02*
X57007818Y-47765821D01*
X57007818Y-47765821D02*
X57245913Y-47765821D01*
X57245913Y-47765821D02*
X57388770Y-47813440D01*
X57722104Y-47765821D02*
X57960199Y-48765821D01*
X57960199Y-48765821D02*
X58150675Y-48051535D01*
X58150675Y-48051535D02*
X58341151Y-48765821D01*
X58341151Y-48765821D02*
X58579247Y-47765821D01*
X59484008Y-48765821D02*
X58912580Y-48765821D01*
X59198294Y-48765821D02*
X59198294Y-47765821D01*
X59198294Y-47765821D02*
X59103056Y-47908678D01*
X59103056Y-47908678D02*
X59007818Y-48003916D01*
X59007818Y-48003916D02*
X58912580Y-48051535D01*
X60103056Y-47765821D02*
X60198294Y-47765821D01*
X60198294Y-47765821D02*
X60293532Y-47813440D01*
X60293532Y-47813440D02*
X60341151Y-47861059D01*
X60341151Y-47861059D02*
X60388770Y-47956297D01*
X60388770Y-47956297D02*
X60436389Y-48146773D01*
X60436389Y-48146773D02*
X60436389Y-48384868D01*
X60436389Y-48384868D02*
X60388770Y-48575344D01*
X60388770Y-48575344D02*
X60341151Y-48670582D01*
X60341151Y-48670582D02*
X60293532Y-48718202D01*
X60293532Y-48718202D02*
X60198294Y-48765821D01*
X60198294Y-48765821D02*
X60103056Y-48765821D01*
X60103056Y-48765821D02*
X60007818Y-48718202D01*
X60007818Y-48718202D02*
X59960199Y-48670582D01*
X59960199Y-48670582D02*
X59912580Y-48575344D01*
X59912580Y-48575344D02*
X59864961Y-48384868D01*
X59864961Y-48384868D02*
X59864961Y-48146773D01*
X59864961Y-48146773D02*
X59912580Y-47956297D01*
X59912580Y-47956297D02*
X59960199Y-47861059D01*
X59960199Y-47861059D02*
X60007818Y-47813440D01*
X60007818Y-47813440D02*
X60103056Y-47765821D01*
X74817343Y-54052205D02*
X74960200Y-54099824D01*
X74960200Y-54099824D02*
X75198295Y-54099824D01*
X75198295Y-54099824D02*
X75293533Y-54052205D01*
X75293533Y-54052205D02*
X75341152Y-54004585D01*
X75341152Y-54004585D02*
X75388771Y-53909347D01*
X75388771Y-53909347D02*
X75388771Y-53814109D01*
X75388771Y-53814109D02*
X75341152Y-53718871D01*
X75341152Y-53718871D02*
X75293533Y-53671252D01*
X75293533Y-53671252D02*
X75198295Y-53623633D01*
X75198295Y-53623633D02*
X75007819Y-53576014D01*
X75007819Y-53576014D02*
X74912581Y-53528395D01*
X74912581Y-53528395D02*
X74864962Y-53480776D01*
X74864962Y-53480776D02*
X74817343Y-53385538D01*
X74817343Y-53385538D02*
X74817343Y-53290300D01*
X74817343Y-53290300D02*
X74864962Y-53195062D01*
X74864962Y-53195062D02*
X74912581Y-53147443D01*
X74912581Y-53147443D02*
X75007819Y-53099824D01*
X75007819Y-53099824D02*
X75245914Y-53099824D01*
X75245914Y-53099824D02*
X75388771Y-53147443D01*
X75722105Y-53099824D02*
X75960200Y-54099824D01*
X75960200Y-54099824D02*
X76150676Y-53385538D01*
X76150676Y-53385538D02*
X76341152Y-54099824D01*
X76341152Y-54099824D02*
X76579248Y-53099824D01*
X77484009Y-54099824D02*
X76912581Y-54099824D01*
X77198295Y-54099824D02*
X77198295Y-53099824D01*
X77198295Y-53099824D02*
X77103057Y-53242681D01*
X77103057Y-53242681D02*
X77007819Y-53337919D01*
X77007819Y-53337919D02*
X76912581Y-53385538D01*
X78436390Y-54099824D02*
X77864962Y-54099824D01*
X78150676Y-54099824D02*
X78150676Y-53099824D01*
X78150676Y-53099824D02*
X78055438Y-53242681D01*
X78055438Y-53242681D02*
X77960200Y-53337919D01*
X77960200Y-53337919D02*
X77864962Y-53385538D01*
X92797341Y-56592202D02*
X92940198Y-56639821D01*
X92940198Y-56639821D02*
X93178293Y-56639821D01*
X93178293Y-56639821D02*
X93273531Y-56592202D01*
X93273531Y-56592202D02*
X93321150Y-56544582D01*
X93321150Y-56544582D02*
X93368769Y-56449344D01*
X93368769Y-56449344D02*
X93368769Y-56354106D01*
X93368769Y-56354106D02*
X93321150Y-56258868D01*
X93321150Y-56258868D02*
X93273531Y-56211249D01*
X93273531Y-56211249D02*
X93178293Y-56163630D01*
X93178293Y-56163630D02*
X92987817Y-56116011D01*
X92987817Y-56116011D02*
X92892579Y-56068392D01*
X92892579Y-56068392D02*
X92844960Y-56020773D01*
X92844960Y-56020773D02*
X92797341Y-55925535D01*
X92797341Y-55925535D02*
X92797341Y-55830297D01*
X92797341Y-55830297D02*
X92844960Y-55735059D01*
X92844960Y-55735059D02*
X92892579Y-55687440D01*
X92892579Y-55687440D02*
X92987817Y-55639821D01*
X92987817Y-55639821D02*
X93225912Y-55639821D01*
X93225912Y-55639821D02*
X93368769Y-55687440D01*
X93702103Y-55639821D02*
X93940198Y-56639821D01*
X93940198Y-56639821D02*
X94130674Y-55925535D01*
X94130674Y-55925535D02*
X94321150Y-56639821D01*
X94321150Y-56639821D02*
X94559246Y-55639821D01*
X95464007Y-56639821D02*
X94892579Y-56639821D01*
X95178293Y-56639821D02*
X95178293Y-55639821D01*
X95178293Y-55639821D02*
X95083055Y-55782678D01*
X95083055Y-55782678D02*
X94987817Y-55877916D01*
X94987817Y-55877916D02*
X94892579Y-55925535D01*
X95844960Y-55735059D02*
X95892579Y-55687440D01*
X95892579Y-55687440D02*
X95987817Y-55639821D01*
X95987817Y-55639821D02*
X96225912Y-55639821D01*
X96225912Y-55639821D02*
X96321150Y-55687440D01*
X96321150Y-55687440D02*
X96368769Y-55735059D01*
X96368769Y-55735059D02*
X96416388Y-55830297D01*
X96416388Y-55830297D02*
X96416388Y-55925535D01*
X96416388Y-55925535D02*
X96368769Y-56068392D01*
X96368769Y-56068392D02*
X95797341Y-56639821D01*
X95797341Y-56639821D02*
X96416388Y-56639821D01*
X20817341Y-84602199D02*
X20960198Y-84649818D01*
X20960198Y-84649818D02*
X21198293Y-84649818D01*
X21198293Y-84649818D02*
X21293531Y-84602199D01*
X21293531Y-84602199D02*
X21341150Y-84554579D01*
X21341150Y-84554579D02*
X21388769Y-84459341D01*
X21388769Y-84459341D02*
X21388769Y-84364103D01*
X21388769Y-84364103D02*
X21341150Y-84268865D01*
X21341150Y-84268865D02*
X21293531Y-84221246D01*
X21293531Y-84221246D02*
X21198293Y-84173627D01*
X21198293Y-84173627D02*
X21007817Y-84126008D01*
X21007817Y-84126008D02*
X20912579Y-84078389D01*
X20912579Y-84078389D02*
X20864960Y-84030770D01*
X20864960Y-84030770D02*
X20817341Y-83935532D01*
X20817341Y-83935532D02*
X20817341Y-83840294D01*
X20817341Y-83840294D02*
X20864960Y-83745056D01*
X20864960Y-83745056D02*
X20912579Y-83697437D01*
X20912579Y-83697437D02*
X21007817Y-83649818D01*
X21007817Y-83649818D02*
X21245912Y-83649818D01*
X21245912Y-83649818D02*
X21388769Y-83697437D01*
X21722103Y-83649818D02*
X21960198Y-84649818D01*
X21960198Y-84649818D02*
X22150674Y-83935532D01*
X22150674Y-83935532D02*
X22341150Y-84649818D01*
X22341150Y-84649818D02*
X22579246Y-83649818D01*
X23484007Y-84649818D02*
X22912579Y-84649818D01*
X23198293Y-84649818D02*
X23198293Y-83649818D01*
X23198293Y-83649818D02*
X23103055Y-83792675D01*
X23103055Y-83792675D02*
X23007817Y-83887913D01*
X23007817Y-83887913D02*
X22912579Y-83935532D01*
X24341150Y-83983151D02*
X24341150Y-84649818D01*
X24103055Y-83602199D02*
X23864960Y-84316484D01*
X23864960Y-84316484D02*
X24484007Y-84316484D01*
X38817340Y-72594201D02*
X38960197Y-72641820D01*
X38960197Y-72641820D02*
X39198292Y-72641820D01*
X39198292Y-72641820D02*
X39293530Y-72594201D01*
X39293530Y-72594201D02*
X39341149Y-72546581D01*
X39341149Y-72546581D02*
X39388768Y-72451343D01*
X39388768Y-72451343D02*
X39388768Y-72356105D01*
X39388768Y-72356105D02*
X39341149Y-72260867D01*
X39341149Y-72260867D02*
X39293530Y-72213248D01*
X39293530Y-72213248D02*
X39198292Y-72165629D01*
X39198292Y-72165629D02*
X39007816Y-72118010D01*
X39007816Y-72118010D02*
X38912578Y-72070391D01*
X38912578Y-72070391D02*
X38864959Y-72022772D01*
X38864959Y-72022772D02*
X38817340Y-71927534D01*
X38817340Y-71927534D02*
X38817340Y-71832296D01*
X38817340Y-71832296D02*
X38864959Y-71737058D01*
X38864959Y-71737058D02*
X38912578Y-71689439D01*
X38912578Y-71689439D02*
X39007816Y-71641820D01*
X39007816Y-71641820D02*
X39245911Y-71641820D01*
X39245911Y-71641820D02*
X39388768Y-71689439D01*
X39722102Y-71641820D02*
X39960197Y-72641820D01*
X39960197Y-72641820D02*
X40150673Y-71927534D01*
X40150673Y-71927534D02*
X40341149Y-72641820D01*
X40341149Y-72641820D02*
X40579245Y-71641820D01*
X41484006Y-72641820D02*
X40912578Y-72641820D01*
X41198292Y-72641820D02*
X41198292Y-71641820D01*
X41198292Y-71641820D02*
X41103054Y-71784677D01*
X41103054Y-71784677D02*
X41007816Y-71879915D01*
X41007816Y-71879915D02*
X40912578Y-71927534D01*
X42388768Y-71641820D02*
X41912578Y-71641820D01*
X41912578Y-71641820D02*
X41864959Y-72118010D01*
X41864959Y-72118010D02*
X41912578Y-72070391D01*
X41912578Y-72070391D02*
X42007816Y-72022772D01*
X42007816Y-72022772D02*
X42245911Y-72022772D01*
X42245911Y-72022772D02*
X42341149Y-72070391D01*
X42341149Y-72070391D02*
X42388768Y-72118010D01*
X42388768Y-72118010D02*
X42436387Y-72213248D01*
X42436387Y-72213248D02*
X42436387Y-72451343D01*
X42436387Y-72451343D02*
X42388768Y-72546581D01*
X42388768Y-72546581D02*
X42341149Y-72594201D01*
X42341149Y-72594201D02*
X42245911Y-72641820D01*
X42245911Y-72641820D02*
X42007816Y-72641820D01*
X42007816Y-72641820D02*
X41912578Y-72594201D01*
X41912578Y-72594201D02*
X41864959Y-72546581D01*
X56817339Y-65736203D02*
X56960196Y-65783822D01*
X56960196Y-65783822D02*
X57198291Y-65783822D01*
X57198291Y-65783822D02*
X57293529Y-65736203D01*
X57293529Y-65736203D02*
X57341148Y-65688583D01*
X57341148Y-65688583D02*
X57388767Y-65593345D01*
X57388767Y-65593345D02*
X57388767Y-65498107D01*
X57388767Y-65498107D02*
X57341148Y-65402869D01*
X57341148Y-65402869D02*
X57293529Y-65355250D01*
X57293529Y-65355250D02*
X57198291Y-65307631D01*
X57198291Y-65307631D02*
X57007815Y-65260012D01*
X57007815Y-65260012D02*
X56912577Y-65212393D01*
X56912577Y-65212393D02*
X56864958Y-65164774D01*
X56864958Y-65164774D02*
X56817339Y-65069536D01*
X56817339Y-65069536D02*
X56817339Y-64974298D01*
X56817339Y-64974298D02*
X56864958Y-64879060D01*
X56864958Y-64879060D02*
X56912577Y-64831441D01*
X56912577Y-64831441D02*
X57007815Y-64783822D01*
X57007815Y-64783822D02*
X57245910Y-64783822D01*
X57245910Y-64783822D02*
X57388767Y-64831441D01*
X57722101Y-64783822D02*
X57960196Y-65783822D01*
X57960196Y-65783822D02*
X58150672Y-65069536D01*
X58150672Y-65069536D02*
X58341148Y-65783822D01*
X58341148Y-65783822D02*
X58579244Y-64783822D01*
X59484005Y-65783822D02*
X58912577Y-65783822D01*
X59198291Y-65783822D02*
X59198291Y-64783822D01*
X59198291Y-64783822D02*
X59103053Y-64926679D01*
X59103053Y-64926679D02*
X59007815Y-65021917D01*
X59007815Y-65021917D02*
X58912577Y-65069536D01*
X60341148Y-64783822D02*
X60150672Y-64783822D01*
X60150672Y-64783822D02*
X60055434Y-64831441D01*
X60055434Y-64831441D02*
X60007815Y-64879060D01*
X60007815Y-64879060D02*
X59912577Y-65021917D01*
X59912577Y-65021917D02*
X59864958Y-65212393D01*
X59864958Y-65212393D02*
X59864958Y-65593345D01*
X59864958Y-65593345D02*
X59912577Y-65688583D01*
X59912577Y-65688583D02*
X59960196Y-65736203D01*
X59960196Y-65736203D02*
X60055434Y-65783822D01*
X60055434Y-65783822D02*
X60245910Y-65783822D01*
X60245910Y-65783822D02*
X60341148Y-65736203D01*
X60341148Y-65736203D02*
X60388767Y-65688583D01*
X60388767Y-65688583D02*
X60436386Y-65593345D01*
X60436386Y-65593345D02*
X60436386Y-65355250D01*
X60436386Y-65355250D02*
X60388767Y-65260012D01*
X60388767Y-65260012D02*
X60341148Y-65212393D01*
X60341148Y-65212393D02*
X60245910Y-65164774D01*
X60245910Y-65164774D02*
X60055434Y-65164774D01*
X60055434Y-65164774D02*
X59960196Y-65212393D01*
X59960196Y-65212393D02*
X59912577Y-65260012D01*
X59912577Y-65260012D02*
X59864958Y-65355250D01*
X74817341Y-71070205D02*
X74960198Y-71117824D01*
X74960198Y-71117824D02*
X75198293Y-71117824D01*
X75198293Y-71117824D02*
X75293531Y-71070205D01*
X75293531Y-71070205D02*
X75341150Y-71022585D01*
X75341150Y-71022585D02*
X75388769Y-70927347D01*
X75388769Y-70927347D02*
X75388769Y-70832109D01*
X75388769Y-70832109D02*
X75341150Y-70736871D01*
X75341150Y-70736871D02*
X75293531Y-70689252D01*
X75293531Y-70689252D02*
X75198293Y-70641633D01*
X75198293Y-70641633D02*
X75007817Y-70594014D01*
X75007817Y-70594014D02*
X74912579Y-70546395D01*
X74912579Y-70546395D02*
X74864960Y-70498776D01*
X74864960Y-70498776D02*
X74817341Y-70403538D01*
X74817341Y-70403538D02*
X74817341Y-70308300D01*
X74817341Y-70308300D02*
X74864960Y-70213062D01*
X74864960Y-70213062D02*
X74912579Y-70165443D01*
X74912579Y-70165443D02*
X75007817Y-70117824D01*
X75007817Y-70117824D02*
X75245912Y-70117824D01*
X75245912Y-70117824D02*
X75388769Y-70165443D01*
X75722103Y-70117824D02*
X75960198Y-71117824D01*
X75960198Y-71117824D02*
X76150674Y-70403538D01*
X76150674Y-70403538D02*
X76341150Y-71117824D01*
X76341150Y-71117824D02*
X76579246Y-70117824D01*
X77484007Y-71117824D02*
X76912579Y-71117824D01*
X77198293Y-71117824D02*
X77198293Y-70117824D01*
X77198293Y-70117824D02*
X77103055Y-70260681D01*
X77103055Y-70260681D02*
X77007817Y-70355919D01*
X77007817Y-70355919D02*
X76912579Y-70403538D01*
X77817341Y-70117824D02*
X78484007Y-70117824D01*
X78484007Y-70117824D02*
X78055436Y-71117824D01*
X92790995Y-73610202D02*
X92933852Y-73657821D01*
X92933852Y-73657821D02*
X93171947Y-73657821D01*
X93171947Y-73657821D02*
X93267185Y-73610202D01*
X93267185Y-73610202D02*
X93314804Y-73562582D01*
X93314804Y-73562582D02*
X93362423Y-73467344D01*
X93362423Y-73467344D02*
X93362423Y-73372106D01*
X93362423Y-73372106D02*
X93314804Y-73276868D01*
X93314804Y-73276868D02*
X93267185Y-73229249D01*
X93267185Y-73229249D02*
X93171947Y-73181630D01*
X93171947Y-73181630D02*
X92981471Y-73134011D01*
X92981471Y-73134011D02*
X92886233Y-73086392D01*
X92886233Y-73086392D02*
X92838614Y-73038773D01*
X92838614Y-73038773D02*
X92790995Y-72943535D01*
X92790995Y-72943535D02*
X92790995Y-72848297D01*
X92790995Y-72848297D02*
X92838614Y-72753059D01*
X92838614Y-72753059D02*
X92886233Y-72705440D01*
X92886233Y-72705440D02*
X92981471Y-72657821D01*
X92981471Y-72657821D02*
X93219566Y-72657821D01*
X93219566Y-72657821D02*
X93362423Y-72705440D01*
X93695757Y-72657821D02*
X93933852Y-73657821D01*
X93933852Y-73657821D02*
X94124328Y-72943535D01*
X94124328Y-72943535D02*
X94314804Y-73657821D01*
X94314804Y-73657821D02*
X94552900Y-72657821D01*
X95457661Y-73657821D02*
X94886233Y-73657821D01*
X95171947Y-73657821D02*
X95171947Y-72657821D01*
X95171947Y-72657821D02*
X95076709Y-72800678D01*
X95076709Y-72800678D02*
X94981471Y-72895916D01*
X94981471Y-72895916D02*
X94886233Y-72943535D01*
X96029090Y-73086392D02*
X95933852Y-73038773D01*
X95933852Y-73038773D02*
X95886233Y-72991154D01*
X95886233Y-72991154D02*
X95838614Y-72895916D01*
X95838614Y-72895916D02*
X95838614Y-72848297D01*
X95838614Y-72848297D02*
X95886233Y-72753059D01*
X95886233Y-72753059D02*
X95933852Y-72705440D01*
X95933852Y-72705440D02*
X96029090Y-72657821D01*
X96029090Y-72657821D02*
X96219566Y-72657821D01*
X96219566Y-72657821D02*
X96314804Y-72705440D01*
X96314804Y-72705440D02*
X96362423Y-72753059D01*
X96362423Y-72753059D02*
X96410042Y-72848297D01*
X96410042Y-72848297D02*
X96410042Y-72895916D01*
X96410042Y-72895916D02*
X96362423Y-72991154D01*
X96362423Y-72991154D02*
X96314804Y-73038773D01*
X96314804Y-73038773D02*
X96219566Y-73086392D01*
X96219566Y-73086392D02*
X96029090Y-73086392D01*
X96029090Y-73086392D02*
X95933852Y-73134011D01*
X95933852Y-73134011D02*
X95886233Y-73181630D01*
X95886233Y-73181630D02*
X95838614Y-73276868D01*
X95838614Y-73276868D02*
X95838614Y-73467344D01*
X95838614Y-73467344D02*
X95886233Y-73562582D01*
X95886233Y-73562582D02*
X95933852Y-73610202D01*
X95933852Y-73610202D02*
X96029090Y-73657821D01*
X96029090Y-73657821D02*
X96219566Y-73657821D01*
X96219566Y-73657821D02*
X96314804Y-73610202D01*
X96314804Y-73610202D02*
X96362423Y-73562582D01*
X96362423Y-73562582D02*
X96410042Y-73467344D01*
X96410042Y-73467344D02*
X96410042Y-73276868D01*
X96410042Y-73276868D02*
X96362423Y-73181630D01*
X96362423Y-73181630D02*
X96314804Y-73134011D01*
X96314804Y-73134011D02*
X96219566Y-73086392D01*
X98680825Y-97151851D02*
X98780733Y-97264519D01*
X98780733Y-97264519D02*
X98986930Y-97383567D01*
X98986930Y-97383567D02*
X99093218Y-97389946D01*
X99093218Y-97389946D02*
X99158267Y-97372517D01*
X99158267Y-97372517D02*
X99247125Y-97313848D01*
X99247125Y-97313848D02*
X99294744Y-97231369D01*
X99294744Y-97231369D02*
X99301124Y-97125081D01*
X99301124Y-97125081D02*
X99283694Y-97060032D01*
X99283694Y-97060032D02*
X99225025Y-96971174D01*
X99225025Y-96971174D02*
X99083877Y-96834696D01*
X99083877Y-96834696D02*
X99025208Y-96745838D01*
X99025208Y-96745838D02*
X99007779Y-96680789D01*
X99007779Y-96680789D02*
X99014158Y-96574501D01*
X99014158Y-96574501D02*
X99061777Y-96492022D01*
X99061777Y-96492022D02*
X99150636Y-96433353D01*
X99150636Y-96433353D02*
X99215684Y-96415923D01*
X99215684Y-96415923D02*
X99321973Y-96422303D01*
X99321973Y-96422303D02*
X99528169Y-96541351D01*
X99528169Y-96541351D02*
X99628078Y-96654019D01*
X99940562Y-96779446D02*
X99646759Y-97764519D01*
X99646759Y-97764519D02*
X100168859Y-97241168D01*
X100168859Y-97241168D02*
X99976673Y-97954995D01*
X99976673Y-97954995D02*
X100682870Y-97208017D01*
X100923926Y-97457163D02*
X100988975Y-97439733D01*
X100988975Y-97439733D02*
X101095263Y-97446113D01*
X101095263Y-97446113D02*
X101301459Y-97565160D01*
X101301459Y-97565160D02*
X101360128Y-97654019D01*
X101360128Y-97654019D02*
X101377558Y-97719067D01*
X101377558Y-97719067D02*
X101371178Y-97825356D01*
X101371178Y-97825356D02*
X101323559Y-97907834D01*
X101323559Y-97907834D02*
X101210891Y-98007743D01*
X101210891Y-98007743D02*
X100430305Y-98216900D01*
X100430305Y-98216900D02*
X100966416Y-98526424D01*
X102002527Y-97969922D02*
X102085006Y-98017541D01*
X102085006Y-98017541D02*
X102143675Y-98106400D01*
X102143675Y-98106400D02*
X102161105Y-98171448D01*
X102161105Y-98171448D02*
X102154725Y-98277737D01*
X102154725Y-98277737D02*
X102100726Y-98466503D01*
X102100726Y-98466503D02*
X101981679Y-98672700D01*
X101981679Y-98672700D02*
X101845201Y-98813847D01*
X101845201Y-98813847D02*
X101756343Y-98872517D01*
X101756343Y-98872517D02*
X101691294Y-98889946D01*
X101691294Y-98889946D02*
X101585006Y-98883567D01*
X101585006Y-98883567D02*
X101502527Y-98835948D01*
X101502527Y-98835948D02*
X101443858Y-98747089D01*
X101443858Y-98747089D02*
X101426429Y-98682040D01*
X101426429Y-98682040D02*
X101432808Y-98575752D01*
X101432808Y-98575752D02*
X101486807Y-98386986D01*
X101486807Y-98386986D02*
X101605855Y-98180789D01*
X101605855Y-98180789D02*
X101742332Y-98039641D01*
X101742332Y-98039641D02*
X101831190Y-97980972D01*
X101831190Y-97980972D02*
X101896239Y-97963542D01*
X101896239Y-97963542D02*
X102002527Y-97969922D01*
D11*
X67727118Y-47563002D02*
X67727118Y-47182050D01*
X67393785Y-47420145D02*
X68250927Y-47420145D01*
X68250927Y-47420145D02*
X68346166Y-47372526D01*
X68346166Y-47372526D02*
X68393785Y-47277288D01*
X68393785Y-47277288D02*
X68393785Y-47182050D01*
X68346166Y-46467764D02*
X68393785Y-46563002D01*
X68393785Y-46563002D02*
X68393785Y-46753478D01*
X68393785Y-46753478D02*
X68346166Y-46848716D01*
X68346166Y-46848716D02*
X68250927Y-46896335D01*
X68250927Y-46896335D02*
X67869975Y-46896335D01*
X67869975Y-46896335D02*
X67774737Y-46848716D01*
X67774737Y-46848716D02*
X67727118Y-46753478D01*
X67727118Y-46753478D02*
X67727118Y-46563002D01*
X67727118Y-46563002D02*
X67774737Y-46467764D01*
X67774737Y-46467764D02*
X67869975Y-46420145D01*
X67869975Y-46420145D02*
X67965213Y-46420145D01*
X67965213Y-46420145D02*
X68060451Y-46896335D01*
X67727118Y-45991573D02*
X68393785Y-45991573D01*
X67822356Y-45991573D02*
X67774737Y-45943954D01*
X67774737Y-45943954D02*
X67727118Y-45848716D01*
X67727118Y-45848716D02*
X67727118Y-45705859D01*
X67727118Y-45705859D02*
X67774737Y-45610621D01*
X67774737Y-45610621D02*
X67869975Y-45563002D01*
X67869975Y-45563002D02*
X68393785Y-45563002D01*
X67727118Y-45229668D02*
X67727118Y-44848716D01*
X67393785Y-45086811D02*
X68250927Y-45086811D01*
X68250927Y-45086811D02*
X68346166Y-45039192D01*
X68346166Y-45039192D02*
X68393785Y-44943954D01*
X68393785Y-44943954D02*
X68393785Y-44848716D01*
X68393785Y-44515382D02*
X67727118Y-44515382D01*
X67393785Y-44515382D02*
X67441404Y-44563001D01*
X67441404Y-44563001D02*
X67489023Y-44515382D01*
X67489023Y-44515382D02*
X67441404Y-44467763D01*
X67441404Y-44467763D02*
X67393785Y-44515382D01*
X67393785Y-44515382D02*
X67489023Y-44515382D01*
X67727118Y-44039192D02*
X68393785Y-44039192D01*
X67822356Y-44039192D02*
X67774737Y-43991573D01*
X67774737Y-43991573D02*
X67727118Y-43896335D01*
X67727118Y-43896335D02*
X67727118Y-43753478D01*
X67727118Y-43753478D02*
X67774737Y-43658240D01*
X67774737Y-43658240D02*
X67869975Y-43610621D01*
X67869975Y-43610621D02*
X68393785Y-43610621D01*
X67727118Y-42705859D02*
X68536642Y-42705859D01*
X68536642Y-42705859D02*
X68631880Y-42753478D01*
X68631880Y-42753478D02*
X68679499Y-42801097D01*
X68679499Y-42801097D02*
X68727118Y-42896335D01*
X68727118Y-42896335D02*
X68727118Y-43039192D01*
X68727118Y-43039192D02*
X68679499Y-43134430D01*
X68346166Y-42705859D02*
X68393785Y-42801097D01*
X68393785Y-42801097D02*
X68393785Y-42991573D01*
X68393785Y-42991573D02*
X68346166Y-43086811D01*
X68346166Y-43086811D02*
X68298546Y-43134430D01*
X68298546Y-43134430D02*
X68203308Y-43182049D01*
X68203308Y-43182049D02*
X67917594Y-43182049D01*
X67917594Y-43182049D02*
X67822356Y-43134430D01*
X67822356Y-43134430D02*
X67774737Y-43086811D01*
X67774737Y-43086811D02*
X67727118Y-42991573D01*
X67727118Y-42991573D02*
X67727118Y-42801097D01*
X67727118Y-42801097D02*
X67774737Y-42705859D01*
X67663618Y-33672502D02*
X68663618Y-33672502D01*
X67711237Y-33672502D02*
X67663618Y-33577264D01*
X67663618Y-33577264D02*
X67663618Y-33386788D01*
X67663618Y-33386788D02*
X67711237Y-33291550D01*
X67711237Y-33291550D02*
X67758856Y-33243931D01*
X67758856Y-33243931D02*
X67854094Y-33196312D01*
X67854094Y-33196312D02*
X68139808Y-33196312D01*
X68139808Y-33196312D02*
X68235046Y-33243931D01*
X68235046Y-33243931D02*
X68282666Y-33291550D01*
X68282666Y-33291550D02*
X68330285Y-33386788D01*
X68330285Y-33386788D02*
X68330285Y-33577264D01*
X68330285Y-33577264D02*
X68282666Y-33672502D01*
X67663618Y-32339169D02*
X68330285Y-32339169D01*
X67663618Y-32767740D02*
X68187427Y-32767740D01*
X68187427Y-32767740D02*
X68282666Y-32720121D01*
X68282666Y-32720121D02*
X68330285Y-32624883D01*
X68330285Y-32624883D02*
X68330285Y-32482026D01*
X68330285Y-32482026D02*
X68282666Y-32386788D01*
X68282666Y-32386788D02*
X68235046Y-32339169D01*
X68282666Y-31434407D02*
X68330285Y-31529645D01*
X68330285Y-31529645D02*
X68330285Y-31720121D01*
X68330285Y-31720121D02*
X68282666Y-31815359D01*
X68282666Y-31815359D02*
X68235046Y-31862978D01*
X68235046Y-31862978D02*
X68139808Y-31910597D01*
X68139808Y-31910597D02*
X67854094Y-31910597D01*
X67854094Y-31910597D02*
X67758856Y-31862978D01*
X67758856Y-31862978D02*
X67711237Y-31815359D01*
X67711237Y-31815359D02*
X67663618Y-31720121D01*
X67663618Y-31720121D02*
X67663618Y-31529645D01*
X67663618Y-31529645D02*
X67711237Y-31434407D01*
X68330285Y-31005835D02*
X67330285Y-31005835D01*
X67949332Y-30910597D02*
X68330285Y-30624883D01*
X67663618Y-30624883D02*
X68044570Y-31005835D01*
D12*
X108595149Y-57082080D02*
X108595149Y-58082080D01*
X108595149Y-57224937D02*
X108666578Y-57153509D01*
X108666578Y-57153509D02*
X108809435Y-57082080D01*
X108809435Y-57082080D02*
X109023721Y-57082080D01*
X109023721Y-57082080D02*
X109166578Y-57153509D01*
X109166578Y-57153509D02*
X109238007Y-57296366D01*
X109238007Y-57296366D02*
X109238007Y-58082080D01*
X109952292Y-58082080D02*
X109952292Y-57082080D01*
X109952292Y-56582080D02*
X109880864Y-56653509D01*
X109880864Y-56653509D02*
X109952292Y-56724937D01*
X109952292Y-56724937D02*
X110023721Y-56653509D01*
X110023721Y-56653509D02*
X109952292Y-56582080D01*
X109952292Y-56582080D02*
X109952292Y-56724937D01*
X111309436Y-58010652D02*
X111166578Y-58082080D01*
X111166578Y-58082080D02*
X110880864Y-58082080D01*
X110880864Y-58082080D02*
X110738007Y-58010652D01*
X110738007Y-58010652D02*
X110666578Y-57939223D01*
X110666578Y-57939223D02*
X110595150Y-57796366D01*
X110595150Y-57796366D02*
X110595150Y-57367794D01*
X110595150Y-57367794D02*
X110666578Y-57224937D01*
X110666578Y-57224937D02*
X110738007Y-57153509D01*
X110738007Y-57153509D02*
X110880864Y-57082080D01*
X110880864Y-57082080D02*
X111166578Y-57082080D01*
X111166578Y-57082080D02*
X111309436Y-57153509D01*
X112523721Y-58010652D02*
X112380864Y-58082080D01*
X112380864Y-58082080D02*
X112095150Y-58082080D01*
X112095150Y-58082080D02*
X111952292Y-58010652D01*
X111952292Y-58010652D02*
X111880864Y-57867794D01*
X111880864Y-57867794D02*
X111880864Y-57296366D01*
X111880864Y-57296366D02*
X111952292Y-57153509D01*
X111952292Y-57153509D02*
X112095150Y-57082080D01*
X112095150Y-57082080D02*
X112380864Y-57082080D01*
X112380864Y-57082080D02*
X112523721Y-57153509D01*
X112523721Y-57153509D02*
X112595150Y-57296366D01*
X112595150Y-57296366D02*
X112595150Y-57439223D01*
X112595150Y-57439223D02*
X111880864Y-57582080D01*
X113238006Y-57939223D02*
X113309435Y-58010652D01*
X113309435Y-58010652D02*
X113238006Y-58082080D01*
X113238006Y-58082080D02*
X113166578Y-58010652D01*
X113166578Y-58010652D02*
X113238006Y-57939223D01*
X113238006Y-57939223D02*
X113238006Y-58082080D01*
X113238006Y-57510652D02*
X113166578Y-56653509D01*
X113166578Y-56653509D02*
X113238006Y-56582080D01*
X113238006Y-56582080D02*
X113309435Y-56653509D01*
X113309435Y-56653509D02*
X113238006Y-57510652D01*
X113238006Y-57510652D02*
X113238006Y-56582080D01*
X113952292Y-57082080D02*
X113952292Y-58082080D01*
X113952292Y-57224937D02*
X114023721Y-57153509D01*
X114023721Y-57153509D02*
X114166578Y-57082080D01*
X114166578Y-57082080D02*
X114380864Y-57082080D01*
X114380864Y-57082080D02*
X114523721Y-57153509D01*
X114523721Y-57153509D02*
X114595150Y-57296366D01*
X114595150Y-57296366D02*
X114595150Y-58082080D01*
X115952293Y-58082080D02*
X115952293Y-57296366D01*
X115952293Y-57296366D02*
X115880864Y-57153509D01*
X115880864Y-57153509D02*
X115738007Y-57082080D01*
X115738007Y-57082080D02*
X115452293Y-57082080D01*
X115452293Y-57082080D02*
X115309435Y-57153509D01*
X115952293Y-58010652D02*
X115809435Y-58082080D01*
X115809435Y-58082080D02*
X115452293Y-58082080D01*
X115452293Y-58082080D02*
X115309435Y-58010652D01*
X115309435Y-58010652D02*
X115238007Y-57867794D01*
X115238007Y-57867794D02*
X115238007Y-57724937D01*
X115238007Y-57724937D02*
X115309435Y-57582080D01*
X115309435Y-57582080D02*
X115452293Y-57510652D01*
X115452293Y-57510652D02*
X115809435Y-57510652D01*
X115809435Y-57510652D02*
X115952293Y-57439223D01*
X116666578Y-57082080D02*
X116666578Y-58082080D01*
X116666578Y-57224937D02*
X116738007Y-57153509D01*
X116738007Y-57153509D02*
X116880864Y-57082080D01*
X116880864Y-57082080D02*
X117095150Y-57082080D01*
X117095150Y-57082080D02*
X117238007Y-57153509D01*
X117238007Y-57153509D02*
X117309436Y-57296366D01*
X117309436Y-57296366D02*
X117309436Y-58082080D01*
X118238007Y-58082080D02*
X118095150Y-58010652D01*
X118095150Y-58010652D02*
X118023721Y-57939223D01*
X118023721Y-57939223D02*
X117952293Y-57796366D01*
X117952293Y-57796366D02*
X117952293Y-57367794D01*
X117952293Y-57367794D02*
X118023721Y-57224937D01*
X118023721Y-57224937D02*
X118095150Y-57153509D01*
X118095150Y-57153509D02*
X118238007Y-57082080D01*
X118238007Y-57082080D02*
X118452293Y-57082080D01*
X118452293Y-57082080D02*
X118595150Y-57153509D01*
X118595150Y-57153509D02*
X118666579Y-57224937D01*
X118666579Y-57224937D02*
X118738007Y-57367794D01*
X118738007Y-57367794D02*
X118738007Y-57796366D01*
X118738007Y-57796366D02*
X118666579Y-57939223D01*
X118666579Y-57939223D02*
X118595150Y-58010652D01*
X118595150Y-58010652D02*
X118452293Y-58082080D01*
X118452293Y-58082080D02*
X118238007Y-58082080D01*
D10*
X107306340Y-55734047D02*
X106849197Y-55734047D01*
X107077769Y-55734047D02*
X107077769Y-54934047D01*
X107077769Y-54934047D02*
X107001578Y-55048332D01*
X107001578Y-55048332D02*
X106925388Y-55124523D01*
X106925388Y-55124523D02*
X106849197Y-55162618D01*
X107801579Y-54934047D02*
X107877769Y-54934047D01*
X107877769Y-54934047D02*
X107953960Y-54972142D01*
X107953960Y-54972142D02*
X107992055Y-55010237D01*
X107992055Y-55010237D02*
X108030150Y-55086428D01*
X108030150Y-55086428D02*
X108068245Y-55238809D01*
X108068245Y-55238809D02*
X108068245Y-55429285D01*
X108068245Y-55429285D02*
X108030150Y-55581666D01*
X108030150Y-55581666D02*
X107992055Y-55657856D01*
X107992055Y-55657856D02*
X107953960Y-55695952D01*
X107953960Y-55695952D02*
X107877769Y-55734047D01*
X107877769Y-55734047D02*
X107801579Y-55734047D01*
X107801579Y-55734047D02*
X107725388Y-55695952D01*
X107725388Y-55695952D02*
X107687293Y-55657856D01*
X107687293Y-55657856D02*
X107649198Y-55581666D01*
X107649198Y-55581666D02*
X107611102Y-55429285D01*
X107611102Y-55429285D02*
X107611102Y-55238809D01*
X107611102Y-55238809D02*
X107649198Y-55086428D01*
X107649198Y-55086428D02*
X107687293Y-55010237D01*
X107687293Y-55010237D02*
X107725388Y-54972142D01*
X107725388Y-54972142D02*
X107801579Y-54934047D01*
X108753960Y-55200713D02*
X108753960Y-55734047D01*
X108563484Y-54895952D02*
X108373007Y-55467380D01*
X108373007Y-55467380D02*
X108868246Y-55467380D01*
X118114055Y-42234047D02*
X118190245Y-42234047D01*
X118190245Y-42234047D02*
X118266436Y-42272142D01*
X118266436Y-42272142D02*
X118304531Y-42310237D01*
X118304531Y-42310237D02*
X118342626Y-42386428D01*
X118342626Y-42386428D02*
X118380721Y-42538809D01*
X118380721Y-42538809D02*
X118380721Y-42729285D01*
X118380721Y-42729285D02*
X118342626Y-42881666D01*
X118342626Y-42881666D02*
X118304531Y-42957856D01*
X118304531Y-42957856D02*
X118266436Y-42995952D01*
X118266436Y-42995952D02*
X118190245Y-43034047D01*
X118190245Y-43034047D02*
X118114055Y-43034047D01*
X118114055Y-43034047D02*
X118037864Y-42995952D01*
X118037864Y-42995952D02*
X117999769Y-42957856D01*
X117999769Y-42957856D02*
X117961674Y-42881666D01*
X117961674Y-42881666D02*
X117923578Y-42729285D01*
X117923578Y-42729285D02*
X117923578Y-42538809D01*
X117923578Y-42538809D02*
X117961674Y-42386428D01*
X117961674Y-42386428D02*
X117999769Y-42310237D01*
X117999769Y-42310237D02*
X118037864Y-42272142D01*
X118037864Y-42272142D02*
X118114055Y-42234047D01*
X118685483Y-42310237D02*
X118723579Y-42272142D01*
X118723579Y-42272142D02*
X118799769Y-42234047D01*
X118799769Y-42234047D02*
X118990245Y-42234047D01*
X118990245Y-42234047D02*
X119066436Y-42272142D01*
X119066436Y-42272142D02*
X119104531Y-42310237D01*
X119104531Y-42310237D02*
X119142626Y-42386428D01*
X119142626Y-42386428D02*
X119142626Y-42462618D01*
X119142626Y-42462618D02*
X119104531Y-42576904D01*
X119104531Y-42576904D02*
X118647388Y-43034047D01*
X118647388Y-43034047D02*
X119142626Y-43034047D01*
X119523579Y-43034047D02*
X119675960Y-43034047D01*
X119675960Y-43034047D02*
X119752150Y-42995952D01*
X119752150Y-42995952D02*
X119790246Y-42957856D01*
X119790246Y-42957856D02*
X119866436Y-42843571D01*
X119866436Y-42843571D02*
X119904531Y-42691190D01*
X119904531Y-42691190D02*
X119904531Y-42386428D01*
X119904531Y-42386428D02*
X119866436Y-42310237D01*
X119866436Y-42310237D02*
X119828341Y-42272142D01*
X119828341Y-42272142D02*
X119752150Y-42234047D01*
X119752150Y-42234047D02*
X119599769Y-42234047D01*
X119599769Y-42234047D02*
X119523579Y-42272142D01*
X119523579Y-42272142D02*
X119485484Y-42310237D01*
X119485484Y-42310237D02*
X119447388Y-42386428D01*
X119447388Y-42386428D02*
X119447388Y-42576904D01*
X119447388Y-42576904D02*
X119485484Y-42653094D01*
X119485484Y-42653094D02*
X119523579Y-42691190D01*
X119523579Y-42691190D02*
X119599769Y-42729285D01*
X119599769Y-42729285D02*
X119752150Y-42729285D01*
X119752150Y-42729285D02*
X119828341Y-42691190D01*
X119828341Y-42691190D02*
X119866436Y-42653094D01*
X119866436Y-42653094D02*
X119904531Y-42576904D01*
X107039674Y-44804047D02*
X107115864Y-44804047D01*
X107115864Y-44804047D02*
X107192055Y-44842142D01*
X107192055Y-44842142D02*
X107230150Y-44880237D01*
X107230150Y-44880237D02*
X107268245Y-44956428D01*
X107268245Y-44956428D02*
X107306340Y-45108809D01*
X107306340Y-45108809D02*
X107306340Y-45299285D01*
X107306340Y-45299285D02*
X107268245Y-45451666D01*
X107268245Y-45451666D02*
X107230150Y-45527856D01*
X107230150Y-45527856D02*
X107192055Y-45565952D01*
X107192055Y-45565952D02*
X107115864Y-45604047D01*
X107115864Y-45604047D02*
X107039674Y-45604047D01*
X107039674Y-45604047D02*
X106963483Y-45565952D01*
X106963483Y-45565952D02*
X106925388Y-45527856D01*
X106925388Y-45527856D02*
X106887293Y-45451666D01*
X106887293Y-45451666D02*
X106849197Y-45299285D01*
X106849197Y-45299285D02*
X106849197Y-45108809D01*
X106849197Y-45108809D02*
X106887293Y-44956428D01*
X106887293Y-44956428D02*
X106925388Y-44880237D01*
X106925388Y-44880237D02*
X106963483Y-44842142D01*
X106963483Y-44842142D02*
X107039674Y-44804047D01*
X107611102Y-44880237D02*
X107649198Y-44842142D01*
X107649198Y-44842142D02*
X107725388Y-44804047D01*
X107725388Y-44804047D02*
X107915864Y-44804047D01*
X107915864Y-44804047D02*
X107992055Y-44842142D01*
X107992055Y-44842142D02*
X108030150Y-44880237D01*
X108030150Y-44880237D02*
X108068245Y-44956428D01*
X108068245Y-44956428D02*
X108068245Y-45032618D01*
X108068245Y-45032618D02*
X108030150Y-45146904D01*
X108030150Y-45146904D02*
X107573007Y-45604047D01*
X107573007Y-45604047D02*
X108068245Y-45604047D01*
X108373007Y-44880237D02*
X108411103Y-44842142D01*
X108411103Y-44842142D02*
X108487293Y-44804047D01*
X108487293Y-44804047D02*
X108677769Y-44804047D01*
X108677769Y-44804047D02*
X108753960Y-44842142D01*
X108753960Y-44842142D02*
X108792055Y-44880237D01*
X108792055Y-44880237D02*
X108830150Y-44956428D01*
X108830150Y-44956428D02*
X108830150Y-45032618D01*
X108830150Y-45032618D02*
X108792055Y-45146904D01*
X108792055Y-45146904D02*
X108334912Y-45604047D01*
X108334912Y-45604047D02*
X108830150Y-45604047D01*
X118380721Y-53194047D02*
X117923578Y-53194047D01*
X118152150Y-53194047D02*
X118152150Y-52394047D01*
X118152150Y-52394047D02*
X118075959Y-52508332D01*
X118075959Y-52508332D02*
X117999769Y-52584523D01*
X117999769Y-52584523D02*
X117923578Y-52622618D01*
X119142626Y-53194047D02*
X118685483Y-53194047D01*
X118914055Y-53194047D02*
X118914055Y-52394047D01*
X118914055Y-52394047D02*
X118837864Y-52508332D01*
X118837864Y-52508332D02*
X118761674Y-52584523D01*
X118761674Y-52584523D02*
X118685483Y-52622618D01*
X119904531Y-53194047D02*
X119447388Y-53194047D01*
X119675960Y-53194047D02*
X119675960Y-52394047D01*
X119675960Y-52394047D02*
X119599769Y-52508332D01*
X119599769Y-52508332D02*
X119523579Y-52584523D01*
X119523579Y-52584523D02*
X119447388Y-52622618D01*
X107039674Y-29534047D02*
X107115864Y-29534047D01*
X107115864Y-29534047D02*
X107192055Y-29572142D01*
X107192055Y-29572142D02*
X107230150Y-29610237D01*
X107230150Y-29610237D02*
X107268245Y-29686428D01*
X107268245Y-29686428D02*
X107306340Y-29838809D01*
X107306340Y-29838809D02*
X107306340Y-30029285D01*
X107306340Y-30029285D02*
X107268245Y-30181666D01*
X107268245Y-30181666D02*
X107230150Y-30257856D01*
X107230150Y-30257856D02*
X107192055Y-30295952D01*
X107192055Y-30295952D02*
X107115864Y-30334047D01*
X107115864Y-30334047D02*
X107039674Y-30334047D01*
X107039674Y-30334047D02*
X106963483Y-30295952D01*
X106963483Y-30295952D02*
X106925388Y-30257856D01*
X106925388Y-30257856D02*
X106887293Y-30181666D01*
X106887293Y-30181666D02*
X106849197Y-30029285D01*
X106849197Y-30029285D02*
X106849197Y-29838809D01*
X106849197Y-29838809D02*
X106887293Y-29686428D01*
X106887293Y-29686428D02*
X106925388Y-29610237D01*
X106925388Y-29610237D02*
X106963483Y-29572142D01*
X106963483Y-29572142D02*
X107039674Y-29534047D01*
X107801579Y-29534047D02*
X107877769Y-29534047D01*
X107877769Y-29534047D02*
X107953960Y-29572142D01*
X107953960Y-29572142D02*
X107992055Y-29610237D01*
X107992055Y-29610237D02*
X108030150Y-29686428D01*
X108030150Y-29686428D02*
X108068245Y-29838809D01*
X108068245Y-29838809D02*
X108068245Y-30029285D01*
X108068245Y-30029285D02*
X108030150Y-30181666D01*
X108030150Y-30181666D02*
X107992055Y-30257856D01*
X107992055Y-30257856D02*
X107953960Y-30295952D01*
X107953960Y-30295952D02*
X107877769Y-30334047D01*
X107877769Y-30334047D02*
X107801579Y-30334047D01*
X107801579Y-30334047D02*
X107725388Y-30295952D01*
X107725388Y-30295952D02*
X107687293Y-30257856D01*
X107687293Y-30257856D02*
X107649198Y-30181666D01*
X107649198Y-30181666D02*
X107611102Y-30029285D01*
X107611102Y-30029285D02*
X107611102Y-29838809D01*
X107611102Y-29838809D02*
X107649198Y-29686428D01*
X107649198Y-29686428D02*
X107687293Y-29610237D01*
X107687293Y-29610237D02*
X107725388Y-29572142D01*
X107725388Y-29572142D02*
X107801579Y-29534047D01*
X108753960Y-29534047D02*
X108601579Y-29534047D01*
X108601579Y-29534047D02*
X108525388Y-29572142D01*
X108525388Y-29572142D02*
X108487293Y-29610237D01*
X108487293Y-29610237D02*
X108411103Y-29724523D01*
X108411103Y-29724523D02*
X108373007Y-29876904D01*
X108373007Y-29876904D02*
X108373007Y-30181666D01*
X108373007Y-30181666D02*
X108411103Y-30257856D01*
X108411103Y-30257856D02*
X108449198Y-30295952D01*
X108449198Y-30295952D02*
X108525388Y-30334047D01*
X108525388Y-30334047D02*
X108677769Y-30334047D01*
X108677769Y-30334047D02*
X108753960Y-30295952D01*
X108753960Y-30295952D02*
X108792055Y-30257856D01*
X108792055Y-30257856D02*
X108830150Y-30181666D01*
X108830150Y-30181666D02*
X108830150Y-29991190D01*
X108830150Y-29991190D02*
X108792055Y-29914999D01*
X108792055Y-29914999D02*
X108753960Y-29876904D01*
X108753960Y-29876904D02*
X108677769Y-29838809D01*
X108677769Y-29838809D02*
X108525388Y-29838809D01*
X108525388Y-29838809D02*
X108449198Y-29876904D01*
X108449198Y-29876904D02*
X108411103Y-29914999D01*
X108411103Y-29914999D02*
X108373007Y-29991190D01*
X107039674Y-42304047D02*
X107115864Y-42304047D01*
X107115864Y-42304047D02*
X107192055Y-42342142D01*
X107192055Y-42342142D02*
X107230150Y-42380237D01*
X107230150Y-42380237D02*
X107268245Y-42456428D01*
X107268245Y-42456428D02*
X107306340Y-42608809D01*
X107306340Y-42608809D02*
X107306340Y-42799285D01*
X107306340Y-42799285D02*
X107268245Y-42951666D01*
X107268245Y-42951666D02*
X107230150Y-43027856D01*
X107230150Y-43027856D02*
X107192055Y-43065952D01*
X107192055Y-43065952D02*
X107115864Y-43104047D01*
X107115864Y-43104047D02*
X107039674Y-43104047D01*
X107039674Y-43104047D02*
X106963483Y-43065952D01*
X106963483Y-43065952D02*
X106925388Y-43027856D01*
X106925388Y-43027856D02*
X106887293Y-42951666D01*
X106887293Y-42951666D02*
X106849197Y-42799285D01*
X106849197Y-42799285D02*
X106849197Y-42608809D01*
X106849197Y-42608809D02*
X106887293Y-42456428D01*
X106887293Y-42456428D02*
X106925388Y-42380237D01*
X106925388Y-42380237D02*
X106963483Y-42342142D01*
X106963483Y-42342142D02*
X107039674Y-42304047D01*
X107611102Y-42380237D02*
X107649198Y-42342142D01*
X107649198Y-42342142D02*
X107725388Y-42304047D01*
X107725388Y-42304047D02*
X107915864Y-42304047D01*
X107915864Y-42304047D02*
X107992055Y-42342142D01*
X107992055Y-42342142D02*
X108030150Y-42380237D01*
X108030150Y-42380237D02*
X108068245Y-42456428D01*
X108068245Y-42456428D02*
X108068245Y-42532618D01*
X108068245Y-42532618D02*
X108030150Y-42646904D01*
X108030150Y-42646904D02*
X107573007Y-43104047D01*
X107573007Y-43104047D02*
X108068245Y-43104047D01*
X108563484Y-42304047D02*
X108639674Y-42304047D01*
X108639674Y-42304047D02*
X108715865Y-42342142D01*
X108715865Y-42342142D02*
X108753960Y-42380237D01*
X108753960Y-42380237D02*
X108792055Y-42456428D01*
X108792055Y-42456428D02*
X108830150Y-42608809D01*
X108830150Y-42608809D02*
X108830150Y-42799285D01*
X108830150Y-42799285D02*
X108792055Y-42951666D01*
X108792055Y-42951666D02*
X108753960Y-43027856D01*
X108753960Y-43027856D02*
X108715865Y-43065952D01*
X108715865Y-43065952D02*
X108639674Y-43104047D01*
X108639674Y-43104047D02*
X108563484Y-43104047D01*
X108563484Y-43104047D02*
X108487293Y-43065952D01*
X108487293Y-43065952D02*
X108449198Y-43027856D01*
X108449198Y-43027856D02*
X108411103Y-42951666D01*
X108411103Y-42951666D02*
X108373007Y-42799285D01*
X108373007Y-42799285D02*
X108373007Y-42608809D01*
X108373007Y-42608809D02*
X108411103Y-42456428D01*
X108411103Y-42456428D02*
X108449198Y-42380237D01*
X108449198Y-42380237D02*
X108487293Y-42342142D01*
X108487293Y-42342142D02*
X108563484Y-42304047D01*
X107306340Y-37192142D02*
X107230150Y-37154047D01*
X107230150Y-37154047D02*
X107115864Y-37154047D01*
X107115864Y-37154047D02*
X107001578Y-37192142D01*
X107001578Y-37192142D02*
X106925388Y-37268332D01*
X106925388Y-37268332D02*
X106887293Y-37344523D01*
X106887293Y-37344523D02*
X106849197Y-37496904D01*
X106849197Y-37496904D02*
X106849197Y-37611190D01*
X106849197Y-37611190D02*
X106887293Y-37763571D01*
X106887293Y-37763571D02*
X106925388Y-37839761D01*
X106925388Y-37839761D02*
X107001578Y-37915952D01*
X107001578Y-37915952D02*
X107115864Y-37954047D01*
X107115864Y-37954047D02*
X107192055Y-37954047D01*
X107192055Y-37954047D02*
X107306340Y-37915952D01*
X107306340Y-37915952D02*
X107344436Y-37877856D01*
X107344436Y-37877856D02*
X107344436Y-37611190D01*
X107344436Y-37611190D02*
X107192055Y-37611190D01*
X107687293Y-37954047D02*
X107687293Y-37154047D01*
X107687293Y-37154047D02*
X108144436Y-37954047D01*
X108144436Y-37954047D02*
X108144436Y-37154047D01*
X108525388Y-37954047D02*
X108525388Y-37154047D01*
X108525388Y-37154047D02*
X108715864Y-37154047D01*
X108715864Y-37154047D02*
X108830150Y-37192142D01*
X108830150Y-37192142D02*
X108906340Y-37268332D01*
X108906340Y-37268332D02*
X108944435Y-37344523D01*
X108944435Y-37344523D02*
X108982531Y-37496904D01*
X108982531Y-37496904D02*
X108982531Y-37611190D01*
X108982531Y-37611190D02*
X108944435Y-37763571D01*
X108944435Y-37763571D02*
X108906340Y-37839761D01*
X108906340Y-37839761D02*
X108830150Y-37915952D01*
X108830150Y-37915952D02*
X108715864Y-37954047D01*
X108715864Y-37954047D02*
X108525388Y-37954047D01*
X107306340Y-34652142D02*
X107230150Y-34614047D01*
X107230150Y-34614047D02*
X107115864Y-34614047D01*
X107115864Y-34614047D02*
X107001578Y-34652142D01*
X107001578Y-34652142D02*
X106925388Y-34728332D01*
X106925388Y-34728332D02*
X106887293Y-34804523D01*
X106887293Y-34804523D02*
X106849197Y-34956904D01*
X106849197Y-34956904D02*
X106849197Y-35071190D01*
X106849197Y-35071190D02*
X106887293Y-35223571D01*
X106887293Y-35223571D02*
X106925388Y-35299761D01*
X106925388Y-35299761D02*
X107001578Y-35375952D01*
X107001578Y-35375952D02*
X107115864Y-35414047D01*
X107115864Y-35414047D02*
X107192055Y-35414047D01*
X107192055Y-35414047D02*
X107306340Y-35375952D01*
X107306340Y-35375952D02*
X107344436Y-35337856D01*
X107344436Y-35337856D02*
X107344436Y-35071190D01*
X107344436Y-35071190D02*
X107192055Y-35071190D01*
X107687293Y-35414047D02*
X107687293Y-34614047D01*
X107687293Y-34614047D02*
X108144436Y-35414047D01*
X108144436Y-35414047D02*
X108144436Y-34614047D01*
X108525388Y-35414047D02*
X108525388Y-34614047D01*
X108525388Y-34614047D02*
X108715864Y-34614047D01*
X108715864Y-34614047D02*
X108830150Y-34652142D01*
X108830150Y-34652142D02*
X108906340Y-34728332D01*
X108906340Y-34728332D02*
X108944435Y-34804523D01*
X108944435Y-34804523D02*
X108982531Y-34956904D01*
X108982531Y-34956904D02*
X108982531Y-35071190D01*
X108982531Y-35071190D02*
X108944435Y-35223571D01*
X108944435Y-35223571D02*
X108906340Y-35299761D01*
X108906340Y-35299761D02*
X108830150Y-35375952D01*
X108830150Y-35375952D02*
X108715864Y-35414047D01*
X108715864Y-35414047D02*
X108525388Y-35414047D01*
X118526769Y-35414047D02*
X118260102Y-35033094D01*
X118069626Y-35414047D02*
X118069626Y-34614047D01*
X118069626Y-34614047D02*
X118374388Y-34614047D01*
X118374388Y-34614047D02*
X118450578Y-34652142D01*
X118450578Y-34652142D02*
X118488673Y-34690237D01*
X118488673Y-34690237D02*
X118526769Y-34766428D01*
X118526769Y-34766428D02*
X118526769Y-34880713D01*
X118526769Y-34880713D02*
X118488673Y-34956904D01*
X118488673Y-34956904D02*
X118450578Y-34994999D01*
X118450578Y-34994999D02*
X118374388Y-35033094D01*
X118374388Y-35033094D02*
X118069626Y-35033094D01*
X118831530Y-35375952D02*
X118945816Y-35414047D01*
X118945816Y-35414047D02*
X119136292Y-35414047D01*
X119136292Y-35414047D02*
X119212483Y-35375952D01*
X119212483Y-35375952D02*
X119250578Y-35337856D01*
X119250578Y-35337856D02*
X119288673Y-35261666D01*
X119288673Y-35261666D02*
X119288673Y-35185475D01*
X119288673Y-35185475D02*
X119250578Y-35109285D01*
X119250578Y-35109285D02*
X119212483Y-35071190D01*
X119212483Y-35071190D02*
X119136292Y-35033094D01*
X119136292Y-35033094D02*
X118983911Y-34994999D01*
X118983911Y-34994999D02*
X118907721Y-34956904D01*
X118907721Y-34956904D02*
X118869626Y-34918809D01*
X118869626Y-34918809D02*
X118831530Y-34842618D01*
X118831530Y-34842618D02*
X118831530Y-34766428D01*
X118831530Y-34766428D02*
X118869626Y-34690237D01*
X118869626Y-34690237D02*
X118907721Y-34652142D01*
X118907721Y-34652142D02*
X118983911Y-34614047D01*
X118983911Y-34614047D02*
X119174388Y-34614047D01*
X119174388Y-34614047D02*
X119288673Y-34652142D01*
X119517245Y-34614047D02*
X119974388Y-34614047D01*
X119745816Y-35414047D02*
X119745816Y-34614047D01*
X118222007Y-32112142D02*
X118145817Y-32074047D01*
X118145817Y-32074047D02*
X118031531Y-32074047D01*
X118031531Y-32074047D02*
X117917245Y-32112142D01*
X117917245Y-32112142D02*
X117841055Y-32188332D01*
X117841055Y-32188332D02*
X117802960Y-32264523D01*
X117802960Y-32264523D02*
X117764864Y-32416904D01*
X117764864Y-32416904D02*
X117764864Y-32531190D01*
X117764864Y-32531190D02*
X117802960Y-32683571D01*
X117802960Y-32683571D02*
X117841055Y-32759761D01*
X117841055Y-32759761D02*
X117917245Y-32835952D01*
X117917245Y-32835952D02*
X118031531Y-32874047D01*
X118031531Y-32874047D02*
X118107722Y-32874047D01*
X118107722Y-32874047D02*
X118222007Y-32835952D01*
X118222007Y-32835952D02*
X118260103Y-32797856D01*
X118260103Y-32797856D02*
X118260103Y-32531190D01*
X118260103Y-32531190D02*
X118107722Y-32531190D01*
X118602960Y-32874047D02*
X118602960Y-32074047D01*
X118602960Y-32074047D02*
X119060103Y-32874047D01*
X119060103Y-32874047D02*
X119060103Y-32074047D01*
X119441055Y-32874047D02*
X119441055Y-32074047D01*
X119441055Y-32074047D02*
X119631531Y-32074047D01*
X119631531Y-32074047D02*
X119745817Y-32112142D01*
X119745817Y-32112142D02*
X119822007Y-32188332D01*
X119822007Y-32188332D02*
X119860102Y-32264523D01*
X119860102Y-32264523D02*
X119898198Y-32416904D01*
X119898198Y-32416904D02*
X119898198Y-32531190D01*
X119898198Y-32531190D02*
X119860102Y-32683571D01*
X119860102Y-32683571D02*
X119822007Y-32759761D01*
X119822007Y-32759761D02*
X119745817Y-32835952D01*
X119745817Y-32835952D02*
X119631531Y-32874047D01*
X119631531Y-32874047D02*
X119441055Y-32874047D01*
X107039674Y-32004047D02*
X107115864Y-32004047D01*
X107115864Y-32004047D02*
X107192055Y-32042142D01*
X107192055Y-32042142D02*
X107230150Y-32080237D01*
X107230150Y-32080237D02*
X107268245Y-32156428D01*
X107268245Y-32156428D02*
X107306340Y-32308809D01*
X107306340Y-32308809D02*
X107306340Y-32499285D01*
X107306340Y-32499285D02*
X107268245Y-32651666D01*
X107268245Y-32651666D02*
X107230150Y-32727856D01*
X107230150Y-32727856D02*
X107192055Y-32765952D01*
X107192055Y-32765952D02*
X107115864Y-32804047D01*
X107115864Y-32804047D02*
X107039674Y-32804047D01*
X107039674Y-32804047D02*
X106963483Y-32765952D01*
X106963483Y-32765952D02*
X106925388Y-32727856D01*
X106925388Y-32727856D02*
X106887293Y-32651666D01*
X106887293Y-32651666D02*
X106849197Y-32499285D01*
X106849197Y-32499285D02*
X106849197Y-32308809D01*
X106849197Y-32308809D02*
X106887293Y-32156428D01*
X106887293Y-32156428D02*
X106925388Y-32080237D01*
X106925388Y-32080237D02*
X106963483Y-32042142D01*
X106963483Y-32042142D02*
X107039674Y-32004047D01*
X107801579Y-32004047D02*
X107877769Y-32004047D01*
X107877769Y-32004047D02*
X107953960Y-32042142D01*
X107953960Y-32042142D02*
X107992055Y-32080237D01*
X107992055Y-32080237D02*
X108030150Y-32156428D01*
X108030150Y-32156428D02*
X108068245Y-32308809D01*
X108068245Y-32308809D02*
X108068245Y-32499285D01*
X108068245Y-32499285D02*
X108030150Y-32651666D01*
X108030150Y-32651666D02*
X107992055Y-32727856D01*
X107992055Y-32727856D02*
X107953960Y-32765952D01*
X107953960Y-32765952D02*
X107877769Y-32804047D01*
X107877769Y-32804047D02*
X107801579Y-32804047D01*
X107801579Y-32804047D02*
X107725388Y-32765952D01*
X107725388Y-32765952D02*
X107687293Y-32727856D01*
X107687293Y-32727856D02*
X107649198Y-32651666D01*
X107649198Y-32651666D02*
X107611102Y-32499285D01*
X107611102Y-32499285D02*
X107611102Y-32308809D01*
X107611102Y-32308809D02*
X107649198Y-32156428D01*
X107649198Y-32156428D02*
X107687293Y-32080237D01*
X107687293Y-32080237D02*
X107725388Y-32042142D01*
X107725388Y-32042142D02*
X107801579Y-32004047D01*
X108525388Y-32346904D02*
X108449198Y-32308809D01*
X108449198Y-32308809D02*
X108411103Y-32270713D01*
X108411103Y-32270713D02*
X108373007Y-32194523D01*
X108373007Y-32194523D02*
X108373007Y-32156428D01*
X108373007Y-32156428D02*
X108411103Y-32080237D01*
X108411103Y-32080237D02*
X108449198Y-32042142D01*
X108449198Y-32042142D02*
X108525388Y-32004047D01*
X108525388Y-32004047D02*
X108677769Y-32004047D01*
X108677769Y-32004047D02*
X108753960Y-32042142D01*
X108753960Y-32042142D02*
X108792055Y-32080237D01*
X108792055Y-32080237D02*
X108830150Y-32156428D01*
X108830150Y-32156428D02*
X108830150Y-32194523D01*
X108830150Y-32194523D02*
X108792055Y-32270713D01*
X108792055Y-32270713D02*
X108753960Y-32308809D01*
X108753960Y-32308809D02*
X108677769Y-32346904D01*
X108677769Y-32346904D02*
X108525388Y-32346904D01*
X108525388Y-32346904D02*
X108449198Y-32384999D01*
X108449198Y-32384999D02*
X108411103Y-32423094D01*
X108411103Y-32423094D02*
X108373007Y-32499285D01*
X108373007Y-32499285D02*
X108373007Y-32651666D01*
X108373007Y-32651666D02*
X108411103Y-32727856D01*
X108411103Y-32727856D02*
X108449198Y-32765952D01*
X108449198Y-32765952D02*
X108525388Y-32804047D01*
X108525388Y-32804047D02*
X108677769Y-32804047D01*
X108677769Y-32804047D02*
X108753960Y-32765952D01*
X108753960Y-32765952D02*
X108792055Y-32727856D01*
X108792055Y-32727856D02*
X108830150Y-32651666D01*
X108830150Y-32651666D02*
X108830150Y-32499285D01*
X108830150Y-32499285D02*
X108792055Y-32423094D01*
X108792055Y-32423094D02*
X108753960Y-32384999D01*
X108753960Y-32384999D02*
X108677769Y-32346904D01*
X118114055Y-39694047D02*
X118190245Y-39694047D01*
X118190245Y-39694047D02*
X118266436Y-39732142D01*
X118266436Y-39732142D02*
X118304531Y-39770237D01*
X118304531Y-39770237D02*
X118342626Y-39846428D01*
X118342626Y-39846428D02*
X118380721Y-39998809D01*
X118380721Y-39998809D02*
X118380721Y-40189285D01*
X118380721Y-40189285D02*
X118342626Y-40341666D01*
X118342626Y-40341666D02*
X118304531Y-40417856D01*
X118304531Y-40417856D02*
X118266436Y-40455952D01*
X118266436Y-40455952D02*
X118190245Y-40494047D01*
X118190245Y-40494047D02*
X118114055Y-40494047D01*
X118114055Y-40494047D02*
X118037864Y-40455952D01*
X118037864Y-40455952D02*
X117999769Y-40417856D01*
X117999769Y-40417856D02*
X117961674Y-40341666D01*
X117961674Y-40341666D02*
X117923578Y-40189285D01*
X117923578Y-40189285D02*
X117923578Y-39998809D01*
X117923578Y-39998809D02*
X117961674Y-39846428D01*
X117961674Y-39846428D02*
X117999769Y-39770237D01*
X117999769Y-39770237D02*
X118037864Y-39732142D01*
X118037864Y-39732142D02*
X118114055Y-39694047D01*
X118647388Y-39694047D02*
X119142626Y-39694047D01*
X119142626Y-39694047D02*
X118875960Y-39998809D01*
X118875960Y-39998809D02*
X118990245Y-39998809D01*
X118990245Y-39998809D02*
X119066436Y-40036904D01*
X119066436Y-40036904D02*
X119104531Y-40074999D01*
X119104531Y-40074999D02*
X119142626Y-40151190D01*
X119142626Y-40151190D02*
X119142626Y-40341666D01*
X119142626Y-40341666D02*
X119104531Y-40417856D01*
X119104531Y-40417856D02*
X119066436Y-40455952D01*
X119066436Y-40455952D02*
X118990245Y-40494047D01*
X118990245Y-40494047D02*
X118761674Y-40494047D01*
X118761674Y-40494047D02*
X118685483Y-40455952D01*
X118685483Y-40455952D02*
X118647388Y-40417856D01*
X119904531Y-40494047D02*
X119447388Y-40494047D01*
X119675960Y-40494047D02*
X119675960Y-39694047D01*
X119675960Y-39694047D02*
X119599769Y-39808332D01*
X119599769Y-39808332D02*
X119523579Y-39884523D01*
X119523579Y-39884523D02*
X119447388Y-39922618D01*
X107039674Y-47314047D02*
X107115864Y-47314047D01*
X107115864Y-47314047D02*
X107192055Y-47352142D01*
X107192055Y-47352142D02*
X107230150Y-47390237D01*
X107230150Y-47390237D02*
X107268245Y-47466428D01*
X107268245Y-47466428D02*
X107306340Y-47618809D01*
X107306340Y-47618809D02*
X107306340Y-47809285D01*
X107306340Y-47809285D02*
X107268245Y-47961666D01*
X107268245Y-47961666D02*
X107230150Y-48037856D01*
X107230150Y-48037856D02*
X107192055Y-48075952D01*
X107192055Y-48075952D02*
X107115864Y-48114047D01*
X107115864Y-48114047D02*
X107039674Y-48114047D01*
X107039674Y-48114047D02*
X106963483Y-48075952D01*
X106963483Y-48075952D02*
X106925388Y-48037856D01*
X106925388Y-48037856D02*
X106887293Y-47961666D01*
X106887293Y-47961666D02*
X106849197Y-47809285D01*
X106849197Y-47809285D02*
X106849197Y-47618809D01*
X106849197Y-47618809D02*
X106887293Y-47466428D01*
X106887293Y-47466428D02*
X106925388Y-47390237D01*
X106925388Y-47390237D02*
X106963483Y-47352142D01*
X106963483Y-47352142D02*
X107039674Y-47314047D01*
X107611102Y-47390237D02*
X107649198Y-47352142D01*
X107649198Y-47352142D02*
X107725388Y-47314047D01*
X107725388Y-47314047D02*
X107915864Y-47314047D01*
X107915864Y-47314047D02*
X107992055Y-47352142D01*
X107992055Y-47352142D02*
X108030150Y-47390237D01*
X108030150Y-47390237D02*
X108068245Y-47466428D01*
X108068245Y-47466428D02*
X108068245Y-47542618D01*
X108068245Y-47542618D02*
X108030150Y-47656904D01*
X108030150Y-47656904D02*
X107573007Y-48114047D01*
X107573007Y-48114047D02*
X108068245Y-48114047D01*
X108753960Y-47580713D02*
X108753960Y-48114047D01*
X108563484Y-47275952D02*
X108373007Y-47847380D01*
X108373007Y-47847380D02*
X108868246Y-47847380D01*
X118380721Y-48114047D02*
X117923578Y-48114047D01*
X118152150Y-48114047D02*
X118152150Y-47314047D01*
X118152150Y-47314047D02*
X118075959Y-47428332D01*
X118075959Y-47428332D02*
X117999769Y-47504523D01*
X117999769Y-47504523D02*
X117923578Y-47542618D01*
X119142626Y-48114047D02*
X118685483Y-48114047D01*
X118914055Y-48114047D02*
X118914055Y-47314047D01*
X118914055Y-47314047D02*
X118837864Y-47428332D01*
X118837864Y-47428332D02*
X118761674Y-47504523D01*
X118761674Y-47504523D02*
X118685483Y-47542618D01*
X119866436Y-47314047D02*
X119485484Y-47314047D01*
X119485484Y-47314047D02*
X119447388Y-47694999D01*
X119447388Y-47694999D02*
X119485484Y-47656904D01*
X119485484Y-47656904D02*
X119561674Y-47618809D01*
X119561674Y-47618809D02*
X119752150Y-47618809D01*
X119752150Y-47618809D02*
X119828341Y-47656904D01*
X119828341Y-47656904D02*
X119866436Y-47694999D01*
X119866436Y-47694999D02*
X119904531Y-47771190D01*
X119904531Y-47771190D02*
X119904531Y-47961666D01*
X119904531Y-47961666D02*
X119866436Y-48037856D01*
X119866436Y-48037856D02*
X119828341Y-48075952D01*
X119828341Y-48075952D02*
X119752150Y-48114047D01*
X119752150Y-48114047D02*
X119561674Y-48114047D01*
X119561674Y-48114047D02*
X119485484Y-48075952D01*
X119485484Y-48075952D02*
X119447388Y-48037856D01*
X117847388Y-37154047D02*
X118114055Y-37954047D01*
X118114055Y-37954047D02*
X118380721Y-37154047D01*
X119104531Y-37877856D02*
X119066435Y-37915952D01*
X119066435Y-37915952D02*
X118952150Y-37954047D01*
X118952150Y-37954047D02*
X118875959Y-37954047D01*
X118875959Y-37954047D02*
X118761673Y-37915952D01*
X118761673Y-37915952D02*
X118685483Y-37839761D01*
X118685483Y-37839761D02*
X118647388Y-37763571D01*
X118647388Y-37763571D02*
X118609292Y-37611190D01*
X118609292Y-37611190D02*
X118609292Y-37496904D01*
X118609292Y-37496904D02*
X118647388Y-37344523D01*
X118647388Y-37344523D02*
X118685483Y-37268332D01*
X118685483Y-37268332D02*
X118761673Y-37192142D01*
X118761673Y-37192142D02*
X118875959Y-37154047D01*
X118875959Y-37154047D02*
X118952150Y-37154047D01*
X118952150Y-37154047D02*
X119066435Y-37192142D01*
X119066435Y-37192142D02*
X119104531Y-37230237D01*
X119904531Y-37877856D02*
X119866435Y-37915952D01*
X119866435Y-37915952D02*
X119752150Y-37954047D01*
X119752150Y-37954047D02*
X119675959Y-37954047D01*
X119675959Y-37954047D02*
X119561673Y-37915952D01*
X119561673Y-37915952D02*
X119485483Y-37839761D01*
X119485483Y-37839761D02*
X119447388Y-37763571D01*
X119447388Y-37763571D02*
X119409292Y-37611190D01*
X119409292Y-37611190D02*
X119409292Y-37496904D01*
X119409292Y-37496904D02*
X119447388Y-37344523D01*
X119447388Y-37344523D02*
X119485483Y-37268332D01*
X119485483Y-37268332D02*
X119561673Y-37192142D01*
X119561673Y-37192142D02*
X119675959Y-37154047D01*
X119675959Y-37154047D02*
X119752150Y-37154047D01*
X119752150Y-37154047D02*
X119866435Y-37192142D01*
X119866435Y-37192142D02*
X119904531Y-37230237D01*
X118114055Y-44774047D02*
X118190245Y-44774047D01*
X118190245Y-44774047D02*
X118266436Y-44812142D01*
X118266436Y-44812142D02*
X118304531Y-44850237D01*
X118304531Y-44850237D02*
X118342626Y-44926428D01*
X118342626Y-44926428D02*
X118380721Y-45078809D01*
X118380721Y-45078809D02*
X118380721Y-45269285D01*
X118380721Y-45269285D02*
X118342626Y-45421666D01*
X118342626Y-45421666D02*
X118304531Y-45497856D01*
X118304531Y-45497856D02*
X118266436Y-45535952D01*
X118266436Y-45535952D02*
X118190245Y-45574047D01*
X118190245Y-45574047D02*
X118114055Y-45574047D01*
X118114055Y-45574047D02*
X118037864Y-45535952D01*
X118037864Y-45535952D02*
X117999769Y-45497856D01*
X117999769Y-45497856D02*
X117961674Y-45421666D01*
X117961674Y-45421666D02*
X117923578Y-45269285D01*
X117923578Y-45269285D02*
X117923578Y-45078809D01*
X117923578Y-45078809D02*
X117961674Y-44926428D01*
X117961674Y-44926428D02*
X117999769Y-44850237D01*
X117999769Y-44850237D02*
X118037864Y-44812142D01*
X118037864Y-44812142D02*
X118114055Y-44774047D01*
X118875960Y-44774047D02*
X118952150Y-44774047D01*
X118952150Y-44774047D02*
X119028341Y-44812142D01*
X119028341Y-44812142D02*
X119066436Y-44850237D01*
X119066436Y-44850237D02*
X119104531Y-44926428D01*
X119104531Y-44926428D02*
X119142626Y-45078809D01*
X119142626Y-45078809D02*
X119142626Y-45269285D01*
X119142626Y-45269285D02*
X119104531Y-45421666D01*
X119104531Y-45421666D02*
X119066436Y-45497856D01*
X119066436Y-45497856D02*
X119028341Y-45535952D01*
X119028341Y-45535952D02*
X118952150Y-45574047D01*
X118952150Y-45574047D02*
X118875960Y-45574047D01*
X118875960Y-45574047D02*
X118799769Y-45535952D01*
X118799769Y-45535952D02*
X118761674Y-45497856D01*
X118761674Y-45497856D02*
X118723579Y-45421666D01*
X118723579Y-45421666D02*
X118685483Y-45269285D01*
X118685483Y-45269285D02*
X118685483Y-45078809D01*
X118685483Y-45078809D02*
X118723579Y-44926428D01*
X118723579Y-44926428D02*
X118761674Y-44850237D01*
X118761674Y-44850237D02*
X118799769Y-44812142D01*
X118799769Y-44812142D02*
X118875960Y-44774047D01*
X119447388Y-44850237D02*
X119485484Y-44812142D01*
X119485484Y-44812142D02*
X119561674Y-44774047D01*
X119561674Y-44774047D02*
X119752150Y-44774047D01*
X119752150Y-44774047D02*
X119828341Y-44812142D01*
X119828341Y-44812142D02*
X119866436Y-44850237D01*
X119866436Y-44850237D02*
X119904531Y-44926428D01*
X119904531Y-44926428D02*
X119904531Y-45002618D01*
X119904531Y-45002618D02*
X119866436Y-45116904D01*
X119866436Y-45116904D02*
X119409293Y-45574047D01*
X119409293Y-45574047D02*
X119904531Y-45574047D01*
X118298198Y-30334047D02*
X118031531Y-29953094D01*
X117841055Y-30334047D02*
X117841055Y-29534047D01*
X117841055Y-29534047D02*
X118145817Y-29534047D01*
X118145817Y-29534047D02*
X118222007Y-29572142D01*
X118222007Y-29572142D02*
X118260102Y-29610237D01*
X118260102Y-29610237D02*
X118298198Y-29686428D01*
X118298198Y-29686428D02*
X118298198Y-29800713D01*
X118298198Y-29800713D02*
X118260102Y-29876904D01*
X118260102Y-29876904D02*
X118222007Y-29914999D01*
X118222007Y-29914999D02*
X118145817Y-29953094D01*
X118145817Y-29953094D02*
X117841055Y-29953094D01*
X118602959Y-30105475D02*
X118983912Y-30105475D01*
X118526769Y-30334047D02*
X118793436Y-29534047D01*
X118793436Y-29534047D02*
X119060102Y-30334047D01*
X119250578Y-29534047D02*
X119441054Y-30334047D01*
X119441054Y-30334047D02*
X119593435Y-29762618D01*
X119593435Y-29762618D02*
X119745816Y-30334047D01*
X119745816Y-30334047D02*
X119936293Y-29534047D01*
X107039674Y-39704047D02*
X107115864Y-39704047D01*
X107115864Y-39704047D02*
X107192055Y-39742142D01*
X107192055Y-39742142D02*
X107230150Y-39780237D01*
X107230150Y-39780237D02*
X107268245Y-39856428D01*
X107268245Y-39856428D02*
X107306340Y-40008809D01*
X107306340Y-40008809D02*
X107306340Y-40199285D01*
X107306340Y-40199285D02*
X107268245Y-40351666D01*
X107268245Y-40351666D02*
X107230150Y-40427856D01*
X107230150Y-40427856D02*
X107192055Y-40465952D01*
X107192055Y-40465952D02*
X107115864Y-40504047D01*
X107115864Y-40504047D02*
X107039674Y-40504047D01*
X107039674Y-40504047D02*
X106963483Y-40465952D01*
X106963483Y-40465952D02*
X106925388Y-40427856D01*
X106925388Y-40427856D02*
X106887293Y-40351666D01*
X106887293Y-40351666D02*
X106849197Y-40199285D01*
X106849197Y-40199285D02*
X106849197Y-40008809D01*
X106849197Y-40008809D02*
X106887293Y-39856428D01*
X106887293Y-39856428D02*
X106925388Y-39780237D01*
X106925388Y-39780237D02*
X106963483Y-39742142D01*
X106963483Y-39742142D02*
X107039674Y-39704047D01*
X108068245Y-40504047D02*
X107611102Y-40504047D01*
X107839674Y-40504047D02*
X107839674Y-39704047D01*
X107839674Y-39704047D02*
X107763483Y-39818332D01*
X107763483Y-39818332D02*
X107687293Y-39894523D01*
X107687293Y-39894523D02*
X107611102Y-39932618D01*
X108334912Y-39704047D02*
X108868246Y-39704047D01*
X108868246Y-39704047D02*
X108525388Y-40504047D01*
X118114055Y-54934047D02*
X118190245Y-54934047D01*
X118190245Y-54934047D02*
X118266436Y-54972142D01*
X118266436Y-54972142D02*
X118304531Y-55010237D01*
X118304531Y-55010237D02*
X118342626Y-55086428D01*
X118342626Y-55086428D02*
X118380721Y-55238809D01*
X118380721Y-55238809D02*
X118380721Y-55429285D01*
X118380721Y-55429285D02*
X118342626Y-55581666D01*
X118342626Y-55581666D02*
X118304531Y-55657856D01*
X118304531Y-55657856D02*
X118266436Y-55695952D01*
X118266436Y-55695952D02*
X118190245Y-55734047D01*
X118190245Y-55734047D02*
X118114055Y-55734047D01*
X118114055Y-55734047D02*
X118037864Y-55695952D01*
X118037864Y-55695952D02*
X117999769Y-55657856D01*
X117999769Y-55657856D02*
X117961674Y-55581666D01*
X117961674Y-55581666D02*
X117923578Y-55429285D01*
X117923578Y-55429285D02*
X117923578Y-55238809D01*
X117923578Y-55238809D02*
X117961674Y-55086428D01*
X117961674Y-55086428D02*
X117999769Y-55010237D01*
X117999769Y-55010237D02*
X118037864Y-54972142D01*
X118037864Y-54972142D02*
X118114055Y-54934047D01*
X119142626Y-55734047D02*
X118685483Y-55734047D01*
X118914055Y-55734047D02*
X118914055Y-54934047D01*
X118914055Y-54934047D02*
X118837864Y-55048332D01*
X118837864Y-55048332D02*
X118761674Y-55124523D01*
X118761674Y-55124523D02*
X118685483Y-55162618D01*
X119637865Y-54934047D02*
X119714055Y-54934047D01*
X119714055Y-54934047D02*
X119790246Y-54972142D01*
X119790246Y-54972142D02*
X119828341Y-55010237D01*
X119828341Y-55010237D02*
X119866436Y-55086428D01*
X119866436Y-55086428D02*
X119904531Y-55238809D01*
X119904531Y-55238809D02*
X119904531Y-55429285D01*
X119904531Y-55429285D02*
X119866436Y-55581666D01*
X119866436Y-55581666D02*
X119828341Y-55657856D01*
X119828341Y-55657856D02*
X119790246Y-55695952D01*
X119790246Y-55695952D02*
X119714055Y-55734047D01*
X119714055Y-55734047D02*
X119637865Y-55734047D01*
X119637865Y-55734047D02*
X119561674Y-55695952D01*
X119561674Y-55695952D02*
X119523579Y-55657856D01*
X119523579Y-55657856D02*
X119485484Y-55581666D01*
X119485484Y-55581666D02*
X119447388Y-55429285D01*
X119447388Y-55429285D02*
X119447388Y-55238809D01*
X119447388Y-55238809D02*
X119485484Y-55086428D01*
X119485484Y-55086428D02*
X119523579Y-55010237D01*
X119523579Y-55010237D02*
X119561674Y-54972142D01*
X119561674Y-54972142D02*
X119637865Y-54934047D01*
X118380721Y-50654047D02*
X117923578Y-50654047D01*
X118152150Y-50654047D02*
X118152150Y-49854047D01*
X118152150Y-49854047D02*
X118075959Y-49968332D01*
X118075959Y-49968332D02*
X117999769Y-50044523D01*
X117999769Y-50044523D02*
X117923578Y-50082618D01*
X119142626Y-50654047D02*
X118685483Y-50654047D01*
X118914055Y-50654047D02*
X118914055Y-49854047D01*
X118914055Y-49854047D02*
X118837864Y-49968332D01*
X118837864Y-49968332D02*
X118761674Y-50044523D01*
X118761674Y-50044523D02*
X118685483Y-50082618D01*
X119409293Y-49854047D02*
X119904531Y-49854047D01*
X119904531Y-49854047D02*
X119637865Y-50158809D01*
X119637865Y-50158809D02*
X119752150Y-50158809D01*
X119752150Y-50158809D02*
X119828341Y-50196904D01*
X119828341Y-50196904D02*
X119866436Y-50234999D01*
X119866436Y-50234999D02*
X119904531Y-50311190D01*
X119904531Y-50311190D02*
X119904531Y-50501666D01*
X119904531Y-50501666D02*
X119866436Y-50577856D01*
X119866436Y-50577856D02*
X119828341Y-50615952D01*
X119828341Y-50615952D02*
X119752150Y-50654047D01*
X119752150Y-50654047D02*
X119523579Y-50654047D01*
X119523579Y-50654047D02*
X119447388Y-50615952D01*
X119447388Y-50615952D02*
X119409293Y-50577856D01*
X107306340Y-50654047D02*
X106849197Y-50654047D01*
X107077769Y-50654047D02*
X107077769Y-49854047D01*
X107077769Y-49854047D02*
X107001578Y-49968332D01*
X107001578Y-49968332D02*
X106925388Y-50044523D01*
X106925388Y-50044523D02*
X106849197Y-50082618D01*
X107801579Y-49854047D02*
X107877769Y-49854047D01*
X107877769Y-49854047D02*
X107953960Y-49892142D01*
X107953960Y-49892142D02*
X107992055Y-49930237D01*
X107992055Y-49930237D02*
X108030150Y-50006428D01*
X108030150Y-50006428D02*
X108068245Y-50158809D01*
X108068245Y-50158809D02*
X108068245Y-50349285D01*
X108068245Y-50349285D02*
X108030150Y-50501666D01*
X108030150Y-50501666D02*
X107992055Y-50577856D01*
X107992055Y-50577856D02*
X107953960Y-50615952D01*
X107953960Y-50615952D02*
X107877769Y-50654047D01*
X107877769Y-50654047D02*
X107801579Y-50654047D01*
X107801579Y-50654047D02*
X107725388Y-50615952D01*
X107725388Y-50615952D02*
X107687293Y-50577856D01*
X107687293Y-50577856D02*
X107649198Y-50501666D01*
X107649198Y-50501666D02*
X107611102Y-50349285D01*
X107611102Y-50349285D02*
X107611102Y-50158809D01*
X107611102Y-50158809D02*
X107649198Y-50006428D01*
X107649198Y-50006428D02*
X107687293Y-49930237D01*
X107687293Y-49930237D02*
X107725388Y-49892142D01*
X107725388Y-49892142D02*
X107801579Y-49854047D01*
X108563484Y-49854047D02*
X108639674Y-49854047D01*
X108639674Y-49854047D02*
X108715865Y-49892142D01*
X108715865Y-49892142D02*
X108753960Y-49930237D01*
X108753960Y-49930237D02*
X108792055Y-50006428D01*
X108792055Y-50006428D02*
X108830150Y-50158809D01*
X108830150Y-50158809D02*
X108830150Y-50349285D01*
X108830150Y-50349285D02*
X108792055Y-50501666D01*
X108792055Y-50501666D02*
X108753960Y-50577856D01*
X108753960Y-50577856D02*
X108715865Y-50615952D01*
X108715865Y-50615952D02*
X108639674Y-50654047D01*
X108639674Y-50654047D02*
X108563484Y-50654047D01*
X108563484Y-50654047D02*
X108487293Y-50615952D01*
X108487293Y-50615952D02*
X108449198Y-50577856D01*
X108449198Y-50577856D02*
X108411103Y-50501666D01*
X108411103Y-50501666D02*
X108373007Y-50349285D01*
X108373007Y-50349285D02*
X108373007Y-50158809D01*
X108373007Y-50158809D02*
X108411103Y-50006428D01*
X108411103Y-50006428D02*
X108449198Y-49930237D01*
X108449198Y-49930237D02*
X108487293Y-49892142D01*
X108487293Y-49892142D02*
X108563484Y-49854047D01*
X113364819Y-63618333D02*
X114079104Y-63618333D01*
X114079104Y-63618333D02*
X114221961Y-63665952D01*
X114221961Y-63665952D02*
X114317200Y-63761190D01*
X114317200Y-63761190D02*
X114364819Y-63904047D01*
X114364819Y-63904047D02*
X114364819Y-63999285D01*
X114364819Y-63142142D02*
X113364819Y-63142142D01*
X113364819Y-63142142D02*
X113364819Y-62761190D01*
X113364819Y-62761190D02*
X113412438Y-62665952D01*
X113412438Y-62665952D02*
X113460057Y-62618333D01*
X113460057Y-62618333D02*
X113555295Y-62570714D01*
X113555295Y-62570714D02*
X113698152Y-62570714D01*
X113698152Y-62570714D02*
X113793390Y-62618333D01*
X113793390Y-62618333D02*
X113841009Y-62665952D01*
X113841009Y-62665952D02*
X113888628Y-62761190D01*
X113888628Y-62761190D02*
X113888628Y-63142142D01*
X113364819Y-62237380D02*
X113364819Y-61570714D01*
X113364819Y-61570714D02*
X114364819Y-61999285D01*
X108274819Y-63623333D02*
X108989104Y-63623333D01*
X108989104Y-63623333D02*
X109131961Y-63670952D01*
X109131961Y-63670952D02*
X109227200Y-63766190D01*
X109227200Y-63766190D02*
X109274819Y-63909047D01*
X109274819Y-63909047D02*
X109274819Y-64004285D01*
X109274819Y-63147142D02*
X108274819Y-63147142D01*
X108274819Y-63147142D02*
X108274819Y-62766190D01*
X108274819Y-62766190D02*
X108322438Y-62670952D01*
X108322438Y-62670952D02*
X108370057Y-62623333D01*
X108370057Y-62623333D02*
X108465295Y-62575714D01*
X108465295Y-62575714D02*
X108608152Y-62575714D01*
X108608152Y-62575714D02*
X108703390Y-62623333D01*
X108703390Y-62623333D02*
X108751009Y-62670952D01*
X108751009Y-62670952D02*
X108798628Y-62766190D01*
X108798628Y-62766190D02*
X108798628Y-63147142D01*
X108274819Y-61718571D02*
X108274819Y-61909047D01*
X108274819Y-61909047D02*
X108322438Y-62004285D01*
X108322438Y-62004285D02*
X108370057Y-62051904D01*
X108370057Y-62051904D02*
X108512914Y-62147142D01*
X108512914Y-62147142D02*
X108703390Y-62194761D01*
X108703390Y-62194761D02*
X109084342Y-62194761D01*
X109084342Y-62194761D02*
X109179580Y-62147142D01*
X109179580Y-62147142D02*
X109227200Y-62099523D01*
X109227200Y-62099523D02*
X109274819Y-62004285D01*
X109274819Y-62004285D02*
X109274819Y-61813809D01*
X109274819Y-61813809D02*
X109227200Y-61718571D01*
X109227200Y-61718571D02*
X109179580Y-61670952D01*
X109179580Y-61670952D02*
X109084342Y-61623333D01*
X109084342Y-61623333D02*
X108846247Y-61623333D01*
X108846247Y-61623333D02*
X108751009Y-61670952D01*
X108751009Y-61670952D02*
X108703390Y-61718571D01*
X108703390Y-61718571D02*
X108655771Y-61813809D01*
X108655771Y-61813809D02*
X108655771Y-62004285D01*
X108655771Y-62004285D02*
X108703390Y-62099523D01*
X108703390Y-62099523D02*
X108751009Y-62147142D01*
X108751009Y-62147142D02*
X108846247Y-62194761D01*
X116737885Y-75645624D02*
X117452170Y-75645624D01*
X117452170Y-75645624D02*
X117595027Y-75693243D01*
X117595027Y-75693243D02*
X117690266Y-75788481D01*
X117690266Y-75788481D02*
X117737885Y-75931338D01*
X117737885Y-75931338D02*
X117737885Y-76026576D01*
X117737885Y-74645624D02*
X117737885Y-75217052D01*
X117737885Y-74931338D02*
X116737885Y-74931338D01*
X116737885Y-74931338D02*
X116880742Y-75026576D01*
X116880742Y-75026576D02*
X116975980Y-75121814D01*
X116975980Y-75121814D02*
X117023599Y-75217052D01*
X114759199Y-71531339D02*
X114759199Y-72293244D01*
X113059199Y-74931339D02*
X113059199Y-75693244D01*
X112678246Y-75312291D02*
X113440151Y-75312291D01*
X113059199Y-76931339D02*
X113059199Y-77693244D01*
X116159199Y-74931339D02*
X116159199Y-75693244D01*
X115778246Y-75312291D02*
X116540151Y-75312291D01*
X113059199Y-72931339D02*
X113059199Y-73693244D01*
X114759199Y-78331339D02*
X114759199Y-79093244D01*
X105724819Y-63623333D02*
X106439104Y-63623333D01*
X106439104Y-63623333D02*
X106581961Y-63670952D01*
X106581961Y-63670952D02*
X106677200Y-63766190D01*
X106677200Y-63766190D02*
X106724819Y-63909047D01*
X106724819Y-63909047D02*
X106724819Y-64004285D01*
X106724819Y-63147142D02*
X105724819Y-63147142D01*
X105724819Y-63147142D02*
X105724819Y-62766190D01*
X105724819Y-62766190D02*
X105772438Y-62670952D01*
X105772438Y-62670952D02*
X105820057Y-62623333D01*
X105820057Y-62623333D02*
X105915295Y-62575714D01*
X105915295Y-62575714D02*
X106058152Y-62575714D01*
X106058152Y-62575714D02*
X106153390Y-62623333D01*
X106153390Y-62623333D02*
X106201009Y-62670952D01*
X106201009Y-62670952D02*
X106248628Y-62766190D01*
X106248628Y-62766190D02*
X106248628Y-63147142D01*
X105724819Y-61670952D02*
X105724819Y-62147142D01*
X105724819Y-62147142D02*
X106201009Y-62194761D01*
X106201009Y-62194761D02*
X106153390Y-62147142D01*
X106153390Y-62147142D02*
X106105771Y-62051904D01*
X106105771Y-62051904D02*
X106105771Y-61813809D01*
X106105771Y-61813809D02*
X106153390Y-61718571D01*
X106153390Y-61718571D02*
X106201009Y-61670952D01*
X106201009Y-61670952D02*
X106296247Y-61623333D01*
X106296247Y-61623333D02*
X106534342Y-61623333D01*
X106534342Y-61623333D02*
X106629580Y-61670952D01*
X106629580Y-61670952D02*
X106677200Y-61718571D01*
X106677200Y-61718571D02*
X106724819Y-61813809D01*
X106724819Y-61813809D02*
X106724819Y-62051904D01*
X106724819Y-62051904D02*
X106677200Y-62147142D01*
X106677200Y-62147142D02*
X106629580Y-62194761D01*
X115884819Y-63623333D02*
X116599104Y-63623333D01*
X116599104Y-63623333D02*
X116741961Y-63670952D01*
X116741961Y-63670952D02*
X116837200Y-63766190D01*
X116837200Y-63766190D02*
X116884819Y-63909047D01*
X116884819Y-63909047D02*
X116884819Y-64004285D01*
X116884819Y-63147142D02*
X115884819Y-63147142D01*
X115884819Y-63147142D02*
X115884819Y-62766190D01*
X115884819Y-62766190D02*
X115932438Y-62670952D01*
X115932438Y-62670952D02*
X115980057Y-62623333D01*
X115980057Y-62623333D02*
X116075295Y-62575714D01*
X116075295Y-62575714D02*
X116218152Y-62575714D01*
X116218152Y-62575714D02*
X116313390Y-62623333D01*
X116313390Y-62623333D02*
X116361009Y-62670952D01*
X116361009Y-62670952D02*
X116408628Y-62766190D01*
X116408628Y-62766190D02*
X116408628Y-63147142D01*
X116313390Y-62004285D02*
X116265771Y-62099523D01*
X116265771Y-62099523D02*
X116218152Y-62147142D01*
X116218152Y-62147142D02*
X116122914Y-62194761D01*
X116122914Y-62194761D02*
X116075295Y-62194761D01*
X116075295Y-62194761D02*
X115980057Y-62147142D01*
X115980057Y-62147142D02*
X115932438Y-62099523D01*
X115932438Y-62099523D02*
X115884819Y-62004285D01*
X115884819Y-62004285D02*
X115884819Y-61813809D01*
X115884819Y-61813809D02*
X115932438Y-61718571D01*
X115932438Y-61718571D02*
X115980057Y-61670952D01*
X115980057Y-61670952D02*
X116075295Y-61623333D01*
X116075295Y-61623333D02*
X116122914Y-61623333D01*
X116122914Y-61623333D02*
X116218152Y-61670952D01*
X116218152Y-61670952D02*
X116265771Y-61718571D01*
X116265771Y-61718571D02*
X116313390Y-61813809D01*
X116313390Y-61813809D02*
X116313390Y-62004285D01*
X116313390Y-62004285D02*
X116361009Y-62099523D01*
X116361009Y-62099523D02*
X116408628Y-62147142D01*
X116408628Y-62147142D02*
X116503866Y-62194761D01*
X116503866Y-62194761D02*
X116694342Y-62194761D01*
X116694342Y-62194761D02*
X116789580Y-62147142D01*
X116789580Y-62147142D02*
X116837200Y-62099523D01*
X116837200Y-62099523D02*
X116884819Y-62004285D01*
X116884819Y-62004285D02*
X116884819Y-61813809D01*
X116884819Y-61813809D02*
X116837200Y-61718571D01*
X116837200Y-61718571D02*
X116789580Y-61670952D01*
X116789580Y-61670952D02*
X116694342Y-61623333D01*
X116694342Y-61623333D02*
X116503866Y-61623333D01*
X116503866Y-61623333D02*
X116408628Y-61670952D01*
X116408628Y-61670952D02*
X116361009Y-61718571D01*
X116361009Y-61718571D02*
X116313390Y-61813809D01*
X110034019Y-70800444D02*
X110034019Y-71467111D01*
X110034019Y-70895682D02*
X110081638Y-70848063D01*
X110081638Y-70848063D02*
X110176876Y-70800444D01*
X110176876Y-70800444D02*
X110319733Y-70800444D01*
X110319733Y-70800444D02*
X110414971Y-70848063D01*
X110414971Y-70848063D02*
X110462590Y-70943301D01*
X110462590Y-70943301D02*
X110462590Y-71467111D01*
X110938781Y-71467111D02*
X110938781Y-70800444D01*
X110938781Y-70467111D02*
X110891162Y-70514730D01*
X110891162Y-70514730D02*
X110938781Y-70562349D01*
X110938781Y-70562349D02*
X110986400Y-70514730D01*
X110986400Y-70514730D02*
X110938781Y-70467111D01*
X110938781Y-70467111D02*
X110938781Y-70562349D01*
X111843542Y-71419492D02*
X111748304Y-71467111D01*
X111748304Y-71467111D02*
X111557828Y-71467111D01*
X111557828Y-71467111D02*
X111462590Y-71419492D01*
X111462590Y-71419492D02*
X111414971Y-71371872D01*
X111414971Y-71371872D02*
X111367352Y-71276634D01*
X111367352Y-71276634D02*
X111367352Y-70990920D01*
X111367352Y-70990920D02*
X111414971Y-70895682D01*
X111414971Y-70895682D02*
X111462590Y-70848063D01*
X111462590Y-70848063D02*
X111557828Y-70800444D01*
X111557828Y-70800444D02*
X111748304Y-70800444D01*
X111748304Y-70800444D02*
X111843542Y-70848063D01*
X112653066Y-71419492D02*
X112557828Y-71467111D01*
X112557828Y-71467111D02*
X112367352Y-71467111D01*
X112367352Y-71467111D02*
X112272114Y-71419492D01*
X112272114Y-71419492D02*
X112224495Y-71324253D01*
X112224495Y-71324253D02*
X112224495Y-70943301D01*
X112224495Y-70943301D02*
X112272114Y-70848063D01*
X112272114Y-70848063D02*
X112367352Y-70800444D01*
X112367352Y-70800444D02*
X112557828Y-70800444D01*
X112557828Y-70800444D02*
X112653066Y-70848063D01*
X112653066Y-70848063D02*
X112700685Y-70943301D01*
X112700685Y-70943301D02*
X112700685Y-71038539D01*
X112700685Y-71038539D02*
X112224495Y-71133777D01*
X113129257Y-71371872D02*
X113176876Y-71419492D01*
X113176876Y-71419492D02*
X113129257Y-71467111D01*
X113129257Y-71467111D02*
X113081638Y-71419492D01*
X113081638Y-71419492D02*
X113129257Y-71371872D01*
X113129257Y-71371872D02*
X113129257Y-71467111D01*
X113129257Y-71086158D02*
X113081638Y-70514730D01*
X113081638Y-70514730D02*
X113129257Y-70467111D01*
X113129257Y-70467111D02*
X113176876Y-70514730D01*
X113176876Y-70514730D02*
X113129257Y-71086158D01*
X113129257Y-71086158D02*
X113129257Y-70467111D01*
X113510209Y-70800444D02*
X113748304Y-71467111D01*
X113748304Y-71467111D02*
X113986399Y-70800444D01*
X114367352Y-71467111D02*
X114367352Y-70800444D01*
X114367352Y-70467111D02*
X114319733Y-70514730D01*
X114319733Y-70514730D02*
X114367352Y-70562349D01*
X114367352Y-70562349D02*
X114414971Y-70514730D01*
X114414971Y-70514730D02*
X114367352Y-70467111D01*
X114367352Y-70467111D02*
X114367352Y-70562349D01*
X115224494Y-71419492D02*
X115129256Y-71467111D01*
X115129256Y-71467111D02*
X114938780Y-71467111D01*
X114938780Y-71467111D02*
X114843542Y-71419492D01*
X114843542Y-71419492D02*
X114795923Y-71324253D01*
X114795923Y-71324253D02*
X114795923Y-70943301D01*
X114795923Y-70943301D02*
X114843542Y-70848063D01*
X114843542Y-70848063D02*
X114938780Y-70800444D01*
X114938780Y-70800444D02*
X115129256Y-70800444D01*
X115129256Y-70800444D02*
X115224494Y-70848063D01*
X115224494Y-70848063D02*
X115272113Y-70943301D01*
X115272113Y-70943301D02*
X115272113Y-71038539D01*
X115272113Y-71038539D02*
X114795923Y-71133777D01*
X115605447Y-70800444D02*
X115795923Y-71467111D01*
X115795923Y-71467111D02*
X115986399Y-70990920D01*
X115986399Y-70990920D02*
X116176875Y-71467111D01*
X116176875Y-71467111D02*
X116367351Y-70800444D01*
X108527885Y-70681927D02*
X107527885Y-70681927D01*
X107527885Y-70681927D02*
X108242170Y-70348594D01*
X108242170Y-70348594D02*
X107527885Y-70015261D01*
X107527885Y-70015261D02*
X108527885Y-70015261D01*
X107527885Y-69348594D02*
X107527885Y-69158118D01*
X107527885Y-69158118D02*
X107575504Y-69062880D01*
X107575504Y-69062880D02*
X107670742Y-68967642D01*
X107670742Y-68967642D02*
X107861218Y-68920023D01*
X107861218Y-68920023D02*
X108194551Y-68920023D01*
X108194551Y-68920023D02*
X108385027Y-68967642D01*
X108385027Y-68967642D02*
X108480266Y-69062880D01*
X108480266Y-69062880D02*
X108527885Y-69158118D01*
X108527885Y-69158118D02*
X108527885Y-69348594D01*
X108527885Y-69348594D02*
X108480266Y-69443832D01*
X108480266Y-69443832D02*
X108385027Y-69539070D01*
X108385027Y-69539070D02*
X108194551Y-69586689D01*
X108194551Y-69586689D02*
X107861218Y-69586689D01*
X107861218Y-69586689D02*
X107670742Y-69539070D01*
X107670742Y-69539070D02*
X107575504Y-69443832D01*
X107575504Y-69443832D02*
X107527885Y-69348594D01*
X108480266Y-68539070D02*
X108527885Y-68396213D01*
X108527885Y-68396213D02*
X108527885Y-68158118D01*
X108527885Y-68158118D02*
X108480266Y-68062880D01*
X108480266Y-68062880D02*
X108432646Y-68015261D01*
X108432646Y-68015261D02*
X108337408Y-67967642D01*
X108337408Y-67967642D02*
X108242170Y-67967642D01*
X108242170Y-67967642D02*
X108146932Y-68015261D01*
X108146932Y-68015261D02*
X108099313Y-68062880D01*
X108099313Y-68062880D02*
X108051694Y-68158118D01*
X108051694Y-68158118D02*
X108004075Y-68348594D01*
X108004075Y-68348594D02*
X107956456Y-68443832D01*
X107956456Y-68443832D02*
X107908837Y-68491451D01*
X107908837Y-68491451D02*
X107813599Y-68539070D01*
X107813599Y-68539070D02*
X107718361Y-68539070D01*
X107718361Y-68539070D02*
X107623123Y-68491451D01*
X107623123Y-68491451D02*
X107575504Y-68443832D01*
X107575504Y-68443832D02*
X107527885Y-68348594D01*
X107527885Y-68348594D02*
X107527885Y-68110499D01*
X107527885Y-68110499D02*
X107575504Y-67967642D01*
X108527885Y-67539070D02*
X107527885Y-67539070D01*
X112607885Y-70062880D02*
X113607885Y-69729547D01*
X113607885Y-69729547D02*
X112607885Y-69396214D01*
X113512646Y-68491452D02*
X113560266Y-68539071D01*
X113560266Y-68539071D02*
X113607885Y-68681928D01*
X113607885Y-68681928D02*
X113607885Y-68777166D01*
X113607885Y-68777166D02*
X113560266Y-68920023D01*
X113560266Y-68920023D02*
X113465027Y-69015261D01*
X113465027Y-69015261D02*
X113369789Y-69062880D01*
X113369789Y-69062880D02*
X113179313Y-69110499D01*
X113179313Y-69110499D02*
X113036456Y-69110499D01*
X113036456Y-69110499D02*
X112845980Y-69062880D01*
X112845980Y-69062880D02*
X112750742Y-69015261D01*
X112750742Y-69015261D02*
X112655504Y-68920023D01*
X112655504Y-68920023D02*
X112607885Y-68777166D01*
X112607885Y-68777166D02*
X112607885Y-68681928D01*
X112607885Y-68681928D02*
X112655504Y-68539071D01*
X112655504Y-68539071D02*
X112703123Y-68491452D01*
X113512646Y-67491452D02*
X113560266Y-67539071D01*
X113560266Y-67539071D02*
X113607885Y-67681928D01*
X113607885Y-67681928D02*
X113607885Y-67777166D01*
X113607885Y-67777166D02*
X113560266Y-67920023D01*
X113560266Y-67920023D02*
X113465027Y-68015261D01*
X113465027Y-68015261D02*
X113369789Y-68062880D01*
X113369789Y-68062880D02*
X113179313Y-68110499D01*
X113179313Y-68110499D02*
X113036456Y-68110499D01*
X113036456Y-68110499D02*
X112845980Y-68062880D01*
X112845980Y-68062880D02*
X112750742Y-68015261D01*
X112750742Y-68015261D02*
X112655504Y-67920023D01*
X112655504Y-67920023D02*
X112607885Y-67777166D01*
X112607885Y-67777166D02*
X112607885Y-67681928D01*
X112607885Y-67681928D02*
X112655504Y-67539071D01*
X112655504Y-67539071D02*
X112703123Y-67491452D01*
X111020266Y-70062880D02*
X111067885Y-69920023D01*
X111067885Y-69920023D02*
X111067885Y-69681928D01*
X111067885Y-69681928D02*
X111020266Y-69586690D01*
X111020266Y-69586690D02*
X110972646Y-69539071D01*
X110972646Y-69539071D02*
X110877408Y-69491452D01*
X110877408Y-69491452D02*
X110782170Y-69491452D01*
X110782170Y-69491452D02*
X110686932Y-69539071D01*
X110686932Y-69539071D02*
X110639313Y-69586690D01*
X110639313Y-69586690D02*
X110591694Y-69681928D01*
X110591694Y-69681928D02*
X110544075Y-69872404D01*
X110544075Y-69872404D02*
X110496456Y-69967642D01*
X110496456Y-69967642D02*
X110448837Y-70015261D01*
X110448837Y-70015261D02*
X110353599Y-70062880D01*
X110353599Y-70062880D02*
X110258361Y-70062880D01*
X110258361Y-70062880D02*
X110163123Y-70015261D01*
X110163123Y-70015261D02*
X110115504Y-69967642D01*
X110115504Y-69967642D02*
X110067885Y-69872404D01*
X110067885Y-69872404D02*
X110067885Y-69634309D01*
X110067885Y-69634309D02*
X110115504Y-69491452D01*
X110972646Y-68491452D02*
X111020266Y-68539071D01*
X111020266Y-68539071D02*
X111067885Y-68681928D01*
X111067885Y-68681928D02*
X111067885Y-68777166D01*
X111067885Y-68777166D02*
X111020266Y-68920023D01*
X111020266Y-68920023D02*
X110925027Y-69015261D01*
X110925027Y-69015261D02*
X110829789Y-69062880D01*
X110829789Y-69062880D02*
X110639313Y-69110499D01*
X110639313Y-69110499D02*
X110496456Y-69110499D01*
X110496456Y-69110499D02*
X110305980Y-69062880D01*
X110305980Y-69062880D02*
X110210742Y-69015261D01*
X110210742Y-69015261D02*
X110115504Y-68920023D01*
X110115504Y-68920023D02*
X110067885Y-68777166D01*
X110067885Y-68777166D02*
X110067885Y-68681928D01*
X110067885Y-68681928D02*
X110115504Y-68539071D01*
X110115504Y-68539071D02*
X110163123Y-68491452D01*
X111067885Y-68062880D02*
X110067885Y-68062880D01*
X111067885Y-67491452D02*
X110496456Y-67920023D01*
X110067885Y-67491452D02*
X110639313Y-68062880D01*
X118592646Y-68443833D02*
X118640266Y-68491452D01*
X118640266Y-68491452D02*
X118687885Y-68634309D01*
X118687885Y-68634309D02*
X118687885Y-68729547D01*
X118687885Y-68729547D02*
X118640266Y-68872404D01*
X118640266Y-68872404D02*
X118545027Y-68967642D01*
X118545027Y-68967642D02*
X118449789Y-69015261D01*
X118449789Y-69015261D02*
X118259313Y-69062880D01*
X118259313Y-69062880D02*
X118116456Y-69062880D01*
X118116456Y-69062880D02*
X117925980Y-69015261D01*
X117925980Y-69015261D02*
X117830742Y-68967642D01*
X117830742Y-68967642D02*
X117735504Y-68872404D01*
X117735504Y-68872404D02*
X117687885Y-68729547D01*
X117687885Y-68729547D02*
X117687885Y-68634309D01*
X117687885Y-68634309D02*
X117735504Y-68491452D01*
X117735504Y-68491452D02*
X117783123Y-68443833D01*
X118640266Y-68062880D02*
X118687885Y-67920023D01*
X118687885Y-67920023D02*
X118687885Y-67681928D01*
X118687885Y-67681928D02*
X118640266Y-67586690D01*
X118640266Y-67586690D02*
X118592646Y-67539071D01*
X118592646Y-67539071D02*
X118497408Y-67491452D01*
X118497408Y-67491452D02*
X118402170Y-67491452D01*
X118402170Y-67491452D02*
X118306932Y-67539071D01*
X118306932Y-67539071D02*
X118259313Y-67586690D01*
X118259313Y-67586690D02*
X118211694Y-67681928D01*
X118211694Y-67681928D02*
X118164075Y-67872404D01*
X118164075Y-67872404D02*
X118116456Y-67967642D01*
X118116456Y-67967642D02*
X118068837Y-68015261D01*
X118068837Y-68015261D02*
X117973599Y-68062880D01*
X117973599Y-68062880D02*
X117878361Y-68062880D01*
X117878361Y-68062880D02*
X117783123Y-68015261D01*
X117783123Y-68015261D02*
X117735504Y-67967642D01*
X117735504Y-67967642D02*
X117687885Y-67872404D01*
X117687885Y-67872404D02*
X117687885Y-67634309D01*
X117687885Y-67634309D02*
X117735504Y-67491452D01*
X115195504Y-69586690D02*
X115147885Y-69681928D01*
X115147885Y-69681928D02*
X115147885Y-69824785D01*
X115147885Y-69824785D02*
X115195504Y-69967642D01*
X115195504Y-69967642D02*
X115290742Y-70062880D01*
X115290742Y-70062880D02*
X115385980Y-70110499D01*
X115385980Y-70110499D02*
X115576456Y-70158118D01*
X115576456Y-70158118D02*
X115719313Y-70158118D01*
X115719313Y-70158118D02*
X115909789Y-70110499D01*
X115909789Y-70110499D02*
X116005027Y-70062880D01*
X116005027Y-70062880D02*
X116100266Y-69967642D01*
X116100266Y-69967642D02*
X116147885Y-69824785D01*
X116147885Y-69824785D02*
X116147885Y-69729547D01*
X116147885Y-69729547D02*
X116100266Y-69586690D01*
X116100266Y-69586690D02*
X116052646Y-69539071D01*
X116052646Y-69539071D02*
X115719313Y-69539071D01*
X115719313Y-69539071D02*
X115719313Y-69729547D01*
X116147885Y-69110499D02*
X115147885Y-69110499D01*
X115147885Y-69110499D02*
X116147885Y-68539071D01*
X116147885Y-68539071D02*
X115147885Y-68539071D01*
X116147885Y-68062880D02*
X115147885Y-68062880D01*
X115147885Y-68062880D02*
X115147885Y-67824785D01*
X115147885Y-67824785D02*
X115195504Y-67681928D01*
X115195504Y-67681928D02*
X115290742Y-67586690D01*
X115290742Y-67586690D02*
X115385980Y-67539071D01*
X115385980Y-67539071D02*
X115576456Y-67491452D01*
X115576456Y-67491452D02*
X115719313Y-67491452D01*
X115719313Y-67491452D02*
X115909789Y-67539071D01*
X115909789Y-67539071D02*
X116005027Y-67586690D01*
X116005027Y-67586690D02*
X116100266Y-67681928D01*
X116100266Y-67681928D02*
X116147885Y-67824785D01*
X116147885Y-67824785D02*
X116147885Y-68062880D01*
%TO.C,SW21*%
X91286266Y-90828216D02*
X90320341Y-90569397D01*
X91493322Y-90055475D02*
X87146655Y-88890790D01*
X91545086Y-89862290D02*
X91286266Y-90828216D01*
X91648613Y-89475920D02*
X91493322Y-90055475D01*
X92709771Y-85515624D02*
X92580362Y-85998587D01*
X94909733Y-77305255D02*
X94650914Y-78271180D01*
X93943807Y-77046435D02*
X94909733Y-77305255D01*
X88181932Y-85027086D02*
X88363105Y-84350938D01*
X88363105Y-84350938D02*
X92709771Y-85515624D01*
X86534283Y-89244343D02*
X86275464Y-90210269D01*
X85663092Y-90563822D02*
X86275464Y-90210269D01*
X82765314Y-89787365D02*
X85663092Y-90563822D01*
X83930000Y-85440699D02*
X86344814Y-86087747D01*
X82411761Y-89174993D02*
X82765314Y-89787365D01*
X83317627Y-85794252D02*
X83930000Y-85440699D01*
X78729231Y-87463569D02*
X77763305Y-87204749D01*
X77763305Y-87204749D02*
X78022124Y-86238824D01*
X81127952Y-74647714D02*
X81386772Y-73681788D01*
X81386772Y-73681788D02*
X82352697Y-73940607D01*
X86344814Y-86087747D02*
G75*
G03*
X88181932Y-85027086I388228J1448890D01*
G01*
X87146655Y-88890790D02*
G75*
G03*
X86534283Y-89244343I-129408J-482964D01*
G01*
D13*
%TO.C,RSW1*%
X71591865Y-13167504D02*
X71591865Y-17067504D01*
X71591865Y-13167504D02*
X79311865Y-13167504D01*
X72111865Y-16837504D02*
X72111865Y-17067504D01*
X72111865Y-16837504D02*
X72651865Y-16837504D01*
X73751865Y-16837504D02*
X77151865Y-16837504D01*
X78251865Y-16837504D02*
X78791865Y-16837504D01*
X78791865Y-16837504D02*
X78791865Y-17067504D01*
X79311865Y-13167504D02*
X79311865Y-17067504D01*
D10*
%TO.C,SW2*%
X29626865Y-48305002D02*
X28626865Y-48305002D01*
X29626865Y-47505002D02*
X25126865Y-47505002D01*
X29626865Y-47305002D02*
X29626865Y-48305002D01*
X29626865Y-46905002D02*
X29626865Y-47505002D01*
X29626865Y-42805002D02*
X29626865Y-43305002D01*
X29626865Y-34305002D02*
X29626865Y-35305002D01*
X28626865Y-34305002D02*
X29626865Y-34305002D01*
X25126865Y-43505002D02*
X25126865Y-42805002D01*
X25126865Y-42805002D02*
X29626865Y-42805002D01*
X24626865Y-48005002D02*
X24626865Y-49005002D01*
X24126865Y-49505002D02*
X24626865Y-49005002D01*
X21126865Y-49505002D02*
X24126865Y-49505002D01*
X21126865Y-45005002D02*
X23626865Y-45005002D01*
X20626865Y-49005002D02*
X21126865Y-49505002D01*
X20626865Y-45505002D02*
X21126865Y-45005002D01*
X16626865Y-48305002D02*
X15626865Y-48305002D01*
X15626865Y-48305002D02*
X15626865Y-47305002D01*
X15626865Y-35305002D02*
X15626865Y-34305002D01*
X15626865Y-34305002D02*
X16626865Y-34305002D01*
X23626865Y-45005002D02*
G75*
G03*
X25126865Y-43505002I-1J1500001D01*
G01*
X25126865Y-47505002D02*
G75*
G03*
X24626865Y-48005002I1J-500001D01*
G01*
%TO.C,SW3*%
X47626867Y-36305002D02*
X46626867Y-36305002D01*
X47626867Y-35505002D02*
X43126867Y-35505002D01*
X47626867Y-35305002D02*
X47626867Y-36305002D01*
X47626867Y-34905002D02*
X47626867Y-35505002D01*
X47626867Y-30805002D02*
X47626867Y-31305002D01*
X47626867Y-22305002D02*
X47626867Y-23305002D01*
X46626867Y-22305002D02*
X47626867Y-22305002D01*
X43126867Y-31505002D02*
X43126867Y-30805002D01*
X43126867Y-30805002D02*
X47626867Y-30805002D01*
X42626867Y-36005002D02*
X42626867Y-37005002D01*
X42126867Y-37505002D02*
X42626867Y-37005002D01*
X39126867Y-37505002D02*
X42126867Y-37505002D01*
X39126867Y-33005002D02*
X41626867Y-33005002D01*
X38626867Y-37005002D02*
X39126867Y-37505002D01*
X38626867Y-33505002D02*
X39126867Y-33005002D01*
X34626867Y-36305002D02*
X33626867Y-36305002D01*
X33626867Y-36305002D02*
X33626867Y-35305002D01*
X33626867Y-23305002D02*
X33626867Y-22305002D01*
X33626867Y-22305002D02*
X34626867Y-22305002D01*
X41626867Y-33005002D02*
G75*
G03*
X43126867Y-31505002I-1J1500001D01*
G01*
X43126867Y-35505002D02*
G75*
G03*
X42626867Y-36005002I1J-500001D01*
G01*
%TO.C,SW4*%
X65626864Y-29305002D02*
X64626864Y-29305002D01*
X65626864Y-28505002D02*
X61126864Y-28505002D01*
X65626864Y-28305002D02*
X65626864Y-29305002D01*
X65626864Y-27905002D02*
X65626864Y-28505002D01*
X65626864Y-23805002D02*
X65626864Y-24305002D01*
X65626864Y-15305002D02*
X65626864Y-16305002D01*
X64626864Y-15305002D02*
X65626864Y-15305002D01*
X61126864Y-24505002D02*
X61126864Y-23805002D01*
X61126864Y-23805002D02*
X65626864Y-23805002D01*
X60626864Y-29005002D02*
X60626864Y-30005002D01*
X60126864Y-30505002D02*
X60626864Y-30005002D01*
X57126864Y-30505002D02*
X60126864Y-30505002D01*
X57126864Y-26005002D02*
X59626864Y-26005002D01*
X56626864Y-30005002D02*
X57126864Y-30505002D01*
X56626864Y-26505002D02*
X57126864Y-26005002D01*
X52626864Y-29305002D02*
X51626864Y-29305002D01*
X51626864Y-29305002D02*
X51626864Y-28305002D01*
X51626864Y-16305002D02*
X51626864Y-15305002D01*
X51626864Y-15305002D02*
X52626864Y-15305002D01*
X59626864Y-26005002D02*
G75*
G03*
X61126864Y-24505002I-1J1500001D01*
G01*
X61126864Y-28505002D02*
G75*
G03*
X60626864Y-29005002I1J-500001D01*
G01*
%TO.C,SW5*%
X83626865Y-34805003D02*
X82626865Y-34805003D01*
X83626865Y-34005003D02*
X79126865Y-34005003D01*
X83626865Y-33805003D02*
X83626865Y-34805003D01*
X83626865Y-33405003D02*
X83626865Y-34005003D01*
X83626865Y-29305003D02*
X83626865Y-29805003D01*
X83626865Y-20805003D02*
X83626865Y-21805003D01*
X82626865Y-20805003D02*
X83626865Y-20805003D01*
X79126865Y-30005003D02*
X79126865Y-29305003D01*
X79126865Y-29305003D02*
X83626865Y-29305003D01*
X78626865Y-34505003D02*
X78626865Y-35505003D01*
X78126865Y-36005003D02*
X78626865Y-35505003D01*
X75126865Y-36005003D02*
X78126865Y-36005003D01*
X75126865Y-31505003D02*
X77626865Y-31505003D01*
X74626865Y-35505003D02*
X75126865Y-36005003D01*
X74626865Y-32005003D02*
X75126865Y-31505003D01*
X70626865Y-34805003D02*
X69626865Y-34805003D01*
X69626865Y-34805003D02*
X69626865Y-33805003D01*
X69626865Y-21805003D02*
X69626865Y-20805003D01*
X69626865Y-20805003D02*
X70626865Y-20805003D01*
X77626865Y-31505003D02*
G75*
G03*
X79126865Y-30005003I-1J1500001D01*
G01*
X79126865Y-34005003D02*
G75*
G03*
X78626865Y-34505003I1J-500001D01*
G01*
%TO.C,SW6*%
X101626863Y-37305002D02*
X100626863Y-37305002D01*
X101626863Y-36505002D02*
X97126863Y-36505002D01*
X101626863Y-36305002D02*
X101626863Y-37305002D01*
X101626863Y-35905002D02*
X101626863Y-36505002D01*
X101626863Y-31805002D02*
X101626863Y-32305002D01*
X101626863Y-23305002D02*
X101626863Y-24305002D01*
X100626863Y-23305002D02*
X101626863Y-23305002D01*
X97126863Y-32505002D02*
X97126863Y-31805002D01*
X97126863Y-31805002D02*
X101626863Y-31805002D01*
X96626863Y-37005002D02*
X96626863Y-38005002D01*
X96126863Y-38505002D02*
X96626863Y-38005002D01*
X93126863Y-38505002D02*
X96126863Y-38505002D01*
X93126863Y-34005002D02*
X95626863Y-34005002D01*
X92626863Y-38005002D02*
X93126863Y-38505002D01*
X92626863Y-34505002D02*
X93126863Y-34005002D01*
X88626863Y-37305002D02*
X87626863Y-37305002D01*
X87626863Y-37305002D02*
X87626863Y-36305002D01*
X87626863Y-24305002D02*
X87626863Y-23305002D01*
X87626863Y-23305002D02*
X88626863Y-23305002D01*
X95626863Y-34005002D02*
G75*
G03*
X97126863Y-32505002I-1J1500001D01*
G01*
X97126863Y-36505002D02*
G75*
G03*
X96626863Y-37005002I1J-500001D01*
G01*
%TO.C,SW8*%
X29626865Y-65305002D02*
X28626865Y-65305002D01*
X29626865Y-64505002D02*
X25126865Y-64505002D01*
X29626865Y-64305002D02*
X29626865Y-65305002D01*
X29626865Y-63905002D02*
X29626865Y-64505002D01*
X29626865Y-59805002D02*
X29626865Y-60305002D01*
X29626865Y-51305002D02*
X29626865Y-52305002D01*
X28626865Y-51305002D02*
X29626865Y-51305002D01*
X25126865Y-60505002D02*
X25126865Y-59805002D01*
X25126865Y-59805002D02*
X29626865Y-59805002D01*
X24626865Y-65005002D02*
X24626865Y-66005002D01*
X24126865Y-66505002D02*
X24626865Y-66005002D01*
X21126865Y-66505002D02*
X24126865Y-66505002D01*
X21126865Y-62005002D02*
X23626865Y-62005002D01*
X20626865Y-66005002D02*
X21126865Y-66505002D01*
X20626865Y-62505002D02*
X21126865Y-62005002D01*
X16626865Y-65305002D02*
X15626865Y-65305002D01*
X15626865Y-65305002D02*
X15626865Y-64305002D01*
X15626865Y-52305002D02*
X15626865Y-51305002D01*
X15626865Y-51305002D02*
X16626865Y-51305002D01*
X23626865Y-62005002D02*
G75*
G03*
X25126865Y-60505002I-1J1500001D01*
G01*
X25126865Y-64505002D02*
G75*
G03*
X24626865Y-65005002I1J-500001D01*
G01*
%TO.C,SW9*%
X47626867Y-53279002D02*
X46626867Y-53279002D01*
X47626867Y-52479002D02*
X43126867Y-52479002D01*
X47626867Y-52279002D02*
X47626867Y-53279002D01*
X47626867Y-51879002D02*
X47626867Y-52479002D01*
X47626867Y-47779002D02*
X47626867Y-48279002D01*
X47626867Y-39279002D02*
X47626867Y-40279002D01*
X46626867Y-39279002D02*
X47626867Y-39279002D01*
X43126867Y-48479002D02*
X43126867Y-47779002D01*
X43126867Y-47779002D02*
X47626867Y-47779002D01*
X42626867Y-52979002D02*
X42626867Y-53979002D01*
X42126867Y-54479002D02*
X42626867Y-53979002D01*
X39126867Y-54479002D02*
X42126867Y-54479002D01*
X39126867Y-49979002D02*
X41626867Y-49979002D01*
X38626867Y-53979002D02*
X39126867Y-54479002D01*
X38626867Y-50479002D02*
X39126867Y-49979002D01*
X34626867Y-53279002D02*
X33626867Y-53279002D01*
X33626867Y-53279002D02*
X33626867Y-52279002D01*
X33626867Y-40279002D02*
X33626867Y-39279002D01*
X33626867Y-39279002D02*
X34626867Y-39279002D01*
X41626867Y-49979002D02*
G75*
G03*
X43126867Y-48479002I-1J1500001D01*
G01*
X43126867Y-52479002D02*
G75*
G03*
X42626867Y-52979002I1J-500001D01*
G01*
%TO.C,SW10*%
X65626866Y-46421002D02*
X64626866Y-46421002D01*
X65626866Y-45621002D02*
X61126866Y-45621002D01*
X65626866Y-45421002D02*
X65626866Y-46421002D01*
X65626866Y-45021002D02*
X65626866Y-45621002D01*
X65626866Y-40921002D02*
X65626866Y-41421002D01*
X65626866Y-32421002D02*
X65626866Y-33421002D01*
X64626866Y-32421002D02*
X65626866Y-32421002D01*
X61126866Y-41621002D02*
X61126866Y-40921002D01*
X61126866Y-40921002D02*
X65626866Y-40921002D01*
X60626866Y-46121002D02*
X60626866Y-47121002D01*
X60126866Y-47621002D02*
X60626866Y-47121002D01*
X57126866Y-47621002D02*
X60126866Y-47621002D01*
X57126866Y-43121002D02*
X59626866Y-43121002D01*
X56626866Y-47121002D02*
X57126866Y-47621002D01*
X56626866Y-43621002D02*
X57126866Y-43121002D01*
X52626866Y-46421002D02*
X51626866Y-46421002D01*
X51626866Y-46421002D02*
X51626866Y-45421002D01*
X51626866Y-33421002D02*
X51626866Y-32421002D01*
X51626866Y-32421002D02*
X52626866Y-32421002D01*
X59626866Y-43121002D02*
G75*
G03*
X61126866Y-41621002I-1J1500001D01*
G01*
X61126866Y-45621002D02*
G75*
G03*
X60626866Y-46121002I1J-500001D01*
G01*
%TO.C,SW11*%
X83626867Y-51755005D02*
X82626867Y-51755005D01*
X83626867Y-50955005D02*
X79126867Y-50955005D01*
X83626867Y-50755005D02*
X83626867Y-51755005D01*
X83626867Y-50355005D02*
X83626867Y-50955005D01*
X83626867Y-46255005D02*
X83626867Y-46755005D01*
X83626867Y-37755005D02*
X83626867Y-38755005D01*
X82626867Y-37755005D02*
X83626867Y-37755005D01*
X79126867Y-46955005D02*
X79126867Y-46255005D01*
X79126867Y-46255005D02*
X83626867Y-46255005D01*
X78626867Y-51455005D02*
X78626867Y-52455005D01*
X78126867Y-52955005D02*
X78626867Y-52455005D01*
X75126867Y-52955005D02*
X78126867Y-52955005D01*
X75126867Y-48455005D02*
X77626867Y-48455005D01*
X74626867Y-52455005D02*
X75126867Y-52955005D01*
X74626867Y-48955005D02*
X75126867Y-48455005D01*
X70626867Y-51755005D02*
X69626867Y-51755005D01*
X69626867Y-51755005D02*
X69626867Y-50755005D01*
X69626867Y-38755005D02*
X69626867Y-37755005D01*
X69626867Y-37755005D02*
X70626867Y-37755005D01*
X77626867Y-48455005D02*
G75*
G03*
X79126867Y-46955005I-1J1500001D01*
G01*
X79126867Y-50955005D02*
G75*
G03*
X78626867Y-51455005I1J-500001D01*
G01*
%TO.C,SW12*%
X101606865Y-54295002D02*
X100606865Y-54295002D01*
X101606865Y-53495002D02*
X97106865Y-53495002D01*
X101606865Y-53295002D02*
X101606865Y-54295002D01*
X101606865Y-52895002D02*
X101606865Y-53495002D01*
X101606865Y-48795002D02*
X101606865Y-49295002D01*
X101606865Y-40295002D02*
X101606865Y-41295002D01*
X100606865Y-40295002D02*
X101606865Y-40295002D01*
X97106865Y-49495002D02*
X97106865Y-48795002D01*
X97106865Y-48795002D02*
X101606865Y-48795002D01*
X96606865Y-53995002D02*
X96606865Y-54995002D01*
X96106865Y-55495002D02*
X96606865Y-54995002D01*
X93106865Y-55495002D02*
X96106865Y-55495002D01*
X93106865Y-50995002D02*
X95606865Y-50995002D01*
X92606865Y-54995002D02*
X93106865Y-55495002D01*
X92606865Y-51495002D02*
X93106865Y-50995002D01*
X88606865Y-54295002D02*
X87606865Y-54295002D01*
X87606865Y-54295002D02*
X87606865Y-53295002D01*
X87606865Y-41295002D02*
X87606865Y-40295002D01*
X87606865Y-40295002D02*
X88606865Y-40295002D01*
X95606865Y-50995002D02*
G75*
G03*
X97106865Y-49495002I-1J1500001D01*
G01*
X97106865Y-53495002D02*
G75*
G03*
X96606865Y-53995002I1J-500001D01*
G01*
%TO.C,SW14*%
X29626865Y-82304999D02*
X28626865Y-82304999D01*
X29626865Y-81504999D02*
X25126865Y-81504999D01*
X29626865Y-81304999D02*
X29626865Y-82304999D01*
X29626865Y-80904999D02*
X29626865Y-81504999D01*
X29626865Y-76804999D02*
X29626865Y-77304999D01*
X29626865Y-68304999D02*
X29626865Y-69304999D01*
X28626865Y-68304999D02*
X29626865Y-68304999D01*
X25126865Y-77504999D02*
X25126865Y-76804999D01*
X25126865Y-76804999D02*
X29626865Y-76804999D01*
X24626865Y-82004999D02*
X24626865Y-83004999D01*
X24126865Y-83504999D02*
X24626865Y-83004999D01*
X21126865Y-83504999D02*
X24126865Y-83504999D01*
X21126865Y-79004999D02*
X23626865Y-79004999D01*
X20626865Y-83004999D02*
X21126865Y-83504999D01*
X20626865Y-79504999D02*
X21126865Y-79004999D01*
X16626865Y-82304999D02*
X15626865Y-82304999D01*
X15626865Y-82304999D02*
X15626865Y-81304999D01*
X15626865Y-69304999D02*
X15626865Y-68304999D01*
X15626865Y-68304999D02*
X16626865Y-68304999D01*
X23626865Y-79004999D02*
G75*
G03*
X25126865Y-77504999I-1J1500001D01*
G01*
X25126865Y-81504999D02*
G75*
G03*
X24626865Y-82004999I1J-500001D01*
G01*
%TO.C,SW15*%
X47626864Y-70297001D02*
X46626864Y-70297001D01*
X47626864Y-69497001D02*
X43126864Y-69497001D01*
X47626864Y-69297001D02*
X47626864Y-70297001D01*
X47626864Y-68897001D02*
X47626864Y-69497001D01*
X47626864Y-64797001D02*
X47626864Y-65297001D01*
X47626864Y-56297001D02*
X47626864Y-57297001D01*
X46626864Y-56297001D02*
X47626864Y-56297001D01*
X43126864Y-65497001D02*
X43126864Y-64797001D01*
X43126864Y-64797001D02*
X47626864Y-64797001D01*
X42626864Y-69997001D02*
X42626864Y-70997001D01*
X42126864Y-71497001D02*
X42626864Y-70997001D01*
X39126864Y-71497001D02*
X42126864Y-71497001D01*
X39126864Y-66997001D02*
X41626864Y-66997001D01*
X38626864Y-70997001D02*
X39126864Y-71497001D01*
X38626864Y-67497001D02*
X39126864Y-66997001D01*
X34626864Y-70297001D02*
X33626864Y-70297001D01*
X33626864Y-70297001D02*
X33626864Y-69297001D01*
X33626864Y-57297001D02*
X33626864Y-56297001D01*
X33626864Y-56297001D02*
X34626864Y-56297001D01*
X41626864Y-66997001D02*
G75*
G03*
X43126864Y-65497001I-1J1500001D01*
G01*
X43126864Y-69497001D02*
G75*
G03*
X42626864Y-69997001I1J-500001D01*
G01*
%TO.C,SW16*%
X65626863Y-63439003D02*
X64626863Y-63439003D01*
X65626863Y-62639003D02*
X61126863Y-62639003D01*
X65626863Y-62439003D02*
X65626863Y-63439003D01*
X65626863Y-62039003D02*
X65626863Y-62639003D01*
X65626863Y-57939003D02*
X65626863Y-58439003D01*
X65626863Y-49439003D02*
X65626863Y-50439003D01*
X64626863Y-49439003D02*
X65626863Y-49439003D01*
X61126863Y-58639003D02*
X61126863Y-57939003D01*
X61126863Y-57939003D02*
X65626863Y-57939003D01*
X60626863Y-63139003D02*
X60626863Y-64139003D01*
X60126863Y-64639003D02*
X60626863Y-64139003D01*
X57126863Y-64639003D02*
X60126863Y-64639003D01*
X57126863Y-60139003D02*
X59626863Y-60139003D01*
X56626863Y-64139003D02*
X57126863Y-64639003D01*
X56626863Y-60639003D02*
X57126863Y-60139003D01*
X52626863Y-63439003D02*
X51626863Y-63439003D01*
X51626863Y-63439003D02*
X51626863Y-62439003D01*
X51626863Y-50439003D02*
X51626863Y-49439003D01*
X51626863Y-49439003D02*
X52626863Y-49439003D01*
X59626863Y-60139003D02*
G75*
G03*
X61126863Y-58639003I-1J1500001D01*
G01*
X61126863Y-62639003D02*
G75*
G03*
X60626863Y-63139003I1J-500001D01*
G01*
%TO.C,SW17*%
X83626865Y-68773005D02*
X82626865Y-68773005D01*
X83626865Y-67973005D02*
X79126865Y-67973005D01*
X83626865Y-67773005D02*
X83626865Y-68773005D01*
X83626865Y-67373005D02*
X83626865Y-67973005D01*
X83626865Y-63273005D02*
X83626865Y-63773005D01*
X83626865Y-54773005D02*
X83626865Y-55773005D01*
X82626865Y-54773005D02*
X83626865Y-54773005D01*
X79126865Y-63973005D02*
X79126865Y-63273005D01*
X79126865Y-63273005D02*
X83626865Y-63273005D01*
X78626865Y-68473005D02*
X78626865Y-69473005D01*
X78126865Y-69973005D02*
X78626865Y-69473005D01*
X75126865Y-69973005D02*
X78126865Y-69973005D01*
X75126865Y-65473005D02*
X77626865Y-65473005D01*
X74626865Y-69473005D02*
X75126865Y-69973005D01*
X74626865Y-65973005D02*
X75126865Y-65473005D01*
X70626865Y-68773005D02*
X69626865Y-68773005D01*
X69626865Y-68773005D02*
X69626865Y-67773005D01*
X69626865Y-55773005D02*
X69626865Y-54773005D01*
X69626865Y-54773005D02*
X70626865Y-54773005D01*
X77626865Y-65473005D02*
G75*
G03*
X79126865Y-63973005I-1J1500001D01*
G01*
X79126865Y-67973005D02*
G75*
G03*
X78626865Y-68473005I1J-500001D01*
G01*
%TO.C,SW18*%
X101600519Y-71313002D02*
X100600519Y-71313002D01*
X101600519Y-70513002D02*
X97100519Y-70513002D01*
X101600519Y-70313002D02*
X101600519Y-71313002D01*
X101600519Y-69913002D02*
X101600519Y-70513002D01*
X101600519Y-65813002D02*
X101600519Y-66313002D01*
X101600519Y-57313002D02*
X101600519Y-58313002D01*
X100600519Y-57313002D02*
X101600519Y-57313002D01*
X97100519Y-66513002D02*
X97100519Y-65813002D01*
X97100519Y-65813002D02*
X101600519Y-65813002D01*
X96600519Y-71013002D02*
X96600519Y-72013002D01*
X96100519Y-72513002D02*
X96600519Y-72013002D01*
X93100519Y-72513002D02*
X96100519Y-72513002D01*
X93100519Y-68013002D02*
X95600519Y-68013002D01*
X92600519Y-72013002D02*
X93100519Y-72513002D01*
X92600519Y-68513002D02*
X93100519Y-68013002D01*
X88600519Y-71313002D02*
X87600519Y-71313002D01*
X87600519Y-71313002D02*
X87600519Y-70313002D01*
X87600519Y-58313002D02*
X87600519Y-57313002D01*
X87600519Y-57313002D02*
X88600519Y-57313002D01*
X95600519Y-68013002D02*
G75*
G03*
X97100519Y-66513002I-1J1500001D01*
G01*
X97100519Y-70513002D02*
G75*
G03*
X96600519Y-71013002I1J-500001D01*
G01*
%TO.C,SW20*%
X107458697Y-99567180D02*
X106592671Y-99067180D01*
X107858697Y-98874360D02*
X103961583Y-96624360D01*
X107958697Y-98701154D02*
X107458697Y-99567180D01*
X108158697Y-98354744D02*
X107858697Y-98874360D01*
X110208697Y-94804040D02*
X109958697Y-95237053D01*
X114458697Y-87442824D02*
X113958697Y-88308850D01*
X113592671Y-86942824D02*
X114458697Y-87442824D01*
X105961583Y-93160258D02*
X106311583Y-92554040D01*
X106311583Y-92554040D02*
X110208697Y-94804040D01*
X103278570Y-96807372D02*
X102778570Y-97673398D01*
X102095557Y-97856410D02*
X102778570Y-97673398D01*
X99497481Y-96356410D02*
X102095557Y-97856410D01*
X101747481Y-92459296D02*
X103912544Y-93709296D01*
X99314468Y-95673398D02*
X99497481Y-96356410D01*
X101064468Y-92642309D02*
X101747481Y-92459296D01*
X96200367Y-93067180D02*
X95334341Y-92567180D01*
X95334341Y-92567180D02*
X95834341Y-91701154D01*
X101834341Y-81308850D02*
X102334341Y-80442824D01*
X102334341Y-80442824D02*
X103200367Y-80942824D01*
X103912544Y-93709296D02*
G75*
G03*
X105961583Y-93160258I750000J1299039D01*
G01*
X103961583Y-96624360D02*
G75*
G03*
X103278570Y-96807372I-250000J-433014D01*
G01*
D14*
%TO.C,REF\u002A\u002A*%
X48840733Y-31196955D02*
G75*
G03*
X47806867Y-35347503I19286116J-7008044D01*
G01*
X47806866Y-41062503D02*
G75*
G03*
X48840732Y-45213050I20319953J2857490D01*
G01*
X65269366Y-17885004D02*
G75*
G03*
X61118818Y-18918870I2857496J-20319982D01*
G01*
X61118820Y-57491138D02*
G75*
G03*
X65269366Y-58525003I7008046J19286135D01*
G01*
X68126866Y-27410004D02*
G75*
G03*
X66998481Y-27469140I-6J-10794920D01*
G01*
X69255251Y-27469140D02*
G75*
G03*
X68126866Y-27410003I-1128385J-10735763D01*
G01*
X66998481Y-48940867D02*
G75*
G03*
X68126866Y-49000003I1128379J10735785D01*
G01*
X68126866Y-49000003D02*
G75*
G03*
X69255251Y-48940866I0J10794900D01*
G01*
X75134913Y-18918869D02*
G75*
G03*
X70984366Y-17885003I-7008047J-19286134D01*
G01*
X70984366Y-58525002D02*
G75*
G03*
X75134913Y-57491136I-2857500J20319999D01*
G01*
X88446866Y-35347503D02*
G75*
G03*
X87413001Y-31196958I-20320019J-2857506D01*
G01*
X87413000Y-45213049D02*
G75*
G03*
X88446865Y-41062503I-19286184J7008058D01*
G01*
D15*
X66500111Y-52286870D02*
X67303057Y-51484170D01*
X67591425Y-51487264D01*
X67879793Y-51490357D01*
X67032569Y-52350494D01*
X66914644Y-52470217D01*
X66799845Y-52586766D01*
X66689391Y-52698906D01*
X66584499Y-52805399D01*
X66486387Y-52905010D01*
X66396272Y-52996503D01*
X66315373Y-53078640D01*
X66244906Y-53150185D01*
X66186090Y-53209903D01*
X66140143Y-53256557D01*
X66108282Y-53288910D01*
X66094501Y-53302906D01*
X66003657Y-53395182D01*
X66003657Y-50653312D01*
X66500111Y-50653312D01*
X66500111Y-52286870D01*
G36*
X66500111Y-52286870D02*
G01*
X67303057Y-51484170D01*
X67591425Y-51487264D01*
X67879793Y-51490357D01*
X67032569Y-52350494D01*
X66914644Y-52470217D01*
X66799845Y-52586766D01*
X66689391Y-52698906D01*
X66584499Y-52805399D01*
X66486387Y-52905010D01*
X66396272Y-52996503D01*
X66315373Y-53078640D01*
X66244906Y-53150185D01*
X66186090Y-53209903D01*
X66140143Y-53256557D01*
X66108282Y-53288910D01*
X66094501Y-53302906D01*
X66003657Y-53395182D01*
X66003657Y-50653312D01*
X66500111Y-50653312D01*
X66500111Y-52286870D01*
G37*
X67306891Y-52693401D02*
X67329594Y-52716264D01*
X67364073Y-52751795D01*
X67408342Y-52797887D01*
X67460409Y-52852433D01*
X67518288Y-52913327D01*
X67579987Y-52978462D01*
X67643520Y-53045732D01*
X67706895Y-53113030D01*
X67768125Y-53178249D01*
X67825221Y-53239284D01*
X67876193Y-53294027D01*
X67919053Y-53340372D01*
X67951811Y-53376212D01*
X67972479Y-53399441D01*
X67974772Y-53402132D01*
X68003073Y-53435767D01*
X67383059Y-53435767D01*
X67209709Y-53259698D01*
X67155967Y-53204955D01*
X67105684Y-53153442D01*
X67061868Y-53108262D01*
X67027522Y-53072516D01*
X67005654Y-53049307D01*
X67002477Y-53045815D01*
X66968595Y-53008000D01*
X67129630Y-52846656D01*
X67179343Y-52797201D01*
X67223567Y-52753876D01*
X67259714Y-52719163D01*
X67285196Y-52695543D01*
X67297425Y-52685495D01*
X67297956Y-52685312D01*
X67306891Y-52693401D01*
G36*
X67306891Y-52693401D02*
G01*
X67329594Y-52716264D01*
X67364073Y-52751795D01*
X67408342Y-52797887D01*
X67460409Y-52852433D01*
X67518288Y-52913327D01*
X67579987Y-52978462D01*
X67643520Y-53045732D01*
X67706895Y-53113030D01*
X67768125Y-53178249D01*
X67825221Y-53239284D01*
X67876193Y-53294027D01*
X67919053Y-53340372D01*
X67951811Y-53376212D01*
X67972479Y-53399441D01*
X67974772Y-53402132D01*
X68003073Y-53435767D01*
X67383059Y-53435767D01*
X67209709Y-53259698D01*
X67155967Y-53204955D01*
X67105684Y-53153442D01*
X67061868Y-53108262D01*
X67027522Y-53072516D01*
X67005654Y-53049307D01*
X67002477Y-53045815D01*
X66968595Y-53008000D01*
X67129630Y-52846656D01*
X67179343Y-52797201D01*
X67223567Y-52753876D01*
X67259714Y-52719163D01*
X67285196Y-52695543D01*
X67297425Y-52685495D01*
X67297956Y-52685312D01*
X67306891Y-52693401D01*
G37*
X68705145Y-51152653D02*
X68705337Y-51256893D01*
X68705826Y-51353638D01*
X68706576Y-51440524D01*
X68707552Y-51515186D01*
X68708721Y-51575261D01*
X68710048Y-51618384D01*
X68711497Y-51642191D01*
X68712405Y-51646221D01*
X68724836Y-51639907D01*
X68749682Y-51623564D01*
X68773816Y-51606362D01*
X68888513Y-51535640D01*
X69010729Y-51486536D01*
X69141112Y-51458860D01*
X69280313Y-51452422D01*
X69298125Y-51453090D01*
X69387760Y-51459642D01*
X69464243Y-51471579D01*
X69535895Y-51491071D01*
X69611033Y-51520288D01*
X69680884Y-51552927D01*
X69808817Y-51628220D01*
X69921737Y-51720200D01*
X70018631Y-51827189D01*
X70098489Y-51947514D01*
X70160299Y-52079499D01*
X70203051Y-52221468D01*
X70225732Y-52371747D01*
X70229293Y-52461417D01*
X70219002Y-52613895D01*
X70187646Y-52758459D01*
X70134501Y-52897695D01*
X70077246Y-53004614D01*
X69991534Y-53124907D01*
X69889921Y-53229756D01*
X69774588Y-53318078D01*
X69647713Y-53388792D01*
X69511477Y-53440815D01*
X69368058Y-53473068D01*
X69219637Y-53484467D01*
X69119391Y-53479984D01*
X68974783Y-53455103D01*
X68834215Y-53408828D01*
X68701042Y-53342849D01*
X68578622Y-53258852D01*
X68470310Y-53158526D01*
X68461916Y-53149360D01*
X68380785Y-53045240D01*
X68311093Y-52927058D01*
X68255927Y-52801195D01*
X68218374Y-52674035D01*
X68209505Y-52627585D01*
X68206892Y-52599190D01*
X68204547Y-52549118D01*
X68203078Y-52498784D01*
X68699416Y-52498784D01*
X68709988Y-52596333D01*
X68740420Y-52690352D01*
X68769074Y-52744497D01*
X68836008Y-52832780D01*
X68915489Y-52903657D01*
X69004921Y-52956150D01*
X69101707Y-52989282D01*
X69203248Y-53002076D01*
X69306949Y-52993555D01*
X69379776Y-52974267D01*
X69422773Y-52958181D01*
X69463678Y-52940821D01*
X69479845Y-52933045D01*
X69525131Y-52902041D01*
X69574454Y-52855847D01*
X69622511Y-52800391D01*
X69663996Y-52741597D01*
X69685484Y-52703270D01*
X69705665Y-52659024D01*
X69718310Y-52620416D01*
X69725667Y-52578124D01*
X69729985Y-52522821D01*
X69730267Y-52517531D01*
X69726899Y-52410286D01*
X69704043Y-52312394D01*
X69660391Y-52218971D01*
X69642621Y-52190442D01*
X69578079Y-52112538D01*
X69499262Y-52050368D01*
X69409626Y-52004872D01*
X69312627Y-51976994D01*
X69211723Y-51967674D01*
X69110371Y-51977856D01*
X69012025Y-52008481D01*
X68998022Y-52014767D01*
X68910070Y-52067716D01*
X68836080Y-52135930D01*
X68777037Y-52216276D01*
X68733924Y-52305623D01*
X68707722Y-52400836D01*
X68699416Y-52498784D01*
X68203078Y-52498784D01*
X68202494Y-52478781D01*
X68200755Y-52389592D01*
X68199352Y-52282963D01*
X68198308Y-52160307D01*
X68197644Y-52023035D01*
X68197383Y-51872561D01*
X68197380Y-51860825D01*
X68197293Y-51169111D01*
X68704997Y-50659085D01*
X68705145Y-51152653D01*
G36*
X68705145Y-51152653D02*
G01*
X68705337Y-51256893D01*
X68705826Y-51353638D01*
X68706576Y-51440524D01*
X68707552Y-51515186D01*
X68708721Y-51575261D01*
X68710048Y-51618384D01*
X68711497Y-51642191D01*
X68712405Y-51646221D01*
X68724836Y-51639907D01*
X68749682Y-51623564D01*
X68773816Y-51606362D01*
X68888513Y-51535640D01*
X69010729Y-51486536D01*
X69141112Y-51458860D01*
X69280313Y-51452422D01*
X69298125Y-51453090D01*
X69387760Y-51459642D01*
X69464243Y-51471579D01*
X69535895Y-51491071D01*
X69611033Y-51520288D01*
X69680884Y-51552927D01*
X69808817Y-51628220D01*
X69921737Y-51720200D01*
X70018631Y-51827189D01*
X70098489Y-51947514D01*
X70160299Y-52079499D01*
X70203051Y-52221468D01*
X70225732Y-52371747D01*
X70229293Y-52461417D01*
X70219002Y-52613895D01*
X70187646Y-52758459D01*
X70134501Y-52897695D01*
X70077246Y-53004614D01*
X69991534Y-53124907D01*
X69889921Y-53229756D01*
X69774588Y-53318078D01*
X69647713Y-53388792D01*
X69511477Y-53440815D01*
X69368058Y-53473068D01*
X69219637Y-53484467D01*
X69119391Y-53479984D01*
X68974783Y-53455103D01*
X68834215Y-53408828D01*
X68701042Y-53342849D01*
X68578622Y-53258852D01*
X68470310Y-53158526D01*
X68461916Y-53149360D01*
X68380785Y-53045240D01*
X68311093Y-52927058D01*
X68255927Y-52801195D01*
X68218374Y-52674035D01*
X68209505Y-52627585D01*
X68206892Y-52599190D01*
X68204547Y-52549118D01*
X68203078Y-52498784D01*
X68699416Y-52498784D01*
X68709988Y-52596333D01*
X68740420Y-52690352D01*
X68769074Y-52744497D01*
X68836008Y-52832780D01*
X68915489Y-52903657D01*
X69004921Y-52956150D01*
X69101707Y-52989282D01*
X69203248Y-53002076D01*
X69306949Y-52993555D01*
X69379776Y-52974267D01*
X69422773Y-52958181D01*
X69463678Y-52940821D01*
X69479845Y-52933045D01*
X69525131Y-52902041D01*
X69574454Y-52855847D01*
X69622511Y-52800391D01*
X69663996Y-52741597D01*
X69685484Y-52703270D01*
X69705665Y-52659024D01*
X69718310Y-52620416D01*
X69725667Y-52578124D01*
X69729985Y-52522821D01*
X69730267Y-52517531D01*
X69726899Y-52410286D01*
X69704043Y-52312394D01*
X69660391Y-52218971D01*
X69642621Y-52190442D01*
X69578079Y-52112538D01*
X69499262Y-52050368D01*
X69409626Y-52004872D01*
X69312627Y-51976994D01*
X69211723Y-51967674D01*
X69110371Y-51977856D01*
X69012025Y-52008481D01*
X68998022Y-52014767D01*
X68910070Y-52067716D01*
X68836080Y-52135930D01*
X68777037Y-52216276D01*
X68733924Y-52305623D01*
X68707722Y-52400836D01*
X68699416Y-52498784D01*
X68203078Y-52498784D01*
X68202494Y-52478781D01*
X68200755Y-52389592D01*
X68199352Y-52282963D01*
X68198308Y-52160307D01*
X68197644Y-52023035D01*
X68197383Y-51872561D01*
X68197380Y-51860825D01*
X68197293Y-51169111D01*
X68704997Y-50659085D01*
X68705145Y-51152653D01*
G37*
D16*
%TO.C,U1*%
X122266864Y-26161752D02*
X104486864Y-26161752D01*
X104486864Y-26161752D02*
X104486864Y-59181752D01*
X122266864Y-59181752D02*
X122266864Y-26161752D01*
X104486864Y-59181752D02*
X122266864Y-59181752D01*
D17*
%TO.C,REF\u002A\u002A*%
X21664801Y-27216519D02*
X21685650Y-27430223D01*
X21685650Y-27002895D02*
X21664801Y-27216519D01*
X21685650Y-27430223D02*
X21746928Y-27632867D01*
X21746927Y-26800383D02*
X21685650Y-27002895D01*
X21746928Y-27632867D02*
X21846728Y-27819530D01*
X21846728Y-26613747D02*
X21746927Y-26800383D01*
X21846728Y-27819530D02*
X21983147Y-27985291D01*
X21983147Y-26447747D02*
X21846728Y-26613747D01*
X21983147Y-27985291D02*
X23509973Y-29512123D01*
X22153556Y-26308655D02*
X21983147Y-26447747D01*
X22216264Y-27216519D02*
X22256833Y-27011273D01*
X22256833Y-27011273D02*
X22373179Y-26837777D01*
X22256833Y-27421553D02*
X22216264Y-27216519D01*
X22342698Y-26209304D02*
X22153556Y-26308655D01*
X22373179Y-26837777D02*
X22550361Y-26720302D01*
X22373179Y-27595261D02*
X22256833Y-27421553D01*
X22544328Y-26149694D02*
X22342698Y-26209304D01*
X22550361Y-26720302D02*
X22752203Y-26681144D01*
X22751921Y-27974003D02*
X22373179Y-27595261D01*
X22752202Y-26129824D02*
X22544328Y-26149694D01*
X22752203Y-26681144D02*
X22954045Y-26720302D01*
X22954045Y-26720302D02*
X23131227Y-26837777D01*
X22960076Y-26149694D02*
X22752202Y-26129824D01*
X23083818Y-30277226D02*
X23098741Y-30433394D01*
X23098741Y-30121059D02*
X23083818Y-30277226D01*
X23098741Y-30433394D02*
X23143508Y-30584866D01*
X23131227Y-26837777D02*
X23521257Y-26447747D01*
X23142513Y-28364043D02*
X23739131Y-27767425D01*
X23143508Y-29969587D02*
X23098741Y-30121059D01*
X23143508Y-30584866D02*
X23218120Y-30726945D01*
X23161706Y-26209304D02*
X22960076Y-26149694D01*
X23218120Y-29827508D02*
X23143508Y-29969587D01*
X23218120Y-30726945D02*
X23322578Y-30854934D01*
X23322578Y-29699518D02*
X23218120Y-29827508D01*
X23322578Y-30854934D02*
X23450592Y-30959392D01*
X23350848Y-26308655D02*
X23161706Y-26209304D01*
X23450592Y-30959392D02*
X23592735Y-31034004D01*
X23509973Y-29512123D02*
X23322578Y-29699518D01*
X23521257Y-26447747D02*
X23350848Y-26308655D01*
X23592735Y-31034004D02*
X23744296Y-31078772D01*
X23626242Y-27207497D02*
X23631887Y-27094044D01*
X23631887Y-27094044D02*
X22751921Y-27974003D01*
X23635127Y-30277783D02*
X23654495Y-30177806D01*
X23654495Y-30177806D02*
X23712597Y-30090105D01*
X23654495Y-30377761D02*
X23635127Y-30277783D01*
X23654535Y-27495293D02*
X23626242Y-27207497D01*
X23712597Y-30090105D02*
X23899992Y-29902710D01*
X23712597Y-30465461D02*
X23654495Y-30377761D01*
X23739131Y-27767425D02*
X23654535Y-27495293D01*
X23744296Y-31078772D02*
X23900568Y-31093694D01*
X23799504Y-30521976D02*
X23712597Y-30465461D01*
X23899992Y-29902710D02*
X24087388Y-30090105D01*
X23899993Y-29122083D02*
X23142513Y-28364043D01*
X23899993Y-29122083D02*
X23899993Y-29122083D01*
X23900275Y-30540814D02*
X23799504Y-30521976D01*
X23900568Y-31093694D02*
X24056760Y-31078772D01*
X23956445Y-27209194D02*
X23997649Y-27508914D01*
X23972919Y-27022265D02*
X23956445Y-27209194D01*
X23997649Y-27508914D02*
X24104682Y-27761714D01*
X24001046Y-30521976D02*
X23900275Y-30540814D01*
X24020509Y-26843645D02*
X23972919Y-27022265D01*
X24056760Y-31078772D02*
X24208190Y-31034004D01*
X24087388Y-30090105D02*
X24145821Y-30177726D01*
X24087953Y-30465461D02*
X24001046Y-30521976D01*
X24087953Y-30465461D02*
X24087953Y-30465461D01*
X24097732Y-26676349D02*
X24020509Y-26843645D01*
X24104682Y-27761714D02*
X24274791Y-27981918D01*
X24145821Y-30177726D02*
X24165357Y-30277571D01*
X24146050Y-30377522D02*
X24087953Y-30465461D01*
X24165357Y-30277571D02*
X24146050Y-30377522D01*
X24203107Y-26523394D02*
X24097732Y-26676349D01*
X24208190Y-31034004D02*
X24350306Y-30959392D01*
X24274791Y-27981918D02*
X24657485Y-28364612D01*
X24279871Y-26438727D02*
X24203107Y-26523394D01*
X24290033Y-29512123D02*
X25048081Y-28754075D01*
X24350306Y-30959392D02*
X24478558Y-30854934D01*
X24450178Y-26301567D02*
X24279871Y-26438727D01*
X24478558Y-29699518D02*
X24290033Y-29512123D01*
X24478558Y-30854934D02*
X24583015Y-30726945D01*
X24509042Y-27210311D02*
X24541215Y-27031947D01*
X24541215Y-27031947D02*
X24630962Y-26875595D01*
X24549188Y-27416686D02*
X24509042Y-27210311D01*
X24583015Y-29827508D02*
X24478558Y-29699518D01*
X24583015Y-30726945D02*
X24657627Y-30584866D01*
X24630962Y-26875595D02*
X24668215Y-26831004D01*
X24639025Y-26203777D02*
X24450178Y-26301567D01*
X24657485Y-28364612D02*
X23899993Y-29122083D01*
X24657627Y-29969587D02*
X24583015Y-29827508D01*
X24657627Y-30584866D02*
X24702395Y-30433394D01*
X24665957Y-27591311D02*
X24549188Y-27416686D01*
X24668215Y-26831004D02*
X24669344Y-26829875D01*
X24669344Y-26829875D02*
X24844110Y-26715787D01*
X24702395Y-30121059D02*
X24657627Y-29969587D01*
X24702395Y-30433394D02*
X24717317Y-30277226D01*
X24717317Y-30277226D02*
X24702395Y-30121059D01*
X24840189Y-26145357D02*
X24639025Y-26203777D01*
X24844110Y-26715787D02*
X25043006Y-26677475D01*
X25043006Y-26677475D02*
X25247052Y-26717339D01*
X25047444Y-26126307D02*
X24840189Y-26145357D01*
X25048081Y-28754075D02*
X25426823Y-29132817D01*
X25048651Y-27974005D02*
X24665957Y-27591311D01*
X25247052Y-26717339D02*
X25427392Y-26837213D01*
X25254568Y-26146627D02*
X25047444Y-26126307D01*
X25426823Y-29132817D02*
X25816853Y-28742787D01*
X25427392Y-26837213D02*
X25543738Y-27010921D01*
X25427393Y-27595263D02*
X25048651Y-27974005D01*
X25427393Y-27595263D02*
X25427393Y-27595263D01*
X25438111Y-28364045D02*
X25816853Y-27985303D01*
X25455334Y-26206317D02*
X25254568Y-26146627D01*
X25543733Y-27421060D02*
X25427393Y-27595263D01*
X25543738Y-27010921D02*
X25584307Y-27215955D01*
X25584307Y-27215955D02*
X25543733Y-27421060D01*
X25643520Y-26305377D02*
X25455334Y-26206317D01*
X25812901Y-26443807D02*
X25643520Y-26305377D01*
X25816853Y-27985303D02*
X25953272Y-27819303D01*
X25816853Y-28742787D02*
X25438111Y-28364045D01*
X25951605Y-26611852D02*
X25812901Y-26443807D01*
X25953272Y-27819303D02*
X26053073Y-27632667D01*
X26052578Y-26799689D02*
X25951605Y-26611852D01*
X26053073Y-27632667D02*
X26114350Y-27430155D01*
X26114288Y-27002766D02*
X26052578Y-26799689D01*
X26114350Y-27430155D02*
X26135199Y-27216531D01*
X26135199Y-27216531D02*
X26114288Y-27002766D01*
D13*
%TO.C,JP7*%
X114710000Y-64185000D02*
X114710000Y-61385000D01*
X116710000Y-64185000D02*
X114710000Y-64185000D01*
X114710000Y-61385000D02*
X116710000Y-61385000D01*
X116710000Y-61385000D02*
X116710000Y-64185000D01*
%TO.C,JP6*%
X109620000Y-64190000D02*
X109620000Y-61390000D01*
X111620000Y-64190000D02*
X109620000Y-64190000D01*
X109620000Y-61390000D02*
X111620000Y-61390000D01*
X111620000Y-61390000D02*
X111620000Y-64190000D01*
%TO.C,JP5*%
X107070000Y-64190000D02*
X107070000Y-61390000D01*
X109070000Y-64190000D02*
X107070000Y-64190000D01*
X107070000Y-61390000D02*
X109070000Y-61390000D01*
X109070000Y-61390000D02*
X109070000Y-64190000D01*
%TO.C,JP8*%
X117230000Y-64190000D02*
X117230000Y-61390000D01*
X119230000Y-64190000D02*
X117230000Y-64190000D01*
X117230000Y-61390000D02*
X119230000Y-61390000D01*
X119230000Y-61390000D02*
X119230000Y-64190000D01*
%TO.C,Display1*%
X106803066Y-64602292D02*
X119503066Y-64602292D01*
X119503066Y-64602292D02*
X119503066Y-67202292D01*
X119503066Y-67202292D02*
X106803066Y-67202292D01*
X106803066Y-67202292D02*
X106803066Y-64602292D01*
%TD*%
D18*
%TO.C,U1*%
X105756864Y-29971752D03*
X105756864Y-32511752D03*
X105756864Y-35051752D03*
X105756864Y-37591752D03*
X105756864Y-40131752D03*
X105756864Y-42671752D03*
X105756864Y-45211752D03*
X105756864Y-47751752D03*
X105756864Y-50291752D03*
X105756864Y-52831752D03*
X105756864Y-55371752D03*
X105756864Y-57911752D03*
X120996864Y-57911752D03*
X120996864Y-55371752D03*
X120996864Y-52831752D03*
X120996864Y-50291752D03*
X120996864Y-47751752D03*
X120996864Y-45211752D03*
X120996864Y-42671752D03*
X120996864Y-40131752D03*
X120996864Y-37591752D03*
X120996864Y-35051752D03*
X120996864Y-32511752D03*
X120996864Y-29971752D03*
X108296864Y-52831752D03*
X110836864Y-52831752D03*
X113376864Y-52831752D03*
%TD*%
%LPC*%
D19*
%TO.C,SW21*%
X91649111Y-83678507D03*
D20*
X90195577Y-87171319D03*
X84796546Y-88002261D03*
D21*
X86336519Y-82255002D03*
D20*
X80536318Y-84583129D03*
D19*
X81023927Y-80831497D03*
D22*
X87863551Y-76556040D03*
D23*
X81633139Y-87154628D03*
X93358984Y-88018951D03*
D22*
X92149661Y-79878579D03*
X82490402Y-77290389D03*
%TD*%
D24*
%TO.C,RSW1*%
X75451865Y-14657504D03*
D25*
X72951865Y-15867504D03*
X77951865Y-15867504D03*
%TD*%
D19*
%TO.C,SW2*%
X28126865Y-41305002D03*
D20*
X27626865Y-45055002D03*
X22626865Y-47255002D03*
D21*
X22626865Y-41305002D03*
D20*
X17626865Y-45055002D03*
D19*
X17126865Y-41305002D03*
D22*
X22626865Y-35405002D03*
D26*
X19351865Y-47255002D03*
X30901865Y-45055002D03*
D22*
X27626865Y-37505002D03*
X17626865Y-37505002D03*
%TD*%
D19*
%TO.C,SW3*%
X46126867Y-29305002D03*
D20*
X45626867Y-33055002D03*
X40626867Y-35255002D03*
D21*
X40626867Y-29305002D03*
D20*
X35626867Y-33055002D03*
D19*
X35126867Y-29305002D03*
D22*
X40626867Y-23405002D03*
D26*
X37351867Y-35255002D03*
X48901867Y-33055002D03*
D22*
X45626867Y-25505002D03*
X35626867Y-25505002D03*
%TD*%
D19*
%TO.C,SW4*%
X64126864Y-22305002D03*
D20*
X63626864Y-26055002D03*
X58626864Y-28255002D03*
D21*
X58626864Y-22305002D03*
D20*
X53626864Y-26055002D03*
D19*
X53126864Y-22305002D03*
D22*
X58626864Y-16405002D03*
D26*
X55351864Y-28255002D03*
X66901864Y-26055002D03*
D22*
X63626864Y-18505002D03*
X53626864Y-18505002D03*
%TD*%
D19*
%TO.C,SW5*%
X82126865Y-27805003D03*
D20*
X81626865Y-31555003D03*
X76626865Y-33755003D03*
D21*
X76626865Y-27805003D03*
D20*
X71626865Y-31555003D03*
D19*
X71126865Y-27805003D03*
D22*
X76626865Y-21905003D03*
D26*
X73351865Y-33755003D03*
X84901865Y-31555003D03*
D22*
X81626865Y-24005003D03*
X71626865Y-24005003D03*
%TD*%
D19*
%TO.C,SW6*%
X100126863Y-30305002D03*
D20*
X99626863Y-34055002D03*
X94626863Y-36255002D03*
D21*
X94626863Y-30305002D03*
D20*
X89626863Y-34055002D03*
D19*
X89126863Y-30305002D03*
D22*
X94626863Y-24405002D03*
D26*
X91351863Y-36255002D03*
X102901863Y-34055002D03*
D22*
X99626863Y-26505002D03*
X89626863Y-26505002D03*
%TD*%
D19*
%TO.C,SW8*%
X28126865Y-58305002D03*
D20*
X27626865Y-62055002D03*
X22626865Y-64255002D03*
D21*
X22626865Y-58305002D03*
D20*
X17626865Y-62055002D03*
D19*
X17126865Y-58305002D03*
D22*
X22626865Y-52405002D03*
D26*
X19351865Y-64255002D03*
X30901865Y-62055002D03*
D22*
X27626865Y-54505002D03*
X17626865Y-54505002D03*
%TD*%
D19*
%TO.C,SW9*%
X46126867Y-46279002D03*
D20*
X45626867Y-50029002D03*
X40626867Y-52229002D03*
D21*
X40626867Y-46279002D03*
D20*
X35626867Y-50029002D03*
D19*
X35126867Y-46279002D03*
D22*
X40626867Y-40379002D03*
D26*
X37351867Y-52229002D03*
X48901867Y-50029002D03*
D22*
X45626867Y-42479002D03*
X35626867Y-42479002D03*
%TD*%
D19*
%TO.C,SW10*%
X64126866Y-39421002D03*
D20*
X63626866Y-43171002D03*
X58626866Y-45371002D03*
D21*
X58626866Y-39421002D03*
D20*
X53626866Y-43171002D03*
D19*
X53126866Y-39421002D03*
D22*
X58626866Y-33521002D03*
D26*
X55351866Y-45371002D03*
X66901866Y-43171002D03*
D22*
X63626866Y-35621002D03*
X53626866Y-35621002D03*
%TD*%
D19*
%TO.C,SW11*%
X82126867Y-44755005D03*
D20*
X81626867Y-48505005D03*
X76626867Y-50705005D03*
D21*
X76626867Y-44755005D03*
D20*
X71626867Y-48505005D03*
D19*
X71126867Y-44755005D03*
D22*
X76626867Y-38855005D03*
D26*
X73351867Y-50705005D03*
X84901867Y-48505005D03*
D22*
X81626867Y-40955005D03*
X71626867Y-40955005D03*
%TD*%
D19*
%TO.C,SW12*%
X100106865Y-47295002D03*
D20*
X99606865Y-51045002D03*
X94606865Y-53245002D03*
D21*
X94606865Y-47295002D03*
D20*
X89606865Y-51045002D03*
D19*
X89106865Y-47295002D03*
D22*
X94606865Y-41395002D03*
D26*
X91331865Y-53245002D03*
X102881865Y-51045002D03*
D22*
X99606865Y-43495002D03*
X89606865Y-43495002D03*
%TD*%
D19*
%TO.C,SW14*%
X28126865Y-75304999D03*
D20*
X27626865Y-79054999D03*
X22626865Y-81254999D03*
D21*
X22626865Y-75304999D03*
D20*
X17626865Y-79054999D03*
D19*
X17126865Y-75304999D03*
D22*
X22626865Y-69404999D03*
D26*
X19351865Y-81254999D03*
X30901865Y-79054999D03*
D22*
X27626865Y-71504999D03*
X17626865Y-71504999D03*
%TD*%
D19*
%TO.C,SW15*%
X46126864Y-63297001D03*
D20*
X45626864Y-67047001D03*
X40626864Y-69247001D03*
D21*
X40626864Y-63297001D03*
D20*
X35626864Y-67047001D03*
D19*
X35126864Y-63297001D03*
D22*
X40626864Y-57397001D03*
D26*
X37351864Y-69247001D03*
X48901864Y-67047001D03*
D22*
X45626864Y-59497001D03*
X35626864Y-59497001D03*
%TD*%
D19*
%TO.C,SW16*%
X64126863Y-56439003D03*
D20*
X63626863Y-60189003D03*
X58626863Y-62389003D03*
D21*
X58626863Y-56439003D03*
D20*
X53626863Y-60189003D03*
D19*
X53126863Y-56439003D03*
D22*
X58626863Y-50539003D03*
D26*
X55351863Y-62389003D03*
X66901863Y-60189003D03*
D22*
X63626863Y-52639003D03*
X53626863Y-52639003D03*
%TD*%
D19*
%TO.C,SW17*%
X82126865Y-61773005D03*
D20*
X81626865Y-65523005D03*
X76626865Y-67723005D03*
D21*
X76626865Y-61773005D03*
D20*
X71626865Y-65523005D03*
D19*
X71126865Y-61773005D03*
D22*
X76626865Y-55873005D03*
D26*
X73351865Y-67723005D03*
X84901865Y-65523005D03*
D22*
X81626865Y-57973005D03*
X71626865Y-57973005D03*
%TD*%
D19*
%TO.C,SW18*%
X100100519Y-64313002D03*
D20*
X99600519Y-68063002D03*
X94600519Y-70263002D03*
D21*
X94600519Y-64313002D03*
D20*
X89600519Y-68063002D03*
D19*
X89100519Y-64313002D03*
D22*
X94600519Y-58413002D03*
D26*
X91325519Y-70263002D03*
X102875519Y-68063002D03*
D22*
X99600519Y-60513002D03*
X89600519Y-60513002D03*
%TD*%
D19*
%TO.C,SW20*%
X109659659Y-92755002D03*
D20*
X107351646Y-95752597D03*
X101921519Y-95157853D03*
D21*
X104896519Y-90005002D03*
D20*
X98691392Y-90752597D03*
D19*
X100133379Y-87255002D03*
D22*
X107846519Y-84895452D03*
D27*
X99085286Y-93520353D03*
X110187879Y-97390097D03*
D22*
X111126646Y-89214105D03*
X102466392Y-84214105D03*
%TD*%
D28*
%TO.C,REF\u002A\u002A*%
X49076866Y-38205003D03*
X68126866Y-19155003D03*
X68126866Y-57255003D03*
X87176866Y-38205003D03*
%TD*%
D18*
%TO.C,U1*%
X105756864Y-29971752D03*
X105756864Y-32511752D03*
X105756864Y-35051752D03*
X105756864Y-37591752D03*
X105756864Y-40131752D03*
X105756864Y-42671752D03*
X105756864Y-45211752D03*
X105756864Y-47751752D03*
X105756864Y-50291752D03*
X105756864Y-52831752D03*
X105756864Y-55371752D03*
X105756864Y-57911752D03*
X120996864Y-57911752D03*
X120996864Y-55371752D03*
X120996864Y-52831752D03*
X120996864Y-50291752D03*
X120996864Y-47751752D03*
X120996864Y-45211752D03*
X120996864Y-42671752D03*
X120996864Y-40131752D03*
X120996864Y-37591752D03*
X120996864Y-35051752D03*
X120996864Y-32511752D03*
X120996864Y-29971752D03*
X108296864Y-52831752D03*
X110836864Y-52831752D03*
X113376864Y-52831752D03*
%TD*%
D29*
%TO.C,JP7*%
X115710000Y-63510000D03*
D30*
X115710000Y-62060000D03*
%TD*%
D29*
%TO.C,JP6*%
X110620000Y-63515000D03*
D30*
X110620000Y-62065000D03*
%TD*%
D31*
%TO.C,J1*%
X114733066Y-73312291D03*
D32*
X114733066Y-75312291D03*
X114733066Y-77312291D03*
%TD*%
D29*
%TO.C,JP5*%
X108070000Y-63515000D03*
D30*
X108070000Y-62065000D03*
%TD*%
D29*
%TO.C,JP8*%
X118230000Y-63515000D03*
D30*
X118230000Y-62065000D03*
%TD*%
D18*
%TO.C,Display1*%
X108073066Y-65902292D03*
X110613066Y-65902292D03*
X113153066Y-65902292D03*
X115693066Y-65902292D03*
X118233066Y-65902292D03*
%TD*%
D33*
%TO.C,SW7*%
X120590000Y-71470000D03*
X120590000Y-79670000D03*
D34*
X120590000Y-73570000D03*
D35*
X120590000Y-75570000D03*
X120590000Y-77570000D03*
%TD*%
%LPD*%
M02*
