%TF.GenerationSoftware,KiCad,Pcbnew,7.0.8*%
%TF.CreationDate,2023-10-31T13:57:49-04:00*%
%TF.ProjectId,half-swept,68616c66-2d73-4776-9570-742e6b696361,rev?*%
%TF.SameCoordinates,Original*%
%TF.FileFunction,Drillmap*%
%TF.FilePolarity,Positive*%
%FSLAX45Y45*%
G04 Gerber Fmt 4.5, Leading zero omitted, Abs format (unit mm)*
G04 Created by KiCad (PCBNEW 7.0.8) date 2023-10-31 13:57:49*
%MOMM*%
%LPD*%
G01*
G04 APERTURE LIST*
%ADD10C,0.050000*%
%ADD11C,0.200000*%
%ADD12C,0.120000*%
%ADD13C,0.170180*%
%ADD14C,0.300000*%
%ADD15C,0.342900*%
G04 APERTURE END LIST*
D10*
X1223692Y-3220171D02*
X1227712Y-8147003D01*
X12278886Y-2760878D02*
G75*
G03*
X12242686Y-2680500I-104476J1288D01*
G01*
X1366385Y-3018799D02*
G75*
G03*
X1223692Y-3220171I244505J-324501D01*
G01*
X12242686Y-2680500D02*
G75*
G03*
X6792687Y-1256251I-5286691J-9090387D01*
G01*
X11758266Y-10218445D02*
G75*
G03*
X1431486Y-8330613I-10180840J-26502434D01*
G01*
X1227709Y-8147003D02*
G75*
G03*
X1431486Y-8330612I197801J14643D01*
G01*
X12278887Y-2760878D02*
X12278886Y-8330500D01*
X6792687Y-1256252D02*
G75*
G03*
X1366386Y-3018800I-139342J-8805174D01*
G01*
X11758268Y-10218440D02*
G75*
G03*
X11878948Y-10185024I43992J75750D01*
G01*
X12547988Y-8757716D02*
X11878948Y-10185024D01*
X12278887Y-8330500D02*
G75*
G03*
X12432988Y-8522716I279953J66560D01*
G01*
X12547986Y-8757716D02*
G75*
G03*
X12432988Y-8522716I-199306J48106D01*
G01*
D11*
D12*
X7485186Y-1405750D02*
X7605186Y-1525750D01*
X7605186Y-1405750D02*
X7485186Y-1525750D01*
D13*
X1797776Y-4130500D02*
G75*
G03*
X1797776Y-4130500I-85090J0D01*
G01*
X1797776Y-5830500D02*
G75*
G03*
X1797776Y-5830500I-85090J0D01*
G01*
X1797776Y-7530500D02*
G75*
G03*
X1797776Y-7530500I-85090J0D01*
G01*
X2897776Y-4130500D02*
G75*
G03*
X2897776Y-4130500I-85090J0D01*
G01*
X2897776Y-5830500D02*
G75*
G03*
X2897776Y-5830500I-85090J0D01*
G01*
X2897776Y-7530500D02*
G75*
G03*
X2897776Y-7530500I-85090J0D01*
G01*
X3597776Y-6329700D02*
G75*
G03*
X3597776Y-6329700I-85090J0D01*
G01*
X3597777Y-2930500D02*
G75*
G03*
X3597777Y-2930500I-85090J0D01*
G01*
X3597777Y-4627900D02*
G75*
G03*
X3597777Y-4627900I-85090J0D01*
G01*
X4697776Y-6329700D02*
G75*
G03*
X4697776Y-6329700I-85090J0D01*
G01*
X4697777Y-2930500D02*
G75*
G03*
X4697777Y-2930500I-85090J0D01*
G01*
X4697777Y-4627900D02*
G75*
G03*
X4697777Y-4627900I-85090J0D01*
G01*
X5397776Y-5643900D02*
G75*
G03*
X5397776Y-5643900I-85090J0D01*
G01*
X5397776Y-2230500D02*
G75*
G03*
X5397776Y-2230500I-85090J0D01*
G01*
X5397777Y-3942100D02*
G75*
G03*
X5397777Y-3942100I-85090J0D01*
G01*
X6497776Y-5643900D02*
G75*
G03*
X6497776Y-5643900I-85090J0D01*
G01*
X6497776Y-2230500D02*
G75*
G03*
X6497776Y-2230500I-85090J0D01*
G01*
X6497777Y-3942100D02*
G75*
G03*
X6497777Y-3942100I-85090J0D01*
G01*
X7197776Y-2780500D02*
G75*
G03*
X7197776Y-2780500I-85090J0D01*
G01*
X7197776Y-6177300D02*
G75*
G03*
X7197776Y-6177300I-85090J0D01*
G01*
X7197777Y-4475501D02*
G75*
G03*
X7197777Y-4475501I-85090J0D01*
G01*
X8187483Y-8083150D02*
G75*
G03*
X8187483Y-8083150I-85090J0D01*
G01*
X8297776Y-2780500D02*
G75*
G03*
X8297776Y-2780500I-85090J0D01*
G01*
X8297776Y-6177300D02*
G75*
G03*
X8297776Y-6177300I-85090J0D01*
G01*
X8297777Y-4475501D02*
G75*
G03*
X8297777Y-4475501I-85090J0D01*
G01*
X8995142Y-6431300D02*
G75*
G03*
X8995142Y-6431300I-85090J0D01*
G01*
X8995777Y-4729500D02*
G75*
G03*
X8995777Y-4729500I-85090J0D01*
G01*
X8997776Y-3030500D02*
G75*
G03*
X8997776Y-3030500I-85090J0D01*
G01*
X9250001Y-8367851D02*
G75*
G03*
X9250001Y-8367851I-85090J0D01*
G01*
X10095142Y-6431300D02*
G75*
G03*
X10095142Y-6431300I-85090J0D01*
G01*
X10095777Y-4729500D02*
G75*
G03*
X10095777Y-4729500I-85090J0D01*
G01*
X10097776Y-3030500D02*
G75*
G03*
X10097776Y-3030500I-85090J0D01*
G01*
X10098428Y-8725500D02*
G75*
G03*
X10098428Y-8725500I-85090J0D01*
G01*
X11051056Y-9275500D02*
G75*
G03*
X11051056Y-9275500I-85090J0D01*
G01*
D14*
X1762686Y-4355500D02*
X1762686Y-4655500D01*
X1612686Y-4505500D02*
X1912686Y-4505500D01*
X1762686Y-6055500D02*
X1762686Y-6355500D01*
X1612686Y-6205500D02*
X1912686Y-6205500D01*
X1762686Y-7755500D02*
X1762686Y-8055500D01*
X1612686Y-7905500D02*
X1912686Y-7905500D01*
X2262687Y-4575500D02*
X2262687Y-4875500D01*
X2112687Y-4725500D02*
X2412687Y-4725500D01*
X2262687Y-6275500D02*
X2262687Y-6575500D01*
X2112687Y-6425500D02*
X2412687Y-6425500D01*
X2262687Y-7975500D02*
X2262687Y-8275500D01*
X2112687Y-8125500D02*
X2412687Y-8125500D01*
X2762687Y-4355500D02*
X2762687Y-4655500D01*
X2612687Y-4505500D02*
X2912686Y-4505500D01*
X2762687Y-6055500D02*
X2762687Y-6355500D01*
X2612687Y-6205500D02*
X2912686Y-6205500D01*
X2762687Y-7755500D02*
X2762687Y-8055500D01*
X2612687Y-7905500D02*
X2912686Y-7905500D01*
X3562686Y-6554700D02*
X3562686Y-6854700D01*
X3412686Y-6704700D02*
X3712686Y-6704700D01*
X3562687Y-3155500D02*
X3562687Y-3455500D01*
X3412687Y-3305500D02*
X3712687Y-3305500D01*
X3562687Y-4852900D02*
X3562687Y-5152900D01*
X3412687Y-5002900D02*
X3712687Y-5002900D01*
X4062686Y-6774700D02*
X4062686Y-7074700D01*
X3912686Y-6924700D02*
X4212686Y-6924700D01*
X4062687Y-3375500D02*
X4062687Y-3675500D01*
X3912687Y-3525500D02*
X4212687Y-3525500D01*
X4062687Y-5072900D02*
X4062687Y-5372900D01*
X3912687Y-5222900D02*
X4212687Y-5222900D01*
X4562686Y-6554700D02*
X4562686Y-6854700D01*
X4412686Y-6704700D02*
X4712686Y-6704700D01*
X4562687Y-3155500D02*
X4562687Y-3455500D01*
X4412687Y-3305500D02*
X4712687Y-3305500D01*
X4562687Y-4852900D02*
X4562687Y-5152900D01*
X4412687Y-5002900D02*
X4712687Y-5002900D01*
X5362686Y-5868900D02*
X5362686Y-6168900D01*
X5212686Y-6018900D02*
X5512686Y-6018900D01*
X5362686Y-2455500D02*
X5362686Y-2755500D01*
X5212686Y-2605500D02*
X5512686Y-2605500D01*
X5362687Y-4167100D02*
X5362687Y-4467100D01*
X5212687Y-4317100D02*
X5512687Y-4317100D01*
X5862686Y-6088900D02*
X5862686Y-6388900D01*
X5712686Y-6238900D02*
X6012686Y-6238900D01*
X5862686Y-2675500D02*
X5862686Y-2975500D01*
X5712686Y-2825500D02*
X6012686Y-2825500D01*
X5862687Y-4387100D02*
X5862687Y-4687100D01*
X5712687Y-4537100D02*
X6012687Y-4537100D01*
X6362686Y-5868900D02*
X6362686Y-6168900D01*
X6212686Y-6018900D02*
X6512686Y-6018900D01*
X6362686Y-2455500D02*
X6362686Y-2755500D01*
X6212686Y-2605500D02*
X6512686Y-2605500D01*
X6362687Y-4167100D02*
X6362687Y-4467100D01*
X6212687Y-4317100D02*
X6512687Y-4317100D01*
X7162686Y-3005500D02*
X7162686Y-3305500D01*
X7012686Y-3155500D02*
X7312686Y-3155500D01*
X7162686Y-6402300D02*
X7162686Y-6702300D01*
X7012686Y-6552300D02*
X7312686Y-6552300D01*
X7162687Y-4700501D02*
X7162687Y-5000501D01*
X7012687Y-4850501D02*
X7312687Y-4850501D01*
X7662686Y-3225500D02*
X7662686Y-3525500D01*
X7512686Y-3375500D02*
X7812686Y-3375500D01*
X7662686Y-6622300D02*
X7662686Y-6922300D01*
X7512686Y-6772300D02*
X7812686Y-6772300D01*
X7662687Y-4920501D02*
X7662687Y-5220501D01*
X7512687Y-5070501D02*
X7812687Y-5070501D01*
X8053632Y-8308313D02*
X8053632Y-8608313D01*
X7903632Y-8458313D02*
X8203632Y-8458313D01*
X8162686Y-3005500D02*
X8162686Y-3305500D01*
X8012686Y-3155500D02*
X8312686Y-3155500D01*
X8162686Y-6402300D02*
X8162686Y-6702300D01*
X8012686Y-6552300D02*
X8312686Y-6552300D01*
X8162687Y-4700501D02*
X8162687Y-5000501D01*
X8012687Y-4850501D02*
X8312687Y-4850501D01*
X8479655Y-8650226D02*
X8479655Y-8950226D01*
X8329655Y-8800226D02*
X8629655Y-8800226D01*
X8960052Y-6656300D02*
X8960052Y-6956300D01*
X8810052Y-6806300D02*
X9110052Y-6806300D01*
X8960687Y-4954500D02*
X8960687Y-5254500D01*
X8810687Y-5104500D02*
X9110687Y-5104500D01*
X8962686Y-3255500D02*
X8962686Y-3555500D01*
X8812686Y-3405500D02*
X9112686Y-3405500D01*
X9019558Y-8567132D02*
X9019558Y-8867132D01*
X8869558Y-8717132D02*
X9169558Y-8717132D01*
X9460052Y-6876300D02*
X9460052Y-7176300D01*
X9310052Y-7026300D02*
X9610052Y-7026300D01*
X9460687Y-5174500D02*
X9460687Y-5474500D01*
X9310687Y-5324500D02*
X9610687Y-5324500D01*
X9462686Y-3475500D02*
X9462686Y-3775500D01*
X9312686Y-3625500D02*
X9612686Y-3625500D01*
X9869139Y-8925260D02*
X9869139Y-9225260D01*
X9719139Y-9075260D02*
X10019139Y-9075260D01*
X9960052Y-6656300D02*
X9960052Y-6956300D01*
X9810052Y-6806300D02*
X10110052Y-6806300D01*
X9960687Y-4954500D02*
X9960687Y-5254500D01*
X9810687Y-5104500D02*
X10110687Y-5104500D01*
X9962686Y-3255500D02*
X9962686Y-3555500D01*
X9812686Y-3405500D02*
X10112686Y-3405500D01*
X10192152Y-9365785D02*
X10192152Y-9665785D01*
X10042152Y-9515785D02*
X10342152Y-9515785D01*
X10735165Y-9425260D02*
X10735165Y-9725260D01*
X10585165Y-9575260D02*
X10885165Y-9575260D01*
D15*
X2383921Y-4251735D02*
X2383921Y-4009266D01*
X2141452Y-4009266D01*
X2141452Y-4251735D01*
X2383921Y-4251735D01*
X2383921Y-5951735D02*
X2383921Y-5709266D01*
X2141452Y-5709266D01*
X2141452Y-5951735D01*
X2383921Y-5951735D01*
X2383921Y-7651734D02*
X2383921Y-7409265D01*
X2141452Y-7409265D01*
X2141452Y-7651734D01*
X2383921Y-7651734D01*
X4183921Y-6450935D02*
X4183921Y-6208465D01*
X3941452Y-6208465D01*
X3941452Y-6450935D01*
X4183921Y-6450935D01*
X4183921Y-3051735D02*
X4183921Y-2809266D01*
X3941452Y-2809266D01*
X3941452Y-3051735D01*
X4183921Y-3051735D01*
X4183921Y-4749135D02*
X4183921Y-4506666D01*
X3941452Y-4506666D01*
X3941452Y-4749135D01*
X4183921Y-4749135D01*
X5983921Y-5765135D02*
X5983921Y-5522666D01*
X5741452Y-5522666D01*
X5741452Y-5765135D01*
X5983921Y-5765135D01*
X5983921Y-2351735D02*
X5983921Y-2109266D01*
X5741452Y-2109266D01*
X5741452Y-2351735D01*
X5983921Y-2351735D01*
X5983921Y-4063335D02*
X5983921Y-3820866D01*
X5741452Y-3820866D01*
X5741452Y-4063335D01*
X5983921Y-4063335D01*
X7783921Y-2901735D02*
X7783921Y-2659266D01*
X7541452Y-2659266D01*
X7541452Y-2901735D01*
X7783921Y-2901735D01*
X7783921Y-6298535D02*
X7783921Y-6056066D01*
X7541452Y-6056066D01*
X7541452Y-6298535D01*
X7783921Y-6298535D01*
X7783921Y-4596735D02*
X7783921Y-4354266D01*
X7541452Y-4354266D01*
X7541452Y-4596735D01*
X7783921Y-4596735D01*
X8754887Y-8346735D02*
X8754887Y-8104266D01*
X8512417Y-8104266D01*
X8512417Y-8346735D01*
X8754887Y-8346735D01*
X9581287Y-6552535D02*
X9581287Y-6310066D01*
X9338817Y-6310066D01*
X9338817Y-6552535D01*
X9581287Y-6552535D01*
X9581921Y-4850735D02*
X9581921Y-4608266D01*
X9339452Y-4608266D01*
X9339452Y-4850735D01*
X9581921Y-4850735D01*
X9583921Y-3151735D02*
X9583921Y-2909266D01*
X9341452Y-2909266D01*
X9341452Y-3151735D01*
X9583921Y-3151735D01*
X10610887Y-9121735D02*
X10610887Y-8879266D01*
X10368417Y-8879266D01*
X10368417Y-9121735D01*
X10610887Y-9121735D01*
D11*
X1481969Y-10544271D02*
X1481969Y-10344271D01*
X1481969Y-10344271D02*
X1529588Y-10344271D01*
X1529588Y-10344271D02*
X1558159Y-10353795D01*
X1558159Y-10353795D02*
X1577207Y-10372842D01*
X1577207Y-10372842D02*
X1586730Y-10391890D01*
X1586730Y-10391890D02*
X1596254Y-10429985D01*
X1596254Y-10429985D02*
X1596254Y-10458557D01*
X1596254Y-10458557D02*
X1586730Y-10496652D01*
X1586730Y-10496652D02*
X1577207Y-10515699D01*
X1577207Y-10515699D02*
X1558159Y-10534747D01*
X1558159Y-10534747D02*
X1529588Y-10544271D01*
X1529588Y-10544271D02*
X1481969Y-10544271D01*
X1681969Y-10544271D02*
X1681969Y-10410938D01*
X1681969Y-10449033D02*
X1691492Y-10429985D01*
X1691492Y-10429985D02*
X1701016Y-10420461D01*
X1701016Y-10420461D02*
X1720064Y-10410938D01*
X1720064Y-10410938D02*
X1739111Y-10410938D01*
X1805778Y-10544271D02*
X1805778Y-10410938D01*
X1805778Y-10344271D02*
X1796254Y-10353795D01*
X1796254Y-10353795D02*
X1805778Y-10363319D01*
X1805778Y-10363319D02*
X1815302Y-10353795D01*
X1815302Y-10353795D02*
X1805778Y-10344271D01*
X1805778Y-10344271D02*
X1805778Y-10363319D01*
X1929588Y-10544271D02*
X1910540Y-10534747D01*
X1910540Y-10534747D02*
X1901016Y-10515699D01*
X1901016Y-10515699D02*
X1901016Y-10344271D01*
X2034349Y-10544271D02*
X2015302Y-10534747D01*
X2015302Y-10534747D02*
X2005778Y-10515699D01*
X2005778Y-10515699D02*
X2005778Y-10344271D01*
X2262921Y-10544271D02*
X2262921Y-10344271D01*
X2262921Y-10344271D02*
X2329588Y-10487128D01*
X2329588Y-10487128D02*
X2396254Y-10344271D01*
X2396254Y-10344271D02*
X2396254Y-10544271D01*
X2577207Y-10544271D02*
X2577207Y-10439509D01*
X2577207Y-10439509D02*
X2567683Y-10420461D01*
X2567683Y-10420461D02*
X2548635Y-10410938D01*
X2548635Y-10410938D02*
X2510540Y-10410938D01*
X2510540Y-10410938D02*
X2491492Y-10420461D01*
X2577207Y-10534747D02*
X2558159Y-10544271D01*
X2558159Y-10544271D02*
X2510540Y-10544271D01*
X2510540Y-10544271D02*
X2491492Y-10534747D01*
X2491492Y-10534747D02*
X2481969Y-10515699D01*
X2481969Y-10515699D02*
X2481969Y-10496652D01*
X2481969Y-10496652D02*
X2491492Y-10477604D01*
X2491492Y-10477604D02*
X2510540Y-10468080D01*
X2510540Y-10468080D02*
X2558159Y-10468080D01*
X2558159Y-10468080D02*
X2577207Y-10458557D01*
X2672445Y-10410938D02*
X2672445Y-10610938D01*
X2672445Y-10420461D02*
X2691492Y-10410938D01*
X2691492Y-10410938D02*
X2729588Y-10410938D01*
X2729588Y-10410938D02*
X2748635Y-10420461D01*
X2748635Y-10420461D02*
X2758159Y-10429985D01*
X2758159Y-10429985D02*
X2767683Y-10449033D01*
X2767683Y-10449033D02*
X2767683Y-10506176D01*
X2767683Y-10506176D02*
X2758159Y-10525223D01*
X2758159Y-10525223D02*
X2748635Y-10534747D01*
X2748635Y-10534747D02*
X2729588Y-10544271D01*
X2729588Y-10544271D02*
X2691492Y-10544271D01*
X2691492Y-10544271D02*
X2672445Y-10534747D01*
X2853397Y-10525223D02*
X2862921Y-10534747D01*
X2862921Y-10534747D02*
X2853397Y-10544271D01*
X2853397Y-10544271D02*
X2843873Y-10534747D01*
X2843873Y-10534747D02*
X2853397Y-10525223D01*
X2853397Y-10525223D02*
X2853397Y-10544271D01*
X2853397Y-10420461D02*
X2862921Y-10429985D01*
X2862921Y-10429985D02*
X2853397Y-10439509D01*
X2853397Y-10439509D02*
X2843873Y-10429985D01*
X2843873Y-10429985D02*
X2853397Y-10420461D01*
X2853397Y-10420461D02*
X2853397Y-10439509D01*
D12*
X1101192Y-10812787D02*
X1221192Y-10932787D01*
X1221192Y-10812787D02*
X1101192Y-10932787D01*
D11*
X1586730Y-10964271D02*
X1472445Y-10964271D01*
X1529588Y-10964271D02*
X1529588Y-10764271D01*
X1529588Y-10764271D02*
X1510540Y-10792842D01*
X1510540Y-10792842D02*
X1491492Y-10811890D01*
X1491492Y-10811890D02*
X1472445Y-10821414D01*
X1672445Y-10945223D02*
X1681969Y-10954747D01*
X1681969Y-10954747D02*
X1672445Y-10964271D01*
X1672445Y-10964271D02*
X1662921Y-10954747D01*
X1662921Y-10954747D02*
X1672445Y-10945223D01*
X1672445Y-10945223D02*
X1672445Y-10964271D01*
X1758159Y-10783319D02*
X1767683Y-10773795D01*
X1767683Y-10773795D02*
X1786730Y-10764271D01*
X1786730Y-10764271D02*
X1834350Y-10764271D01*
X1834350Y-10764271D02*
X1853397Y-10773795D01*
X1853397Y-10773795D02*
X1862921Y-10783319D01*
X1862921Y-10783319D02*
X1872445Y-10802366D01*
X1872445Y-10802366D02*
X1872445Y-10821414D01*
X1872445Y-10821414D02*
X1862921Y-10849985D01*
X1862921Y-10849985D02*
X1748635Y-10964271D01*
X1748635Y-10964271D02*
X1872445Y-10964271D01*
X1996254Y-10764271D02*
X2015302Y-10764271D01*
X2015302Y-10764271D02*
X2034350Y-10773795D01*
X2034350Y-10773795D02*
X2043873Y-10783319D01*
X2043873Y-10783319D02*
X2053397Y-10802366D01*
X2053397Y-10802366D02*
X2062921Y-10840461D01*
X2062921Y-10840461D02*
X2062921Y-10888080D01*
X2062921Y-10888080D02*
X2053397Y-10926176D01*
X2053397Y-10926176D02*
X2043873Y-10945223D01*
X2043873Y-10945223D02*
X2034350Y-10954747D01*
X2034350Y-10954747D02*
X2015302Y-10964271D01*
X2015302Y-10964271D02*
X1996254Y-10964271D01*
X1996254Y-10964271D02*
X1977207Y-10954747D01*
X1977207Y-10954747D02*
X1967683Y-10945223D01*
X1967683Y-10945223D02*
X1958159Y-10926176D01*
X1958159Y-10926176D02*
X1948635Y-10888080D01*
X1948635Y-10888080D02*
X1948635Y-10840461D01*
X1948635Y-10840461D02*
X1958159Y-10802366D01*
X1958159Y-10802366D02*
X1967683Y-10783319D01*
X1967683Y-10783319D02*
X1977207Y-10773795D01*
X1977207Y-10773795D02*
X1996254Y-10764271D01*
X2186731Y-10764271D02*
X2205778Y-10764271D01*
X2205778Y-10764271D02*
X2224826Y-10773795D01*
X2224826Y-10773795D02*
X2234350Y-10783319D01*
X2234350Y-10783319D02*
X2243873Y-10802366D01*
X2243873Y-10802366D02*
X2253397Y-10840461D01*
X2253397Y-10840461D02*
X2253397Y-10888080D01*
X2253397Y-10888080D02*
X2243873Y-10926176D01*
X2243873Y-10926176D02*
X2234350Y-10945223D01*
X2234350Y-10945223D02*
X2224826Y-10954747D01*
X2224826Y-10954747D02*
X2205778Y-10964271D01*
X2205778Y-10964271D02*
X2186731Y-10964271D01*
X2186731Y-10964271D02*
X2167683Y-10954747D01*
X2167683Y-10954747D02*
X2158159Y-10945223D01*
X2158159Y-10945223D02*
X2148635Y-10926176D01*
X2148635Y-10926176D02*
X2139112Y-10888080D01*
X2139112Y-10888080D02*
X2139112Y-10840461D01*
X2139112Y-10840461D02*
X2148635Y-10802366D01*
X2148635Y-10802366D02*
X2158159Y-10783319D01*
X2158159Y-10783319D02*
X2167683Y-10773795D01*
X2167683Y-10773795D02*
X2186731Y-10764271D01*
X2339112Y-10964271D02*
X2339112Y-10830938D01*
X2339112Y-10849985D02*
X2348635Y-10840461D01*
X2348635Y-10840461D02*
X2367683Y-10830938D01*
X2367683Y-10830938D02*
X2396254Y-10830938D01*
X2396254Y-10830938D02*
X2415302Y-10840461D01*
X2415302Y-10840461D02*
X2424826Y-10859509D01*
X2424826Y-10859509D02*
X2424826Y-10964271D01*
X2424826Y-10859509D02*
X2434350Y-10840461D01*
X2434350Y-10840461D02*
X2453397Y-10830938D01*
X2453397Y-10830938D02*
X2481969Y-10830938D01*
X2481969Y-10830938D02*
X2501016Y-10840461D01*
X2501016Y-10840461D02*
X2510540Y-10859509D01*
X2510540Y-10859509D02*
X2510540Y-10964271D01*
X2605778Y-10964271D02*
X2605778Y-10830938D01*
X2605778Y-10849985D02*
X2615302Y-10840461D01*
X2615302Y-10840461D02*
X2634350Y-10830938D01*
X2634350Y-10830938D02*
X2662921Y-10830938D01*
X2662921Y-10830938D02*
X2681969Y-10840461D01*
X2681969Y-10840461D02*
X2691493Y-10859509D01*
X2691493Y-10859509D02*
X2691493Y-10964271D01*
X2691493Y-10859509D02*
X2701016Y-10840461D01*
X2701016Y-10840461D02*
X2720064Y-10830938D01*
X2720064Y-10830938D02*
X2748635Y-10830938D01*
X2748635Y-10830938D02*
X2767683Y-10840461D01*
X2767683Y-10840461D02*
X2777207Y-10859509D01*
X2777207Y-10859509D02*
X2777207Y-10964271D01*
X3167683Y-10754747D02*
X2996254Y-11011890D01*
X3424826Y-10764271D02*
X3443874Y-10764271D01*
X3443874Y-10764271D02*
X3462921Y-10773795D01*
X3462921Y-10773795D02*
X3472445Y-10783319D01*
X3472445Y-10783319D02*
X3481969Y-10802366D01*
X3481969Y-10802366D02*
X3491493Y-10840461D01*
X3491493Y-10840461D02*
X3491493Y-10888080D01*
X3491493Y-10888080D02*
X3481969Y-10926176D01*
X3481969Y-10926176D02*
X3472445Y-10945223D01*
X3472445Y-10945223D02*
X3462921Y-10954747D01*
X3462921Y-10954747D02*
X3443874Y-10964271D01*
X3443874Y-10964271D02*
X3424826Y-10964271D01*
X3424826Y-10964271D02*
X3405778Y-10954747D01*
X3405778Y-10954747D02*
X3396254Y-10945223D01*
X3396254Y-10945223D02*
X3386731Y-10926176D01*
X3386731Y-10926176D02*
X3377207Y-10888080D01*
X3377207Y-10888080D02*
X3377207Y-10840461D01*
X3377207Y-10840461D02*
X3386731Y-10802366D01*
X3386731Y-10802366D02*
X3396254Y-10783319D01*
X3396254Y-10783319D02*
X3405778Y-10773795D01*
X3405778Y-10773795D02*
X3424826Y-10764271D01*
X3577207Y-10945223D02*
X3586731Y-10954747D01*
X3586731Y-10954747D02*
X3577207Y-10964271D01*
X3577207Y-10964271D02*
X3567683Y-10954747D01*
X3567683Y-10954747D02*
X3577207Y-10945223D01*
X3577207Y-10945223D02*
X3577207Y-10964271D01*
X3710540Y-10764271D02*
X3729588Y-10764271D01*
X3729588Y-10764271D02*
X3748635Y-10773795D01*
X3748635Y-10773795D02*
X3758159Y-10783319D01*
X3758159Y-10783319D02*
X3767683Y-10802366D01*
X3767683Y-10802366D02*
X3777207Y-10840461D01*
X3777207Y-10840461D02*
X3777207Y-10888080D01*
X3777207Y-10888080D02*
X3767683Y-10926176D01*
X3767683Y-10926176D02*
X3758159Y-10945223D01*
X3758159Y-10945223D02*
X3748635Y-10954747D01*
X3748635Y-10954747D02*
X3729588Y-10964271D01*
X3729588Y-10964271D02*
X3710540Y-10964271D01*
X3710540Y-10964271D02*
X3691493Y-10954747D01*
X3691493Y-10954747D02*
X3681969Y-10945223D01*
X3681969Y-10945223D02*
X3672445Y-10926176D01*
X3672445Y-10926176D02*
X3662921Y-10888080D01*
X3662921Y-10888080D02*
X3662921Y-10840461D01*
X3662921Y-10840461D02*
X3672445Y-10802366D01*
X3672445Y-10802366D02*
X3681969Y-10783319D01*
X3681969Y-10783319D02*
X3691493Y-10773795D01*
X3691493Y-10773795D02*
X3710540Y-10764271D01*
X3948635Y-10830938D02*
X3948635Y-10964271D01*
X3901016Y-10754747D02*
X3853397Y-10897604D01*
X3853397Y-10897604D02*
X3977207Y-10897604D01*
X4034350Y-10764271D02*
X4167683Y-10764271D01*
X4167683Y-10764271D02*
X4081969Y-10964271D01*
X4234350Y-10783319D02*
X4243874Y-10773795D01*
X4243874Y-10773795D02*
X4262921Y-10764271D01*
X4262921Y-10764271D02*
X4310540Y-10764271D01*
X4310540Y-10764271D02*
X4329588Y-10773795D01*
X4329588Y-10773795D02*
X4339112Y-10783319D01*
X4339112Y-10783319D02*
X4348636Y-10802366D01*
X4348636Y-10802366D02*
X4348636Y-10821414D01*
X4348636Y-10821414D02*
X4339112Y-10849985D01*
X4339112Y-10849985D02*
X4224826Y-10964271D01*
X4224826Y-10964271D02*
X4348636Y-10964271D01*
X4424826Y-10764271D02*
X4424826Y-10802366D01*
X4501017Y-10764271D02*
X4501017Y-10802366D01*
X4796255Y-11040461D02*
X4786731Y-11030938D01*
X4786731Y-11030938D02*
X4767683Y-11002366D01*
X4767683Y-11002366D02*
X4758159Y-10983319D01*
X4758159Y-10983319D02*
X4748636Y-10954747D01*
X4748636Y-10954747D02*
X4739112Y-10907128D01*
X4739112Y-10907128D02*
X4739112Y-10869033D01*
X4739112Y-10869033D02*
X4748636Y-10821414D01*
X4748636Y-10821414D02*
X4758159Y-10792842D01*
X4758159Y-10792842D02*
X4767683Y-10773795D01*
X4767683Y-10773795D02*
X4786731Y-10745223D01*
X4786731Y-10745223D02*
X4796255Y-10735699D01*
X4977207Y-10964271D02*
X4862921Y-10964271D01*
X4920064Y-10964271D02*
X4920064Y-10764271D01*
X4920064Y-10764271D02*
X4901017Y-10792842D01*
X4901017Y-10792842D02*
X4881969Y-10811890D01*
X4881969Y-10811890D02*
X4862921Y-10821414D01*
X5215302Y-10964271D02*
X5215302Y-10764271D01*
X5301017Y-10964271D02*
X5301017Y-10859509D01*
X5301017Y-10859509D02*
X5291493Y-10840461D01*
X5291493Y-10840461D02*
X5272445Y-10830938D01*
X5272445Y-10830938D02*
X5243874Y-10830938D01*
X5243874Y-10830938D02*
X5224826Y-10840461D01*
X5224826Y-10840461D02*
X5215302Y-10849985D01*
X5424826Y-10964271D02*
X5405779Y-10954747D01*
X5405779Y-10954747D02*
X5396255Y-10945223D01*
X5396255Y-10945223D02*
X5386731Y-10926176D01*
X5386731Y-10926176D02*
X5386731Y-10869033D01*
X5386731Y-10869033D02*
X5396255Y-10849985D01*
X5396255Y-10849985D02*
X5405779Y-10840461D01*
X5405779Y-10840461D02*
X5424826Y-10830938D01*
X5424826Y-10830938D02*
X5453398Y-10830938D01*
X5453398Y-10830938D02*
X5472445Y-10840461D01*
X5472445Y-10840461D02*
X5481969Y-10849985D01*
X5481969Y-10849985D02*
X5491493Y-10869033D01*
X5491493Y-10869033D02*
X5491493Y-10926176D01*
X5491493Y-10926176D02*
X5481969Y-10945223D01*
X5481969Y-10945223D02*
X5472445Y-10954747D01*
X5472445Y-10954747D02*
X5453398Y-10964271D01*
X5453398Y-10964271D02*
X5424826Y-10964271D01*
X5605778Y-10964271D02*
X5586731Y-10954747D01*
X5586731Y-10954747D02*
X5577207Y-10935699D01*
X5577207Y-10935699D02*
X5577207Y-10764271D01*
X5758159Y-10954747D02*
X5739112Y-10964271D01*
X5739112Y-10964271D02*
X5701017Y-10964271D01*
X5701017Y-10964271D02*
X5681969Y-10954747D01*
X5681969Y-10954747D02*
X5672445Y-10935699D01*
X5672445Y-10935699D02*
X5672445Y-10859509D01*
X5672445Y-10859509D02*
X5681969Y-10840461D01*
X5681969Y-10840461D02*
X5701017Y-10830938D01*
X5701017Y-10830938D02*
X5739112Y-10830938D01*
X5739112Y-10830938D02*
X5758159Y-10840461D01*
X5758159Y-10840461D02*
X5767683Y-10859509D01*
X5767683Y-10859509D02*
X5767683Y-10878557D01*
X5767683Y-10878557D02*
X5672445Y-10897604D01*
X5834350Y-11040461D02*
X5843874Y-11030938D01*
X5843874Y-11030938D02*
X5862921Y-11002366D01*
X5862921Y-11002366D02*
X5872445Y-10983319D01*
X5872445Y-10983319D02*
X5881969Y-10954747D01*
X5881969Y-10954747D02*
X5891493Y-10907128D01*
X5891493Y-10907128D02*
X5891493Y-10869033D01*
X5891493Y-10869033D02*
X5881969Y-10821414D01*
X5881969Y-10821414D02*
X5872445Y-10792842D01*
X5872445Y-10792842D02*
X5862921Y-10773795D01*
X5862921Y-10773795D02*
X5843874Y-10745223D01*
X5843874Y-10745223D02*
X5834350Y-10735699D01*
X6196255Y-11040461D02*
X6186731Y-11030938D01*
X6186731Y-11030938D02*
X6167683Y-11002366D01*
X6167683Y-11002366D02*
X6158159Y-10983319D01*
X6158159Y-10983319D02*
X6148636Y-10954747D01*
X6148636Y-10954747D02*
X6139112Y-10907128D01*
X6139112Y-10907128D02*
X6139112Y-10869033D01*
X6139112Y-10869033D02*
X6148636Y-10821414D01*
X6148636Y-10821414D02*
X6158159Y-10792842D01*
X6158159Y-10792842D02*
X6167683Y-10773795D01*
X6167683Y-10773795D02*
X6186731Y-10745223D01*
X6186731Y-10745223D02*
X6196255Y-10735699D01*
X6272445Y-10830938D02*
X6272445Y-10964271D01*
X6272445Y-10849985D02*
X6281969Y-10840461D01*
X6281969Y-10840461D02*
X6301017Y-10830938D01*
X6301017Y-10830938D02*
X6329588Y-10830938D01*
X6329588Y-10830938D02*
X6348636Y-10840461D01*
X6348636Y-10840461D02*
X6358159Y-10859509D01*
X6358159Y-10859509D02*
X6358159Y-10964271D01*
X6481969Y-10964271D02*
X6462921Y-10954747D01*
X6462921Y-10954747D02*
X6453398Y-10945223D01*
X6453398Y-10945223D02*
X6443874Y-10926176D01*
X6443874Y-10926176D02*
X6443874Y-10869033D01*
X6443874Y-10869033D02*
X6453398Y-10849985D01*
X6453398Y-10849985D02*
X6462921Y-10840461D01*
X6462921Y-10840461D02*
X6481969Y-10830938D01*
X6481969Y-10830938D02*
X6510540Y-10830938D01*
X6510540Y-10830938D02*
X6529588Y-10840461D01*
X6529588Y-10840461D02*
X6539112Y-10849985D01*
X6539112Y-10849985D02*
X6548636Y-10869033D01*
X6548636Y-10869033D02*
X6548636Y-10926176D01*
X6548636Y-10926176D02*
X6539112Y-10945223D01*
X6539112Y-10945223D02*
X6529588Y-10954747D01*
X6529588Y-10954747D02*
X6510540Y-10964271D01*
X6510540Y-10964271D02*
X6481969Y-10964271D01*
X6605779Y-10830938D02*
X6681969Y-10830938D01*
X6634350Y-10764271D02*
X6634350Y-10935699D01*
X6634350Y-10935699D02*
X6643874Y-10954747D01*
X6643874Y-10954747D02*
X6662921Y-10964271D01*
X6662921Y-10964271D02*
X6681969Y-10964271D01*
X6901017Y-10830938D02*
X6901017Y-11030938D01*
X6901017Y-10840461D02*
X6920064Y-10830938D01*
X6920064Y-10830938D02*
X6958160Y-10830938D01*
X6958160Y-10830938D02*
X6977207Y-10840461D01*
X6977207Y-10840461D02*
X6986731Y-10849985D01*
X6986731Y-10849985D02*
X6996255Y-10869033D01*
X6996255Y-10869033D02*
X6996255Y-10926176D01*
X6996255Y-10926176D02*
X6986731Y-10945223D01*
X6986731Y-10945223D02*
X6977207Y-10954747D01*
X6977207Y-10954747D02*
X6958160Y-10964271D01*
X6958160Y-10964271D02*
X6920064Y-10964271D01*
X6920064Y-10964271D02*
X6901017Y-10954747D01*
X7110540Y-10964271D02*
X7091493Y-10954747D01*
X7091493Y-10954747D02*
X7081969Y-10935699D01*
X7081969Y-10935699D02*
X7081969Y-10764271D01*
X7272445Y-10964271D02*
X7272445Y-10859509D01*
X7272445Y-10859509D02*
X7262921Y-10840461D01*
X7262921Y-10840461D02*
X7243874Y-10830938D01*
X7243874Y-10830938D02*
X7205779Y-10830938D01*
X7205779Y-10830938D02*
X7186731Y-10840461D01*
X7272445Y-10954747D02*
X7253398Y-10964271D01*
X7253398Y-10964271D02*
X7205779Y-10964271D01*
X7205779Y-10964271D02*
X7186731Y-10954747D01*
X7186731Y-10954747D02*
X7177207Y-10935699D01*
X7177207Y-10935699D02*
X7177207Y-10916652D01*
X7177207Y-10916652D02*
X7186731Y-10897604D01*
X7186731Y-10897604D02*
X7205779Y-10888080D01*
X7205779Y-10888080D02*
X7253398Y-10888080D01*
X7253398Y-10888080D02*
X7272445Y-10878557D01*
X7339112Y-10830938D02*
X7415302Y-10830938D01*
X7367683Y-10764271D02*
X7367683Y-10935699D01*
X7367683Y-10935699D02*
X7377207Y-10954747D01*
X7377207Y-10954747D02*
X7396255Y-10964271D01*
X7396255Y-10964271D02*
X7415302Y-10964271D01*
X7558160Y-10954747D02*
X7539112Y-10964271D01*
X7539112Y-10964271D02*
X7501017Y-10964271D01*
X7501017Y-10964271D02*
X7481969Y-10954747D01*
X7481969Y-10954747D02*
X7472445Y-10935699D01*
X7472445Y-10935699D02*
X7472445Y-10859509D01*
X7472445Y-10859509D02*
X7481969Y-10840461D01*
X7481969Y-10840461D02*
X7501017Y-10830938D01*
X7501017Y-10830938D02*
X7539112Y-10830938D01*
X7539112Y-10830938D02*
X7558160Y-10840461D01*
X7558160Y-10840461D02*
X7567683Y-10859509D01*
X7567683Y-10859509D02*
X7567683Y-10878557D01*
X7567683Y-10878557D02*
X7472445Y-10897604D01*
X7739112Y-10964271D02*
X7739112Y-10764271D01*
X7739112Y-10954747D02*
X7720064Y-10964271D01*
X7720064Y-10964271D02*
X7681969Y-10964271D01*
X7681969Y-10964271D02*
X7662921Y-10954747D01*
X7662921Y-10954747D02*
X7653398Y-10945223D01*
X7653398Y-10945223D02*
X7643874Y-10926176D01*
X7643874Y-10926176D02*
X7643874Y-10869033D01*
X7643874Y-10869033D02*
X7653398Y-10849985D01*
X7653398Y-10849985D02*
X7662921Y-10840461D01*
X7662921Y-10840461D02*
X7681969Y-10830938D01*
X7681969Y-10830938D02*
X7720064Y-10830938D01*
X7720064Y-10830938D02*
X7739112Y-10840461D01*
X7815302Y-11040461D02*
X7824826Y-11030938D01*
X7824826Y-11030938D02*
X7843874Y-11002366D01*
X7843874Y-11002366D02*
X7853398Y-10983319D01*
X7853398Y-10983319D02*
X7862921Y-10954747D01*
X7862921Y-10954747D02*
X7872445Y-10907128D01*
X7872445Y-10907128D02*
X7872445Y-10869033D01*
X7872445Y-10869033D02*
X7862921Y-10821414D01*
X7862921Y-10821414D02*
X7853398Y-10792842D01*
X7853398Y-10792842D02*
X7843874Y-10773795D01*
X7843874Y-10773795D02*
X7824826Y-10745223D01*
X7824826Y-10745223D02*
X7815302Y-10735699D01*
D13*
X1221192Y-11136787D02*
G75*
G03*
X1221192Y-11136787I-85090J0D01*
G01*
D11*
X1586730Y-11228271D02*
X1472445Y-11228271D01*
X1529588Y-11228271D02*
X1529588Y-11028271D01*
X1529588Y-11028271D02*
X1510540Y-11056842D01*
X1510540Y-11056842D02*
X1491492Y-11075890D01*
X1491492Y-11075890D02*
X1472445Y-11085414D01*
X1672445Y-11209223D02*
X1681969Y-11218747D01*
X1681969Y-11218747D02*
X1672445Y-11228271D01*
X1672445Y-11228271D02*
X1662921Y-11218747D01*
X1662921Y-11218747D02*
X1672445Y-11209223D01*
X1672445Y-11209223D02*
X1672445Y-11228271D01*
X1748635Y-11028271D02*
X1881969Y-11028271D01*
X1881969Y-11028271D02*
X1796254Y-11228271D01*
X1996254Y-11028271D02*
X2015302Y-11028271D01*
X2015302Y-11028271D02*
X2034350Y-11037795D01*
X2034350Y-11037795D02*
X2043873Y-11047319D01*
X2043873Y-11047319D02*
X2053397Y-11066366D01*
X2053397Y-11066366D02*
X2062921Y-11104461D01*
X2062921Y-11104461D02*
X2062921Y-11152080D01*
X2062921Y-11152080D02*
X2053397Y-11190176D01*
X2053397Y-11190176D02*
X2043873Y-11209223D01*
X2043873Y-11209223D02*
X2034350Y-11218747D01*
X2034350Y-11218747D02*
X2015302Y-11228271D01*
X2015302Y-11228271D02*
X1996254Y-11228271D01*
X1996254Y-11228271D02*
X1977207Y-11218747D01*
X1977207Y-11218747D02*
X1967683Y-11209223D01*
X1967683Y-11209223D02*
X1958159Y-11190176D01*
X1958159Y-11190176D02*
X1948635Y-11152080D01*
X1948635Y-11152080D02*
X1948635Y-11104461D01*
X1948635Y-11104461D02*
X1958159Y-11066366D01*
X1958159Y-11066366D02*
X1967683Y-11047319D01*
X1967683Y-11047319D02*
X1977207Y-11037795D01*
X1977207Y-11037795D02*
X1996254Y-11028271D01*
X2139112Y-11047319D02*
X2148635Y-11037795D01*
X2148635Y-11037795D02*
X2167683Y-11028271D01*
X2167683Y-11028271D02*
X2215302Y-11028271D01*
X2215302Y-11028271D02*
X2234350Y-11037795D01*
X2234350Y-11037795D02*
X2243873Y-11047319D01*
X2243873Y-11047319D02*
X2253397Y-11066366D01*
X2253397Y-11066366D02*
X2253397Y-11085414D01*
X2253397Y-11085414D02*
X2243873Y-11113985D01*
X2243873Y-11113985D02*
X2129588Y-11228271D01*
X2129588Y-11228271D02*
X2253397Y-11228271D01*
X2339112Y-11228271D02*
X2339112Y-11094938D01*
X2339112Y-11113985D02*
X2348635Y-11104461D01*
X2348635Y-11104461D02*
X2367683Y-11094938D01*
X2367683Y-11094938D02*
X2396254Y-11094938D01*
X2396254Y-11094938D02*
X2415302Y-11104461D01*
X2415302Y-11104461D02*
X2424826Y-11123509D01*
X2424826Y-11123509D02*
X2424826Y-11228271D01*
X2424826Y-11123509D02*
X2434350Y-11104461D01*
X2434350Y-11104461D02*
X2453397Y-11094938D01*
X2453397Y-11094938D02*
X2481969Y-11094938D01*
X2481969Y-11094938D02*
X2501016Y-11104461D01*
X2501016Y-11104461D02*
X2510540Y-11123509D01*
X2510540Y-11123509D02*
X2510540Y-11228271D01*
X2605778Y-11228271D02*
X2605778Y-11094938D01*
X2605778Y-11113985D02*
X2615302Y-11104461D01*
X2615302Y-11104461D02*
X2634350Y-11094938D01*
X2634350Y-11094938D02*
X2662921Y-11094938D01*
X2662921Y-11094938D02*
X2681969Y-11104461D01*
X2681969Y-11104461D02*
X2691493Y-11123509D01*
X2691493Y-11123509D02*
X2691493Y-11228271D01*
X2691493Y-11123509D02*
X2701016Y-11104461D01*
X2701016Y-11104461D02*
X2720064Y-11094938D01*
X2720064Y-11094938D02*
X2748635Y-11094938D01*
X2748635Y-11094938D02*
X2767683Y-11104461D01*
X2767683Y-11104461D02*
X2777207Y-11123509D01*
X2777207Y-11123509D02*
X2777207Y-11228271D01*
X3167683Y-11018747D02*
X2996254Y-11275890D01*
X3424826Y-11028271D02*
X3443874Y-11028271D01*
X3443874Y-11028271D02*
X3462921Y-11037795D01*
X3462921Y-11037795D02*
X3472445Y-11047319D01*
X3472445Y-11047319D02*
X3481969Y-11066366D01*
X3481969Y-11066366D02*
X3491493Y-11104461D01*
X3491493Y-11104461D02*
X3491493Y-11152080D01*
X3491493Y-11152080D02*
X3481969Y-11190176D01*
X3481969Y-11190176D02*
X3472445Y-11209223D01*
X3472445Y-11209223D02*
X3462921Y-11218747D01*
X3462921Y-11218747D02*
X3443874Y-11228271D01*
X3443874Y-11228271D02*
X3424826Y-11228271D01*
X3424826Y-11228271D02*
X3405778Y-11218747D01*
X3405778Y-11218747D02*
X3396254Y-11209223D01*
X3396254Y-11209223D02*
X3386731Y-11190176D01*
X3386731Y-11190176D02*
X3377207Y-11152080D01*
X3377207Y-11152080D02*
X3377207Y-11104461D01*
X3377207Y-11104461D02*
X3386731Y-11066366D01*
X3386731Y-11066366D02*
X3396254Y-11047319D01*
X3396254Y-11047319D02*
X3405778Y-11037795D01*
X3405778Y-11037795D02*
X3424826Y-11028271D01*
X3577207Y-11209223D02*
X3586731Y-11218747D01*
X3586731Y-11218747D02*
X3577207Y-11228271D01*
X3577207Y-11228271D02*
X3567683Y-11218747D01*
X3567683Y-11218747D02*
X3577207Y-11209223D01*
X3577207Y-11209223D02*
X3577207Y-11228271D01*
X3710540Y-11028271D02*
X3729588Y-11028271D01*
X3729588Y-11028271D02*
X3748635Y-11037795D01*
X3748635Y-11037795D02*
X3758159Y-11047319D01*
X3758159Y-11047319D02*
X3767683Y-11066366D01*
X3767683Y-11066366D02*
X3777207Y-11104461D01*
X3777207Y-11104461D02*
X3777207Y-11152080D01*
X3777207Y-11152080D02*
X3767683Y-11190176D01*
X3767683Y-11190176D02*
X3758159Y-11209223D01*
X3758159Y-11209223D02*
X3748635Y-11218747D01*
X3748635Y-11218747D02*
X3729588Y-11228271D01*
X3729588Y-11228271D02*
X3710540Y-11228271D01*
X3710540Y-11228271D02*
X3691493Y-11218747D01*
X3691493Y-11218747D02*
X3681969Y-11209223D01*
X3681969Y-11209223D02*
X3672445Y-11190176D01*
X3672445Y-11190176D02*
X3662921Y-11152080D01*
X3662921Y-11152080D02*
X3662921Y-11104461D01*
X3662921Y-11104461D02*
X3672445Y-11066366D01*
X3672445Y-11066366D02*
X3681969Y-11047319D01*
X3681969Y-11047319D02*
X3691493Y-11037795D01*
X3691493Y-11037795D02*
X3710540Y-11028271D01*
X3948635Y-11028271D02*
X3910540Y-11028271D01*
X3910540Y-11028271D02*
X3891493Y-11037795D01*
X3891493Y-11037795D02*
X3881969Y-11047319D01*
X3881969Y-11047319D02*
X3862921Y-11075890D01*
X3862921Y-11075890D02*
X3853397Y-11113985D01*
X3853397Y-11113985D02*
X3853397Y-11190176D01*
X3853397Y-11190176D02*
X3862921Y-11209223D01*
X3862921Y-11209223D02*
X3872445Y-11218747D01*
X3872445Y-11218747D02*
X3891493Y-11228271D01*
X3891493Y-11228271D02*
X3929588Y-11228271D01*
X3929588Y-11228271D02*
X3948635Y-11218747D01*
X3948635Y-11218747D02*
X3958159Y-11209223D01*
X3958159Y-11209223D02*
X3967683Y-11190176D01*
X3967683Y-11190176D02*
X3967683Y-11142557D01*
X3967683Y-11142557D02*
X3958159Y-11123509D01*
X3958159Y-11123509D02*
X3948635Y-11113985D01*
X3948635Y-11113985D02*
X3929588Y-11104461D01*
X3929588Y-11104461D02*
X3891493Y-11104461D01*
X3891493Y-11104461D02*
X3872445Y-11113985D01*
X3872445Y-11113985D02*
X3862921Y-11123509D01*
X3862921Y-11123509D02*
X3853397Y-11142557D01*
X4034350Y-11028271D02*
X4167683Y-11028271D01*
X4167683Y-11028271D02*
X4081969Y-11228271D01*
X4281969Y-11028271D02*
X4301017Y-11028271D01*
X4301017Y-11028271D02*
X4320064Y-11037795D01*
X4320064Y-11037795D02*
X4329588Y-11047319D01*
X4329588Y-11047319D02*
X4339112Y-11066366D01*
X4339112Y-11066366D02*
X4348636Y-11104461D01*
X4348636Y-11104461D02*
X4348636Y-11152080D01*
X4348636Y-11152080D02*
X4339112Y-11190176D01*
X4339112Y-11190176D02*
X4329588Y-11209223D01*
X4329588Y-11209223D02*
X4320064Y-11218747D01*
X4320064Y-11218747D02*
X4301017Y-11228271D01*
X4301017Y-11228271D02*
X4281969Y-11228271D01*
X4281969Y-11228271D02*
X4262921Y-11218747D01*
X4262921Y-11218747D02*
X4253397Y-11209223D01*
X4253397Y-11209223D02*
X4243874Y-11190176D01*
X4243874Y-11190176D02*
X4234350Y-11152080D01*
X4234350Y-11152080D02*
X4234350Y-11104461D01*
X4234350Y-11104461D02*
X4243874Y-11066366D01*
X4243874Y-11066366D02*
X4253397Y-11047319D01*
X4253397Y-11047319D02*
X4262921Y-11037795D01*
X4262921Y-11037795D02*
X4281969Y-11028271D01*
X4424826Y-11028271D02*
X4424826Y-11066366D01*
X4501017Y-11028271D02*
X4501017Y-11066366D01*
X4796255Y-11304461D02*
X4786731Y-11294937D01*
X4786731Y-11294937D02*
X4767683Y-11266366D01*
X4767683Y-11266366D02*
X4758159Y-11247318D01*
X4758159Y-11247318D02*
X4748636Y-11218747D01*
X4748636Y-11218747D02*
X4739112Y-11171128D01*
X4739112Y-11171128D02*
X4739112Y-11133033D01*
X4739112Y-11133033D02*
X4748636Y-11085414D01*
X4748636Y-11085414D02*
X4758159Y-11056842D01*
X4758159Y-11056842D02*
X4767683Y-11037795D01*
X4767683Y-11037795D02*
X4786731Y-11009223D01*
X4786731Y-11009223D02*
X4796255Y-10999699D01*
X4853398Y-11028271D02*
X4977207Y-11028271D01*
X4977207Y-11028271D02*
X4910540Y-11104461D01*
X4910540Y-11104461D02*
X4939112Y-11104461D01*
X4939112Y-11104461D02*
X4958159Y-11113985D01*
X4958159Y-11113985D02*
X4967683Y-11123509D01*
X4967683Y-11123509D02*
X4977207Y-11142557D01*
X4977207Y-11142557D02*
X4977207Y-11190176D01*
X4977207Y-11190176D02*
X4967683Y-11209223D01*
X4967683Y-11209223D02*
X4958159Y-11218747D01*
X4958159Y-11218747D02*
X4939112Y-11228271D01*
X4939112Y-11228271D02*
X4881969Y-11228271D01*
X4881969Y-11228271D02*
X4862921Y-11218747D01*
X4862921Y-11218747D02*
X4853398Y-11209223D01*
X5148636Y-11094938D02*
X5148636Y-11228271D01*
X5101017Y-11018747D02*
X5053398Y-11161604D01*
X5053398Y-11161604D02*
X5177207Y-11161604D01*
X5405779Y-11228271D02*
X5405779Y-11028271D01*
X5491493Y-11228271D02*
X5491493Y-11123509D01*
X5491493Y-11123509D02*
X5481969Y-11104461D01*
X5481969Y-11104461D02*
X5462921Y-11094938D01*
X5462921Y-11094938D02*
X5434350Y-11094938D01*
X5434350Y-11094938D02*
X5415302Y-11104461D01*
X5415302Y-11104461D02*
X5405779Y-11113985D01*
X5615302Y-11228271D02*
X5596255Y-11218747D01*
X5596255Y-11218747D02*
X5586731Y-11209223D01*
X5586731Y-11209223D02*
X5577207Y-11190176D01*
X5577207Y-11190176D02*
X5577207Y-11133033D01*
X5577207Y-11133033D02*
X5586731Y-11113985D01*
X5586731Y-11113985D02*
X5596255Y-11104461D01*
X5596255Y-11104461D02*
X5615302Y-11094938D01*
X5615302Y-11094938D02*
X5643874Y-11094938D01*
X5643874Y-11094938D02*
X5662921Y-11104461D01*
X5662921Y-11104461D02*
X5672445Y-11113985D01*
X5672445Y-11113985D02*
X5681969Y-11133033D01*
X5681969Y-11133033D02*
X5681969Y-11190176D01*
X5681969Y-11190176D02*
X5672445Y-11209223D01*
X5672445Y-11209223D02*
X5662921Y-11218747D01*
X5662921Y-11218747D02*
X5643874Y-11228271D01*
X5643874Y-11228271D02*
X5615302Y-11228271D01*
X5796255Y-11228271D02*
X5777207Y-11218747D01*
X5777207Y-11218747D02*
X5767683Y-11199699D01*
X5767683Y-11199699D02*
X5767683Y-11028271D01*
X5948636Y-11218747D02*
X5929588Y-11228271D01*
X5929588Y-11228271D02*
X5891493Y-11228271D01*
X5891493Y-11228271D02*
X5872445Y-11218747D01*
X5872445Y-11218747D02*
X5862921Y-11199699D01*
X5862921Y-11199699D02*
X5862921Y-11123509D01*
X5862921Y-11123509D02*
X5872445Y-11104461D01*
X5872445Y-11104461D02*
X5891493Y-11094938D01*
X5891493Y-11094938D02*
X5929588Y-11094938D01*
X5929588Y-11094938D02*
X5948636Y-11104461D01*
X5948636Y-11104461D02*
X5958159Y-11123509D01*
X5958159Y-11123509D02*
X5958159Y-11142557D01*
X5958159Y-11142557D02*
X5862921Y-11161604D01*
X6034350Y-11218747D02*
X6053398Y-11228271D01*
X6053398Y-11228271D02*
X6091493Y-11228271D01*
X6091493Y-11228271D02*
X6110540Y-11218747D01*
X6110540Y-11218747D02*
X6120064Y-11199699D01*
X6120064Y-11199699D02*
X6120064Y-11190176D01*
X6120064Y-11190176D02*
X6110540Y-11171128D01*
X6110540Y-11171128D02*
X6091493Y-11161604D01*
X6091493Y-11161604D02*
X6062921Y-11161604D01*
X6062921Y-11161604D02*
X6043874Y-11152080D01*
X6043874Y-11152080D02*
X6034350Y-11133033D01*
X6034350Y-11133033D02*
X6034350Y-11123509D01*
X6034350Y-11123509D02*
X6043874Y-11104461D01*
X6043874Y-11104461D02*
X6062921Y-11094938D01*
X6062921Y-11094938D02*
X6091493Y-11094938D01*
X6091493Y-11094938D02*
X6110540Y-11104461D01*
X6186731Y-11304461D02*
X6196255Y-11294937D01*
X6196255Y-11294937D02*
X6215302Y-11266366D01*
X6215302Y-11266366D02*
X6224826Y-11247318D01*
X6224826Y-11247318D02*
X6234350Y-11218747D01*
X6234350Y-11218747D02*
X6243874Y-11171128D01*
X6243874Y-11171128D02*
X6243874Y-11133033D01*
X6243874Y-11133033D02*
X6234350Y-11085414D01*
X6234350Y-11085414D02*
X6224826Y-11056842D01*
X6224826Y-11056842D02*
X6215302Y-11037795D01*
X6215302Y-11037795D02*
X6196255Y-11009223D01*
X6196255Y-11009223D02*
X6186731Y-10999699D01*
X6548636Y-11304461D02*
X6539112Y-11294937D01*
X6539112Y-11294937D02*
X6520064Y-11266366D01*
X6520064Y-11266366D02*
X6510540Y-11247318D01*
X6510540Y-11247318D02*
X6501017Y-11218747D01*
X6501017Y-11218747D02*
X6491493Y-11171128D01*
X6491493Y-11171128D02*
X6491493Y-11133033D01*
X6491493Y-11133033D02*
X6501017Y-11085414D01*
X6501017Y-11085414D02*
X6510540Y-11056842D01*
X6510540Y-11056842D02*
X6520064Y-11037795D01*
X6520064Y-11037795D02*
X6539112Y-11009223D01*
X6539112Y-11009223D02*
X6548636Y-10999699D01*
X6624826Y-11094938D02*
X6624826Y-11228271D01*
X6624826Y-11113985D02*
X6634350Y-11104461D01*
X6634350Y-11104461D02*
X6653398Y-11094938D01*
X6653398Y-11094938D02*
X6681969Y-11094938D01*
X6681969Y-11094938D02*
X6701017Y-11104461D01*
X6701017Y-11104461D02*
X6710540Y-11123509D01*
X6710540Y-11123509D02*
X6710540Y-11228271D01*
X6834350Y-11228271D02*
X6815302Y-11218747D01*
X6815302Y-11218747D02*
X6805779Y-11209223D01*
X6805779Y-11209223D02*
X6796255Y-11190176D01*
X6796255Y-11190176D02*
X6796255Y-11133033D01*
X6796255Y-11133033D02*
X6805779Y-11113985D01*
X6805779Y-11113985D02*
X6815302Y-11104461D01*
X6815302Y-11104461D02*
X6834350Y-11094938D01*
X6834350Y-11094938D02*
X6862921Y-11094938D01*
X6862921Y-11094938D02*
X6881969Y-11104461D01*
X6881969Y-11104461D02*
X6891493Y-11113985D01*
X6891493Y-11113985D02*
X6901017Y-11133033D01*
X6901017Y-11133033D02*
X6901017Y-11190176D01*
X6901017Y-11190176D02*
X6891493Y-11209223D01*
X6891493Y-11209223D02*
X6881969Y-11218747D01*
X6881969Y-11218747D02*
X6862921Y-11228271D01*
X6862921Y-11228271D02*
X6834350Y-11228271D01*
X6958160Y-11094938D02*
X7034350Y-11094938D01*
X6986731Y-11028271D02*
X6986731Y-11199699D01*
X6986731Y-11199699D02*
X6996255Y-11218747D01*
X6996255Y-11218747D02*
X7015302Y-11228271D01*
X7015302Y-11228271D02*
X7034350Y-11228271D01*
X7253398Y-11094938D02*
X7253398Y-11294937D01*
X7253398Y-11104461D02*
X7272445Y-11094938D01*
X7272445Y-11094938D02*
X7310541Y-11094938D01*
X7310541Y-11094938D02*
X7329588Y-11104461D01*
X7329588Y-11104461D02*
X7339112Y-11113985D01*
X7339112Y-11113985D02*
X7348636Y-11133033D01*
X7348636Y-11133033D02*
X7348636Y-11190176D01*
X7348636Y-11190176D02*
X7339112Y-11209223D01*
X7339112Y-11209223D02*
X7329588Y-11218747D01*
X7329588Y-11218747D02*
X7310541Y-11228271D01*
X7310541Y-11228271D02*
X7272445Y-11228271D01*
X7272445Y-11228271D02*
X7253398Y-11218747D01*
X7462921Y-11228271D02*
X7443874Y-11218747D01*
X7443874Y-11218747D02*
X7434350Y-11199699D01*
X7434350Y-11199699D02*
X7434350Y-11028271D01*
X7624826Y-11228271D02*
X7624826Y-11123509D01*
X7624826Y-11123509D02*
X7615302Y-11104461D01*
X7615302Y-11104461D02*
X7596255Y-11094938D01*
X7596255Y-11094938D02*
X7558160Y-11094938D01*
X7558160Y-11094938D02*
X7539112Y-11104461D01*
X7624826Y-11218747D02*
X7605779Y-11228271D01*
X7605779Y-11228271D02*
X7558160Y-11228271D01*
X7558160Y-11228271D02*
X7539112Y-11218747D01*
X7539112Y-11218747D02*
X7529588Y-11199699D01*
X7529588Y-11199699D02*
X7529588Y-11180652D01*
X7529588Y-11180652D02*
X7539112Y-11161604D01*
X7539112Y-11161604D02*
X7558160Y-11152080D01*
X7558160Y-11152080D02*
X7605779Y-11152080D01*
X7605779Y-11152080D02*
X7624826Y-11142557D01*
X7691493Y-11094938D02*
X7767683Y-11094938D01*
X7720064Y-11028271D02*
X7720064Y-11199699D01*
X7720064Y-11199699D02*
X7729588Y-11218747D01*
X7729588Y-11218747D02*
X7748636Y-11228271D01*
X7748636Y-11228271D02*
X7767683Y-11228271D01*
X7910541Y-11218747D02*
X7891493Y-11228271D01*
X7891493Y-11228271D02*
X7853398Y-11228271D01*
X7853398Y-11228271D02*
X7834350Y-11218747D01*
X7834350Y-11218747D02*
X7824826Y-11199699D01*
X7824826Y-11199699D02*
X7824826Y-11123509D01*
X7824826Y-11123509D02*
X7834350Y-11104461D01*
X7834350Y-11104461D02*
X7853398Y-11094938D01*
X7853398Y-11094938D02*
X7891493Y-11094938D01*
X7891493Y-11094938D02*
X7910541Y-11104461D01*
X7910541Y-11104461D02*
X7920064Y-11123509D01*
X7920064Y-11123509D02*
X7920064Y-11142557D01*
X7920064Y-11142557D02*
X7824826Y-11161604D01*
X8091493Y-11228271D02*
X8091493Y-11028271D01*
X8091493Y-11218747D02*
X8072445Y-11228271D01*
X8072445Y-11228271D02*
X8034350Y-11228271D01*
X8034350Y-11228271D02*
X8015302Y-11218747D01*
X8015302Y-11218747D02*
X8005779Y-11209223D01*
X8005779Y-11209223D02*
X7996255Y-11190176D01*
X7996255Y-11190176D02*
X7996255Y-11133033D01*
X7996255Y-11133033D02*
X8005779Y-11113985D01*
X8005779Y-11113985D02*
X8015302Y-11104461D01*
X8015302Y-11104461D02*
X8034350Y-11094938D01*
X8034350Y-11094938D02*
X8072445Y-11094938D01*
X8072445Y-11094938D02*
X8091493Y-11104461D01*
X8167683Y-11304461D02*
X8177207Y-11294937D01*
X8177207Y-11294937D02*
X8196255Y-11266366D01*
X8196255Y-11266366D02*
X8205779Y-11247318D01*
X8205779Y-11247318D02*
X8215302Y-11218747D01*
X8215302Y-11218747D02*
X8224826Y-11171128D01*
X8224826Y-11171128D02*
X8224826Y-11133033D01*
X8224826Y-11133033D02*
X8215302Y-11085414D01*
X8215302Y-11085414D02*
X8205779Y-11056842D01*
X8205779Y-11056842D02*
X8196255Y-11037795D01*
X8196255Y-11037795D02*
X8177207Y-11009223D01*
X8177207Y-11009223D02*
X8167683Y-10999699D01*
X1121192Y-11326967D02*
X1121192Y-11526967D01*
X1021192Y-11426967D02*
X1221192Y-11426967D01*
X1462921Y-11318451D02*
X1586730Y-11318451D01*
X1586730Y-11318451D02*
X1520064Y-11394641D01*
X1520064Y-11394641D02*
X1548635Y-11394641D01*
X1548635Y-11394641D02*
X1567683Y-11404165D01*
X1567683Y-11404165D02*
X1577207Y-11413689D01*
X1577207Y-11413689D02*
X1586730Y-11432737D01*
X1586730Y-11432737D02*
X1586730Y-11480356D01*
X1586730Y-11480356D02*
X1577207Y-11499403D01*
X1577207Y-11499403D02*
X1567683Y-11508927D01*
X1567683Y-11508927D02*
X1548635Y-11518451D01*
X1548635Y-11518451D02*
X1491492Y-11518451D01*
X1491492Y-11518451D02*
X1472445Y-11508927D01*
X1472445Y-11508927D02*
X1462921Y-11499403D01*
X1672445Y-11499403D02*
X1681969Y-11508927D01*
X1681969Y-11508927D02*
X1672445Y-11518451D01*
X1672445Y-11518451D02*
X1662921Y-11508927D01*
X1662921Y-11508927D02*
X1672445Y-11499403D01*
X1672445Y-11499403D02*
X1672445Y-11518451D01*
X1805778Y-11318451D02*
X1824826Y-11318451D01*
X1824826Y-11318451D02*
X1843873Y-11327975D01*
X1843873Y-11327975D02*
X1853397Y-11337498D01*
X1853397Y-11337498D02*
X1862921Y-11356546D01*
X1862921Y-11356546D02*
X1872445Y-11394641D01*
X1872445Y-11394641D02*
X1872445Y-11442260D01*
X1872445Y-11442260D02*
X1862921Y-11480356D01*
X1862921Y-11480356D02*
X1853397Y-11499403D01*
X1853397Y-11499403D02*
X1843873Y-11508927D01*
X1843873Y-11508927D02*
X1824826Y-11518451D01*
X1824826Y-11518451D02*
X1805778Y-11518451D01*
X1805778Y-11518451D02*
X1786730Y-11508927D01*
X1786730Y-11508927D02*
X1777207Y-11499403D01*
X1777207Y-11499403D02*
X1767683Y-11480356D01*
X1767683Y-11480356D02*
X1758159Y-11442260D01*
X1758159Y-11442260D02*
X1758159Y-11394641D01*
X1758159Y-11394641D02*
X1767683Y-11356546D01*
X1767683Y-11356546D02*
X1777207Y-11337498D01*
X1777207Y-11337498D02*
X1786730Y-11327975D01*
X1786730Y-11327975D02*
X1805778Y-11318451D01*
X1996254Y-11318451D02*
X2015302Y-11318451D01*
X2015302Y-11318451D02*
X2034350Y-11327975D01*
X2034350Y-11327975D02*
X2043873Y-11337498D01*
X2043873Y-11337498D02*
X2053397Y-11356546D01*
X2053397Y-11356546D02*
X2062921Y-11394641D01*
X2062921Y-11394641D02*
X2062921Y-11442260D01*
X2062921Y-11442260D02*
X2053397Y-11480356D01*
X2053397Y-11480356D02*
X2043873Y-11499403D01*
X2043873Y-11499403D02*
X2034350Y-11508927D01*
X2034350Y-11508927D02*
X2015302Y-11518451D01*
X2015302Y-11518451D02*
X1996254Y-11518451D01*
X1996254Y-11518451D02*
X1977207Y-11508927D01*
X1977207Y-11508927D02*
X1967683Y-11499403D01*
X1967683Y-11499403D02*
X1958159Y-11480356D01*
X1958159Y-11480356D02*
X1948635Y-11442260D01*
X1948635Y-11442260D02*
X1948635Y-11394641D01*
X1948635Y-11394641D02*
X1958159Y-11356546D01*
X1958159Y-11356546D02*
X1967683Y-11337498D01*
X1967683Y-11337498D02*
X1977207Y-11327975D01*
X1977207Y-11327975D02*
X1996254Y-11318451D01*
X2186731Y-11318451D02*
X2205778Y-11318451D01*
X2205778Y-11318451D02*
X2224826Y-11327975D01*
X2224826Y-11327975D02*
X2234350Y-11337498D01*
X2234350Y-11337498D02*
X2243873Y-11356546D01*
X2243873Y-11356546D02*
X2253397Y-11394641D01*
X2253397Y-11394641D02*
X2253397Y-11442260D01*
X2253397Y-11442260D02*
X2243873Y-11480356D01*
X2243873Y-11480356D02*
X2234350Y-11499403D01*
X2234350Y-11499403D02*
X2224826Y-11508927D01*
X2224826Y-11508927D02*
X2205778Y-11518451D01*
X2205778Y-11518451D02*
X2186731Y-11518451D01*
X2186731Y-11518451D02*
X2167683Y-11508927D01*
X2167683Y-11508927D02*
X2158159Y-11499403D01*
X2158159Y-11499403D02*
X2148635Y-11480356D01*
X2148635Y-11480356D02*
X2139112Y-11442260D01*
X2139112Y-11442260D02*
X2139112Y-11394641D01*
X2139112Y-11394641D02*
X2148635Y-11356546D01*
X2148635Y-11356546D02*
X2158159Y-11337498D01*
X2158159Y-11337498D02*
X2167683Y-11327975D01*
X2167683Y-11327975D02*
X2186731Y-11318451D01*
X2339112Y-11518451D02*
X2339112Y-11385117D01*
X2339112Y-11404165D02*
X2348635Y-11394641D01*
X2348635Y-11394641D02*
X2367683Y-11385117D01*
X2367683Y-11385117D02*
X2396254Y-11385117D01*
X2396254Y-11385117D02*
X2415302Y-11394641D01*
X2415302Y-11394641D02*
X2424826Y-11413689D01*
X2424826Y-11413689D02*
X2424826Y-11518451D01*
X2424826Y-11413689D02*
X2434350Y-11394641D01*
X2434350Y-11394641D02*
X2453397Y-11385117D01*
X2453397Y-11385117D02*
X2481969Y-11385117D01*
X2481969Y-11385117D02*
X2501016Y-11394641D01*
X2501016Y-11394641D02*
X2510540Y-11413689D01*
X2510540Y-11413689D02*
X2510540Y-11518451D01*
X2605778Y-11518451D02*
X2605778Y-11385117D01*
X2605778Y-11404165D02*
X2615302Y-11394641D01*
X2615302Y-11394641D02*
X2634350Y-11385117D01*
X2634350Y-11385117D02*
X2662921Y-11385117D01*
X2662921Y-11385117D02*
X2681969Y-11394641D01*
X2681969Y-11394641D02*
X2691493Y-11413689D01*
X2691493Y-11413689D02*
X2691493Y-11518451D01*
X2691493Y-11413689D02*
X2701016Y-11394641D01*
X2701016Y-11394641D02*
X2720064Y-11385117D01*
X2720064Y-11385117D02*
X2748635Y-11385117D01*
X2748635Y-11385117D02*
X2767683Y-11394641D01*
X2767683Y-11394641D02*
X2777207Y-11413689D01*
X2777207Y-11413689D02*
X2777207Y-11518451D01*
X3167683Y-11308927D02*
X2996254Y-11566070D01*
X3424826Y-11318451D02*
X3443874Y-11318451D01*
X3443874Y-11318451D02*
X3462921Y-11327975D01*
X3462921Y-11327975D02*
X3472445Y-11337498D01*
X3472445Y-11337498D02*
X3481969Y-11356546D01*
X3481969Y-11356546D02*
X3491493Y-11394641D01*
X3491493Y-11394641D02*
X3491493Y-11442260D01*
X3491493Y-11442260D02*
X3481969Y-11480356D01*
X3481969Y-11480356D02*
X3472445Y-11499403D01*
X3472445Y-11499403D02*
X3462921Y-11508927D01*
X3462921Y-11508927D02*
X3443874Y-11518451D01*
X3443874Y-11518451D02*
X3424826Y-11518451D01*
X3424826Y-11518451D02*
X3405778Y-11508927D01*
X3405778Y-11508927D02*
X3396254Y-11499403D01*
X3396254Y-11499403D02*
X3386731Y-11480356D01*
X3386731Y-11480356D02*
X3377207Y-11442260D01*
X3377207Y-11442260D02*
X3377207Y-11394641D01*
X3377207Y-11394641D02*
X3386731Y-11356546D01*
X3386731Y-11356546D02*
X3396254Y-11337498D01*
X3396254Y-11337498D02*
X3405778Y-11327975D01*
X3405778Y-11327975D02*
X3424826Y-11318451D01*
X3577207Y-11499403D02*
X3586731Y-11508927D01*
X3586731Y-11508927D02*
X3577207Y-11518451D01*
X3577207Y-11518451D02*
X3567683Y-11508927D01*
X3567683Y-11508927D02*
X3577207Y-11499403D01*
X3577207Y-11499403D02*
X3577207Y-11518451D01*
X3777207Y-11518451D02*
X3662921Y-11518451D01*
X3720064Y-11518451D02*
X3720064Y-11318451D01*
X3720064Y-11318451D02*
X3701016Y-11347022D01*
X3701016Y-11347022D02*
X3681969Y-11366070D01*
X3681969Y-11366070D02*
X3662921Y-11375594D01*
X3967683Y-11518451D02*
X3853397Y-11518451D01*
X3910540Y-11518451D02*
X3910540Y-11318451D01*
X3910540Y-11318451D02*
X3891493Y-11347022D01*
X3891493Y-11347022D02*
X3872445Y-11366070D01*
X3872445Y-11366070D02*
X3853397Y-11375594D01*
X4081969Y-11404165D02*
X4062921Y-11394641D01*
X4062921Y-11394641D02*
X4053397Y-11385117D01*
X4053397Y-11385117D02*
X4043874Y-11366070D01*
X4043874Y-11366070D02*
X4043874Y-11356546D01*
X4043874Y-11356546D02*
X4053397Y-11337498D01*
X4053397Y-11337498D02*
X4062921Y-11327975D01*
X4062921Y-11327975D02*
X4081969Y-11318451D01*
X4081969Y-11318451D02*
X4120064Y-11318451D01*
X4120064Y-11318451D02*
X4139112Y-11327975D01*
X4139112Y-11327975D02*
X4148635Y-11337498D01*
X4148635Y-11337498D02*
X4158159Y-11356546D01*
X4158159Y-11356546D02*
X4158159Y-11366070D01*
X4158159Y-11366070D02*
X4148635Y-11385117D01*
X4148635Y-11385117D02*
X4139112Y-11394641D01*
X4139112Y-11394641D02*
X4120064Y-11404165D01*
X4120064Y-11404165D02*
X4081969Y-11404165D01*
X4081969Y-11404165D02*
X4062921Y-11413689D01*
X4062921Y-11413689D02*
X4053397Y-11423213D01*
X4053397Y-11423213D02*
X4043874Y-11442260D01*
X4043874Y-11442260D02*
X4043874Y-11480356D01*
X4043874Y-11480356D02*
X4053397Y-11499403D01*
X4053397Y-11499403D02*
X4062921Y-11508927D01*
X4062921Y-11508927D02*
X4081969Y-11518451D01*
X4081969Y-11518451D02*
X4120064Y-11518451D01*
X4120064Y-11518451D02*
X4139112Y-11508927D01*
X4139112Y-11508927D02*
X4148635Y-11499403D01*
X4148635Y-11499403D02*
X4158159Y-11480356D01*
X4158159Y-11480356D02*
X4158159Y-11442260D01*
X4158159Y-11442260D02*
X4148635Y-11423213D01*
X4148635Y-11423213D02*
X4139112Y-11413689D01*
X4139112Y-11413689D02*
X4120064Y-11404165D01*
X4348636Y-11518451D02*
X4234350Y-11518451D01*
X4291493Y-11518451D02*
X4291493Y-11318451D01*
X4291493Y-11318451D02*
X4272445Y-11347022D01*
X4272445Y-11347022D02*
X4253397Y-11366070D01*
X4253397Y-11366070D02*
X4234350Y-11375594D01*
X4424826Y-11318451D02*
X4424826Y-11356546D01*
X4501017Y-11318451D02*
X4501017Y-11356546D01*
X4796255Y-11594641D02*
X4786731Y-11585117D01*
X4786731Y-11585117D02*
X4767683Y-11556546D01*
X4767683Y-11556546D02*
X4758159Y-11537498D01*
X4758159Y-11537498D02*
X4748636Y-11508927D01*
X4748636Y-11508927D02*
X4739112Y-11461308D01*
X4739112Y-11461308D02*
X4739112Y-11423213D01*
X4739112Y-11423213D02*
X4748636Y-11375594D01*
X4748636Y-11375594D02*
X4758159Y-11347022D01*
X4758159Y-11347022D02*
X4767683Y-11327975D01*
X4767683Y-11327975D02*
X4786731Y-11299403D01*
X4786731Y-11299403D02*
X4796255Y-11289879D01*
X4967683Y-11318451D02*
X4872445Y-11318451D01*
X4872445Y-11318451D02*
X4862921Y-11413689D01*
X4862921Y-11413689D02*
X4872445Y-11404165D01*
X4872445Y-11404165D02*
X4891493Y-11394641D01*
X4891493Y-11394641D02*
X4939112Y-11394641D01*
X4939112Y-11394641D02*
X4958159Y-11404165D01*
X4958159Y-11404165D02*
X4967683Y-11413689D01*
X4967683Y-11413689D02*
X4977207Y-11432737D01*
X4977207Y-11432737D02*
X4977207Y-11480356D01*
X4977207Y-11480356D02*
X4967683Y-11499403D01*
X4967683Y-11499403D02*
X4958159Y-11508927D01*
X4958159Y-11508927D02*
X4939112Y-11518451D01*
X4939112Y-11518451D02*
X4891493Y-11518451D01*
X4891493Y-11518451D02*
X4872445Y-11508927D01*
X4872445Y-11508927D02*
X4862921Y-11499403D01*
X5167683Y-11518451D02*
X5053398Y-11518451D01*
X5110540Y-11518451D02*
X5110540Y-11318451D01*
X5110540Y-11318451D02*
X5091493Y-11347022D01*
X5091493Y-11347022D02*
X5072445Y-11366070D01*
X5072445Y-11366070D02*
X5053398Y-11375594D01*
X5405779Y-11518451D02*
X5405779Y-11318451D01*
X5491493Y-11518451D02*
X5491493Y-11413689D01*
X5491493Y-11413689D02*
X5481969Y-11394641D01*
X5481969Y-11394641D02*
X5462921Y-11385117D01*
X5462921Y-11385117D02*
X5434350Y-11385117D01*
X5434350Y-11385117D02*
X5415302Y-11394641D01*
X5415302Y-11394641D02*
X5405779Y-11404165D01*
X5615302Y-11518451D02*
X5596255Y-11508927D01*
X5596255Y-11508927D02*
X5586731Y-11499403D01*
X5586731Y-11499403D02*
X5577207Y-11480356D01*
X5577207Y-11480356D02*
X5577207Y-11423213D01*
X5577207Y-11423213D02*
X5586731Y-11404165D01*
X5586731Y-11404165D02*
X5596255Y-11394641D01*
X5596255Y-11394641D02*
X5615302Y-11385117D01*
X5615302Y-11385117D02*
X5643874Y-11385117D01*
X5643874Y-11385117D02*
X5662921Y-11394641D01*
X5662921Y-11394641D02*
X5672445Y-11404165D01*
X5672445Y-11404165D02*
X5681969Y-11423213D01*
X5681969Y-11423213D02*
X5681969Y-11480356D01*
X5681969Y-11480356D02*
X5672445Y-11499403D01*
X5672445Y-11499403D02*
X5662921Y-11508927D01*
X5662921Y-11508927D02*
X5643874Y-11518451D01*
X5643874Y-11518451D02*
X5615302Y-11518451D01*
X5796255Y-11518451D02*
X5777207Y-11508927D01*
X5777207Y-11508927D02*
X5767683Y-11489879D01*
X5767683Y-11489879D02*
X5767683Y-11318451D01*
X5948636Y-11508927D02*
X5929588Y-11518451D01*
X5929588Y-11518451D02*
X5891493Y-11518451D01*
X5891493Y-11518451D02*
X5872445Y-11508927D01*
X5872445Y-11508927D02*
X5862921Y-11489879D01*
X5862921Y-11489879D02*
X5862921Y-11413689D01*
X5862921Y-11413689D02*
X5872445Y-11394641D01*
X5872445Y-11394641D02*
X5891493Y-11385117D01*
X5891493Y-11385117D02*
X5929588Y-11385117D01*
X5929588Y-11385117D02*
X5948636Y-11394641D01*
X5948636Y-11394641D02*
X5958159Y-11413689D01*
X5958159Y-11413689D02*
X5958159Y-11432737D01*
X5958159Y-11432737D02*
X5862921Y-11451784D01*
X6034350Y-11508927D02*
X6053398Y-11518451D01*
X6053398Y-11518451D02*
X6091493Y-11518451D01*
X6091493Y-11518451D02*
X6110540Y-11508927D01*
X6110540Y-11508927D02*
X6120064Y-11489879D01*
X6120064Y-11489879D02*
X6120064Y-11480356D01*
X6120064Y-11480356D02*
X6110540Y-11461308D01*
X6110540Y-11461308D02*
X6091493Y-11451784D01*
X6091493Y-11451784D02*
X6062921Y-11451784D01*
X6062921Y-11451784D02*
X6043874Y-11442260D01*
X6043874Y-11442260D02*
X6034350Y-11423213D01*
X6034350Y-11423213D02*
X6034350Y-11413689D01*
X6034350Y-11413689D02*
X6043874Y-11394641D01*
X6043874Y-11394641D02*
X6062921Y-11385117D01*
X6062921Y-11385117D02*
X6091493Y-11385117D01*
X6091493Y-11385117D02*
X6110540Y-11394641D01*
X6186731Y-11594641D02*
X6196255Y-11585117D01*
X6196255Y-11585117D02*
X6215302Y-11556546D01*
X6215302Y-11556546D02*
X6224826Y-11537498D01*
X6224826Y-11537498D02*
X6234350Y-11508927D01*
X6234350Y-11508927D02*
X6243874Y-11461308D01*
X6243874Y-11461308D02*
X6243874Y-11423213D01*
X6243874Y-11423213D02*
X6234350Y-11375594D01*
X6234350Y-11375594D02*
X6224826Y-11347022D01*
X6224826Y-11347022D02*
X6215302Y-11327975D01*
X6215302Y-11327975D02*
X6196255Y-11299403D01*
X6196255Y-11299403D02*
X6186731Y-11289879D01*
X6548636Y-11594641D02*
X6539112Y-11585117D01*
X6539112Y-11585117D02*
X6520064Y-11556546D01*
X6520064Y-11556546D02*
X6510540Y-11537498D01*
X6510540Y-11537498D02*
X6501017Y-11508927D01*
X6501017Y-11508927D02*
X6491493Y-11461308D01*
X6491493Y-11461308D02*
X6491493Y-11423213D01*
X6491493Y-11423213D02*
X6501017Y-11375594D01*
X6501017Y-11375594D02*
X6510540Y-11347022D01*
X6510540Y-11347022D02*
X6520064Y-11327975D01*
X6520064Y-11327975D02*
X6539112Y-11299403D01*
X6539112Y-11299403D02*
X6548636Y-11289879D01*
X6624826Y-11385117D02*
X6624826Y-11518451D01*
X6624826Y-11404165D02*
X6634350Y-11394641D01*
X6634350Y-11394641D02*
X6653398Y-11385117D01*
X6653398Y-11385117D02*
X6681969Y-11385117D01*
X6681969Y-11385117D02*
X6701017Y-11394641D01*
X6701017Y-11394641D02*
X6710540Y-11413689D01*
X6710540Y-11413689D02*
X6710540Y-11518451D01*
X6834350Y-11518451D02*
X6815302Y-11508927D01*
X6815302Y-11508927D02*
X6805779Y-11499403D01*
X6805779Y-11499403D02*
X6796255Y-11480356D01*
X6796255Y-11480356D02*
X6796255Y-11423213D01*
X6796255Y-11423213D02*
X6805779Y-11404165D01*
X6805779Y-11404165D02*
X6815302Y-11394641D01*
X6815302Y-11394641D02*
X6834350Y-11385117D01*
X6834350Y-11385117D02*
X6862921Y-11385117D01*
X6862921Y-11385117D02*
X6881969Y-11394641D01*
X6881969Y-11394641D02*
X6891493Y-11404165D01*
X6891493Y-11404165D02*
X6901017Y-11423213D01*
X6901017Y-11423213D02*
X6901017Y-11480356D01*
X6901017Y-11480356D02*
X6891493Y-11499403D01*
X6891493Y-11499403D02*
X6881969Y-11508927D01*
X6881969Y-11508927D02*
X6862921Y-11518451D01*
X6862921Y-11518451D02*
X6834350Y-11518451D01*
X6958160Y-11385117D02*
X7034350Y-11385117D01*
X6986731Y-11318451D02*
X6986731Y-11489879D01*
X6986731Y-11489879D02*
X6996255Y-11508927D01*
X6996255Y-11508927D02*
X7015302Y-11518451D01*
X7015302Y-11518451D02*
X7034350Y-11518451D01*
X7253398Y-11385117D02*
X7253398Y-11585117D01*
X7253398Y-11394641D02*
X7272445Y-11385117D01*
X7272445Y-11385117D02*
X7310541Y-11385117D01*
X7310541Y-11385117D02*
X7329588Y-11394641D01*
X7329588Y-11394641D02*
X7339112Y-11404165D01*
X7339112Y-11404165D02*
X7348636Y-11423213D01*
X7348636Y-11423213D02*
X7348636Y-11480356D01*
X7348636Y-11480356D02*
X7339112Y-11499403D01*
X7339112Y-11499403D02*
X7329588Y-11508927D01*
X7329588Y-11508927D02*
X7310541Y-11518451D01*
X7310541Y-11518451D02*
X7272445Y-11518451D01*
X7272445Y-11518451D02*
X7253398Y-11508927D01*
X7462921Y-11518451D02*
X7443874Y-11508927D01*
X7443874Y-11508927D02*
X7434350Y-11489879D01*
X7434350Y-11489879D02*
X7434350Y-11318451D01*
X7624826Y-11518451D02*
X7624826Y-11413689D01*
X7624826Y-11413689D02*
X7615302Y-11394641D01*
X7615302Y-11394641D02*
X7596255Y-11385117D01*
X7596255Y-11385117D02*
X7558160Y-11385117D01*
X7558160Y-11385117D02*
X7539112Y-11394641D01*
X7624826Y-11508927D02*
X7605779Y-11518451D01*
X7605779Y-11518451D02*
X7558160Y-11518451D01*
X7558160Y-11518451D02*
X7539112Y-11508927D01*
X7539112Y-11508927D02*
X7529588Y-11489879D01*
X7529588Y-11489879D02*
X7529588Y-11470832D01*
X7529588Y-11470832D02*
X7539112Y-11451784D01*
X7539112Y-11451784D02*
X7558160Y-11442260D01*
X7558160Y-11442260D02*
X7605779Y-11442260D01*
X7605779Y-11442260D02*
X7624826Y-11432737D01*
X7691493Y-11385117D02*
X7767683Y-11385117D01*
X7720064Y-11318451D02*
X7720064Y-11489879D01*
X7720064Y-11489879D02*
X7729588Y-11508927D01*
X7729588Y-11508927D02*
X7748636Y-11518451D01*
X7748636Y-11518451D02*
X7767683Y-11518451D01*
X7910541Y-11508927D02*
X7891493Y-11518451D01*
X7891493Y-11518451D02*
X7853398Y-11518451D01*
X7853398Y-11518451D02*
X7834350Y-11508927D01*
X7834350Y-11508927D02*
X7824826Y-11489879D01*
X7824826Y-11489879D02*
X7824826Y-11413689D01*
X7824826Y-11413689D02*
X7834350Y-11394641D01*
X7834350Y-11394641D02*
X7853398Y-11385117D01*
X7853398Y-11385117D02*
X7891493Y-11385117D01*
X7891493Y-11385117D02*
X7910541Y-11394641D01*
X7910541Y-11394641D02*
X7920064Y-11413689D01*
X7920064Y-11413689D02*
X7920064Y-11432737D01*
X7920064Y-11432737D02*
X7824826Y-11451784D01*
X8091493Y-11518451D02*
X8091493Y-11318451D01*
X8091493Y-11508927D02*
X8072445Y-11518451D01*
X8072445Y-11518451D02*
X8034350Y-11518451D01*
X8034350Y-11518451D02*
X8015302Y-11508927D01*
X8015302Y-11508927D02*
X8005779Y-11499403D01*
X8005779Y-11499403D02*
X7996255Y-11480356D01*
X7996255Y-11480356D02*
X7996255Y-11423213D01*
X7996255Y-11423213D02*
X8005779Y-11404165D01*
X8005779Y-11404165D02*
X8015302Y-11394641D01*
X8015302Y-11394641D02*
X8034350Y-11385117D01*
X8034350Y-11385117D02*
X8072445Y-11385117D01*
X8072445Y-11385117D02*
X8091493Y-11394641D01*
X8167683Y-11594641D02*
X8177207Y-11585117D01*
X8177207Y-11585117D02*
X8196255Y-11556546D01*
X8196255Y-11556546D02*
X8205779Y-11537498D01*
X8205779Y-11537498D02*
X8215302Y-11508927D01*
X8215302Y-11508927D02*
X8224826Y-11461308D01*
X8224826Y-11461308D02*
X8224826Y-11423213D01*
X8224826Y-11423213D02*
X8215302Y-11375594D01*
X8215302Y-11375594D02*
X8205779Y-11347022D01*
X8205779Y-11347022D02*
X8196255Y-11327975D01*
X8196255Y-11327975D02*
X8177207Y-11299403D01*
X8177207Y-11299403D02*
X8167683Y-11289879D01*
X1191903Y-11817678D02*
X1191903Y-11676256D01*
X1050480Y-11676256D01*
X1050480Y-11817678D01*
X1191903Y-11817678D01*
X1462921Y-11638451D02*
X1586730Y-11638451D01*
X1586730Y-11638451D02*
X1520064Y-11714641D01*
X1520064Y-11714641D02*
X1548635Y-11714641D01*
X1548635Y-11714641D02*
X1567683Y-11724165D01*
X1567683Y-11724165D02*
X1577207Y-11733689D01*
X1577207Y-11733689D02*
X1586730Y-11752737D01*
X1586730Y-11752737D02*
X1586730Y-11800356D01*
X1586730Y-11800356D02*
X1577207Y-11819403D01*
X1577207Y-11819403D02*
X1567683Y-11828927D01*
X1567683Y-11828927D02*
X1548635Y-11838451D01*
X1548635Y-11838451D02*
X1491492Y-11838451D01*
X1491492Y-11838451D02*
X1472445Y-11828927D01*
X1472445Y-11828927D02*
X1462921Y-11819403D01*
X1672445Y-11819403D02*
X1681969Y-11828927D01*
X1681969Y-11828927D02*
X1672445Y-11838451D01*
X1672445Y-11838451D02*
X1662921Y-11828927D01*
X1662921Y-11828927D02*
X1672445Y-11819403D01*
X1672445Y-11819403D02*
X1672445Y-11838451D01*
X1853397Y-11705117D02*
X1853397Y-11838451D01*
X1805778Y-11628927D02*
X1758159Y-11771784D01*
X1758159Y-11771784D02*
X1881969Y-11771784D01*
X1948635Y-11657498D02*
X1958159Y-11647975D01*
X1958159Y-11647975D02*
X1977207Y-11638451D01*
X1977207Y-11638451D02*
X2024826Y-11638451D01*
X2024826Y-11638451D02*
X2043873Y-11647975D01*
X2043873Y-11647975D02*
X2053397Y-11657498D01*
X2053397Y-11657498D02*
X2062921Y-11676546D01*
X2062921Y-11676546D02*
X2062921Y-11695594D01*
X2062921Y-11695594D02*
X2053397Y-11724165D01*
X2053397Y-11724165D02*
X1939111Y-11838451D01*
X1939111Y-11838451D02*
X2062921Y-11838451D01*
X2158159Y-11838451D02*
X2196254Y-11838451D01*
X2196254Y-11838451D02*
X2215302Y-11828927D01*
X2215302Y-11828927D02*
X2224826Y-11819403D01*
X2224826Y-11819403D02*
X2243873Y-11790832D01*
X2243873Y-11790832D02*
X2253397Y-11752737D01*
X2253397Y-11752737D02*
X2253397Y-11676546D01*
X2253397Y-11676546D02*
X2243873Y-11657498D01*
X2243873Y-11657498D02*
X2234350Y-11647975D01*
X2234350Y-11647975D02*
X2215302Y-11638451D01*
X2215302Y-11638451D02*
X2177207Y-11638451D01*
X2177207Y-11638451D02*
X2158159Y-11647975D01*
X2158159Y-11647975D02*
X2148635Y-11657498D01*
X2148635Y-11657498D02*
X2139112Y-11676546D01*
X2139112Y-11676546D02*
X2139112Y-11724165D01*
X2139112Y-11724165D02*
X2148635Y-11743213D01*
X2148635Y-11743213D02*
X2158159Y-11752737D01*
X2158159Y-11752737D02*
X2177207Y-11762260D01*
X2177207Y-11762260D02*
X2215302Y-11762260D01*
X2215302Y-11762260D02*
X2234350Y-11752737D01*
X2234350Y-11752737D02*
X2243873Y-11743213D01*
X2243873Y-11743213D02*
X2253397Y-11724165D01*
X2339112Y-11838451D02*
X2339112Y-11705117D01*
X2339112Y-11724165D02*
X2348635Y-11714641D01*
X2348635Y-11714641D02*
X2367683Y-11705117D01*
X2367683Y-11705117D02*
X2396254Y-11705117D01*
X2396254Y-11705117D02*
X2415302Y-11714641D01*
X2415302Y-11714641D02*
X2424826Y-11733689D01*
X2424826Y-11733689D02*
X2424826Y-11838451D01*
X2424826Y-11733689D02*
X2434350Y-11714641D01*
X2434350Y-11714641D02*
X2453397Y-11705117D01*
X2453397Y-11705117D02*
X2481969Y-11705117D01*
X2481969Y-11705117D02*
X2501016Y-11714641D01*
X2501016Y-11714641D02*
X2510540Y-11733689D01*
X2510540Y-11733689D02*
X2510540Y-11838451D01*
X2605778Y-11838451D02*
X2605778Y-11705117D01*
X2605778Y-11724165D02*
X2615302Y-11714641D01*
X2615302Y-11714641D02*
X2634350Y-11705117D01*
X2634350Y-11705117D02*
X2662921Y-11705117D01*
X2662921Y-11705117D02*
X2681969Y-11714641D01*
X2681969Y-11714641D02*
X2691493Y-11733689D01*
X2691493Y-11733689D02*
X2691493Y-11838451D01*
X2691493Y-11733689D02*
X2701016Y-11714641D01*
X2701016Y-11714641D02*
X2720064Y-11705117D01*
X2720064Y-11705117D02*
X2748635Y-11705117D01*
X2748635Y-11705117D02*
X2767683Y-11714641D01*
X2767683Y-11714641D02*
X2777207Y-11733689D01*
X2777207Y-11733689D02*
X2777207Y-11838451D01*
X3167683Y-11628927D02*
X2996254Y-11886070D01*
X3424826Y-11638451D02*
X3443874Y-11638451D01*
X3443874Y-11638451D02*
X3462921Y-11647975D01*
X3462921Y-11647975D02*
X3472445Y-11657498D01*
X3472445Y-11657498D02*
X3481969Y-11676546D01*
X3481969Y-11676546D02*
X3491493Y-11714641D01*
X3491493Y-11714641D02*
X3491493Y-11762260D01*
X3491493Y-11762260D02*
X3481969Y-11800356D01*
X3481969Y-11800356D02*
X3472445Y-11819403D01*
X3472445Y-11819403D02*
X3462921Y-11828927D01*
X3462921Y-11828927D02*
X3443874Y-11838451D01*
X3443874Y-11838451D02*
X3424826Y-11838451D01*
X3424826Y-11838451D02*
X3405778Y-11828927D01*
X3405778Y-11828927D02*
X3396254Y-11819403D01*
X3396254Y-11819403D02*
X3386731Y-11800356D01*
X3386731Y-11800356D02*
X3377207Y-11762260D01*
X3377207Y-11762260D02*
X3377207Y-11714641D01*
X3377207Y-11714641D02*
X3386731Y-11676546D01*
X3386731Y-11676546D02*
X3396254Y-11657498D01*
X3396254Y-11657498D02*
X3405778Y-11647975D01*
X3405778Y-11647975D02*
X3424826Y-11638451D01*
X3577207Y-11819403D02*
X3586731Y-11828927D01*
X3586731Y-11828927D02*
X3577207Y-11838451D01*
X3577207Y-11838451D02*
X3567683Y-11828927D01*
X3567683Y-11828927D02*
X3577207Y-11819403D01*
X3577207Y-11819403D02*
X3577207Y-11838451D01*
X3777207Y-11838451D02*
X3662921Y-11838451D01*
X3720064Y-11838451D02*
X3720064Y-11638451D01*
X3720064Y-11638451D02*
X3701016Y-11667022D01*
X3701016Y-11667022D02*
X3681969Y-11686070D01*
X3681969Y-11686070D02*
X3662921Y-11695594D01*
X3843874Y-11638451D02*
X3967683Y-11638451D01*
X3967683Y-11638451D02*
X3901016Y-11714641D01*
X3901016Y-11714641D02*
X3929588Y-11714641D01*
X3929588Y-11714641D02*
X3948635Y-11724165D01*
X3948635Y-11724165D02*
X3958159Y-11733689D01*
X3958159Y-11733689D02*
X3967683Y-11752737D01*
X3967683Y-11752737D02*
X3967683Y-11800356D01*
X3967683Y-11800356D02*
X3958159Y-11819403D01*
X3958159Y-11819403D02*
X3948635Y-11828927D01*
X3948635Y-11828927D02*
X3929588Y-11838451D01*
X3929588Y-11838451D02*
X3872445Y-11838451D01*
X3872445Y-11838451D02*
X3853397Y-11828927D01*
X3853397Y-11828927D02*
X3843874Y-11819403D01*
X4148635Y-11638451D02*
X4053397Y-11638451D01*
X4053397Y-11638451D02*
X4043874Y-11733689D01*
X4043874Y-11733689D02*
X4053397Y-11724165D01*
X4053397Y-11724165D02*
X4072445Y-11714641D01*
X4072445Y-11714641D02*
X4120064Y-11714641D01*
X4120064Y-11714641D02*
X4139112Y-11724165D01*
X4139112Y-11724165D02*
X4148635Y-11733689D01*
X4148635Y-11733689D02*
X4158159Y-11752737D01*
X4158159Y-11752737D02*
X4158159Y-11800356D01*
X4158159Y-11800356D02*
X4148635Y-11819403D01*
X4148635Y-11819403D02*
X4139112Y-11828927D01*
X4139112Y-11828927D02*
X4120064Y-11838451D01*
X4120064Y-11838451D02*
X4072445Y-11838451D01*
X4072445Y-11838451D02*
X4053397Y-11828927D01*
X4053397Y-11828927D02*
X4043874Y-11819403D01*
X4281969Y-11638451D02*
X4301017Y-11638451D01*
X4301017Y-11638451D02*
X4320064Y-11647975D01*
X4320064Y-11647975D02*
X4329588Y-11657498D01*
X4329588Y-11657498D02*
X4339112Y-11676546D01*
X4339112Y-11676546D02*
X4348636Y-11714641D01*
X4348636Y-11714641D02*
X4348636Y-11762260D01*
X4348636Y-11762260D02*
X4339112Y-11800356D01*
X4339112Y-11800356D02*
X4329588Y-11819403D01*
X4329588Y-11819403D02*
X4320064Y-11828927D01*
X4320064Y-11828927D02*
X4301017Y-11838451D01*
X4301017Y-11838451D02*
X4281969Y-11838451D01*
X4281969Y-11838451D02*
X4262921Y-11828927D01*
X4262921Y-11828927D02*
X4253397Y-11819403D01*
X4253397Y-11819403D02*
X4243874Y-11800356D01*
X4243874Y-11800356D02*
X4234350Y-11762260D01*
X4234350Y-11762260D02*
X4234350Y-11714641D01*
X4234350Y-11714641D02*
X4243874Y-11676546D01*
X4243874Y-11676546D02*
X4253397Y-11657498D01*
X4253397Y-11657498D02*
X4262921Y-11647975D01*
X4262921Y-11647975D02*
X4281969Y-11638451D01*
X4424826Y-11638451D02*
X4424826Y-11676546D01*
X4501017Y-11638451D02*
X4501017Y-11676546D01*
X4796255Y-11914641D02*
X4786731Y-11905117D01*
X4786731Y-11905117D02*
X4767683Y-11876546D01*
X4767683Y-11876546D02*
X4758159Y-11857498D01*
X4758159Y-11857498D02*
X4748636Y-11828927D01*
X4748636Y-11828927D02*
X4739112Y-11781308D01*
X4739112Y-11781308D02*
X4739112Y-11743213D01*
X4739112Y-11743213D02*
X4748636Y-11695594D01*
X4748636Y-11695594D02*
X4758159Y-11667022D01*
X4758159Y-11667022D02*
X4767683Y-11647975D01*
X4767683Y-11647975D02*
X4786731Y-11619403D01*
X4786731Y-11619403D02*
X4796255Y-11609879D01*
X4977207Y-11838451D02*
X4862921Y-11838451D01*
X4920064Y-11838451D02*
X4920064Y-11638451D01*
X4920064Y-11638451D02*
X4901017Y-11667022D01*
X4901017Y-11667022D02*
X4881969Y-11686070D01*
X4881969Y-11686070D02*
X4862921Y-11695594D01*
X5043874Y-11638451D02*
X5177207Y-11638451D01*
X5177207Y-11638451D02*
X5091493Y-11838451D01*
X5405779Y-11838451D02*
X5405779Y-11638451D01*
X5491493Y-11838451D02*
X5491493Y-11733689D01*
X5491493Y-11733689D02*
X5481969Y-11714641D01*
X5481969Y-11714641D02*
X5462921Y-11705117D01*
X5462921Y-11705117D02*
X5434350Y-11705117D01*
X5434350Y-11705117D02*
X5415302Y-11714641D01*
X5415302Y-11714641D02*
X5405779Y-11724165D01*
X5615302Y-11838451D02*
X5596255Y-11828927D01*
X5596255Y-11828927D02*
X5586731Y-11819403D01*
X5586731Y-11819403D02*
X5577207Y-11800356D01*
X5577207Y-11800356D02*
X5577207Y-11743213D01*
X5577207Y-11743213D02*
X5586731Y-11724165D01*
X5586731Y-11724165D02*
X5596255Y-11714641D01*
X5596255Y-11714641D02*
X5615302Y-11705117D01*
X5615302Y-11705117D02*
X5643874Y-11705117D01*
X5643874Y-11705117D02*
X5662921Y-11714641D01*
X5662921Y-11714641D02*
X5672445Y-11724165D01*
X5672445Y-11724165D02*
X5681969Y-11743213D01*
X5681969Y-11743213D02*
X5681969Y-11800356D01*
X5681969Y-11800356D02*
X5672445Y-11819403D01*
X5672445Y-11819403D02*
X5662921Y-11828927D01*
X5662921Y-11828927D02*
X5643874Y-11838451D01*
X5643874Y-11838451D02*
X5615302Y-11838451D01*
X5796255Y-11838451D02*
X5777207Y-11828927D01*
X5777207Y-11828927D02*
X5767683Y-11809879D01*
X5767683Y-11809879D02*
X5767683Y-11638451D01*
X5948636Y-11828927D02*
X5929588Y-11838451D01*
X5929588Y-11838451D02*
X5891493Y-11838451D01*
X5891493Y-11838451D02*
X5872445Y-11828927D01*
X5872445Y-11828927D02*
X5862921Y-11809879D01*
X5862921Y-11809879D02*
X5862921Y-11733689D01*
X5862921Y-11733689D02*
X5872445Y-11714641D01*
X5872445Y-11714641D02*
X5891493Y-11705117D01*
X5891493Y-11705117D02*
X5929588Y-11705117D01*
X5929588Y-11705117D02*
X5948636Y-11714641D01*
X5948636Y-11714641D02*
X5958159Y-11733689D01*
X5958159Y-11733689D02*
X5958159Y-11752737D01*
X5958159Y-11752737D02*
X5862921Y-11771784D01*
X6034350Y-11828927D02*
X6053398Y-11838451D01*
X6053398Y-11838451D02*
X6091493Y-11838451D01*
X6091493Y-11838451D02*
X6110540Y-11828927D01*
X6110540Y-11828927D02*
X6120064Y-11809879D01*
X6120064Y-11809879D02*
X6120064Y-11800356D01*
X6120064Y-11800356D02*
X6110540Y-11781308D01*
X6110540Y-11781308D02*
X6091493Y-11771784D01*
X6091493Y-11771784D02*
X6062921Y-11771784D01*
X6062921Y-11771784D02*
X6043874Y-11762260D01*
X6043874Y-11762260D02*
X6034350Y-11743213D01*
X6034350Y-11743213D02*
X6034350Y-11733689D01*
X6034350Y-11733689D02*
X6043874Y-11714641D01*
X6043874Y-11714641D02*
X6062921Y-11705117D01*
X6062921Y-11705117D02*
X6091493Y-11705117D01*
X6091493Y-11705117D02*
X6110540Y-11714641D01*
X6186731Y-11914641D02*
X6196255Y-11905117D01*
X6196255Y-11905117D02*
X6215302Y-11876546D01*
X6215302Y-11876546D02*
X6224826Y-11857498D01*
X6224826Y-11857498D02*
X6234350Y-11828927D01*
X6234350Y-11828927D02*
X6243874Y-11781308D01*
X6243874Y-11781308D02*
X6243874Y-11743213D01*
X6243874Y-11743213D02*
X6234350Y-11695594D01*
X6234350Y-11695594D02*
X6224826Y-11667022D01*
X6224826Y-11667022D02*
X6215302Y-11647975D01*
X6215302Y-11647975D02*
X6196255Y-11619403D01*
X6196255Y-11619403D02*
X6186731Y-11609879D01*
X6548636Y-11914641D02*
X6539112Y-11905117D01*
X6539112Y-11905117D02*
X6520064Y-11876546D01*
X6520064Y-11876546D02*
X6510540Y-11857498D01*
X6510540Y-11857498D02*
X6501017Y-11828927D01*
X6501017Y-11828927D02*
X6491493Y-11781308D01*
X6491493Y-11781308D02*
X6491493Y-11743213D01*
X6491493Y-11743213D02*
X6501017Y-11695594D01*
X6501017Y-11695594D02*
X6510540Y-11667022D01*
X6510540Y-11667022D02*
X6520064Y-11647975D01*
X6520064Y-11647975D02*
X6539112Y-11619403D01*
X6539112Y-11619403D02*
X6548636Y-11609879D01*
X6624826Y-11705117D02*
X6624826Y-11838451D01*
X6624826Y-11724165D02*
X6634350Y-11714641D01*
X6634350Y-11714641D02*
X6653398Y-11705117D01*
X6653398Y-11705117D02*
X6681969Y-11705117D01*
X6681969Y-11705117D02*
X6701017Y-11714641D01*
X6701017Y-11714641D02*
X6710540Y-11733689D01*
X6710540Y-11733689D02*
X6710540Y-11838451D01*
X6834350Y-11838451D02*
X6815302Y-11828927D01*
X6815302Y-11828927D02*
X6805779Y-11819403D01*
X6805779Y-11819403D02*
X6796255Y-11800356D01*
X6796255Y-11800356D02*
X6796255Y-11743213D01*
X6796255Y-11743213D02*
X6805779Y-11724165D01*
X6805779Y-11724165D02*
X6815302Y-11714641D01*
X6815302Y-11714641D02*
X6834350Y-11705117D01*
X6834350Y-11705117D02*
X6862921Y-11705117D01*
X6862921Y-11705117D02*
X6881969Y-11714641D01*
X6881969Y-11714641D02*
X6891493Y-11724165D01*
X6891493Y-11724165D02*
X6901017Y-11743213D01*
X6901017Y-11743213D02*
X6901017Y-11800356D01*
X6901017Y-11800356D02*
X6891493Y-11819403D01*
X6891493Y-11819403D02*
X6881969Y-11828927D01*
X6881969Y-11828927D02*
X6862921Y-11838451D01*
X6862921Y-11838451D02*
X6834350Y-11838451D01*
X6958160Y-11705117D02*
X7034350Y-11705117D01*
X6986731Y-11638451D02*
X6986731Y-11809879D01*
X6986731Y-11809879D02*
X6996255Y-11828927D01*
X6996255Y-11828927D02*
X7015302Y-11838451D01*
X7015302Y-11838451D02*
X7034350Y-11838451D01*
X7253398Y-11705117D02*
X7253398Y-11905117D01*
X7253398Y-11714641D02*
X7272445Y-11705117D01*
X7272445Y-11705117D02*
X7310541Y-11705117D01*
X7310541Y-11705117D02*
X7329588Y-11714641D01*
X7329588Y-11714641D02*
X7339112Y-11724165D01*
X7339112Y-11724165D02*
X7348636Y-11743213D01*
X7348636Y-11743213D02*
X7348636Y-11800356D01*
X7348636Y-11800356D02*
X7339112Y-11819403D01*
X7339112Y-11819403D02*
X7329588Y-11828927D01*
X7329588Y-11828927D02*
X7310541Y-11838451D01*
X7310541Y-11838451D02*
X7272445Y-11838451D01*
X7272445Y-11838451D02*
X7253398Y-11828927D01*
X7462921Y-11838451D02*
X7443874Y-11828927D01*
X7443874Y-11828927D02*
X7434350Y-11809879D01*
X7434350Y-11809879D02*
X7434350Y-11638451D01*
X7624826Y-11838451D02*
X7624826Y-11733689D01*
X7624826Y-11733689D02*
X7615302Y-11714641D01*
X7615302Y-11714641D02*
X7596255Y-11705117D01*
X7596255Y-11705117D02*
X7558160Y-11705117D01*
X7558160Y-11705117D02*
X7539112Y-11714641D01*
X7624826Y-11828927D02*
X7605779Y-11838451D01*
X7605779Y-11838451D02*
X7558160Y-11838451D01*
X7558160Y-11838451D02*
X7539112Y-11828927D01*
X7539112Y-11828927D02*
X7529588Y-11809879D01*
X7529588Y-11809879D02*
X7529588Y-11790832D01*
X7529588Y-11790832D02*
X7539112Y-11771784D01*
X7539112Y-11771784D02*
X7558160Y-11762260D01*
X7558160Y-11762260D02*
X7605779Y-11762260D01*
X7605779Y-11762260D02*
X7624826Y-11752737D01*
X7691493Y-11705117D02*
X7767683Y-11705117D01*
X7720064Y-11638451D02*
X7720064Y-11809879D01*
X7720064Y-11809879D02*
X7729588Y-11828927D01*
X7729588Y-11828927D02*
X7748636Y-11838451D01*
X7748636Y-11838451D02*
X7767683Y-11838451D01*
X7910541Y-11828927D02*
X7891493Y-11838451D01*
X7891493Y-11838451D02*
X7853398Y-11838451D01*
X7853398Y-11838451D02*
X7834350Y-11828927D01*
X7834350Y-11828927D02*
X7824826Y-11809879D01*
X7824826Y-11809879D02*
X7824826Y-11733689D01*
X7824826Y-11733689D02*
X7834350Y-11714641D01*
X7834350Y-11714641D02*
X7853398Y-11705117D01*
X7853398Y-11705117D02*
X7891493Y-11705117D01*
X7891493Y-11705117D02*
X7910541Y-11714641D01*
X7910541Y-11714641D02*
X7920064Y-11733689D01*
X7920064Y-11733689D02*
X7920064Y-11752737D01*
X7920064Y-11752737D02*
X7824826Y-11771784D01*
X8091493Y-11838451D02*
X8091493Y-11638451D01*
X8091493Y-11828927D02*
X8072445Y-11838451D01*
X8072445Y-11838451D02*
X8034350Y-11838451D01*
X8034350Y-11838451D02*
X8015302Y-11828927D01*
X8015302Y-11828927D02*
X8005779Y-11819403D01*
X8005779Y-11819403D02*
X7996255Y-11800356D01*
X7996255Y-11800356D02*
X7996255Y-11743213D01*
X7996255Y-11743213D02*
X8005779Y-11724165D01*
X8005779Y-11724165D02*
X8015302Y-11714641D01*
X8015302Y-11714641D02*
X8034350Y-11705117D01*
X8034350Y-11705117D02*
X8072445Y-11705117D01*
X8072445Y-11705117D02*
X8091493Y-11714641D01*
X8167683Y-11914641D02*
X8177207Y-11905117D01*
X8177207Y-11905117D02*
X8196255Y-11876546D01*
X8196255Y-11876546D02*
X8205779Y-11857498D01*
X8205779Y-11857498D02*
X8215302Y-11828927D01*
X8215302Y-11828927D02*
X8224826Y-11781308D01*
X8224826Y-11781308D02*
X8224826Y-11743213D01*
X8224826Y-11743213D02*
X8215302Y-11695594D01*
X8215302Y-11695594D02*
X8205779Y-11667022D01*
X8205779Y-11667022D02*
X8196255Y-11647975D01*
X8196255Y-11647975D02*
X8177207Y-11619403D01*
X8177207Y-11619403D02*
X8167683Y-11609879D01*
M02*
