M48
; DRILL file {KiCad 7.0.8} date Tue Oct 31 13:57:46 2023
; FORMAT={-:-/ absolute / metric / decimal}
; #@! TF.CreationDate,2023-10-31T13:57:46-04:00
; #@! TF.GenerationSoftware,Kicad,Pcbnew,7.0.8
; #@! TF.FileFunction,NonPlated,1,2,NPTH
FMAT,2
METRIC
; #@! TA.AperFunction,NonPlated,NPTH,ComponentDrill
T1C1.200
; #@! TA.AperFunction,NonPlated,NPTH,ComponentDrill
T2C1.702
; #@! TA.AperFunction,NonPlated,NPTH,ComponentDrill
T3C3.000
; #@! TA.AperFunction,NonPlated,NPTH,ComponentDrill
T4C3.429
%
G90
G05
T1
X75.452Y-14.658
T2
X17.127Y-41.305
X17.127Y-58.305
X17.127Y-75.305
X28.127Y-41.305
X28.127Y-58.305
X28.127Y-75.305
X35.127Y-63.297
X35.127Y-29.305
X35.127Y-46.279
X46.127Y-63.297
X46.127Y-29.305
X46.127Y-46.279
X53.127Y-56.439
X53.127Y-22.305
X53.127Y-39.421
X64.127Y-56.439
X64.127Y-22.305
X64.127Y-39.421
X71.127Y-27.805
X71.127Y-61.773
X71.127Y-44.755
X81.024Y-80.831
X82.127Y-27.805
X82.127Y-61.773
X82.127Y-44.755
X89.101Y-64.313
X89.107Y-47.295
X89.127Y-30.305
X91.649Y-83.679
X100.101Y-64.313
X100.107Y-47.295
X100.127Y-30.305
X100.133Y-87.255
X109.66Y-92.755
T3
X17.627Y-45.055
X17.627Y-62.055
X17.627Y-79.055
X22.627Y-47.255
X22.627Y-64.255
X22.627Y-81.255
X27.627Y-45.055
X27.627Y-62.055
X27.627Y-79.055
X35.627Y-67.047
X35.627Y-33.055
X35.627Y-50.029
X40.627Y-69.247
X40.627Y-35.255
X40.627Y-52.229
X45.627Y-67.047
X45.627Y-33.055
X45.627Y-50.029
X53.627Y-60.189
X53.627Y-26.055
X53.627Y-43.171
X58.627Y-62.389
X58.627Y-28.255
X58.627Y-45.371
X63.627Y-60.189
X63.627Y-26.055
X63.627Y-43.171
X71.627Y-31.555
X71.627Y-65.523
X71.627Y-48.505
X76.627Y-33.755
X76.627Y-67.723
X76.627Y-50.705
X80.536Y-84.583
X81.627Y-31.555
X81.627Y-65.523
X81.627Y-48.505
X84.797Y-88.002
X89.601Y-68.063
X89.607Y-51.045
X89.627Y-34.055
X90.196Y-87.171
X94.601Y-70.263
X94.607Y-53.245
X94.627Y-36.255
X98.691Y-90.753
X99.601Y-68.063
X99.607Y-51.045
X99.627Y-34.055
X101.922Y-95.158
X107.352Y-95.753
T4
X22.627Y-41.305
X22.627Y-58.305
X22.627Y-75.305
X40.627Y-63.297
X40.627Y-29.305
X40.627Y-46.279
X58.627Y-56.439
X58.627Y-22.305
X58.627Y-39.421
X76.627Y-27.805
X76.627Y-61.773
X76.627Y-44.755
X86.337Y-82.255
X94.601Y-64.313
X94.607Y-47.295
X94.627Y-30.305
X104.897Y-90.005
T0
M30
